<svg width="574" height="324" viewBox="0 0 574 324" fill="none" xmlns="http://www.w3.org/2000/svg">
<path d="M71.9262 88.793C49.6322 105.975 28.4032 124.435 8.23921 144.173L0.35821 149.924L8.23921 140.552C26.4152 122.234 45.4432 105.052 65.3232 89.006L72.3522 83.681C77.7482 79.563 83.2152 75.729 88.7532 72.179C96.2792 67.209 103.876 62.665 111.544 58.547C119.496 54.287 127.59 50.524 135.826 47.258C140.37 45.696 145.766 44.205 152.014 42.785C158.404 41.365 164.439 40.3 170.119 39.59L174.379 32.348L177.574 38.312C168.486 52.654 160.037 69.41 152.227 88.58C148.819 97.384 145.695 106.259 142.855 115.205C141.293 119.749 139.944 124.151 138.808 128.411C138.098 132.671 139.234 135.795 142.216 137.783C143.21 138.919 144.417 139.7 145.837 140.126C143.849 140.552 141.861 140.268 139.873 139.274C137.885 137.854 136.607 135.937 136.039 133.523C135.613 131.109 135.684 128.695 136.252 126.281C136.962 123.299 137.743 120.388 138.595 117.548C139.163 115.844 139.66 114.14 140.086 112.436C142.642 103.49 145.482 94.757 148.606 86.237L149.671 83.255C154.357 70.475 159.895 58.121 166.285 46.193C160.747 46.903 154.925 47.897 148.819 49.175C142.855 50.453 137.53 52.015 132.844 53.861C116.94 60.535 101.817 68.558 87.4752 77.93L79.1682 83.681L71.9262 88.793ZM256.467 95.822L257.319 96.248C258.171 96.674 259.165 97.1 260.301 97.526C260.301 97.242 260.301 97.029 260.301 96.887C260.301 96.745 260.372 96.603 260.514 96.461C260.798 95.325 260.798 94.402 260.514 93.692L260.301 93.479C260.301 93.337 260.23 93.266 260.088 93.266C260.088 93.124 260.017 93.053 259.875 93.053C259.733 92.911 259.52 92.84 259.236 92.84C257.958 92.556 256.609 92.485 255.189 92.627C253.911 92.627 252.917 92.84 252.207 93.266C252.065 93.408 251.923 93.479 251.781 93.479V93.692H251.568L252.207 93.905C252.633 94.047 253.201 94.331 253.911 94.757C254.621 95.041 255.26 95.325 255.828 95.609C256.112 95.609 256.325 95.68 256.467 95.822ZM233.463 100.295C218.127 102.141 202.791 103.348 187.455 103.916C187.313 104.058 187.313 104.484 187.455 105.194C187.455 105.904 187.597 106.472 187.881 106.898V107.324C188.307 107.75 188.804 108.176 189.372 108.602C189.94 109.028 190.579 109.312 191.289 109.454C191.573 109.738 191.928 109.951 192.354 110.093C192.78 110.093 193.206 110.022 193.632 109.88C193.632 110.448 193.206 110.945 192.354 111.371C191.502 111.797 190.579 111.939 189.585 111.797C187.313 111.229 185.68 109.809 184.686 107.537C184.118 105.265 184.047 102.993 184.473 100.721V100.082C184.615 99.798 184.686 99.372 184.686 98.804C184.828 97.668 185.183 96.177 185.751 94.331C186.319 92.343 187.313 90.213 188.733 87.941L192.567 94.331C192.567 94.473 192.496 94.544 192.354 94.544C192.354 94.686 192.283 94.757 192.141 94.757C192.141 95.041 191.999 95.325 191.715 95.609C191.147 96.603 190.508 97.739 189.798 99.017C189.514 99.301 189.301 99.585 189.159 99.869C207.193 99.585 220.399 98.591 228.777 96.887C232.327 96.177 235.096 95.609 237.084 95.183C238.646 93.479 240.35 92.059 242.196 90.923C243.616 90.213 244.397 90.639 244.539 92.201C244.681 93.763 244.042 95.964 242.622 98.804C240.634 100.65 239.285 102.78 238.575 105.194C238.149 106.33 238.078 107.324 238.362 108.176C238.504 108.46 238.646 108.744 238.788 109.028C238.93 109.17 239.214 109.312 239.64 109.454C240.492 109.88 241.557 110.093 242.835 110.093C244.113 110.093 245.391 109.951 246.669 109.667C249.367 108.957 251.781 107.75 253.911 106.046C255.757 104.768 257.319 103.206 258.597 101.36C257.035 100.934 255.615 100.366 254.337 99.656L250.503 97.952C249.651 97.81 248.799 97.455 247.947 96.887C247.095 96.177 246.669 95.325 246.669 94.331C246.669 93.195 247.024 92.13 247.734 91.136C248.444 90.142 249.225 89.432 250.077 89.006C252.065 88.154 253.911 87.728 255.615 87.728C256.609 87.728 257.532 87.799 258.384 87.941C259.236 87.941 260.159 88.012 261.153 88.154C262.289 88.438 263.212 89.077 263.922 90.071C264.774 90.923 265.342 91.917 265.626 93.053C266.052 95.183 265.91 97.171 265.2 99.017C270.312 99.869 275.495 100.295 280.749 100.295C292.109 100.295 303.469 98.875 314.829 96.035L319.728 95.183L317.811 98.804C312.131 100.082 305.883 101.289 299.067 102.425C292.251 103.419 285.861 103.987 279.897 104.129C274.359 104.129 268.963 103.703 263.709 102.851L263.07 103.916C261.082 107.182 258.597 109.809 255.615 111.797C252.349 113.927 248.87 115.276 245.178 115.844C243.332 116.128 241.415 116.057 239.427 115.631C238.291 115.489 237.155 115.134 236.019 114.566C235.025 113.856 234.173 112.933 233.463 111.797C232.327 109.383 231.901 107.111 232.185 104.981C232.469 103.277 232.895 101.715 233.463 100.295ZM350.831 92.84L350.618 92.627L350.831 92.84L352.109 92.414L353.813 91.562C354.381 91.42 355.02 91.349 355.73 91.349C353.6 87.089 350.547 83.184 346.571 79.634C345.293 78.356 343.944 77.149 342.524 76.013C341.814 75.445 341.104 74.806 340.394 74.096L336.986 71.54L335.708 70.688C334.998 70.12 334.217 69.481 333.365 68.771L332.939 68.345C332.371 67.919 331.874 67.351 331.448 66.641C330.596 65.363 330.099 64.085 329.957 62.807C329.957 61.245 330.454 59.967 331.448 58.973C332.584 57.837 333.649 57.127 334.643 56.843C337.767 55.565 340.82 54.784 343.802 54.5C349.908 53.932 355.801 53.648 361.481 53.648L373.835 54.5C374.403 54.642 375.042 54.784 375.752 54.926C379.16 55.636 382.781 56.772 386.615 58.334C384.059 57.766 381.716 57.411 379.586 57.269H378.095L370.001 56.843L357.008 57.482C351.186 57.624 345.435 58.263 339.755 59.399C338.335 59.683 336.986 60.109 335.708 60.677C334.572 61.245 334.146 62.097 334.43 63.233C334.572 63.801 334.856 64.298 335.282 64.724C335.708 65.15 336.205 65.576 336.773 66.002L340.181 68.771C345.151 72.179 349.624 76.084 353.6 80.486C358.002 84.604 360.629 88.083 361.481 90.923C362.049 93.053 362.404 94.757 362.546 96.035L363.185 96.674C368.723 99.514 375.823 100.65 384.485 100.082C393.147 99.372 400.744 98.236 407.276 96.674C411.11 96.106 412.175 96.603 410.471 98.165C403.939 101.289 395.774 103.135 385.976 103.703C376.178 104.129 367.658 102.78 360.416 99.656C359.564 99.23 358.854 98.662 358.286 97.952C358.144 97.81 358.002 97.597 357.86 97.313H357.647C356.653 96.887 355.73 96.39 354.878 95.822C354.736 95.964 354.594 96.035 354.452 96.035L351.896 97.313L341.246 102.212L330.809 106.898L330.383 107.111C328.821 108.105 326.833 108.744 324.419 109.028C323.141 109.028 321.863 108.673 320.585 107.963C319.307 107.253 318.384 105.975 317.816 104.129C317.816 102.709 317.958 101.573 318.242 100.721C318.668 99.727 319.094 98.946 319.52 98.378C319.662 98.378 319.733 98.307 319.733 98.165C320.585 96.745 321.579 95.396 322.715 94.118L322.928 93.905C325.484 91.349 328.324 89.361 331.448 87.941C338.406 84.817 344.796 84.178 350.618 86.024C348.772 87.586 347.068 89.432 345.506 91.562C343.802 91.136 341.743 91.207 339.329 91.775C337.057 92.201 334.785 92.982 332.513 94.118C330.241 95.254 328.253 96.745 326.549 98.591C325.697 99.443 324.916 100.437 324.206 101.573C323.638 102.283 323.354 102.851 323.354 103.277H323.567C323.709 103.419 323.851 103.561 323.993 103.703C324.135 103.703 324.277 103.632 324.419 103.49C325.129 103.632 326.123 103.419 327.401 102.851C327.827 102.567 328.324 102.354 328.892 102.212L350.618 92.84H350.831ZM484.544 96.035L489.443 95.183L487.526 98.804C481.846 100.082 475.598 101.289 468.782 102.425C461.966 103.419 455.576 103.987 449.612 104.129C444.074 104.129 438.678 103.703 433.424 102.851L432.785 103.916C430.797 107.182 428.312 109.809 425.33 111.797C422.064 113.927 418.585 115.276 414.893 115.844C413.047 116.128 411.13 116.057 409.142 115.631C408.006 115.489 406.941 115.134 405.947 114.566C404.811 113.856 403.888 112.933 403.178 111.797C402.042 109.383 401.616 107.111 401.9 104.981C402.184 102.851 402.823 101.005 403.817 99.443C405.805 95.893 408.503 93.053 411.911 90.923C413.331 90.213 414.112 90.639 414.254 92.201C414.396 93.763 413.757 95.964 412.337 98.804C410.349 100.65 409 102.78 408.29 105.194C407.864 106.33 407.793 107.324 408.077 108.176C408.219 108.46 408.361 108.744 408.503 109.028C408.645 109.17 408.929 109.312 409.355 109.454C410.207 109.88 411.272 110.093 412.55 110.093C413.828 110.093 415.106 109.951 416.384 109.667C419.082 108.957 421.496 107.75 423.626 106.046C425.472 104.768 427.034 103.206 428.312 101.36C426.75 100.934 425.33 100.366 424.052 99.656L420.218 97.952C419.366 97.81 418.514 97.455 417.662 96.887C416.81 96.177 416.384 95.325 416.384 94.331C416.384 93.195 416.739 92.13 417.449 91.136C418.159 90.142 418.94 89.432 419.792 89.006C421.78 88.154 423.626 87.728 425.33 87.728C426.324 87.728 427.247 87.799 428.099 87.941C428.951 87.941 429.874 88.012 430.868 88.154C432.004 88.438 432.927 89.077 433.637 90.071C434.489 90.923 435.057 91.917 435.341 93.053C435.767 95.183 435.625 97.171 434.915 99.017C440.027 99.869 445.21 100.295 450.464 100.295C461.824 100.295 473.184 98.875 484.544 96.035ZM426.182 95.822C426.466 95.964 426.75 96.106 427.034 96.248C427.886 96.674 428.88 97.1 430.016 97.526C430.016 97.242 430.016 97.029 430.016 96.887C430.016 96.745 430.087 96.603 430.229 96.461C430.513 95.325 430.513 94.402 430.229 93.692C430.087 93.55 430.016 93.479 430.016 93.479C430.016 93.337 429.945 93.266 429.803 93.266C429.803 93.124 429.732 93.053 429.59 93.053C429.448 92.911 429.235 92.84 428.951 92.84C427.673 92.556 426.324 92.485 424.904 92.627C423.626 92.627 422.632 92.84 421.922 93.266C421.78 93.408 421.638 93.479 421.496 93.479C421.496 93.621 421.425 93.692 421.283 93.692L421.922 93.905C422.348 94.047 422.916 94.331 423.626 94.757C424.336 95.041 424.975 95.325 425.543 95.609C425.827 95.609 426.04 95.68 426.182 95.822ZM566.757 96.248C571.159 95.254 572.934 95.183 572.082 96.035C571.372 96.745 569.384 97.881 566.118 99.443C561.29 100.153 554.403 102.141 545.457 105.407C538.073 107.963 530.405 110.306 522.453 112.436C514.501 114.566 507.33 115.56 500.94 115.418C494.55 115.134 489.935 112.72 487.095 108.176C485.249 104.058 485.178 99.798 486.882 95.396C489.722 88.722 494.408 84.178 500.94 81.764C502.076 81.338 503.425 81.125 504.987 81.125C506.691 80.983 508.253 81.267 509.673 81.977C511.093 82.545 511.874 83.681 512.016 85.385C512.016 86.379 511.732 87.515 511.164 88.793C509.886 90.923 507.898 92.911 505.2 94.757C501.082 97.739 496.609 99.94 491.781 101.36C491.355 105.762 493.769 108.744 499.023 110.306C504.561 111.442 511.519 111.087 519.897 109.241C528.417 107.253 537.434 104.768 546.948 101.786C553.622 99.798 560.225 97.952 566.757 96.248ZM504.987 86.876C501.011 86.876 497.461 89.29 494.337 94.118C499.023 92.414 502.999 90.213 506.265 87.515L504.987 86.876Z" fill="white"/>
<rect width="220" height="98" rx="5" transform="matrix(0.95882 -0.284015 0 1 58 185.921)" fill="#1C1C1C"/>
<path d="M80.4889 205.432L86.4356 203.67L98.2949 251.985L89.8875 254.475L83.4623 222.409L77.037 258.282L68.6296 260.772L80.4889 205.432ZM76.6953 242.058L90.2292 238.049V246.318L76.6953 250.327V242.058ZM106.839 241.149L114.29 238.942C115.338 238.631 116.147 238.107 116.716 237.367C117.309 236.598 117.605 235.69 117.605 234.645V227.694C117.605 226.839 117.468 226.154 117.195 225.641C116.944 225.098 116.557 224.749 116.033 224.595C115.509 224.418 114.882 224.437 114.153 224.653L106.839 226.82V218.621L113.948 216.516C114.95 216.219 115.725 215.656 116.272 214.829C116.841 213.995 117.126 212.96 117.126 211.724V206.164C117.126 205.118 116.841 204.395 116.272 203.993C115.725 203.561 114.962 203.49 113.982 203.78L106.839 205.896V197.627L114.836 195.258C117.069 194.596 118.983 194.445 120.578 194.805C122.173 195.164 123.381 196.03 124.201 197.403C125.044 198.745 125.465 200.545 125.465 202.803V208.363C125.465 209.932 125.181 211.406 124.611 212.787C124.041 214.144 123.21 215.376 122.116 216.484C121.045 217.562 119.746 218.457 118.22 219.171C119.883 218.916 121.296 219.008 122.458 219.448C123.643 219.882 124.543 220.649 125.158 221.75C125.796 222.82 126.115 224.199 126.115 225.886V232.944C126.115 235.225 125.705 237.295 124.884 239.154C124.064 241.013 122.857 242.606 121.262 243.934C119.69 245.232 117.798 246.208 115.588 246.862L106.839 249.454V241.149ZM101.986 199.064L110.496 196.543V248.371L101.986 250.891V199.064ZM136.163 193.289L144.639 190.779V238.257L136.163 240.768V193.289ZM127.96 191.37L152.841 184V192.484L127.96 199.854V191.37ZM168.22 231.807C165.555 232.596 163.265 232.799 161.351 232.416C159.46 232.001 158.013 231.04 157.01 229.531C156.008 227.998 155.507 225.948 155.507 223.382V194.866C155.507 192.3 156.008 189.953 157.01 187.827C158.013 185.7 159.46 183.881 161.351 182.371C163.265 180.853 165.555 179.7 168.22 178.91C170.886 178.12 173.165 177.921 175.056 178.311C176.97 178.695 178.428 179.653 179.43 181.186C180.433 182.718 180.934 184.768 180.934 187.334V215.85C180.934 218.417 180.433 220.763 179.43 222.89C178.428 224.993 176.97 226.815 175.056 228.356C173.165 229.867 170.886 231.017 168.22 231.807ZM168.22 222.967C169.086 222.71 169.827 222.313 170.442 221.774C171.08 221.229 171.558 220.576 171.877 219.816C172.196 219.056 172.356 218.201 172.356 217.251V190.945C172.356 190.018 172.196 189.269 171.877 188.698C171.558 188.128 171.08 187.758 170.442 187.591C169.827 187.417 169.086 187.458 168.22 187.714C167.355 187.971 166.614 188.368 165.999 188.907C165.384 189.446 164.917 190.095 164.598 190.855C164.279 191.615 164.119 192.458 164.119 193.385V219.69C164.119 220.641 164.279 221.402 164.598 221.972C164.917 222.543 165.384 222.916 165.999 223.09C166.614 223.264 167.355 223.223 168.22 222.967ZM218.528 216.334V181.046L219.28 181.893L207.934 219.473L201.098 221.497V169.706L208.822 167.418V202.991L208.036 202.155L219.485 164.259L226.252 162.255V214.046L218.528 216.334ZM244.879 209.099C242.099 209.923 239.718 210.141 237.736 209.754C235.754 209.367 234.238 208.402 233.19 206.858C232.165 205.309 231.652 203.227 231.652 200.613V198.118L240.162 195.597V197.771C240.162 199.126 240.572 200.062 241.393 200.579C242.213 201.073 243.375 201.097 244.879 200.652C246.269 200.24 247.351 199.503 248.125 198.442C248.9 197.357 249.287 196.066 249.287 194.569V189.009C249.287 187.583 248.946 186.591 248.262 186.033C247.601 185.445 246.656 185.333 245.426 185.697L239.274 187.519V179.036L245.426 177.214C246.382 176.93 247.123 176.426 247.647 175.7C248.194 174.968 248.467 174.067 248.467 172.998V167.473C248.467 166.237 248.148 165.381 247.51 164.905C246.895 164.398 246.007 164.316 244.845 164.661C243.614 165.025 242.657 165.653 241.974 166.545C241.313 167.43 240.983 168.502 240.983 169.761V172.292L232.473 174.813V172.318C232.473 169.704 232.974 167.321 233.976 165.171C234.979 162.997 236.426 161.142 238.317 159.608C240.231 158.067 242.521 156.901 245.186 156.112C247.67 155.376 249.789 155.236 251.543 155.69C253.298 156.145 254.642 157.172 255.576 158.773C256.51 160.35 256.977 162.445 256.977 165.059V170.548C256.977 171.808 256.635 173.18 255.952 174.666C255.268 176.152 254.3 177.627 253.047 179.091C254.551 179.335 255.713 180.107 256.533 181.409C257.376 182.704 257.797 184.397 257.797 186.488V192.048C257.797 194.829 257.285 197.369 256.26 199.669C255.257 201.938 253.787 203.882 251.851 205.501C249.914 207.097 247.59 208.296 244.879 209.099Z" fill="white"/>
<rect width="300" height="107" rx="5" transform="matrix(0.95882 -0.284015 0 1 267 216.205)" fill="#F11313"/>
<path d="M297.208 234.749L306.613 231.964V289.47L297.208 292.256V234.749ZM280.371 239.737L289.775 236.951V294.458L280.371 297.244V239.737ZM285.301 238.277L302.896 233.064V242.438L285.301 247.65V238.277ZM327.47 283.886C324.512 284.762 321.971 284.987 319.848 284.561C317.749 284.102 316.144 283.035 315.032 281.361C313.919 279.66 313.363 277.386 313.363 274.538V242.897C313.363 240.05 313.919 237.446 315.032 235.086C316.144 232.726 317.749 230.708 319.848 229.032C321.971 227.348 324.512 226.068 327.47 225.192C330.428 224.316 332.956 224.095 335.054 224.528C337.178 224.953 338.796 226.016 339.908 227.717C341.021 229.418 341.577 231.692 341.577 234.54V266.181C341.577 269.028 341.021 271.632 339.908 273.992C338.796 276.325 337.178 278.347 335.054 280.057C332.956 281.733 330.428 283.009 327.47 283.886ZM327.47 274.077C328.431 273.792 329.252 273.351 329.935 272.754C330.643 272.148 331.174 271.424 331.528 270.581C331.882 269.738 332.059 268.789 332.059 267.734V238.546C332.059 237.518 331.882 236.687 331.528 236.053C331.174 235.42 330.643 235.01 329.935 234.824C329.252 234.631 328.431 234.677 327.47 234.961C326.509 235.246 325.688 235.687 325.005 236.285C324.322 236.882 323.804 237.603 323.45 238.446C323.096 239.289 322.919 240.225 322.919 241.253V270.442C322.919 271.496 323.096 272.34 323.45 272.974C323.804 273.607 324.322 274.021 325.005 274.214C325.688 274.407 326.509 274.362 327.47 274.077ZM345.369 268.577L346.241 268.319C347.758 267.87 348.896 266.557 349.654 264.381C350.413 262.179 350.792 259.127 350.792 255.224V218.877L359.4 216.327V250.183C359.4 254.533 359.008 258.38 358.225 261.724C357.441 265.041 356.126 267.843 354.281 270.13C352.461 272.409 350.034 273.998 347 274.897L345.369 275.38V268.577ZM344.345 268.881L352.991 266.319V286.055L344.345 288.616V268.881ZM344.345 268.881L376.769 259.276V268.689L344.345 278.294V268.881ZM370.891 261.017L379.537 258.456V278.192L370.891 280.753V261.017ZM365.695 214.463L375.1 211.677V269.184L365.695 271.969V214.463ZM357.58 216.866L370.17 213.137V222.55L357.58 226.28V216.866ZM414.236 226.227L419.355 198.568L429.025 195.703L421.289 230.941L414.236 226.227ZM414.008 232.188L422.01 224.162L431.338 252.525L421.403 255.468L414.008 232.188ZM400.204 204.241L409.609 201.455V258.962L400.204 261.747V204.241ZM404.376 227.25L418.976 222.925V232.338L404.376 236.663V227.25ZM433.955 242.456C434.714 242.231 435.333 241.902 435.813 241.47C436.319 241.03 436.685 240.487 436.913 239.839C437.166 239.158 437.292 238.369 437.292 237.472V193.255L446.697 190.469V235.161C446.697 238.062 446.254 240.592 445.37 242.753C444.51 244.879 443.183 246.683 441.388 248.164C439.618 249.611 437.381 250.735 434.676 251.537L433.955 251.75V242.456ZM452.727 188.683L462.131 185.897V243.404L452.727 246.19V188.683ZM443.587 191.39L457.884 187.155V196.568L443.587 200.803V191.39ZM473.167 206.873L489.814 201.942V211.355L473.167 216.286V206.873ZM477.717 238.787L468.313 241.573V184.066L477.717 181.28V238.787ZM496.982 233.674C494.024 234.55 491.483 234.775 489.359 234.35C487.261 233.89 485.656 232.823 484.543 231.149C483.431 229.448 482.875 227.174 482.875 224.326V192.686C482.875 189.838 483.431 187.234 484.543 184.874C485.656 182.515 487.261 180.497 489.359 178.82C491.483 177.137 494.024 175.857 496.982 174.981C499.94 174.104 502.468 173.883 504.566 174.316C506.69 174.742 508.308 175.805 509.42 177.506C510.532 179.206 511.089 181.481 511.089 184.328V215.969C511.089 218.817 510.532 221.42 509.42 223.78C508.308 226.113 506.69 228.135 504.566 229.845C502.468 231.522 499.94 232.798 496.982 233.674ZM496.982 223.865C497.942 223.581 498.764 223.14 499.447 222.542C500.154 221.937 500.685 221.213 501.039 220.369C501.393 219.526 501.57 218.577 501.57 217.523V188.334C501.57 187.306 501.393 186.475 501.039 185.842C500.685 185.208 500.154 184.799 499.447 184.613C498.764 184.419 497.942 184.465 496.982 184.75C496.021 185.034 495.199 185.475 494.517 186.073C493.834 186.671 493.316 187.391 492.962 188.234C492.608 189.077 492.431 190.013 492.431 191.041V220.23C492.431 221.285 492.608 222.129 492.962 222.762C493.316 223.396 493.834 223.809 494.517 224.002C495.199 224.196 496.021 224.15 496.982 223.865ZM531.453 165.363L541.275 162.454V219.96L531.453 222.87V165.363ZM526.295 206.402C524.197 207.023 522.402 207.107 520.91 206.652C519.419 206.198 518.281 205.243 517.497 203.787C516.714 202.306 516.322 200.365 516.322 197.966V169.845L526.144 166.936V195.096C526.144 196.414 526.384 197.371 526.864 197.967C527.345 198.537 528.014 198.694 528.874 198.44C529.683 198.2 530.315 197.657 530.77 196.81C531.225 195.937 531.453 194.842 531.453 193.523V186.523L533.88 185.804V192.567C533.88 195.019 533.576 197.205 532.97 199.125C532.388 201.011 531.529 202.584 530.391 203.844C529.279 205.07 527.913 205.923 526.295 206.402Z" fill="white"/>
<rect width="167" height="48" rx="5" transform="matrix(0.95882 -0.284015 0 1 264 174.431)" fill="white"/>
<path d="M280.419 206.801C279.201 207.162 278.157 207.258 277.288 207.088C276.419 206.918 275.755 206.495 275.296 205.819C274.846 205.139 274.622 204.227 274.622 203.081V201.987L278.352 200.882V201.835C278.352 202.429 278.532 202.839 278.891 203.066C279.251 203.283 279.76 203.293 280.419 203.098C281.029 202.918 281.503 202.595 281.843 202.13C282.182 201.654 282.352 201.088 282.352 200.432V197.994C282.352 197.369 282.202 196.934 281.903 196.69C281.613 196.432 281.199 196.383 280.659 196.543L277.963 197.341V193.623L280.659 192.824C281.079 192.7 281.403 192.478 281.633 192.16C281.873 191.839 281.993 191.445 281.993 190.976V188.554C281.993 188.012 281.853 187.637 281.573 187.428C281.303 187.206 280.914 187.17 280.404 187.321C279.865 187.481 279.446 187.756 279.146 188.147C278.856 188.535 278.712 189.005 278.712 189.557V190.666L274.981 191.771V190.678C274.981 189.532 275.201 188.488 275.64 187.545C276.08 186.592 276.714 185.779 277.543 185.106C278.382 184.431 279.386 183.92 280.554 183.574C281.643 183.251 282.572 183.19 283.341 183.389C284.11 183.588 284.699 184.039 285.109 184.74C285.518 185.431 285.723 186.35 285.723 187.496V189.902C285.723 190.454 285.573 191.056 285.274 191.707C284.974 192.358 284.549 193.005 284 193.647C284.659 193.754 285.169 194.092 285.528 194.663C285.898 195.23 286.083 195.973 286.083 196.889V199.327C286.083 200.546 285.858 201.659 285.408 202.667C284.969 203.662 284.325 204.514 283.476 205.224C282.627 205.923 281.608 206.449 280.419 206.801ZM291.476 180.573L294.083 179.801L299.281 200.98L295.596 202.071L292.779 188.015L289.963 203.74L286.277 204.832L291.476 180.573ZM289.813 196.628L295.746 194.871V198.496L289.813 200.253V196.628ZM302.637 187.454L306.487 186.314C306.787 186.225 307.047 186.075 307.266 185.864C307.486 185.653 307.656 185.39 307.776 185.073C307.896 184.756 307.956 184.405 307.956 184.02V181.348C307.956 180.941 307.896 180.61 307.776 180.354C307.666 180.095 307.501 179.925 307.281 179.844C307.062 179.753 306.797 179.753 306.487 179.845L302.637 180.986V177.267L306.592 176.095C307.671 175.776 308.595 175.7 309.364 175.868C310.133 176.036 310.717 176.446 311.117 177.099C311.516 177.741 311.716 178.598 311.716 179.671V183.499C311.716 184.551 311.511 185.513 311.102 186.384C310.702 187.242 310.118 187.983 309.349 188.607C308.58 189.22 307.661 189.685 306.592 190.001L302.637 191.173V187.454ZM300.899 177.782L304.615 176.681V199.4L300.899 200.5V177.782ZM314.697 173.694L318.607 172.536L321.499 188.586L319.132 191.834L314.697 173.694ZM322.877 190.193C322.717 191.084 322.413 191.899 321.963 192.636C321.524 193.37 320.96 194.001 320.27 194.528C319.581 195.045 318.797 195.433 317.918 195.693L316.39 196.146V192.255L317.918 191.803C318.318 191.684 318.672 191.48 318.982 191.191C319.302 190.888 319.566 190.518 319.776 190.081C319.986 189.633 320.131 189.137 320.21 188.593L322.817 171.289L326.563 170.18L322.877 190.193ZM329.799 188.221L333.155 187.227C333.534 187.115 333.859 186.93 334.128 186.673C334.408 186.403 334.623 186.073 334.773 185.685C334.922 185.297 334.997 184.864 334.997 184.384V182.572C334.997 182.072 334.922 181.667 334.773 181.357C334.633 181.044 334.423 180.836 334.143 180.731C333.864 180.626 333.534 180.63 333.155 180.743L329.799 181.737V178.018L333.829 176.824C334.857 176.52 335.736 176.468 336.465 176.668C337.195 176.859 337.749 177.288 338.128 177.957C338.518 178.623 338.713 179.503 338.713 180.596V184.19C338.713 185.263 338.518 186.243 338.128 187.129C337.749 188.002 337.19 188.751 336.451 189.376C335.721 189.988 334.847 190.444 333.829 190.746L329.799 191.94V188.221ZM327.896 169.785L331.611 168.684V191.403L327.896 192.504V169.785ZM330.128 169.124L337.739 166.869V170.588L330.128 172.842V169.124ZM341.02 165.897L344.735 164.797V187.516L341.02 188.616V165.897ZM342.668 184.347L350.698 181.968V185.749L342.668 188.128V184.347ZM342.668 174.956L349.949 172.799V176.565L342.668 178.722V174.956ZM342.668 165.409L350.698 163.031V166.812L342.668 169.19V165.409ZM364.091 169.391L367.387 158.087L371.208 156.955L366.878 171.253L364.091 169.391ZM364.076 171.724L367.462 169.143L372.122 179.403L368.196 180.566L364.076 171.724ZM355.477 172.693L358.863 173.268L354.893 184.507L350.968 185.669L355.477 172.693ZM351.882 162.68L355.702 161.548L358.848 170.945L356.046 174.462L351.882 162.68ZM356.885 170.776L366.054 168.06V171.779L356.885 174.495V170.776ZM359.687 160.368L363.402 159.267V181.986L359.687 183.087V160.368ZM380.092 154.324L383.807 153.223V175.942L380.092 177.042V154.324ZM373.44 156.294L377.155 155.193V177.912L373.44 179.013V156.294ZM375.208 165.474L382.504 163.312V166.953L375.208 169.114V165.474ZM388.377 170.87L391.208 170.031C391.588 169.918 391.912 169.734 392.182 169.477C392.462 169.206 392.676 168.877 392.826 168.489C392.976 168.101 393.051 167.667 393.051 167.188V165.376C393.051 164.876 392.976 164.471 392.826 164.161C392.686 163.848 392.477 163.64 392.197 163.535C391.917 163.43 391.588 163.434 391.208 163.547L388.377 164.385V160.666L391.882 159.628C392.911 159.323 393.79 159.271 394.519 159.472C395.248 159.662 395.802 160.092 396.182 160.761C396.571 161.427 396.766 162.306 396.766 163.4V166.994C396.766 168.067 396.571 169.046 396.182 169.933C395.802 170.805 395.243 171.554 394.504 172.18C393.775 172.791 392.901 173.248 391.882 173.55L388.377 174.588V170.87ZM386.474 152.433L390.189 151.333V174.051L386.474 175.152V152.433ZM401.426 170.723L397.71 171.824V149.105L401.426 148.004V170.723ZM407.718 159.859L407.029 158.345L402.474 147.694L406.519 146.496L408.931 154.062L409.74 155.901L414.639 166.809L410.594 168.007L407.718 159.859ZM407.538 155.787L410.265 145.386L414.31 144.188L409.321 158.431L406.339 169.268L402.294 170.466L407.538 155.787Z" fill="#1C1C1C"/>
<rect width="86" height="48" rx="5" transform="matrix(0.95882 -0.284015 0 1 189 237.425)" fill="white"/>
<path d="M205.599 269.742C204.501 270.068 203.562 270.122 202.783 269.905C202.004 269.677 201.404 269.193 200.985 268.453C200.575 267.71 200.371 266.729 200.371 265.51V253.885C200.371 252.666 200.575 251.564 200.985 250.578C201.404 249.589 202.004 248.755 202.783 248.077C203.562 247.388 204.501 246.88 205.599 246.555C206.698 246.23 207.637 246.181 208.416 246.408C209.205 246.622 209.804 247.106 210.214 247.86C210.623 248.603 210.828 249.584 210.828 250.803V252.631L207.067 253.745V251.917C207.067 251.532 207.013 251.214 206.903 250.966C206.793 250.717 206.623 250.554 206.393 250.476C206.174 250.385 205.909 250.385 205.599 250.477C205.3 250.566 205.04 250.715 204.82 250.926C204.6 251.137 204.431 251.401 204.311 251.718C204.201 252.032 204.146 252.381 204.146 252.767V264.392C204.146 264.777 204.201 265.094 204.311 265.343C204.431 265.578 204.6 265.736 204.82 265.817C205.04 265.898 205.3 265.894 205.599 265.805C205.919 265.71 206.189 265.558 206.408 265.347C206.628 265.136 206.793 264.879 206.903 264.575C207.013 264.261 207.067 263.907 207.067 263.511V261.683L210.828 260.569V262.397C210.828 263.616 210.623 264.723 210.214 265.719C209.804 266.705 209.205 267.544 208.416 268.236C207.637 268.915 206.698 269.417 205.599 269.742ZM215.292 245.824L219.008 244.724V265.536L215.292 266.637V245.824ZM211.697 244.983L222.603 241.753V245.471L211.697 248.702V244.983ZM226.109 250.902L229.959 249.761C230.259 249.672 230.519 249.522 230.738 249.312C230.958 249.101 231.128 248.837 231.248 248.52C231.368 248.203 231.427 247.852 231.427 247.467V244.795C231.427 244.389 231.368 244.057 231.248 243.801C231.138 243.542 230.973 243.372 230.753 243.292C230.534 243.2 230.269 243.201 229.959 243.292L226.109 244.433V240.714L230.064 239.543C231.143 239.223 232.067 239.147 232.836 239.315C233.605 239.483 234.189 239.894 234.589 240.546C234.988 241.188 235.188 242.046 235.188 243.119V246.947C235.188 247.999 234.983 248.96 234.574 249.832C234.174 250.69 233.59 251.43 232.821 252.054C232.052 252.667 231.133 253.132 230.064 253.449L226.109 254.62V250.902ZM224.371 241.229L228.087 240.128V262.847L224.371 263.948V241.229ZM240.746 236.378L243.353 235.606L248.551 256.785L244.866 257.877L242.049 243.82L239.233 259.545L235.547 260.637L240.746 236.378ZM239.083 252.433L245.016 250.676V254.301L239.083 256.058V252.433ZM256.821 231.617L260.537 230.516V253.235L256.821 254.335V231.617ZM250.169 233.587L253.885 232.487V255.205L250.169 256.306V233.587ZM251.937 242.767L259.233 240.605V244.246L251.937 246.407V242.767Z" fill="#1C1C1C"/>
</svg>
