<svg width="14" height="9" viewBox="0 0 14 9" fill="none" xmlns="http://www.w3.org/2000/svg">
<path d="M5.9375 3.625C6.1875 3.25 6.3125 2.8125 6.3125 2.3125C6.3125 0.999998 5.1875 0 3.9375 0H0.3125C0.125 0 0 0.125 0 0.3125V8.25C0 8.4375 0.125 8.5625 0.3125 8.5625H4.3125C5.8125 8.5625 7.0625 7.375 7.0625 5.875C7.0625 4.9375 6.625 4.125 5.9375 3.625ZM1.5625 1.625H3.9375C4.375 1.625 4.6875 2 4.6875 2.375C4.6875 2.8125 4.3125 3.125 3.9375 3.125H1.5625V1.625ZM4.375 7H1.5625V4.75H4.375C5 4.75 5.5 5.25 5.5 5.875C5.5 6.5 5 7 4.375 7Z" fill="white"/>
<path d="M14 5.31251C14 3.43751 12.5625 1.9375 10.75 1.9375C8.9375 1.9375 7.5 3.43751 7.5 5.31251C7.5 7.18751 8.9375 8.6875 10.75 8.6875C11.8125 8.6875 12.8125 8.12501 13.4375 7.18751C13.5 7.06251 13.5625 6.9375 13.625 6.8125C13.6875 6.75 13.625 6.62501 13.5 6.62501H11.9375C11.875 6.62501 11.875 6.625 11.8125 6.6875C11.5 7 11.125 7.125 10.75 7.125C9.9375 7.125 9.3125 6.5625 9.125 5.75H13.6875C13.875 5.75 14 5.625 14 5.4375V5.31251ZM10.75 3.5625C11.3125 3.5625 11.8125 3.87501 12.125 4.37501H9.375C9.625 3.87501 10.1875 3.5625 10.75 3.5625Z" fill="white"/>
<path d="M12.0625 1.56251H9.1875C9.0625 1.56251 8.9375 1.43751 8.9375 1.31251V0.625009C8.9375 0.500009 9.0625 0.375008 9.1875 0.375008H12.0625C12.1875 0.375008 12.3125 0.500009 12.3125 0.625009V1.37501C12.3125 1.43751 12.25 1.56251 12.0625 1.56251Z" fill="white"/>
</svg>
