<svg width="14" height="14" viewBox="0 0 14 14" fill="none" xmlns="http://www.w3.org/2000/svg">
<path d="M12.0077 0H1.99231C0.861537 0 0 0.861539 0 1.99231V12.0077C0 13.1385 0.861537 14 1.99231 14H12.0077C13.1385 14 14 13.1385 14 12.0077V1.99231C14 0.861539 13.1385 0 12.0077 0ZM7 11.2C9.31539 11.2 11.2 9.36923 11.2 7.16154C11.2 6.78462 11.1462 6.35385 11.0385 6.03077H12.2231V11.7385C12.2231 12.0077 12.0077 12.2769 11.6846 12.2769H2.31539C2.04616 12.2769 1.77692 12.0615 1.77692 11.7385V5.97692H3.01539C2.9077 6.35385 2.85385 6.73077 2.85385 7.10769C2.8 9.36923 4.68462 11.2 7 11.2ZM7 9.58462C5.49231 9.58462 4.30769 8.4 4.30769 6.94616C4.30769 5.49231 5.49231 4.30769 7 4.30769C8.50769 4.30769 9.69231 5.49231 9.69231 6.94616C9.69231 8.45385 8.50769 9.58462 7 9.58462ZM12.1692 3.82308C12.1692 4.14615 11.9 4.41539 11.5769 4.41539H10.0692C9.74615 4.41539 9.47693 4.14615 9.47693 3.82308V2.36923C9.47693 2.04615 9.74615 1.77692 10.0692 1.77692H11.5769C11.9 1.77692 12.1692 2.04615 12.1692 2.36923V3.82308Z" fill="white"/>
</svg>
