<svg width="14" height="13" viewBox="0 0 14 13" fill="none" xmlns="http://www.w3.org/2000/svg">
<path d="M0.245491 5.86186L3.46416 7.06204L4.71888 11.099C4.77344 11.3718 5.10076 11.4263 5.31898 11.2627L7.11923 9.78971C7.2829 9.62605 7.55567 9.62605 7.77388 9.78971L10.9925 12.1355C11.2108 12.2992 11.5381 12.1901 11.5926 11.9173L13.993 0.461059C14.0475 0.188291 13.7748 -0.0844736 13.502 0.0246334L0.245491 5.15266C-0.0818302 5.26177 -0.0818302 5.75275 0.245491 5.86186ZM4.55523 6.46194L10.8834 2.58865C10.9925 2.53409 11.1016 2.69775 10.9925 2.75231L5.80995 7.60757C5.64629 7.77123 5.48263 7.98944 5.48263 8.26221L5.31898 9.5715C5.31898 9.73516 5.04621 9.78971 4.99165 9.5715L4.337 7.17114C4.17334 6.89837 4.28246 6.57105 4.55523 6.46194Z" fill="white"/>
</svg>
