<svg width="14" height="9" viewBox="0 0 14 9" fill="none" xmlns="http://www.w3.org/2000/svg">
<path d="M13.87 7.29704C13.87 7.24134 13.8143 7.24134 13.8143 7.18563C13.5914 6.74001 13.0901 6.18299 12.4217 5.57026C12.0875 5.29175 11.9204 5.06894 11.809 4.95753C11.6418 4.73472 11.6419 4.56762 11.6976 4.34481C11.7533 4.1777 11.9761 3.89918 12.366 3.39785C12.5888 3.11934 12.7002 2.95224 12.8673 2.78513C13.7028 1.67108 14.0928 0.946939 13.9814 0.612724L13.9257 0.557026C13.87 0.501324 13.8142 0.445623 13.7028 0.445623C13.5914 0.38992 13.4243 0.38992 13.2572 0.445623H11.1405C11.0848 0.445623 11.0848 0.445623 10.9734 0.445623C10.9177 0.445623 10.862 0.445623 10.862 0.445623H10.8063H10.7506L10.6949 0.50132C10.6392 0.557023 10.6392 0.557021 10.6392 0.612724C10.4164 1.22545 10.1379 1.72678 9.85936 2.2838C9.69226 2.56232 9.52515 2.84083 9.35804 3.06364C9.19094 3.28645 9.07952 3.45356 8.96812 3.56496C8.85671 3.67637 8.74531 3.73207 8.68961 3.84348C8.6339 3.89918 8.5225 3.95489 8.5225 3.89918C8.4668 3.89918 8.41109 3.89918 8.41109 3.84348C8.35539 3.78777 8.29969 3.73207 8.24399 3.67637C8.18829 3.62067 8.18828 3.50926 8.13258 3.39785C8.13258 3.28645 8.13258 3.17504 8.13258 3.11934C8.13258 3.06364 8.13258 2.89654 8.13258 2.78513C8.13258 2.61802 8.13258 2.50661 8.13258 2.45091C8.13258 2.2838 8.13258 2.061 8.13258 1.83819C8.13258 1.61538 8.13258 1.44826 8.13258 1.33686C8.13258 1.22545 8.13258 1.05835 8.13258 0.946943C8.13258 0.779835 8.13258 0.668426 8.13258 0.612724C8.13258 0.557021 8.07689 0.445619 8.07689 0.389917C8.02119 0.334214 7.96547 0.27851 7.90977 0.222807C7.85407 0.167104 7.74267 0.167106 7.68697 0.111404C7.40845 0.0557009 7.07424 0 6.68432 0C5.79308 0 5.18035 0.0557043 4.95754 0.16711C4.84613 0.222812 4.73473 0.278511 4.67903 0.389917C4.56762 0.501322 4.56762 0.557026 4.62332 0.557026C4.90183 0.612729 5.12465 0.724129 5.23605 0.891237L5.29176 1.00265C5.34746 1.05835 5.34745 1.16975 5.40315 1.33686C5.45886 1.50397 5.45886 1.67108 5.45886 1.89389C5.45886 2.2281 5.45886 2.56232 5.45886 2.78513C5.45886 3.06364 5.40315 3.23075 5.40315 3.39785C5.40315 3.56496 5.34746 3.67637 5.29176 3.73207C5.23606 3.84348 5.23605 3.89918 5.18035 3.89918C5.18035 3.89918 5.18034 3.95488 5.12464 3.95488C5.06894 3.95488 5.01324 4.01059 4.90183 4.01059C4.84613 4.01059 4.73473 3.95489 4.67903 3.89918C4.56762 3.84348 4.45622 3.73208 4.40051 3.62067C4.28911 3.50927 4.1777 3.34215 4.06629 3.11934C3.95489 2.89653 3.78777 2.67372 3.67637 2.33951L3.56497 2.1167C3.50927 2.0053 3.39787 1.78248 3.28646 1.50397C3.17506 1.22546 3.06365 1.00265 2.95224 0.724136C2.89654 0.612731 2.84084 0.557023 2.78514 0.50132H2.72943C2.72943 0.50132 2.67372 0.445623 2.61802 0.445623C2.56232 0.445623 2.50662 0.389917 2.45092 0.389917H0.445623C0.222812 0.389917 0.111409 0.445618 0.055706 0.50132L0 0.557026C0 0.557026 0 0.612727 0 0.66843C0 0.724132 3.39899e-06 0.779832 0.055706 0.891237C0.334219 1.55967 0.668433 2.2281 1.00265 2.89653C1.33686 3.50926 1.67108 4.06629 1.89389 4.45621C2.17241 4.84613 2.39521 5.23605 2.67373 5.57026C2.95224 5.90448 3.11935 6.12729 3.17505 6.23869C3.28645 6.3501 3.34215 6.4058 3.39786 6.4615L3.56497 6.62861C3.67638 6.74001 3.84348 6.90712 4.06629 7.07423C4.2891 7.24134 4.56761 7.40844 4.84613 7.57555C5.12464 7.74266 5.45886 7.85407 5.79308 7.96548C6.183 8.07688 6.51721 8.13258 6.85143 8.07688H7.68697C7.85407 8.07688 7.96548 8.02118 8.07689 7.90977L8.13258 7.85406C8.13258 7.79836 8.18829 7.79836 8.18829 7.74266C8.18829 7.68696 8.18829 7.63126 8.18829 7.51985C8.18829 7.29704 8.18829 7.12994 8.24399 6.96283C8.29969 6.79572 8.2997 6.68432 8.3554 6.57291C8.41111 6.46151 8.4668 6.4058 8.5225 6.3501C8.57821 6.29439 8.63392 6.23869 8.63392 6.23869H8.68961C8.80101 6.18299 8.96813 6.23869 9.07953 6.3501C9.24664 6.4615 9.41374 6.62861 9.52515 6.79572C9.63655 6.96283 9.80367 7.12993 10.0265 7.35274C10.2493 7.57555 10.4164 7.74266 10.5278 7.79837L10.6949 7.90977C10.8063 7.96547 10.9177 8.02118 11.0848 8.07688C11.2519 8.13258 11.3633 8.13258 11.4747 8.13258L13.3686 8.07688C13.5357 8.07688 13.7028 8.02118 13.8143 7.96548C13.9257 7.90977 13.9814 7.85407 13.9814 7.74266C13.9814 7.68696 13.9814 7.57556 13.9814 7.51985C13.87 7.40845 13.87 7.35274 13.87 7.29704Z" fill="white"/>
</svg>
