<?xml version="1.0" standalone="no"?>
<!DOCTYPE svg PUBLIC "-//W3C//DTD SVG 20010904//EN"
 "http://www.w3.org/TR/2001/REC-SVG-20010904/DTD/svg10.dtd">
<svg version="1.0" xmlns="http://www.w3.org/2000/svg"
 width="618.000000pt" height="618.000000pt" viewBox="0 0 618.000000 618.000000"
 preserveAspectRatio="xMidYMid meet">
<metadata>
Created by potrace 1.14, written by Peter Selinger 2001-2017
</metadata>
<g transform="translate(0.000000,618.000000) scale(0.100000,-0.100000)"
fill="#000000" stroke="none">
<path d="M0 3090 l0 -3090 3090 0 3090 0 0 3090 0 3090 -3090 0 -3090 0 0
-3090z m587 2049 c15 -5 31 -16 35 -22 4 -7 8 -285 8 -619 l0 -608 550 0 550
0 0 608 c0 509 2 611 14 628 14 18 28 19 244 19 179 0 232 -3 245 -14 16 -12
17 -131 17 -1527 0 -1362 -2 -1514 -16 -1528 -13 -14 -49 -16 -240 -16 -136 0
-233 4 -245 10 -18 10 -19 28 -19 665 l0 655 -550 0 -550 0 0 -649 c0 -577 -2
-651 -16 -665 -22 -22 -459 -24 -490 -2 -19 14 -19 43 -22 1509 -1 977 1 1504
8 1521 5 15 20 31 32 36 33 13 410 12 445 -1z m2961 -15 c10 -11 226 -550 482
-1197 256 -647 467 -1177 470 -1177 3 0 214 528 470 1172 256 645 475 1184
487 1198 l21 25 276 0 c251 0 277 -2 293 -18 17 -17 18 -93 21 -1523 1 -1032
-1 -1511 -8 -1524 -10 -19 -23 -20 -255 -20 -231 0 -245 1 -255 19 -7 13 -10
357 -10 1042 0 599 -4 1019 -9 1014 -5 -6 -180 -458 -390 -1005 -210 -547
-390 -1006 -400 -1020 l-18 -25 -209 -3 c-115 -1 -219 0 -230 3 -14 3 -29 22
-42 52 -11 27 -188 485 -392 1018 -205 534 -376 977 -381 985 -5 9 -9 -428 -9
-1021 0 -791 -3 -1038 -12 -1047 -9 -9 -79 -12 -255 -12 -229 0 -243 1 -253
19 -16 31 -14 2998 3 3031 7 15 25 28 42 32 17 3 146 6 288 5 248 -2 259 -3
275 -23z m-911 -3252 c146 -75 198 -322 103 -490 -49 -85 -116 -122 -222 -122
-142 0 -235 90 -258 249 -26 188 47 335 190 382 42 14 142 3 187 -19z m-2435
-109 l3 -128 113 -3 112 -3 0 131 0 130 50 0 50 0 0 -310 0 -310 -50 0 -50 0
0 135 0 136 -112 -3 -113 -3 -3 -133 -3 -133 -47 3 -47 3 -3 295 c-1 162 0
300 3 307 2 8 22 13 49 13 l45 0 3 -127z m519 111 c8 -9 43 -66 79 -127 36
-61 70 -112 75 -113 6 -2 42 54 81 124 l71 127 52 3 c28 2 51 0 51 -4 0 -4
-47 -84 -105 -179 l-105 -173 0 -131 0 -131 -50 0 -50 0 0 135 0 135 -93 153
c-134 219 -127 197 -69 197 34 0 54 -5 63 -16z m774 -13 c113 -50 157 -129
157 -281 0 -208 -138 -320 -382 -308 l-65 3 -3 295 c-1 162 0 301 3 309 9 23
227 10 290 -18z m528 18 c134 -37 171 -219 64 -318 l-27 -24 65 -126 c36 -69
65 -130 65 -134 0 -4 -24 -7 -52 -5 l-53 3 -60 120 c-60 119 -60 120 -97 123
l-38 3 0 -125 0 -126 -50 0 -50 0 0 310 0 310 98 0 c53 0 114 -5 135 -11z
m1091 -224 c50 -127 95 -232 100 -234 5 -1 52 104 104 234 l94 236 57 -3 56
-3 3 -307 2 -308 -50 0 -50 0 0 212 c0 116 -3 208 -7 204 -5 -4 -42 -96 -84
-204 l-75 -197 -49 0 -50 0 -75 197 c-41 108 -78 200 -83 204 -4 4 -7 -88 -7
-204 l0 -212 -50 0 -50 0 0 303 c0 167 3 307 7 311 4 4 32 6 61 4 l55 -3 91
-230z m833 223 c12 -16 233 -582 233 -598 0 -7 -18 -10 -52 -8 l-52 3 -27 70
-26 70 -128 0 -128 0 -26 -70 -27 -70 -52 -3 c-29 -2 -52 0 -52 4 0 6 189 494
225 582 13 29 18 32 58 32 25 0 49 -6 54 -12z m546 1 c134 -37 171 -219 64
-318 l-26 -23 65 -129 c35 -71 64 -131 64 -134 0 -3 -24 -5 -53 -5 l-53 0 -60
123 c-59 121 -59 122 -96 125 l-37 3 -3 -123 -3 -123 -47 -3 -48 -3 0 310 0
311 98 0 c53 0 114 -5 135 -11z m347 -119 l5 -125 40 50 c22 28 65 83 95 123
l55 72 52 0 c29 0 53 -3 53 -6 0 -3 -38 -54 -84 -112 -45 -59 -89 -117 -96
-129 -13 -19 -5 -34 88 -175 55 -85 104 -161 108 -171 5 -15 -1 -17 -47 -17
l-54 0 -80 126 c-44 69 -83 128 -88 131 -4 2 -16 -6 -27 -19 -16 -20 -19 -39
-20 -130 l0 -108 -50 0 -50 0 0 311 0 310 48 -3 47 -3 5 -125z m738 83 l-3
-48 -107 -3 -108 -3 0 -79 0 -80 105 0 105 0 0 -45 0 -45 -105 0 -106 0 3 -87
3 -88 113 -3 113 -3 -3 -42 -3 -42 -162 -3 -163 -2 0 310 0 310 161 0 160 0
-3 -47z m492 -3 l0 -50 -80 0 -80 0 0 -260 0 -260 -50 0 -50 0 0 260 0 259
-77 3 -78 3 -3 33 c-6 64 -12 62 213 62 l205 0 0 -50z"/>
<path d="M2460 1788 c-71 -36 -95 -89 -95 -208 0 -83 3 -101 25 -140 60 -106
168 -120 243 -31 54 64 62 228 16 311 -46 82 -113 107 -189 68z"/>
<path d="M1305 1789 c-3 -8 -4 -107 -3 -219 l3 -205 50 3 c68 3 131 36 163 85
21 32 28 55 30 113 8 149 -44 217 -178 231 -46 4 -61 3 -65 -8z"/>
<path d="M1890 1705 l0 -97 60 4 c73 5 90 20 97 80 4 37 1 49 -19 73 -20 23
-35 29 -81 33 l-57 4 0 -97z"/>
<path d="M3879 1714 c-35 -90 -69 -187 -69 -195 0 -5 38 -9 85 -9 49 0 85 4
85 10 0 15 -71 204 -81 214 -5 5 -13 -3 -20 -20z"/>
<path d="M4360 1706 l0 -96 45 0 c58 0 91 16 105 51 15 36 6 91 -20 114 -13
11 -42 20 -75 23 l-55 4 0 -96z"/>
</g>
</svg>
