<svg width="1222" height="134" viewBox="0 0 1222 134" fill="none" xmlns="http://www.w3.org/2000/svg">
<g clip-path="url(#clip0_354_3637)">
<path d="M762.178 134H725.994L781.125 0H809.729L864.667 134H828.483L820.715 114.091H770.133L762.178 134ZM795.523 49.9628L782.262 83.2715H808.591L795.523 49.9628Z" fill="#D72E1E"/>
<path d="M938 77.7274V0H972.084V77.9157C972.084 93.7246 966.5 107.024 955.32 117.814C944.022 128.605 930.115 134 913.599 134C896.959 134 882.993 128.605 871.695 117.814C860.52 107.024 854.931 93.7246 854.931 77.9157V0H889.015V77.7274C889.015 84.8791 891.31 90.7764 895.906 95.4183C900.502 100.061 906.4 102.382 913.599 102.382C920.555 102.382 926.329 100.061 930.925 95.4183C935.64 90.6509 938 84.7535 938 77.7274Z" fill="#D72E1E"/>
<path d="M1016.67 32.16H978.977V0H1089.05V32.16H1051.35V134H1016.67V32.16Z" fill="#D72E1E"/>
<path d="M1105.7 19.2487C1118.77 6.41624 1134.89 1.71661e-05 1154.06 1.71661e-05C1173.23 1.71661e-05 1189.35 6.41624 1202.41 19.2487C1215.36 31.9577 1221.83 47.8749 1221.83 67.0001C1221.83 86.1253 1215.36 102.043 1202.41 114.751C1189.35 127.584 1173.23 134 1154.06 134C1134.89 134 1118.77 127.584 1105.7 114.751C1092.76 102.043 1086.28 86.1253 1086.28 67.0001C1086.28 47.8749 1092.76 31.9577 1105.7 19.2487ZM1121.27 66.8149C1121.27 76.6862 1124.39 84.9529 1130.61 91.6163C1137.08 98.1556 1144.9 101.426 1154.06 101.426C1163.46 101.426 1171.27 98.0939 1177.5 91.4311C1183.85 84.8918 1187.03 76.6862 1187.03 66.8149C1187.03 56.9437 1183.85 48.8003 1177.5 42.3841C1171.15 35.7211 1163.34 32.3896 1154.06 32.3896C1144.78 32.3896 1136.96 35.7211 1130.61 42.3841C1124.39 48.9237 1121.27 57.0672 1121.27 66.8149Z" fill="#D72E1E"/>
<path d="M692.733 84.1487H666.86L687.652 134H708.301L764.185 3.62396e-05H737.477L698.067 97.246L692.733 84.1487Z" fill="#181818"/>
<path d="M656.878 60.2205H682.994L658.477 3.62396e-05H631.763L656.878 60.2205Z" fill="#181818"/>
<path d="M572.568 1.52588e-05C591.7 1.52588e-05 607.508 6.42466 619.982 19.274C631.233 30.4282 637.507 44.1697 638.803 60.499H613.229C612.059 51.0775 608.251 42.9652 601.814 36.1616C593.944 27.8402 584.194 23.6794 572.568 23.6794C560.937 23.6794 551.192 27.8402 543.317 36.1616C536.97 42.8781 533.219 50.9905 532.071 60.499H506.512C507.801 44.2695 514.014 30.5278 525.149 19.274C537.871 6.42466 553.673 1.52588e-05 572.568 1.52588e-05Z" fill="#181818"/>
<path d="M610.837 83.4439H637.317C634.636 95.4529 628.858 105.941 619.982 114.91C607.387 127.636 591.584 134 572.568 134C553.795 134 537.987 127.636 525.149 114.91C516.379 105.875 510.664 95.3869 508 83.4439H534.399C536.338 88.7986 539.309 93.597 543.317 97.838C551.071 106.037 560.816 110.137 572.568 110.137C584.315 110.137 594.065 106.037 601.814 97.838C605.865 93.5582 608.872 88.7598 610.837 83.4439Z" fill="#181818"/>
<path d="M367.538 83.4439C370.2 95.3869 375.918 105.875 384.69 114.91C397.285 127.636 412.969 134 431.74 134C450.633 134 466.317 127.575 478.791 114.726C491.387 101.632 497.684 85.6618 497.684 66.8163C497.684 66.2046 497.563 64.0628 497.321 60.3915H429.56V82.7864H469.708C466.922 91.1076 462.018 97.7161 454.993 102.611C447.848 107.628 439.976 110.137 431.377 110.137C420.114 110.137 410.607 106.037 402.856 97.838C398.846 93.597 395.875 88.7986 393.939 83.4439H367.538Z" fill="#181818"/>
<path d="M391.628 60.499H366.052C367.36 44.1697 373.693 30.4282 385.053 19.274C397.891 6.42466 413.937 1.52588e-05 433.193 1.52588e-05C446.516 1.52588e-05 458.505 3.30412 469.163 9.91234C479.699 16.2758 487.753 25.0256 493.324 36.1616L469.708 45.1561C466.075 38.4256 461.049 33.1634 454.63 29.3698C448.211 25.5763 441.066 23.6794 433.193 23.6794C421.204 23.6794 411.212 27.8402 403.219 36.1616C396.685 42.9652 392.821 51.0775 391.628 60.499Z" fill="#181818"/>
<path d="M272.54 84.1487H297.926V110.263H364.801V134H272.54V84.1487Z" fill="#181818"/>
<path d="M297.926 60.2205H272.54V3.62396e-05H297.926V60.2205Z" fill="#181818"/>
<path d="M242.469 19.274C229.995 6.42466 214.19 1.52588e-05 195.055 1.52588e-05C176.162 1.52588e-05 160.358 6.42466 147.641 19.274C136.504 30.5278 130.29 44.2695 129.001 60.499H154.561C155.71 50.9905 159.458 42.8781 165.808 36.1616C173.68 27.8402 183.429 23.6794 195.055 23.6794C206.682 23.6794 216.431 27.8402 224.303 36.1616C230.739 42.9652 234.544 51.0775 235.717 60.499H261.293C259.996 44.1697 253.723 30.4282 242.469 19.274Z" fill="#181818"/>
<path d="M259.803 83.4439H233.326C231.36 88.7598 228.353 93.5582 224.303 97.838C216.552 106.037 206.803 110.137 195.055 110.137C183.308 110.137 173.558 106.037 165.808 97.838C161.798 93.597 158.825 88.7986 156.89 83.4439H130.489C133.152 95.3869 138.869 105.875 147.641 114.91C160.478 127.636 176.283 134 195.055 134C214.069 134 229.874 127.636 242.469 114.91C251.344 105.941 257.124 95.4529 259.803 83.4439Z" fill="#181818"/>
<path d="M122.665 60.2205C121.245 44.2799 114.713 30.6511 103.07 19.3343C89.9344 6.44479 73.5154 3.62396e-05 53.8128 3.62396e-05H0.00927734V134H53.8128C73.5154 134 89.9344 127.555 103.07 114.666C112.103 105.885 118.06 95.7131 120.94 84.1487H93.3683C91.3177 89.1122 88.2996 93.6688 84.3142 97.8201C76.1044 106.115 65.9373 110.263 53.8128 110.263H25.3954V23.7372H53.8128C65.9373 23.7372 76.1044 27.8848 84.3142 36.18C90.9612 42.8966 94.9174 50.9101 96.1826 60.2205H122.665Z" fill="#181818"/>
</g>
<defs>
<clipPath id="clip0_354_3637">
<rect width="1222" height="134" fill="white"/>
</clipPath>
</defs>
</svg>
