<svg width="3115" height="1001" viewBox="0 0 3115 1001" fill="none" xmlns="http://www.w3.org/2000/svg">
<mask id="mask0_611_4573" style="mask-type:alpha" maskUnits="userSpaceOnUse" x="0" y="0" width="1303" height="1000">
<path d="M395.362 0L1303 6.24217e-05L907.638 1000L0 1000L395.362 0Z" fill="#D9D9D9"/>
</mask>
<g mask="url(#mask0_611_4573)">
<rect width="1406" height="1048" transform="translate(-13)" fill="#D72E1E"/>
<path d="M285.771 199.508L336.726 356.356L501.621 356.356L368.218 453.293L419.174 610.14L285.771 513.203L152.368 610.14L203.323 453.293L69.9199 356.356L234.815 356.356L285.771 199.508Z" fill="#FFDA44"/>
<path d="M708.167 184.898L707.976 217.881L739.281 228.255L707.858 238.266L707.667 271.249L688.437 244.452L657.014 254.463L676.553 227.891L657.323 201.095L688.628 211.469L708.167 184.898Z" fill="#FFDA44"/>
<path d="M815.279 393.786L806.458 425.568L833.955 443.78L801.007 445.211L792.186 476.993L780.644 446.095L747.696 447.526L773.51 426.999L761.968 396.102L789.464 414.313L815.279 393.786Z" fill="#FFDA44"/>
<path d="M760.32 599.839L770.512 631.208H803.491L776.81 650.596L787.001 681.965L760.32 662.578L733.64 681.965L743.831 650.596L717.15 631.208H750.129L760.32 599.839Z" fill="#FFDA44"/>
<path d="M604.83 776.674L606.556 809.612L638.412 818.149L607.623 829.969L609.349 862.908L588.595 837.275L557.806 849.095L575.768 821.433L555.013 795.799L586.869 804.336L604.83 776.674Z" fill="#FFDA44"/>
</g>
<mask id="mask1_611_4573" style="mask-type:alpha" maskUnits="userSpaceOnUse" x="906" y="0" width="1303" height="1000">
<path d="M1301.36 0L2209 6.24217e-05L1813.64 1000L906 1000L1301.36 0Z" fill="#D9D9D9"/>
</mask>
<g mask="url(#mask1_611_4573)">
<rect width="1292" height="1000" transform="translate(911)" fill="white"/>
<ellipse cx="1556.32" cy="505.325" rx="253.939" ry="254.107" fill="#E94A3B"/>
<path fill-rule="evenodd" clip-rule="evenodd" d="M1795.32 591.401C1760.08 689.378 1666.38 759.432 1556.32 759.432C1416.08 759.432 1302.39 645.665 1302.39 505.325C1302.39 474.349 1307.92 444.667 1318.07 417.218C1318.71 426.686 1321.88 453.256 1337.65 481.328C1356.62 515.086 1408.19 551.913 1442.05 551.913C1516.72 552.996 1546.71 523.35 1573.39 496.971C1594.47 476.131 1613.49 457.329 1650.85 457.329C1759.62 457.329 1796.05 557.174 1795.32 591.401Z" fill="#3B95E9"/>
<rect width="33.8659" height="254.052" transform="matrix(0.818973 -0.573832 0.573321 0.819331 1837.52 162.7)" fill="#313640"/>
<rect width="33.8659" height="113.599" transform="matrix(0.818973 -0.573832 0.573321 0.819331 1862.57 316.644)" fill="#313640"/>
<rect width="33.8659" height="113.599" transform="matrix(0.818973 -0.573832 0.573321 0.819331 1782.05 201.567)" fill="#313640"/>
<rect width="33.8659" height="113.599" transform="matrix(0.818973 -0.573832 0.573321 0.819331 1973.51 238.911)" fill="#313640"/>
<rect width="33.8659" height="113.599" transform="matrix(0.818973 -0.573832 0.573321 0.819331 1892.99 123.834)" fill="#313640"/>
<rect width="33.8659" height="113.599" transform="matrix(0.818973 0.573832 -0.573321 0.819331 1848.24 702.28)" fill="#313640"/>
<rect width="33.8659" height="113.599" transform="matrix(0.818973 0.573832 -0.573321 0.819331 1928.77 587.203)" fill="#313640"/>
<rect width="33.8659" height="113.599" transform="matrix(0.818973 0.573832 -0.573321 0.819331 1903.71 741.146)" fill="#313640"/>
<rect width="33.8659" height="113.599" transform="matrix(0.818973 0.573832 -0.573321 0.819331 1984.24 626.069)" fill="#313640"/>
<rect width="33.8659" height="113.599" transform="matrix(0.818973 0.573832 -0.573321 0.819331 1959.18 780.014)" fill="#313640"/>
<rect width="33.8659" height="113.599" transform="matrix(0.818973 0.573832 -0.573321 0.819331 2039.71 664.937)" fill="#313640"/>
<rect width="33.8659" height="254.052" transform="matrix(0.818973 -0.573832 0.573321 0.819331 1157.21 606.634)" fill="#313640"/>
<rect width="33.8659" height="113.599" transform="matrix(0.818973 -0.573832 0.573321 0.819331 1182.27 760.579)" fill="#313640"/>
<rect width="33.8659" height="113.599" transform="matrix(0.818973 -0.573832 0.573321 0.819331 1101.74 645.502)" fill="#313640"/>
<rect width="33.8659" height="254.052" transform="matrix(0.818973 -0.573832 0.573321 0.819331 1046.27 684.369)" fill="#313640"/>
<rect width="33.8659" height="254.052" transform="matrix(0.818973 0.573832 -0.573321 0.819331 1293.91 174.822)" fill="#313640"/>
<rect width="33.8659" height="254.052" transform="matrix(0.818973 0.573832 -0.573321 0.819331 1247.68 142.434)" fill="#313640"/>
<rect width="33.8659" height="254.052" transform="matrix(0.818973 0.573832 -0.573321 0.819331 1201.46 110.044)" fill="#313640"/>
</g>
<mask id="mask2_611_4573" style="mask-type:alpha" maskUnits="userSpaceOnUse" x="1812" y="0" width="1303" height="1000">
<path d="M2207.36 0L3115 6.24217e-05L2719.64 1000L1812 1000L2207.36 0Z" fill="#D9D9D9"/>
</mask>
<g mask="url(#mask2_611_4573)">
<rect width="1334" height="999" transform="translate(1796)" fill="white"/>
<ellipse cx="2463" cy="499.5" rx="269.579" ry="269.175" fill="#D72E1E"/>
</g>
</svg>
