<svg width="3632" height="432" viewBox="0 0 3632 432" fill="none" xmlns="http://www.w3.org/2000/svg">
<g clip-path="url(#clip0)">
<rect width="3632" height="431" transform="translate(0 0.470703)" fill="white"/>
<path d="M852.262 65.7151V113.947H736.618V341.213H678.41V65.7151H852.262Z" fill="#F32D1A"/>
<path d="M894.49 65.7151H946.915V198.834C946.915 205.265 946.787 212.467 946.53 220.442C946.273 228.416 946.016 236.262 945.759 243.979C945.502 251.439 945.245 257.998 944.988 263.657C944.731 269.059 944.474 272.789 944.217 274.847H945.374L1072.58 65.7151H1142.35V341.213H1090.31V208.866C1090.31 201.921 1090.44 194.332 1090.7 186.101C1090.96 177.612 1091.21 169.509 1091.47 161.792C1091.98 154.075 1092.37 147.387 1092.63 141.728C1093.14 135.812 1093.53 131.953 1093.78 130.152H1092.24L964.648 341.213H894.49V65.7151Z" fill="#F32D1A"/>
<path d="M1427.32 65.7151V292.596H1463.94V421.471H1407.66V341.213H1235.35V421.471H1179.07V292.596H1200.27C1210.04 273.561 1219.16 252.982 1227.64 230.86C1236.12 208.738 1243.7 184.172 1250.38 157.162C1257.06 130.152 1262.59 99.6701 1266.96 65.7151H1427.32ZM1369.11 114.332H1313.22C1310.9 132.339 1307.18 151.631 1302.04 172.21C1297.15 192.789 1291.24 213.496 1284.3 234.332C1277.37 254.911 1269.78 274.332 1261.56 292.596H1369.11V114.332Z" fill="#F32D1A"/>
<path d="M1594.1 65.7151C1629.57 65.7151 1655.4 73.4321 1671.59 88.8662C1688.03 104.043 1696.26 125.008 1696.26 151.76C1696.26 167.966 1692.92 183.014 1686.23 196.905C1679.55 210.795 1668.37 221.985 1652.7 230.474C1637.28 238.963 1616.21 243.207 1589.48 243.207H1564.42V341.213H1506.21V65.7151H1594.1ZM1591.02 113.561H1564.42V195.361H1583.7C1600.14 195.361 1613.12 192.146 1622.63 185.715C1632.4 179.027 1637.28 168.352 1637.28 153.689C1637.28 126.937 1621.86 113.561 1591.02 113.561Z" fill="#F32D1A"/>
<path d="M1998.06 203.078C1998.06 231.631 1993.31 256.583 1983.8 277.934C1974.55 299.027 1960.16 315.49 1940.62 327.323C1921.35 339.156 1896.81 345.072 1867 345.072C1837.19 345.072 1812.52 339.156 1792.99 327.323C1773.71 315.49 1759.32 298.898 1749.81 277.548C1740.56 256.197 1735.93 231.246 1735.93 202.693C1735.93 174.14 1740.56 149.316 1749.81 128.223C1759.32 107.13 1773.71 90.7955 1792.99 79.2199C1812.52 67.3871 1837.32 61.4707 1867.38 61.4707C1897.19 61.4707 1921.74 67.3871 1941.01 79.2199C1960.28 90.7955 1974.55 107.258 1983.8 128.609C1993.31 149.702 1998.06 174.525 1998.06 203.078ZM1797.23 203.078C1797.23 231.889 1802.75 254.654 1813.8 271.374C1824.85 287.837 1842.58 296.069 1867 296.069C1891.93 296.069 1909.79 287.837 1920.58 271.374C1931.37 254.654 1936.77 231.889 1936.77 203.078C1936.77 174.268 1931.37 151.631 1920.58 135.168C1909.79 118.448 1892.05 110.088 1867.38 110.088C1842.71 110.088 1824.85 118.448 1813.8 135.168C1802.75 151.631 1797.23 174.268 1797.23 203.078Z" fill="#F32D1A"/>
<path d="M2171.49 341.213L2105.19 125.136H2103.64C2103.9 130.281 2104.29 137.998 2104.8 148.287C2105.31 158.577 2105.83 169.638 2106.34 181.471C2106.86 193.303 2107.11 203.85 2107.11 213.111V341.213H2055.07V65.7151H2134.48L2199.63 276.39H2200.78L2269.79 65.7151H2349.19V341.213H2294.84V210.795C2294.84 202.049 2294.97 192.017 2295.23 180.699C2295.74 169.381 2296.13 158.705 2296.38 148.673C2296.9 138.384 2297.28 130.667 2297.54 125.522H2296L2225.07 341.213H2171.49Z" fill="#F32D1A"/>
<path d="M2587.17 341.213L2567.13 275.619H2466.9L2446.86 341.213H2384.03L2481.17 64.5575H2552.48L2650.01 341.213H2587.17ZM2553.25 226.615L2533.21 162.564C2531.92 158.191 2530.25 152.66 2528.2 145.972C2526.14 139.284 2524.08 132.467 2522.03 125.522C2519.97 118.577 2518.3 112.532 2517.02 107.387C2515.73 112.532 2513.93 118.963 2511.62 126.68C2509.56 134.14 2507.51 141.342 2505.45 148.287C2503.65 154.976 2502.24 159.734 2501.21 162.564L2481.55 226.615H2553.25Z" fill="#F32D1A"/>
<path d="M2772.76 65.7151C2808.22 65.7151 2834.05 73.4321 2850.24 88.8662C2866.69 104.043 2874.91 125.008 2874.91 151.76C2874.91 167.966 2871.57 183.014 2864.89 196.905C2858.2 210.795 2847.03 221.985 2831.35 230.474C2815.93 238.963 2794.86 243.207 2768.13 243.207H2743.07V341.213H2684.87V65.7151H2772.76ZM2769.67 113.561H2743.07V195.361H2762.35C2778.8 195.361 2791.77 192.146 2801.28 185.715C2811.05 179.027 2815.93 168.352 2815.93 153.689C2815.93 126.937 2800.51 113.561 2769.67 113.561Z" fill="#F32D1A"/>
<path d="M3151.27 341.213H3084.97L2985.13 201.535V341.213H2926.92V65.7151H2985.13V199.22L3083.81 65.7151H3145.87L3045.65 198.062L3151.27 341.213Z" fill="#F32D1A"/>
<path d="M3344.35 341.213H3185.92V65.7151H3344.35V113.561H3244.12V174.14H3337.41V221.985H3244.12V292.982H3344.35V341.213Z" fill="#F32D1A"/>
<path d="M3507.63 341.213H3449.42V114.332H3374.64V65.7151H3582.41V114.332H3507.63V341.213Z" fill="#F32D1A"/>
<rect y="0.470703" width="630.145" height="431" fill="#F32D1A"/>
<path d="M38.0998 311.423C35.3461 311.423 33.3433 310.931 32.0916 309.947C31.0903 308.964 30.5896 306.997 30.5896 304.047V34.8461C30.5896 29.9292 33.093 27.4707 38.0998 27.4707H74.1489C79.1557 27.4707 81.6591 29.9292 81.6591 34.8461V142.526H184.925V34.8461C184.925 29.9292 187.428 27.4707 192.435 27.4707H228.484C233.491 27.4707 235.994 29.9292 235.994 34.8461V304.047C235.994 306.997 235.368 308.964 234.117 309.947C233.115 310.931 231.238 311.423 228.484 311.423H192.435C189.681 311.423 187.678 310.931 186.427 309.947C185.425 308.964 184.925 306.997 184.925 304.047V188.991H81.6591V304.047C81.6591 306.997 81.0332 308.964 79.7815 309.947C78.7802 310.931 76.9026 311.423 74.1489 311.423H38.0998Z" fill="white"/>
<path d="M555.014 311.423C551.76 311.423 549.757 311.054 549.006 310.316C548.255 309.333 547.879 307.366 547.879 304.416V119.294L474.655 303.31C473.403 306.014 472.277 307.735 471.275 308.472C470.274 309.21 468.396 309.579 465.643 309.579H432.973C430.219 309.579 428.217 309.21 426.965 308.472C425.964 307.735 424.962 306.014 423.961 303.31L350.736 119.294V304.416C350.736 307.366 350.361 309.333 349.61 310.316C348.859 311.054 346.856 311.423 343.601 311.423H306.801C303.547 311.423 301.544 311.054 300.793 310.316C300.042 309.333 299.667 307.366 299.667 304.416V38.5337C299.667 33.371 300.167 30.2979 301.169 29.3145C302.42 28.0853 305.55 27.4707 310.556 27.4707H352.614C354.867 27.4707 356.619 27.8395 357.871 28.577C359.123 29.3145 360.249 30.9125 361.25 33.371L449.12 247.626L537.365 33.371C538.867 29.4375 541.996 27.4707 546.753 27.4707H587.684C592.941 27.4707 596.07 28.0853 597.071 29.3145C598.323 30.2979 598.949 33.371 598.949 38.5337V304.416C598.949 307.366 598.448 309.333 597.447 310.316C596.696 311.054 594.818 311.423 591.814 311.423H555.014Z" fill="white"/>
<path d="M32.1031 383.598C31.5482 383.598 31.1446 383.499 30.8923 383.301C30.6905 383.103 30.5896 382.706 30.5896 382.112V327.893C30.5896 326.903 31.0941 326.408 32.1031 326.408H39.3679C40.3769 326.408 40.8814 326.903 40.8814 327.893V349.581H61.6921V327.893C61.6921 326.903 62.1967 326.408 63.2057 326.408H70.4705C71.4795 326.408 71.984 326.903 71.984 327.893V382.112C71.984 382.706 71.8579 383.103 71.6056 383.301C71.4038 383.499 71.0254 383.598 70.4705 383.598H63.2057C62.6507 383.598 62.2471 383.499 61.9949 383.301C61.793 383.103 61.6921 382.706 61.6921 382.112V358.939H40.8814V382.112C40.8814 382.706 40.7553 383.103 40.5031 383.301C40.3013 383.499 39.9229 383.598 39.3679 383.598H32.1031Z" fill="white"/>
<path d="M109.183 382.112C109.183 382.706 109.057 383.103 108.805 383.301C108.603 383.499 108.225 383.598 107.67 383.598H100.405C99.8498 383.598 99.4462 383.499 99.194 383.301C98.9922 383.103 98.8913 382.706 98.8913 382.112V359.162L79.4427 328.191C79.0391 327.547 78.8878 327.101 78.9887 326.854C79.0896 326.557 79.5689 326.408 80.4265 326.408H88.3724C89.1292 326.408 89.7094 326.73 90.113 327.374L104.34 350.695L118.113 327.374C118.516 326.73 119.046 326.408 119.702 326.408H128.026C128.884 326.408 129.313 326.581 129.313 326.928C129.363 327.274 129.187 327.745 128.783 328.339L109.183 359.162V382.112Z" fill="white"/>
<path d="M169.422 376.987C168.06 378.126 166.496 379.092 164.73 379.884C162.964 380.726 161.098 381.419 159.13 381.964C157.213 382.508 155.195 382.904 153.076 383.152C151.008 383.449 148.964 383.598 146.946 383.598H137.411C136.856 383.598 136.427 383.573 136.125 383.523C135.822 383.474 135.595 383.375 135.444 383.226C135.292 383.078 135.191 382.855 135.141 382.558C135.141 382.261 135.141 381.84 135.141 381.295V328.933C135.141 328.339 135.141 327.869 135.141 327.522C135.191 327.175 135.292 326.928 135.444 326.779C135.595 326.631 135.822 326.532 136.125 326.482C136.478 326.433 136.957 326.408 137.563 326.408H150.654C160.341 326.408 167.681 329.206 172.676 334.801C174.795 337.227 176.359 340.049 177.368 343.268C178.427 346.486 178.957 350.348 178.957 354.854C178.957 359.509 178.125 363.767 176.46 367.629C174.845 371.442 172.499 374.561 169.422 376.987ZM164.806 341.188C163.343 339.356 161.4 337.945 158.979 336.955C156.607 335.964 153.757 335.469 150.427 335.469H145.433V374.462H147.93C150.907 374.462 153.656 374.041 156.179 373.2C158.701 372.358 160.871 371.095 162.687 369.412C164.503 367.728 165.916 365.673 166.925 363.247C167.984 360.771 168.514 357.899 168.514 354.631C168.514 348.838 167.278 344.357 164.806 341.188Z" fill="white"/>
<path d="M220.545 383.598C219.94 383.598 219.536 383.523 219.334 383.375C219.183 383.276 218.981 382.954 218.729 382.409L207.983 361.242H201.021V382.038C201.021 382.731 200.92 383.152 200.718 383.301C200.517 383.499 200.138 383.598 199.583 383.598H192.243C191.738 383.598 191.36 383.499 191.108 383.301C190.855 383.152 190.729 382.731 190.729 382.038V327.893C190.729 327.299 190.855 326.903 191.108 326.705C191.41 326.507 191.763 326.408 192.167 326.408H207.378C210.203 326.408 212.751 326.755 215.021 327.448C217.342 328.141 219.309 329.206 220.924 330.641C222.538 332.077 223.774 333.885 224.632 336.063C225.54 338.193 225.994 340.743 225.994 343.713C225.994 347.278 225.212 350.324 223.648 352.849C222.084 355.325 220.016 357.281 217.443 358.716L229.702 381.667C230.106 382.409 230.257 382.904 230.156 383.152C230.055 383.449 229.626 383.598 228.87 383.598H220.545ZM201.021 335.543V352.18H206.091C209.118 352.18 211.464 351.512 213.129 350.175C214.794 348.789 215.626 346.61 215.626 343.639C215.626 340.965 214.945 338.96 213.583 337.623C212.271 336.237 210.556 335.543 208.437 335.543H201.021Z" fill="white"/>
<path d="M280.334 376.319C277.963 379.24 275.163 381.394 271.934 382.781C268.705 384.167 265.048 384.86 260.961 384.86C256.421 384.86 252.511 384.043 249.232 382.409C246.003 380.825 243.329 378.671 241.21 375.948C239.141 373.175 237.603 370.006 236.594 366.441C235.635 362.826 235.156 359.038 235.156 355.077C235.156 351.215 235.66 347.501 236.669 343.936C237.678 340.322 239.242 337.153 241.361 334.429C243.48 331.657 246.154 329.453 249.383 327.819C252.612 326.185 256.471 325.368 260.961 325.368C265.401 325.368 269.235 326.21 272.464 327.893C275.693 329.527 278.366 331.731 280.485 334.504C282.604 337.227 284.168 340.371 285.177 343.936C286.237 347.501 286.741 351.215 286.691 355.077C286.64 359.434 286.111 363.396 285.102 366.961C284.093 370.476 282.503 373.596 280.334 376.319ZM260.961 334.578C258.338 334.578 256.068 335.172 254.15 336.36C252.284 337.499 250.72 339.034 249.459 340.965C248.248 342.896 247.34 345.1 246.734 347.576C246.179 350.002 245.902 352.502 245.902 355.077C245.902 357.652 246.179 360.177 246.734 362.653C247.34 365.079 248.248 367.258 249.459 369.189C250.72 371.12 252.284 372.68 254.15 373.868C256.068 375.056 258.338 375.651 260.961 375.651C263.534 375.651 265.754 375.056 267.621 373.868C269.538 372.68 271.102 371.12 272.312 369.189C273.523 367.258 274.406 365.054 274.961 362.579C275.567 360.103 275.869 357.602 275.869 355.077C275.869 352.601 275.567 350.15 274.961 347.724C274.406 345.248 273.523 343.045 272.312 341.114C271.102 339.183 269.563 337.623 267.696 336.435C265.83 335.197 263.585 334.578 260.961 334.578Z" fill="white"/>
<path d="M348.299 383.598C347.643 383.598 347.239 383.499 347.088 383.301C346.937 383.152 346.861 382.781 346.861 382.186V344.902L332.104 381.964C331.852 382.508 331.625 382.855 331.423 383.003C331.221 383.152 330.843 383.226 330.288 383.226H323.704C323.149 383.226 322.746 383.152 322.493 383.003C322.292 382.855 322.09 382.508 321.888 381.964L307.131 344.902V382.186C307.131 382.781 307.056 383.152 306.904 383.301C306.753 383.499 306.349 383.598 305.694 383.598H298.277C297.622 383.598 297.218 383.499 297.067 383.301C296.915 383.152 296.84 382.781 296.84 382.186V328.636C296.84 327.596 296.94 326.977 297.142 326.779C297.394 326.532 298.025 326.408 299.034 326.408H307.51C307.964 326.408 308.317 326.482 308.569 326.631C308.821 326.779 309.048 327.101 309.25 327.596L326.958 370.749L344.742 327.596C345.045 326.804 345.675 326.408 346.634 326.408H354.883C355.942 326.408 356.573 326.532 356.774 326.779C357.027 326.977 357.153 327.596 357.153 328.636V382.186C357.153 382.781 357.052 383.152 356.85 383.301C356.699 383.499 356.32 383.598 355.715 383.598H348.299Z" fill="white"/>
<path d="M410.334 383.598C409.779 383.598 409.35 383.523 409.047 383.375C408.744 383.276 408.467 382.929 408.215 382.335L403.447 370.08H379.912L375.145 382.335C374.892 382.929 374.615 383.276 374.312 383.375C374.06 383.523 373.656 383.598 373.101 383.598H365.761C364.954 383.598 364.424 383.449 364.172 383.152C363.919 382.904 363.945 382.434 364.247 381.741L386.269 327.671C386.622 326.829 387.227 326.408 388.085 326.408H395.426C396.081 326.408 396.51 326.507 396.712 326.705C396.914 326.854 397.141 327.2 397.393 327.745L419.263 381.741C419.566 382.484 419.591 382.979 419.339 383.226C419.137 383.474 418.607 383.598 417.75 383.598H410.334ZM383.469 360.945H399.89L391.717 339.926L383.469 360.945Z" fill="white"/>
<path d="M455.479 383.598C454.873 383.598 454.47 383.523 454.268 383.375C454.116 383.276 453.915 382.954 453.662 382.409L442.917 361.242H435.954V382.038C435.954 382.731 435.853 383.152 435.652 383.301C435.45 383.499 435.072 383.598 434.517 383.598H427.176C426.672 383.598 426.293 383.499 426.041 383.301C425.789 383.152 425.663 382.731 425.663 382.038V327.893C425.663 327.299 425.789 326.903 426.041 326.705C426.344 326.507 426.697 326.408 427.1 326.408H442.311C445.136 326.408 447.684 326.755 449.954 327.448C452.275 328.141 454.243 329.206 455.857 330.641C457.471 332.077 458.707 333.885 459.565 336.063C460.473 338.193 460.927 340.743 460.927 343.713C460.927 347.278 460.145 350.324 458.581 352.849C457.017 355.325 454.949 357.281 452.376 358.716L464.635 381.667C465.039 382.409 465.19 382.904 465.089 383.152C464.988 383.449 464.56 383.598 463.803 383.598H455.479ZM435.954 335.543V352.18H441.025C444.052 352.18 446.398 351.512 448.062 350.175C449.727 348.789 450.56 346.61 450.56 343.639C450.56 340.965 449.879 338.96 448.516 337.623C447.205 336.237 445.489 335.543 443.371 335.543H435.954Z" fill="white"/>
<path d="M502.857 383.523C502.302 383.523 501.949 383.474 501.797 383.375C501.646 383.276 501.394 382.954 501.04 382.409L485.83 359.608L481.743 364.064V382.112C481.743 382.706 481.617 383.103 481.365 383.301C481.113 383.499 480.734 383.598 480.23 383.598H472.965C472.41 383.598 472.006 383.499 471.754 383.301C471.552 383.103 471.451 382.706 471.451 382.112V327.893C471.451 326.903 471.956 326.408 472.965 326.408H480.23C481.239 326.408 481.743 326.903 481.743 327.893V349.878L499.527 327.522C499.779 327.274 499.981 327.076 500.132 326.928C500.284 326.779 500.586 326.705 501.04 326.705H509.516C511.282 326.705 511.635 327.324 510.576 328.562L491.884 351.735L512.543 381.964C513.3 383.003 512.972 383.523 511.559 383.523H502.857Z" fill="white"/>
<path d="M523.79 383.672C522.58 383.672 521.848 383.523 521.596 383.226C521.344 382.929 521.217 382.162 521.217 380.924V329.008C521.217 327.869 521.318 327.151 521.52 326.854C521.772 326.557 522.479 326.408 523.639 326.408H550.579C551.437 326.408 551.916 326.557 552.017 326.854C552.118 327.151 552.169 327.596 552.169 328.191V333.984C552.169 334.677 552.093 335.147 551.942 335.395C551.79 335.593 551.336 335.692 550.579 335.692H531.509V349.804H549.596C550.403 349.804 550.857 349.952 550.958 350.249C551.109 350.546 551.185 350.992 551.185 351.586V357.38C551.185 358.073 551.084 358.543 550.882 358.791C550.731 358.989 550.302 359.088 549.596 359.088H531.509V374.388H551.336C552.143 374.388 552.597 374.512 552.698 374.759C552.85 375.007 552.925 375.452 552.925 376.096V381.889C552.925 382.533 552.85 382.979 552.698 383.226C552.597 383.523 552.143 383.672 551.336 383.672H523.79Z" fill="white"/>
<path d="M583.89 335.766V382.112C583.89 382.706 583.763 383.103 583.511 383.301C583.309 383.499 582.956 383.598 582.452 383.598H575.036C574.531 383.598 574.153 383.499 573.9 383.301C573.699 383.103 573.598 382.706 573.598 382.112V335.766H560.203C559.648 335.766 559.245 335.667 558.992 335.469C558.791 335.271 558.69 334.9 558.69 334.355V327.893C558.69 326.903 559.194 326.408 560.203 326.408H597.435C598.091 326.408 598.495 326.532 598.646 326.779C598.848 326.977 598.949 327.349 598.949 327.893V334.355C598.949 334.9 598.848 335.271 598.646 335.469C598.495 335.667 598.091 335.766 597.435 335.766H583.89Z" fill="white"/>
</g>
<defs>
<clipPath id="clip0">
<rect width="3632" height="431" fill="white" transform="translate(0 0.470703)"/>
</clipPath>
</defs>
</svg>
