<svg width="86" height="62" viewBox="0 0 86 62" fill="none" xmlns="http://www.w3.org/2000/svg">
<g clip-path="url(#clip0)">
<path d="M86 0.70459H0V61.2213H86V0.70459Z" fill="#F32D1A"/>
<path d="M2.49004 45.5206C2.08728 45.5206 1.79436 45.4454 1.61129 45.2951C1.46483 45.1447 1.3916 44.844 1.3916 44.393V3.2348C1.3916 2.48305 1.75775 2.10718 2.49004 2.10718H7.76257C8.49487 2.10718 8.86102 2.48305 8.86102 3.2348V19.6981H23.9646V3.2348C23.9646 2.48305 24.3308 2.10718 25.0631 2.10718H30.3356C31.0679 2.10718 31.434 2.48305 31.434 3.2348V44.393C31.434 44.844 31.3425 45.1447 31.1594 45.2951C31.013 45.4454 30.7383 45.5206 30.3356 45.5206H25.0631C24.6603 45.5206 24.3674 45.4454 24.1843 45.2951C24.0378 45.1447 23.9646 44.844 23.9646 44.393V26.8021H8.86102V44.393C8.86102 44.844 8.76948 45.1447 8.58641 45.2951C8.43995 45.4454 8.16534 45.5206 7.76257 45.5206H2.49004Z" fill="white"/>
<path d="M78.0938 45.5206C77.6178 45.5206 77.3249 45.4642 77.2151 45.3515C77.1052 45.2011 77.0503 44.9004 77.0503 44.4494V16.1461L66.3405 44.2802C66.1574 44.6937 65.9927 44.9568 65.8462 45.0696C65.6997 45.1823 65.4251 45.2387 65.0224 45.2387H60.2441C59.8414 45.2387 59.5485 45.1823 59.3654 45.0696C59.2189 44.9568 59.0725 44.6937 58.926 44.2802L48.2162 16.1461V44.4494C48.2162 44.9004 48.1613 45.2011 48.0514 45.3515C47.9416 45.4642 47.6487 45.5206 47.1727 45.5206H41.7903C41.3143 45.5206 41.0214 45.4642 40.9115 45.3515C40.8017 45.2011 40.7468 44.9004 40.7468 44.4494V3.79861C40.7468 3.00927 40.82 2.53943 40.9665 2.38908C41.1495 2.20115 41.6072 2.10718 42.3395 2.10718H48.4908C48.8203 2.10718 49.0766 2.16356 49.2597 2.27632C49.4428 2.38908 49.6075 2.6334 49.754 3.00927L62.6058 35.7667L75.5125 3.00927C75.7322 2.40788 76.1899 2.10718 76.8855 2.10718H82.8721C83.641 2.10718 84.0987 2.20115 84.2451 2.38908C84.4282 2.53943 84.5197 3.00927 84.5197 3.79861V44.4494C84.5197 44.9004 84.4465 45.2011 84.3 45.3515C84.1902 45.4642 83.9156 45.5206 83.4762 45.5206H78.0938Z" fill="white"/>
<path d="M1.61297 56.5555C1.5318 56.5555 1.47277 56.5404 1.43587 56.5101C1.40636 56.4798 1.3916 56.4193 1.3916 56.3284V48.0389C1.3916 47.8875 1.46539 47.8118 1.61297 47.8118H2.67552C2.8231 47.8118 2.89688 47.8875 2.89688 48.0389V51.3547H5.94065V48.0389C5.94065 47.8875 6.01444 47.8118 6.16202 47.8118H7.22457C7.37215 47.8118 7.44594 47.8875 7.44594 48.0389V56.3284C7.44594 56.4193 7.42749 56.4798 7.3906 56.5101C7.36108 56.5404 7.30574 56.5555 7.22457 56.5555H6.16202C6.08085 56.5555 6.02182 56.5404 5.98493 56.5101C5.95541 56.4798 5.94065 56.4193 5.94065 56.3284V52.7855H2.89688V56.3284C2.89688 56.4193 2.87844 56.4798 2.84154 56.5101C2.81203 56.5404 2.75669 56.5555 2.67552 56.5555H1.61297Z" fill="white"/>
<path d="M12.8867 56.3284C12.8867 56.4193 12.8682 56.4798 12.8313 56.5101C12.8018 56.5404 12.7465 56.5555 12.6653 56.5555H11.6028C11.5216 56.5555 11.4626 56.5404 11.4257 56.5101C11.3962 56.4798 11.3814 56.4193 11.3814 56.3284V52.8196L8.53685 48.0843C8.47782 47.9859 8.45568 47.9178 8.47044 47.8799C8.4852 47.8345 8.5553 47.8118 8.68074 47.8118H9.84291C9.95359 47.8118 10.0384 47.861 10.0975 47.9594L12.1783 51.5251L14.1927 47.9594C14.2518 47.861 14.3292 47.8118 14.4252 47.8118H15.6427C15.7681 47.8118 15.8308 47.8383 15.8308 47.8913C15.8382 47.9443 15.8124 48.0162 15.7534 48.1071L12.8867 52.8196V56.3284Z" fill="white"/>
<path d="M21.6972 55.5449C21.498 55.719 21.2692 55.8666 21.0109 55.9878C20.7527 56.1165 20.4797 56.2225 20.1919 56.3057C19.9115 56.389 19.6163 56.4496 19.3064 56.4874C19.0039 56.5328 18.7051 56.5555 18.4099 56.5555H17.0153C16.9341 56.5555 16.8714 56.5518 16.8271 56.5442C16.7829 56.5366 16.7497 56.5215 16.7275 56.4988C16.7054 56.4761 16.6906 56.442 16.6833 56.3966C16.6833 56.3512 16.6833 56.2868 16.6833 56.2035V48.1979C16.6833 48.1071 16.6833 48.0351 16.6833 47.9821C16.6906 47.9291 16.7054 47.8913 16.7275 47.8686C16.7497 47.8459 16.7829 47.8307 16.8271 47.8232C16.8788 47.8156 16.9489 47.8118 17.0374 47.8118H18.9523C20.369 47.8118 21.4426 48.2395 22.1731 49.095C22.483 49.4659 22.7118 49.8974 22.8593 50.3895C23.0143 50.8816 23.0918 51.4721 23.0918 52.161C23.0918 52.8726 22.97 53.5236 22.7265 54.1141C22.4904 54.697 22.1473 55.174 21.6972 55.5449ZM21.022 50.0716C20.808 49.7915 20.5239 49.5757 20.1698 49.4243C19.823 49.2729 19.4061 49.1972 18.919 49.1972H18.1885V55.1588H18.5538C18.9891 55.1588 19.3913 55.0945 19.7602 54.9658C20.1292 54.8371 20.4465 54.644 20.7121 54.3866C20.9777 54.1293 21.1844 53.8151 21.3319 53.4441C21.4869 53.0656 21.5644 52.6265 21.5644 52.1269C21.5644 51.2412 21.3836 50.5561 21.022 50.0716Z" fill="white"/>
<path d="M29.1745 56.5555C29.0859 56.5555 29.0269 56.5442 28.9974 56.5215C28.9753 56.5063 28.9457 56.4571 28.9088 56.3739L27.3371 53.1375H26.3189V56.3171C26.3189 56.4231 26.3041 56.4874 26.2746 56.5101C26.2451 56.5404 26.1897 56.5555 26.1086 56.5555H25.035C24.9612 56.5555 24.9058 56.5404 24.8689 56.5101C24.832 56.4874 24.8136 56.4231 24.8136 56.3171V48.0389C24.8136 47.9481 24.832 47.8875 24.8689 47.8572C24.9132 47.8269 24.9649 47.8118 25.0239 47.8118H27.2486C27.6618 47.8118 28.0344 47.8648 28.3665 47.9708C28.7059 48.0768 28.9937 48.2395 29.2298 48.4591C29.4659 48.6786 29.6467 48.9549 29.7722 49.288C29.905 49.6135 29.9714 50.0034 29.9714 50.4576C29.9714 51.0027 29.857 51.4683 29.6283 51.8544C29.3995 52.2329 29.097 52.5319 28.7207 52.7515L30.5137 56.2603C30.5728 56.3739 30.5949 56.4496 30.5801 56.4874C30.5654 56.5328 30.5027 56.5555 30.392 56.5555H29.1745ZM26.3189 49.2085V51.7522H27.0604C27.5032 51.7522 27.8463 51.65 28.0898 51.4456C28.3333 51.2336 28.455 50.9005 28.455 50.4463C28.455 50.0375 28.3554 49.7309 28.1562 49.5265C27.9644 49.3145 27.7135 49.2085 27.4036 49.2085H26.3189Z" fill="white"/>
<path d="M37.9192 55.4427C37.5724 55.8894 37.1628 56.2187 36.6906 56.4306C36.2184 56.6426 35.6834 56.7486 35.0857 56.7486C34.4216 56.7486 33.8498 56.6237 33.3701 56.3739C32.8979 56.1316 32.5068 55.8023 32.1969 55.3859C31.8944 54.962 31.6693 54.4775 31.5217 53.9324C31.3815 53.3798 31.3114 52.8007 31.3114 52.195C31.3114 51.6045 31.3852 51.0368 31.5328 50.4917C31.6804 49.9391 31.9091 49.4546 32.219 49.0382C32.5289 48.6143 32.92 48.2774 33.3923 48.0276C33.8645 47.7777 34.429 47.6528 35.0857 47.6528C35.735 47.6528 36.2958 47.7815 36.7681 48.0389C37.2403 48.2887 37.6314 48.6256 37.9413 49.0496C38.2512 49.4659 38.48 49.9466 38.6275 50.4917C38.7825 51.0368 38.8563 51.6045 38.8489 52.195C38.8415 52.8612 38.7641 53.4669 38.6165 54.0119C38.4689 54.5494 38.2365 55.0263 37.9192 55.4427ZM35.0857 49.0609C34.702 49.0609 34.37 49.1518 34.0896 49.3334C33.8165 49.5076 33.5878 49.7422 33.4033 50.0375C33.2262 50.3327 33.0934 50.6696 33.0049 51.0481C32.9237 51.4191 32.8831 51.8014 32.8831 52.195C32.8831 52.5887 32.9237 52.9748 33.0049 53.3533C33.0934 53.7242 33.2262 54.0573 33.4033 54.3526C33.5878 54.6478 33.8165 54.8863 34.0896 55.068C34.37 55.2497 34.702 55.3405 35.0857 55.3405C35.462 55.3405 35.7867 55.2497 36.0597 55.068C36.3401 54.8863 36.5689 54.6478 36.7459 54.3526C36.923 54.0573 37.0522 53.7205 37.1333 53.3419C37.2219 52.9634 37.2662 52.5811 37.2662 52.195C37.2662 51.8165 37.2219 51.4418 37.1333 51.0708C37.0522 50.6923 36.923 50.3554 36.7459 50.0602C36.5689 49.765 36.3438 49.5265 36.0708 49.3448C35.7978 49.1555 35.4694 49.0609 35.0857 49.0609Z" fill="white"/>
<path d="M47.8597 56.5555C47.7638 56.5555 47.7047 56.5404 47.6826 56.5101C47.6605 56.4874 47.6494 56.4306 47.6494 56.3398V50.6393L45.4911 56.3057C45.4542 56.389 45.421 56.442 45.3915 56.4647C45.3619 56.4874 45.3066 56.4988 45.2254 56.4988H44.2625C44.1813 56.4988 44.1223 56.4874 44.0854 56.4647C44.0559 56.442 44.0264 56.389 43.9969 56.3057L41.8386 50.6393V56.3398C41.8386 56.4306 41.8275 56.4874 41.8053 56.5101C41.7832 56.5404 41.7242 56.5555 41.6283 56.5555H40.5436C40.4476 56.5555 40.3886 56.5404 40.3665 56.5101C40.3443 56.4874 40.3333 56.4306 40.3333 56.3398V48.1525C40.3333 47.9935 40.348 47.8989 40.3775 47.8686C40.4144 47.8307 40.5067 47.8118 40.6542 47.8118H41.8939C41.9603 47.8118 42.012 47.8232 42.0488 47.8459C42.0857 47.8686 42.1189 47.9178 42.1485 47.9935L44.7384 54.591L47.3395 47.9935C47.3837 47.8724 47.476 47.8118 47.6162 47.8118H48.8226C48.9776 47.8118 49.0698 47.8307 49.0993 47.8686C49.1362 47.8989 49.1547 47.9935 49.1547 48.1525V56.3398C49.1547 56.4306 49.1399 56.4874 49.1104 56.5101C49.0883 56.5404 49.0329 56.5555 48.9444 56.5555H47.8597Z" fill="white"/>
<path d="M56.9329 56.5555C56.8517 56.5555 56.789 56.5442 56.7447 56.5215C56.7005 56.5063 56.6599 56.4534 56.623 56.3625L55.9257 54.4888H52.4834L51.7861 56.3625C51.7493 56.4534 51.7087 56.5063 51.6644 56.5215C51.6275 56.5442 51.5685 56.5555 51.4873 56.5555H50.4137C50.2956 56.5555 50.2181 56.5328 50.1812 56.4874C50.1444 56.4496 50.148 56.3776 50.1923 56.2717L53.4132 48.0049C53.4648 47.8762 53.5534 47.8118 53.6788 47.8118H54.7524C54.8484 47.8118 54.9111 47.8269 54.9406 47.8572C54.9701 47.8799 55.0033 47.9329 55.0402 48.0162L58.2389 56.2717C58.2832 56.3852 58.2869 56.4609 58.25 56.4988C58.2205 56.5366 58.143 56.5555 58.0176 56.5555H56.9329ZM53.0037 53.0921H55.4055L54.2101 49.8785L53.0037 53.0921Z" fill="white"/>
<path d="M63.5358 56.5555C63.4472 56.5555 63.3882 56.5442 63.3587 56.5215C63.3366 56.5063 63.307 56.4571 63.2702 56.3739L61.6985 53.1375H60.6802V56.3171C60.6802 56.4231 60.6654 56.4874 60.6359 56.5101C60.6064 56.5404 60.5511 56.5555 60.4699 56.5555H59.3963C59.3225 56.5555 59.2671 56.5404 59.2302 56.5101C59.1933 56.4874 59.1749 56.4231 59.1749 56.3171V48.0389C59.1749 47.9481 59.1933 47.8875 59.2302 47.8572C59.2745 47.8269 59.3262 47.8118 59.3852 47.8118H61.6099C62.0231 47.8118 62.3958 47.8648 62.7278 47.9708C63.0672 48.0768 63.355 48.2395 63.5911 48.4591C63.8273 48.6786 64.008 48.9549 64.1335 49.288C64.2663 49.6135 64.3327 50.0034 64.3327 50.4576C64.3327 51.0027 64.2183 51.4683 63.9896 51.8544C63.7608 52.2329 63.4583 52.5319 63.082 52.7515L64.8751 56.2603C64.9341 56.3739 64.9562 56.4496 64.9415 56.4874C64.9267 56.5328 64.864 56.5555 64.7533 56.5555H63.5358ZM60.6802 49.2085V51.7522H61.4218C61.8645 51.7522 62.2076 51.65 62.4511 51.4456C62.6946 51.2336 62.8164 50.9005 62.8164 50.4463C62.8164 50.0375 62.7167 49.7309 62.5175 49.5265C62.3257 49.3145 62.0748 49.2085 61.7649 49.2085H60.6802Z" fill="white"/>
<path d="M70.4653 56.5442C70.3841 56.5442 70.3325 56.5366 70.3103 56.5215C70.2882 56.5063 70.2513 56.4571 70.1997 56.3739L67.9749 52.8877L67.3773 53.5691V56.3284C67.3773 56.4193 67.3588 56.4798 67.3219 56.5101C67.285 56.5404 67.2297 56.5555 67.1559 56.5555H66.0933C66.0122 56.5555 65.9531 56.5404 65.9162 56.5101C65.8867 56.4798 65.872 56.4193 65.872 56.3284V48.0389C65.872 47.8875 65.9458 47.8118 66.0933 47.8118H67.1559C67.3035 47.8118 67.3773 47.8875 67.3773 48.0389V51.4001L69.9783 47.9821C70.0152 47.9443 70.0447 47.914 70.0668 47.8913C70.089 47.8686 70.1333 47.8572 70.1997 47.8572H71.4393C71.6976 47.8572 71.7492 47.9519 71.5943 48.1411L68.8604 51.684L71.882 56.3057C71.9927 56.4647 71.9448 56.5442 71.7382 56.5442H70.4653Z" fill="white"/>
<path d="M73.5271 56.5669C73.35 56.5669 73.243 56.5442 73.2061 56.4988C73.1692 56.4533 73.1507 56.336 73.1507 56.1468V48.2093C73.1507 48.0351 73.1655 47.9254 73.195 47.8799C73.2319 47.8345 73.3352 47.8118 73.5049 47.8118H77.4452C77.5707 47.8118 77.6408 47.8345 77.6555 47.8799C77.6703 47.9254 77.6776 47.9935 77.6776 48.0843V48.9701C77.6776 49.0761 77.6666 49.148 77.6444 49.1858C77.6223 49.2161 77.5559 49.2312 77.4452 49.2312H74.656V51.3888H77.3013C77.4194 51.3888 77.4858 51.4115 77.5006 51.4569C77.5227 51.5023 77.5338 51.5705 77.5338 51.6613V52.5471C77.5338 52.653 77.519 52.725 77.4895 52.7628C77.4674 52.7931 77.4046 52.8082 77.3013 52.8082H74.656V55.1475H77.5559C77.674 55.1475 77.7404 55.1664 77.7551 55.2042C77.7773 55.2421 77.7883 55.3102 77.7883 55.4086V56.2944C77.7883 56.3928 77.7773 56.4609 77.7551 56.4988C77.7404 56.5442 77.674 56.5669 77.5559 56.5669H73.5271Z" fill="white"/>
<path d="M82.3171 49.2426V56.3284C82.3171 56.4193 82.2987 56.4798 82.2618 56.5101C82.2323 56.5404 82.1806 56.5555 82.1069 56.5555H81.0222C80.9484 56.5555 80.893 56.5404 80.8561 56.5101C80.8266 56.4798 80.8119 56.4193 80.8119 56.3284V49.2426H78.8528C78.7716 49.2426 78.7126 49.2275 78.6757 49.1972C78.6462 49.1669 78.6314 49.1101 78.6314 49.0268V48.0389C78.6314 47.8875 78.7052 47.8118 78.8528 47.8118H84.2984C84.3943 47.8118 84.4533 47.8307 84.4755 47.8686C84.505 47.8989 84.5197 47.9556 84.5197 48.0389V49.0268C84.5197 49.1101 84.505 49.1669 84.4755 49.1972C84.4533 49.2275 84.3943 49.2426 84.2984 49.2426H82.3171Z" fill="white"/>
</g>
<defs>
<clipPath id="clip0">
<rect width="86" height="60.5909" fill="white" transform="translate(0 0.70459)"/>
</clipPath>
</defs>
</svg>
