<svg id="Слой_1" data-name="Слой 1" xmlns="http://www.w3.org/2000/svg" viewBox="0 0 1000 716"><defs><style>.cls-1{fill:#0a0c0d;}.cls-2,.cls-3{fill:#fec303;fill-rule:evenodd;}.cls-3{stroke:#201600;stroke-miterlimit:10;stroke-width:0.5px;}</style></defs><title>Монтажная область 1</title><path class="cls-1" d="M989.09,590.3c-9.78-13.1-25.92-20.62-44.29-20.62a71,71,0,0,0-29,6.24c2.09-39.13,0-69.57-11.06-87.31,5.86-7.49,9-17.35,9.36-30.28,1.07-41.45-66.55-67.92-76-93.7-17.21,25.78-24.77,24.18-30.66,30.61-.24.25-.49.51-.69.69-10-43.17-51.88-80.79-62.2-90.74-28.18-27.15-71-49.67-77.42-52.78-.54-.26-1.09-.46-1.63-.68a92.85,92.85,0,0,0-5.11-13.62c-13.59-29-40.09-45.46-66.45-60.13C491.16,120.76,517-.49,517-.49s-69.53,85-111.14,114.61c-25,17.78-58.74,48-74,72.56C296.92,243,302.18,298,267.69,300.4a25,25,0,0,0-20.1-10.3,25.62,25.62,0,0,0-8,1.28c-26.17,8.48-49,35.39-59.57,70.22a114.72,114.72,0,0,0-4.52,22.85A173.44,173.44,0,0,0,147.29,380c-2.87-.19-5.78-.29-8.64-.29-43.06,0-84,21.93-106.81,57.24C10.94,469.24,8,507.86,23.75,542.86l.12.28a90.28,90.28,0,0,0,6.42,11.55C17.53,563.64,7.74,579.23,3.16,599.2-5.26,636,5.07,685,47.67,705.56l.22.11c20.45,9.63,54.6,10.67,68.34,10.67,9,0,26-.43,39.14-3.3,17.49-3.8,29.66-9.95,38.14-15.91A65.71,65.71,0,0,0,227.2,706,72.13,72.13,0,0,0,266,694.88c14,9.4,31.06,14.26,50.37,14.26,24.65,0,49-8.14,65.26-15.81,14.11,7.91,31,12,49.73,12A137.88,137.88,0,0,0,489,692.41c20.29,12,48,13.17,58.18,13.17,13.15,0,28.27-1.56,40.36-7.13a73.9,73.9,0,0,0,23.25,3.61A87.29,87.29,0,0,0,649.3,693c13,8.55,29.8,13.09,49.4,13.09,22.07,0,43.88-5.51,59.44-11.6,10.24,8,23.54,12.3,38.61,12.3,13,0,25.78-3.21,35.46-8.67l.09,0c2.05.44,3.47,1.2,6.78,3,7.3,4.07,18.33,10.22,38.59,10.22a130.11,130.11,0,0,0,14.92-.92c21.24-2.44,85.83-9.85,103.09-67.76C1003.34,617,996.32,600,989.09,590.3Z"/><path class="cls-2" d="M264.62,659.59c-6.16,22.55-52.91,32.62-70,5.2-3-4.81-6.61,16-44.5,24.22-21,4.59-71.73,3.85-91.77-5.59C1.79,656.06,25.78,553,67.1,573.46c17.28,8.52,22,35.86,53.24,24.35,6.15-2.26-2.37-12.27-9.9-16.92C82,563.33,59.11,560.57,46.17,532.77c-29.4-65.33,28.3-133,99.49-128.27a154.44,154.44,0,0,1,25.82,4.26c6.58,1.58,12.91,3.32,19.06,4.79,18.16,4.35,2.72-10.77,13-44.83,8.45-27.92,26.21-48.31,43.68-54,3.72-1.22-14.39,15.94-21.53,38.42-5.16,16.38-8.06,60.89,9.94,70,9.61,4.83,16.45-3,20-8.78,10.95-18-15.18-14.72-9.54-33.33,3.32-11,14.42-13.47,21.26-11.53,14.77,4.18,17.68,18.44,17.68,18.44s-15.71-11-20-5.72c-2.51,3.11-.51,8.37,3.45,9.53,10.15,3,22.92-3.43,35.82,9.09,16.27,15.78-5.34,30.69,4.37,31.62,18.33,1.79,20.4-40.67-.13-53.07-16-9.66-78.52-31.83-19.44-62.92,38.78-20.39,24.25-50.54,24.25-50.54s20.16,11.95,21.86,33.47c4.62,58.14,37.21,46.9,75,80.67,37,33.06-3.43,62.29-3.43,62.29s1.5-12.62-1.95-17.66c-32.4-47.34-100,41.55-7.56,54.55,19.3,2.71,37.22-4.42,48.25-18,15-18.44,11.7-36.88,9.57-56.35,22.46.22,78,.14,78,.14-4.91,30.25,5.25,60.69,30,66.73a25.5,25.5,0,0,0,27.43-10.58c6.92-10.56-5.05-10.44,4.39-36.4,6.15-16.91,29.78-15.13,16.15-19.76-9.66-3.28-22.46-2.48-30.66,7.38-17.76,21.34,5.61,41.1,5.61,41.1s-41-7.44-34-48.27c5.21-30.51,37.21-27.26,70.87-44,39.61-19.71,33.45-86.71,33.45-86.71s31.22,19.92,42.88,33c17.48,19.59,16.06,57.18-6,75.83-23.4,19.81.77,45.13,19.64,41,45.33-9.95,8.61-58.45-4.27-21.34,2.48-43.29,65.57-22.55,46.28,20.76-8,18-56.47,39.37-40,59.33,12.78,15.45,38.66-2.7,52.59-42.69,17.44-50-18.09-89.15-18.09-89.15s47.87,30.41,32.44,96.83c-9.28,39.95-32.44,43.21,1.67,44.57,23.93,1,31.62-3.13,30.09-5.48-2.54-3.93-27.93-9.83-26-29.35,3.37-33.82,46.26-37.4,51.1-68.66,7.17,33.3,48.66,38.86,50.72,70.7,1.72,26.72-47.86,28.68-12.81,36.38C900,501.38,889.7,594.61,889.21,603c-1.14,18.55,29-.66,32.92-2.8,24.68-13.76,61.83-4.37,50,35.47-10.67,35.79-47.19,46.32-82.31,50.35-34.2,3.91-35.39-8.4-52.36-12-8.16-1.75-12.86-.68-13.72.1-9.3,8.42-41.37,14.25-55.4-4.1-1.41-1-11.59-2.71-12.61-1.32-27.37,12.91-85.21,23.68-104.32-8.15-9.57,14.1-45.28,24.83-66.93,9-5.79,16.68-80.18,15.66-92.15-7.23-30.94,21-81.57,27-109.08,2-12.44,8.94-84.63,43.11-118.61-4.79ZM535.39,377.34c31.91-48.21,87.45-32.36,106.13-89.26,3.84-11.64,3.58-24.73-3.36-39.53-30.11-64.25-161.88-53.2-136.72-207.38-13,26.51-41.19,62.8-77.56,90.21-23.95,18-41.51,36.69-53.72,54.47C309.43,274.18,380,324.92,449,377.34,449,377.34,521.44,377.29,535.39,377.34Z"/><path class="cls-1" d="M199.15,438.79c-4.14-1.29-8.55-2.73-13.26-4.34a150.49,150.49,0,0,0-15.27-4.25,81.61,81.61,0,0,0-17.19-1.91q-26.85,0-46,8.46t-29.54,25q-10.26,16.56-10.36,41c.07,8,1.6,14.93,4.57,20.73a47.93,47.93,0,0,0,11.74,14.77,94.41,94.41,0,0,0,16.06,10.81c5.86,3.12,11.66,6.1,17.52,8.91a137.51,137.51,0,0,1,16.07,8.76,42.49,42.49,0,0,1,11.74,10.67,24.14,24.14,0,0,1,4.54,14.48A33.32,33.32,0,0,1,145.34,609a30,30,0,0,1-11.25,11.27,30.75,30.75,0,0,1-15.4,4c-2.89,0-6.62-.14-11.19-.51A98.46,98.46,0,0,1,93,621.6a65.5,65.5,0,0,1-14.71-5,36,36,0,0,1-12-8.83,25.66,25.66,0,0,1-6.17-13.65c-1.16,2.46-2.36,5.2-3.8,8.32a82.18,82.18,0,0,0-3.65,9.75A39.36,39.36,0,0,0,51.05,623q.12,18.16,6.4,28.34A36.14,36.14,0,0,0,74.8,666a84.8,84.8,0,0,0,25.61,5.49c9.68.68,20,1,31.07.83a61.25,61.25,0,0,0,26.9-6.08,65.84,65.84,0,0,0,21.76-16.75,77.64,77.64,0,0,0,14.56-25.38,94.58,94.58,0,0,0,5.35-31.76,32.2,32.2,0,0,0-5.71-18.27,61.2,61.2,0,0,0-14.7-14.87A156.56,156.56,0,0,0,159.58,547c-7.32-3.79-14.59-7.39-21.93-10.82s-13.94-6.91-20-10.36A64.65,64.65,0,0,1,102.94,515c-3.75-3.8-5.65-7.84-5.72-12.26a12.82,12.82,0,0,1,3.67-9.08,25.43,25.43,0,0,1,9.26-5.78,68.27,68.27,0,0,1,12.26-3.12,95.11,95.11,0,0,1,12.5-1.36c4.06-.23,7.47-.32,10.3-.32,13,0,23,1.92,30.23,5.8a24,24,0,0,1,12.72,17.52,156.86,156.86,0,0,0,8.6-13.71,92.15,92.15,0,0,0,6.87-15.62,53.2,53.2,0,0,0,2.8-16.36,33.7,33.7,0,0,0-1.38-8.77,53.17,53.17,0,0,0-3-7.77c-1.15-2.37-2.06-4.11-2.87-5.42Zm75.84-5-35.19,16L216,639.88a13.66,13.66,0,0,0,1.84,5.65,39.16,39.16,0,0,0,4.48,6.61,37,37,0,0,0,5.79,5.56,10.87,10.87,0,0,0,5.72,2.28,40,40,0,0,0,12.43-8.37,113.55,113.55,0,0,0,11-12.42c3.44-4.57,6.63-8.9,9.69-13.1a94.9,94.9,0,0,1,8.61-10.36c2.75-2.66,5.25-4.1,7.61-4.18,1.61,0,2.71,1.52,3.49,4.5a61.92,61.92,0,0,1,1.08,13.32c.08,8.31,1.44,14.78,4,19.36a21.75,21.75,0,0,0,10.79,9.58A38.91,38.91,0,0,0,318,660.9c5,0,10.33-.15,16.22-.6a102.1,102.1,0,0,0,17.5-2.75,59.18,59.18,0,0,0,16.24-6.32,44.78,44.78,0,0,0,17.38-19.12,28.68,28.68,0,0,0,2-7c.3-2.44.65-5.42,1-9a77.12,77.12,0,0,1-20.24,11.28,102.13,102.13,0,0,1-22.84,5.47,171.91,171.91,0,0,1-24.53,1.53c-5,.08-8.68-.23-11.19-1a7.41,7.41,0,0,1-5.21-4.27,30.75,30.75,0,0,1-1.44-9.83v-1.82c0-1.15.09-3,.22-5.49s.49-5.94.92-10.36,1.14-10.12,2.06-17c-.77-6.09-2.15-10.37-4.11-12.88s-5.12-3.66-9.59-3.58a21.86,21.86,0,0,0-11.45,3.58,50.49,50.49,0,0,0-10.26,8.92c-3.27,3.57-6.4,7.39-9.45,11.28s-6,7.61-9,11a40.7,40.7,0,0,1-8.77,7.76,7.66,7.66,0,0,1-2.65-2.52,6.6,6.6,0,0,1-1-3.88L275,433.78Zm61.25,159.49a16.6,16.6,0,0,0,2.19,8.45,17,17,0,0,0,6,6.1,15.5,15.5,0,0,0,8.31,2.36,15.67,15.67,0,0,0,8.3-2.36,17.12,17.12,0,0,0,5.92-6.1,16.73,16.73,0,0,0,2.23-8.45,17.24,17.24,0,0,0-2.23-8.46,16.94,16.94,0,0,0-5.92-6.09,16.31,16.31,0,0,0-8.3-2.35,16.13,16.13,0,0,0-8.31,2.35,16.8,16.8,0,0,0-6,6.09,17.1,17.1,0,0,0-2.19,8.46ZM399.76,607v6.87c-.1,10.89,1,19.57,3.1,26.12s5.9,11.19,11.14,14,12.34,4.27,21.39,4.19a104.72,104.72,0,0,0,21.28-2A70.86,70.86,0,0,0,476.53,649a22.5,22.5,0,0,0,5.33-4.13,27.47,27.47,0,0,0,4.88-8.52,90.21,90.21,0,0,0,4.42-16.6,79.43,79.43,0,0,1-12.12,5.1c-4.72,1.52-9.66,2.89-14.92,4s-10.38,2.07-15.32,2.68a103.32,103.32,0,0,1-13.41,1c-6.56,0-11.19-1.36-13.85-4.27s-4-7.39-4-13.55.22-13.64.64-22.47,1-19.13,1.66-31q-6.87-5.49-13.73-5.49L399.76,607Zm8.21-74a9.87,9.87,0,0,0,3,7.08A10.83,10.83,0,0,0,426,540a9.75,9.75,0,0,0,0-14.15,10.83,10.83,0,0,0-14.94,0,9.83,9.83,0,0,0-3,7.07Zm133.9,17.82A83.26,83.26,0,0,0,526.79,552a41.16,41.16,0,0,0-13.46,4.73,25.64,25.64,0,0,0-9.79,9.89c-2.39,4.27-3.64,9.84-3.7,16.61a27,27,0,0,0,6.61,18.14c4.51,5.33,11.77,9.13,21.73,11.57,9.82,2.28,17.14,5.1,22,8.38s7.25,6.69,7.25,10.35c-.07,3.44-1.76,6.17-5.18,8.09s-8.25,2.89-14.48,2.89a20.33,20.33,0,0,1-7.83-1.91,60,60,0,0,1-8-4.19c-2.66-1.68-5.18-3.12-7.52-4.49a22.3,22.3,0,0,0-6.35-2.67,22.14,22.14,0,0,0,3.65,11.73,36.72,36.72,0,0,0,9.68,9.75,53.53,53.53,0,0,0,13.5,6.7A48.94,48.94,0,0,0,550.1,660a63.3,63.3,0,0,0,18.45-2.49,27,27,0,0,0,13.08-8.71c3.27-3.95,5-9.44,5-16.21,0-6.24-1.43-11.42-4.09-15.54a30.28,30.28,0,0,0-10.74-9.9,63.77,63.77,0,0,0-15.23-5.87,155.91,155.91,0,0,0-17.44-3.42q-17.85-2.76-17.84-11a10.35,10.35,0,0,1,5.8-9.67c3.82-2.06,9.51-3.12,17.06-3.12a85.25,85.25,0,0,1,12.1.9A46.15,46.15,0,0,1,568,578.34a23.11,23.11,0,0,1,9.08,6.71c0-8.17-.79-14.55-2.21-19.27s-3.77-8.09-6.64-10.22a23.59,23.59,0,0,0-11.06-4,101.84,101.84,0,0,0-15.31-.76Zm121.56-117-35.15,16L604.49,639.88a14,14,0,0,0,1.82,5.65,40,40,0,0,0,4.51,6.61,36.61,36.61,0,0,0,5.79,5.56A10.84,10.84,0,0,0,622.3,660a39.72,39.72,0,0,0,12.43-8.37,116,116,0,0,0,11.06-12.42c3.42-4.57,6.59-8.9,9.65-13.1a91.54,91.54,0,0,1,8.64-10.36c2.75-2.66,5.25-4.1,7.58-4.18,1.64,0,2.75,1.52,3.51,4.5a63.94,63.94,0,0,1,1.08,13.32c.06,8.31,1.43,14.78,4,19.36a21.94,21.94,0,0,0,10.82,9.58,39,39,0,0,0,15.34,2.59c4.94,0,10.32-.15,16.2-.6a101.3,101.3,0,0,0,17.51-2.75,60,60,0,0,0,16.25-6.32A38.74,38.74,0,0,0,769,639.88a37.94,37.94,0,0,0,4.71-7.77,29.61,29.61,0,0,0,2-7c.28-2.44.67-5.42,1-9a77.55,77.55,0,0,1-20.26,11.28,102,102,0,0,1-22.87,5.47,170.8,170.8,0,0,1-24.49,1.53c-5,.08-8.7-.23-11.21-1a7.48,7.48,0,0,1-5.19-4.27,30.71,30.71,0,0,1-1.45-9.83v-1.82c0-1.15.08-3,.24-5.49s.44-5.94.92-10.36,1.12-10.12,2-17c-.77-6.09-2.12-10.37-4.11-12.88s-5.11-3.66-9.6-3.58a21.94,21.94,0,0,0-11.45,3.58,50.57,50.57,0,0,0-10.28,8.92c-3.24,3.57-6.39,7.39-9.42,11.28s-6,7.61-9,11a41.36,41.36,0,0,1-8.75,7.76,7.57,7.57,0,0,1-2.7-2.52,6.75,6.75,0,0,1-1-3.88l35.15-170.45Zm61.26,159.49a16.91,16.91,0,0,0,2.2,8.45,17.18,17.18,0,0,0,6,6.1,15.74,15.74,0,0,0,16.58,0,17.24,17.24,0,0,0,6-6.1,16.6,16.6,0,0,0,2.19-8.45,16.74,16.74,0,0,0-8.15-14.55,15.8,15.8,0,0,0-16.58,0,17,17,0,0,0-6,6.09,17.43,17.43,0,0,0-2.2,8.46Zm116.07-19.19a63.36,63.36,0,0,0-22.68,10,81,81,0,0,0-18.89,19.26,57.89,57.89,0,0,0-8.61,16.15,52.5,52.5,0,0,0-2.82,17.21q.11,12.23,5.25,17.83T807.85,660a44.56,44.56,0,0,0,12.65-1.74,29.44,29.44,0,0,0,10.2-5.57c3.91-2.95,7.68-6.08,11.38-9.36a131,131,0,0,0,10.56-10.74,99.66,99.66,0,0,0,3.9,18.06q2.16,6.5,5.71,9.35a17.57,17.57,0,0,0,9.14,3.58,109.19,109.19,0,0,0,14.15.54,196,196,0,0,0,27.88-1.75,83.28,83.28,0,0,0,24-6.71,40.2,40.2,0,0,0,16.74-13.93c4.13-6,6.26-13.78,6.33-23.31-5.19,2.45-10.69,4.8-16.45,7.16s-11.59,4.42-17.31,6.25a144.05,144.05,0,0,1-16,4.49A58.47,58.47,0,0,1,897.87,638a70.5,70.5,0,0,1-10.26-.43,13.25,13.25,0,0,1-7.15-3.13c-1.84-1.75-3.19-4.58-4.14-8.54A86.72,86.72,0,0,1,875,609.26a6.68,6.68,0,0,1,.18-1.37c.12-.92.44-2.89,1-5.95s1.56-7.67,2.9-14.17l-1.82-11.87-20.1,14.18c0-5.27-1.35-9.23-4.12-12s-6.87-4-12.34-4Zm-21.94,59.41a16.4,16.4,0,0,1-2.12.6,10.39,10.39,0,0,1-2.9.31,4.14,4.14,0,0,1-4.54-3.65,23.7,23.7,0,0,1,3.1-10.67,51.18,51.18,0,0,1,7.6-10.82,66.94,66.94,0,0,1,9.67-8.75,28,28,0,0,1,9.29-4.51c1.64-.67,3.16-1.2,4.5-1.67a16.58,16.58,0,0,1,4.19-.61,5.23,5.23,0,0,1,3.73,1.29,5.35,5.35,0,0,1,1.3,3.74,12.93,12.93,0,0,1-1,5,30.32,30.32,0,0,1-3.1,5.56,107.41,107.41,0,0,1-15.39,15.68,47.25,47.25,0,0,1-14.33,8.55Z"/><polygon class="cls-3" points="450.69 383.41 454.44 397.41 532.32 397.41 533.68 383.41 450.69 383.41"/><path class="cls-1" d="M753.31,555.5a50.22,50.22,0,0,1-5.51-.37,9.51,9.51,0,0,1-4.82-2,10.35,10.35,0,0,1-2.92-5,38.25,38.25,0,0,1-1.39-6.42q-1.73,1.77-3.51,3.34c-1.75,1.54-3.58,3-5.45,4.4a15,15,0,0,1-5.17,2.72,21.74,21.74,0,0,1-6.27.77h0c-3.4-.07-5.93-1.11-7.7-3.11s-2.62-5.11-2.59-9.24a26.32,26.32,0,0,1,1.54-8.5,28.5,28.5,0,0,1,4.34-7.87,39,39,0,0,1,9.24-9.22,31,31,0,0,1,11.1-4.71h.16c3,.05,5.16.85,6.62,2.33a7.88,7.88,0,0,1,2,4.43l7.89-5.41a1.19,1.19,0,0,1,.66-.2,1.23,1.23,0,0,1,.43.1,1.13,1.13,0,0,1,.66.88l.74,5.64-2,9.4-.13.91a39.93,39.93,0,0,0,.43,7.69,6.89,6.89,0,0,0,1.54,3.49,4.87,4.87,0,0,0,2.67,1.22,30.74,30.74,0,0,0,3.81.29,27.53,27.53,0,0,0,6.64-.69,69.77,69.77,0,0,0,7.41-2c2.68-.81,5.38-1.76,8.07-2.79s5.26-2.12,7.7-3.23a1,1,0,0,1,.48-.09,1.06,1.06,0,0,1,.6.18,1.15,1.15,0,0,1,.51,1,20.85,20.85,0,0,1-3.38,11.6,20.08,20.08,0,0,1-8.4,6.85,40.65,40.65,0,0,1-11.61,3,88.59,88.59,0,0,1-12.38.62Zm-15.88-33.66a6.55,6.55,0,0,0-1.66.21c-.57.18-1.26.41-2,.7a12,12,0,0,0-4.16,2,29,29,0,0,0-4.42,3.9,23.1,23.1,0,0,0-3.47,4.82,10.45,10.45,0,0,0-1.43,4.55l1,.6a3.93,3.93,0,0,0,1.06-.09,8.09,8.09,0,0,0,1-.25,21.12,21.12,0,0,0,6.39-3.72,49.63,49.63,0,0,0,7.17-7.15,13.22,13.22,0,0,0,1.33-2.32,5,5,0,0,0,.43-1.93,1.34,1.34,0,0,0-.29-1A1.47,1.47,0,0,0,737.43,521.84Zm-58.36,31a11.82,11.82,0,0,1-3.4-.61,10.38,10.38,0,0,1-3.93-2.8,20.38,20.38,0,0,1-3.64-6,56.46,56.46,0,0,1-2.88-9.5l-7.72,1a1.12,1.12,0,0,1-.83-1.86,31.78,31.78,0,0,0,2.74-3.64,30.08,30.08,0,0,0,2-4c.61-1.51,1.36-3.43,2.13-5.73l.44-1.3a55.71,55.71,0,0,0,1.86-8.33c.57-3.38,1-7,1.55-10.81s1-7.69,1.57-11.47,1.2-7.22,1.95-10.32c.51-2,1.21-4.16,2-6.55s1.75-4.83,2.85-7.27a55.94,55.94,0,0,1,3.5-6.78,24.85,24.85,0,0,1,4.09-5.11,7.45,7.45,0,0,1,4.92-2.13l2,.5a21.07,21.07,0,0,1,3.38,8.2,47.09,47.09,0,0,1,.77,9.86,79.37,79.37,0,0,1-.77,9,71.38,71.38,0,0,1-2.23,10,46.76,46.76,0,0,1-3.85,9.33l-.69,1.12c-.89,1.57-2,3.62-3.23,6.16s-2.53,5.34-3.79,8.3a88.7,88.7,0,0,0-3.16,8.56,29.17,29.17,0,0,0-1.33,7,12.93,12.93,0,0,0,1.62,6.87c1,1.61,2.15,2.42,3.52,2.48a2.75,2.75,0,0,0,2.1-1,7.54,7.54,0,0,0,1.46-2.78,12.33,12.33,0,0,0,.56-3.26,8.81,8.81,0,0,0-.83-3.32,24,24,0,0,0-2.38-4,36.2,36.2,0,0,0-3.09-3.73,1.1,1.1,0,0,1-.22-1.27l4-8.37a1.12,1.12,0,0,1,.73-.6,1.15,1.15,0,0,1,.31,0,1.19,1.19,0,0,1,.63.21l10.31,7.32L700,512a1,1,0,0,1,.67-.21,1.18,1.18,0,0,1,.27,0,1.11,1.11,0,0,1,.73.62A19.56,19.56,0,0,0,703,514.9a5.89,5.89,0,0,1,1,3.2,7,7,0,0,1-.52,2.24l-.74,1.94a8.17,8.17,0,0,0-.38,1.05,1.1,1.1,0,0,1-.81.84,11.71,11.71,0,0,0-3.65,1.49,4.29,4.29,0,0,0-1.69,2.28,18.11,18.11,0,0,0-.61,5,26.62,26.62,0,0,1-1,6.61,22.3,22.3,0,0,1-3,6.45,15.76,15.76,0,0,1-5,4.93,13.39,13.39,0,0,1-7.26,1.88Zm3.5-81.11a1.84,1.84,0,0,0-.87.64,9.87,9.87,0,0,0-1.56,2.51,18.42,18.42,0,0,0-1.15,4c-.36,1.89-.73,4.05-1.06,6.48s-.58,5-.84,7.45c-.21,1.89-.75,7.14-.75,7.14-.07,1-.15,1.95-.24,2.81.12-.18.24-.38.37-.6a40.24,40.24,0,0,0,2.66-6.07c.88-2.55,1.68-5.15,2.39-7.88s1.33-5.2,1.76-7.44A32.45,32.45,0,0,0,684,476a7.9,7.9,0,0,0-.46-3.26A1.83,1.83,0,0,0,682.57,471.7ZM816.3,555.14a52.18,52.18,0,0,1-9.87-1,16.29,16.29,0,0,1-6.23-2.54,8.82,8.82,0,0,1-3.18-4.06c-.43-1.78-.76-3.25-1-4.57a17.26,17.26,0,0,1-.4-3.67,16.32,16.32,0,0,1,1.06-5.21,33.17,33.17,0,0,1,1.77-4,8.62,8.62,0,0,0,.82-1.76,8.11,8.11,0,0,0-.32-2.64c-.06-.15-.22-.58-1.33-.64l-6.12,1.58h-.38a5.91,5.91,0,0,1-2-.34,5.23,5.23,0,0,1-1.69-1.13,7.6,7.6,0,0,1-1.9-2.64,8.61,8.61,0,0,1-.65-3.59,19,19,0,0,1,.57-4.71,14,14,0,0,1,1.38-3.39c.62-1,1.3-2.2,2.11-3.65s1.7-3.37,2.75-5.87a1.12,1.12,0,0,1,1.06-.69h.14a1.13,1.13,0,0,1,1,1,34.89,34.89,0,0,0,.87,5.31,4,4,0,0,0,1.2,2.12,3,3,0,0,0,1.84.55,16.45,16.45,0,0,0,2.25-.5c1.3-.32,2.75-.66,4.32-.95a22.53,22.53,0,0,1,4.28-.53,5.91,5.91,0,0,1,5.76,6l-4.59,14.13a21.45,21.45,0,0,0-1.82,3.55,8.47,8.47,0,0,0-.59,2.78,3.69,3.69,0,0,0,1.07,2.77,7.76,7.76,0,0,0,3.75,1.86c.87.09,1.91.19,3,.21s10.42.23,10.42.23a104.79,104.79,0,0,0,19.32-1.57c6.42-1.1,12.87-2.51,19.16-4.17a1,1,0,0,1,.3,0,1.08,1.08,0,0,1,.67.24,1.09,1.09,0,0,1,.43.9,11.52,11.52,0,0,1-2.12,6.11,23,23,0,0,1-6.22,6.26,45.66,45.66,0,0,1-10.86,5.64l-2.06.7a16.72,16.72,0,0,1-3,.78,39.82,39.82,0,0,1-4.93.69c-2,.18-4.67.31-7.92.4S821.13,555.22,816.3,555.14Z"/></svg>