<?xml version="1.0" encoding="utf-8"?>
<!-- Generator: Adobe Illustrator 23.0.2, SVG Export Plug-In . SVG Version: 6.00 Build 0)  -->
<svg version="1.1" xmlns="http://www.w3.org/2000/svg" xmlns:xlink="http://www.w3.org/1999/xlink" x="0px" y="0px"
	 viewBox="0 0 1500 1500" style="enable-background:new 0 0 1500 1500;" xml:space="preserve">
<style type="text/css">
	.st0{display:none;}
	.st1{display:inline;}
	.st2{fill:white;}
</style>
<g id="Слой_2" class="st0">
	<rect x="0" class="st1" width="1500" height="1500"/>
</g>
<g id="Слой_1">
	<g>
		<path class="st2" d="M1016.2,275.3V146c0-23.8-19.3-43.1-43.1-43.1h-474c-23.8,0-43.1,19.3-43.1,43.1v129.3
			c0,23.8,19.3,43.1,43.1,43.1h474C996.9,318.4,1016.2,299.1,1016.2,275.3z M1059.3,189.1v172.4c0,23.8-19.3,43.1-43.1,43.1H800.8
			c-47.6,0-86.2,38.6-86.2,86.2v43.1c-23.8,0-43.1,19.3-43.1,43.1v172.4c0,23.8,19.3,43.1,43.1,43.1h86.2
			c23.8,0,43.1-19.3,43.1-43.1V576.9c0-23.8-19.3-43.1-43.1-43.1v-43.1h215.4c71.4,0,129.3-57.9,129.3-129.3v-86.2
			C1145.5,227.7,1106.9,189.1,1059.3,189.1z"/>
		<g>
			<path class="st2" d="M439,1162.5h-42.2l-4.2-36.1h-32.2l-3.6,36.1h-42.2l27.2-194.5h65.6L439,1162.5z M378.7,1004.9H374l-10,84.8
				h23.9L378.7,1004.9z"/>
			<path class="st2" d="M492.6,1004.6l-15.3,157.8H434l19.5-167.3l29.5-27.2h60v194.5h-40.6v-157.8H492.6z"/>
			<path class="st2" d="M606.8,1041.3H643l29.5,28.3v64.5l-29.5,28.3h-76.7V967.9h40.6V1041.3z M606.8,1125.8h25V1078h-25V1125.8z"
				/>
			<path class="st2" d="M719.1,967.9h76.7v194.5h-40.6v-78.6h-25v78.6h-40.6v-77l24.7-19.7l-24.7-19.5v-50L719.1,967.9z
				 M730.2,1004.6v42.5h25v-42.5H730.2z"/>
			<path class="st2" d="M928.1,1162.5h-40.6v-78.9h-27.8v78.9h-40.6V967.9h40.6v78.9h27.8v-78.9h40.6V1162.5z"/>
			<path class="st2" d="M1060.4,1162.5h-42.2l-4.2-36.1h-32.2l-3.6,36.1h-42.2l27.2-194.5h65.6L1060.4,1162.5z M1000,1004.9h-4.7
				l-10,84.8h23.9L1000,1004.9z"/>
			<path class="st2" d="M1177.1,1042.4h-40.6v-37.8h-27.8v121.2h27.8v-46.4h40.6v54.7l-29.5,28.3h-50l-29.5-28.3V996.3l29.5-28.3h50
				l29.5,28.3V1042.4z"/>
		</g>
		<g>
			<path class="st2" d="M863.8,1296.2c-0.2,0.1,2.9,16.6,4.3,34.2c2.8,33.3-2.5,41.3-6.4,44.4c-8.6,6.4-19.1-1.4-24.2-9.3
				c-12.9-19-19.7-58.5-21.4-85.2c-0.3-3.1-0.5-5.6-0.5-5.6c-0.2-0.1-0.5,6.8-0.5,12.4c0.1,2,0.3,8.5,0.5,14.4
				c1.4,34.4,5.1,45.1-8.9,49.9c-6,1.9-11.8-1.2-17.3-9.1c-7.6-10.4-11.5-23.5-14.9-36.3c-0.5,7.4,9.7,46.9-7.9,53
				c-5.7,2-9.9-0.2-15.6-7.5c-6.2-8.1-10.2-18.1-7.8-19.9c0.2-0.1,0.7-0.4,1-0.7c0.7-0.8,0.8-0.7,1.2,1.2l0.4,1.9l0-1.8
				c0-1.8,0-1.8,0.6-2.4c1.8-1.8,6,2.9,7,4.6c3.6,6.4,10.1,15.4,10.7,14.8c0.5-0.4,1.3-6.2,1.3-10.7c1-20.6-1.7-41.1-0.7-62.7
				c0.7-14.3,0.8-15.1,3.1-17.3c1.1-1,1.5-1.3,2-1.1c0.4,0.1,0.8-0.1,1-0.5c0.5-0.4,1-0.7,1.7-0.8c3.8-0.7,6.8,0.1,8.8,2.2
				c3.6,4.2,6.5,13,15.5,50.5c2,8.3,5.7,19.5,7.9,24.1l1.2,2.8l0.6-4.8c2.6-19.1-4.1-75.7,8.8-86.9c15.6-13.6,20.6,28,21.2,36
				c1.6,23.3,4.8,36.2,9.2,55.3c2.6,10.9,8,26.3,12,31.9c5.3-9.2,3.3-24.2,2.4-36.3c-1.4-16.9-4.4-33.1-4.4-33.3
				c-0.4-2.3,1.1-4.4,3.4-4.8C861.1,1292.5,863.2,1294,863.8,1296.2z M767,1338.6c0.5,0.2,0.3-8.9-0.8-36.2
				c-0.2-4.1-0.4-9.3-0.2-11.1c-0.1-2.2-0.3-3.7-0.3-3.7c-0.5-0.2-0.2,9.3,0.6,31.6c0.3,6.1,0.6,12.8,0.6,15.2
				C766.9,1336.6,767,1338.6,767,1338.6z M768,1269.8c-0.3-0.3-0.8,6.9-1.1,13.6c-0.4,7.7-0.2,14.1,0.4,27.5
				c0.9,17.9,1.1,25.3,0.9,30.7c-0.1,2.6-0.1,4.9-0.1,4.9s0.4-1.7,0.5-3.8c0.6-4.8,0.5-11.4-0.1-24.2c-1.2-25.6-1.2-31.6-0.6-43.7
				C768.2,1272.1,768.2,1269.9,768,1269.8z M769.8,1284.5c-0.2-0.5-0.2-0.7-0.2,6.3c-0.2,3.1,0.2,11.7,0.7,19.4
				c0.8,16.3,1.3,27,0.9,31.9c-0.1,2,0.1,3.8,0.1,3.8c0.4,0.1,0.8-5.9,0.9-10.7c-0.1-2.6-0.3-8.5-0.5-13.2
				c-1.2-20.4-1.4-25.7-1.5-31.1C770.3,1287.6,770.1,1284.8,769.8,1284.5z M771.4,1293c-0.3-0.3,0.1,8.6,0.7,19.6
				c0.9,12.5,1.2,19.8,1.1,24.1c0.2,1.7,0.3,3.1,0.3,3.1c0.5,0.4,0.2-8.9-0.8-25.2c-0.4-6.3-0.7-13.8-0.9-16.5
				C771.7,1295.3,771.5,1293,771.4,1293z M774.1,1270.7c0,2.8,4.5,24.1,6.9,31.7c0.7,2.7,0.6,2.2-0.6-3.4c-0.9-3.7-2.4-11-3.4-16.3
				c-0.9-5.1-1.9-10.2-2.3-11.2C774.2,1269.2,773.9,1268.9,774.1,1270.7z M809.9,1331.9c0.5-6,0.8-13.3,0.8-28.1
				c0-19.8,0.1-30.5,1.2-39.1c0.3-4.3,0.3-4.9-0.4-1.1c-1.2,9.4-1.6,20.6-1.5,42.2c0.1,11.4-0.2,20.5-0.7,26.7
				c-0.2,2.5-0.3,4.3-0.1,4.3C809.2,1336.7,809.6,1334.6,809.9,1331.9z M813.8,1267.9c0.1-1.4,0.2-2.9,0-2.8
				c-0.2-0.1-0.8,6.9-1.1,13c-0.3,5.5-0.2,15.7,0.1,37.6c0,8-0.1,16.7-0.6,21.6c0.1,0.2,0.2,0.1,0.4-0.1c0.3-0.3,0.9-7.3,1-13.5
				c0.2-3.1,0-11.8-0.3-19.5C812.9,1285.6,813,1275.5,813.8,1267.9z M822.9,1308c-1.9-11.4-3-24-4-42.7c-0.2-5.9-0.5-10.8-0.7-10.8
				c-0.3-0.3-0.5,2.8-0.4,6.5c0.8,21,1.8,32,4.2,44.8C823.7,1314.9,824.3,1316.1,822.9,1308z M820.5,1263c1.9,27.6,4,41.3,9.4,63.7
				c1.1,4.4,2.1,7.3,1.3,3.8c-4.3-19-5.9-30.6-7.8-53.6c-1.6-17.5-1.9-21.4-2.8-24.5c-0.3-1.5-0.7-2.8-0.9-2.7
				S819.6,1250.3,820.5,1263z M827.7,1271.1c2.4,22.8,4.3,34.8,8.4,52.6c1.7,7.8,2,7.7,0.4,0.1c-2.9-14.4-4.2-24-6.5-45.2
				c-1.3-13.2-2.2-18.7-3.3-22.9c-0.6-1.8-1-3-1-3s0.2,1.7,0.3,3.9C826.4,1258.5,827.1,1265.3,827.7,1271.1z M830.8,1263.2
				c0.1,1.6,0.8,6.9,1.3,12c1,9.5,2.3,19.4,3.2,25.7c1.1,6.8,1.2,5.2,0.2-3.1c-0.7-4.4-1.6-12.9-2.4-18.6
				c-0.6-5.8-1.4-12.3-1.7-14.4c-0.3-2.1-0.6-4-0.8-4.1C830.4,1260.4,830.6,1261.5,830.8,1263.2z"/>
			<path class="st2" d="M931.9,1273c0.1,0.4,0.3,11.9,1.4,25c2.3,28.9-7.2,37.5-22.2,35.1c-6.6-1.1-10.4-7-18.8-23.2l-0.1,2.6
				c-0.2,3.5-0.1,6.7-2.7,10.7c-1.7,2.6-3.7,3.7-6.9,5c-2.3,0.8-3.4,1.2-4.8,1.2c-3.2,0.1-5.2-0.4-7.3-1.5
				c-12-5.7-20.6-36.6-14.8-54.2c3.3-10.2,11.2-19.4,20-23.5c5.3-2.6,9.9-3.8,14.8-3.7c3,0,4.4,0.1,6.4,1.2c0.7,0.4,0.9,0.3,1.1-0.2
				c0.4-0.7,3.3,0.3,4.6,1.8c1.8,1.6,3.5,4.8,4.1,7.8c2.8,8.1,5.6,46.1,8.7,55.1c0.9,4.5,2.3,7.8,3.8,8.7c2,1.3,3.9-3.3,4.5-5.6
				c0.8-4.7,1.4-8.1,1.4-17.5c-0.1-12.6-1.2-24-1.3-24.2c-0.2-2.3,1.3-4.3,3.7-4.5C929.7,1268.9,931.7,1270.7,931.9,1273z
				 M861,1284.1c-1.2,5.4-0.9,8.3,1.2,15.8c0.6,2.4,0.9,3.1,1.2,2.8c0.1-0.4,0.1-1-0.1-1.4c-0.6-1.8-1.5-13.1-1.4-18
				C862.2,1279.3,861.8,1279.4,861,1284.1z M869.1,1278.9c-2.7,0.9-0.8,16.5,0,18.8c1.4,5.3,1.4,5.3,0.8-0.5
				C869,1291.8,869.4,1284,869.1,1278.9z M886.5,1287.2c1.5-8.9-2.6-17.9-0.8-27.5c0-0.6-1.2,0-2.2,1.2c-3.8,4.1-6.2,8.9-7.2,15.7
				c-1,5.3-0.7,16.1,0.4,22.9c0.7,3.2,4.2,14,5.2,15.7l0.5,0.8l0.9-2.1C884.9,1308.8,885.5,1294.7,886.5,1287.2z M907.2,1304.9
				c0.4,1.1,0.4,1.3,0.4,0.5c-2.1-9.1-4.8-25-5.8-35.7c-0.4-3.1-1-6.9-1.1-8.4c-0.3-1.5-0.7-2.7-0.8-2.9c-0.5-0.2-0.8,2.5-0.6,4.8
				C900.7,1275.5,905.2,1299.6,907.2,1304.9z"/>
			<path class="st2" d="M979.7,1254c1,6.5,1.2,17.4-1.9,27.7c-3.4,11-9.2,18.8-17.8,21.7c-8.6,3-19.5-0.9-25.9-7.7
				c-9-9.3-12.9-25.2-12.4-39c0.5-13.2,6.3-23,15-27c10.7-4.9,19.2,6.8,17.8,16.7c-0.5,3.2-2.8,5.8-1.9,1.5c0-0.6-0.1-1.4-0.4-1.7
				c-0.4-0.5-0.5,0.4-0.5,3.8c0.1,0.8-1.4,0.7-1.8,0c-0.7-1-0.1,0.4-0.8,0.7c-3.8,0.5-3.6-10.6-7.4-12.7l-1.1,2.2
				c-2.1,4.3-2.7,11.5-1.6,21c0.6,4.8,3.7,16,5.5,19.5c2,3.9,4.2,7.6,6.3,9.6c8.8,9.2,16.1-1.5,18.8-11.1c2.6-8.3,2.7-17.9,1.8-23.9
				c-0.4-2.3,1.1-4.4,3.4-4.8C977.2,1250.3,979.3,1251.7,979.7,1254z M928.3,1250.4c0.1-1.4,0.1-2.6,0-2.8
				c-2.1,5.1-0.7,17.1-0.2,19.7c0.9,3.9,1,3.6,0.5-1C928.1,1262.1,928,1253.9,928.3,1250.4z M933.6,1249.4c0.2-1.7,0.3-3.1,0.3-3.1
				c-2,2.5-1.1,14.2-0.7,16.7c1,5.3,1.4,5.9,1,1.7C933.6,1259.8,933.5,1253.6,933.6,1249.4z"/>
			<path class="st2" d="M1082.3,1221c0.1,0.8,3.8,17.9,5.1,35.9c0.9,10.7,0.5,19.5-0.2,26.1c-1.4,12.3-7.8,17.1-15.1,17.4
				c-7.7,0.2-14.7-5-19.5-13.5c-12.2-21.6-14.5-44.1-17.1-70.8c-0.4-4.1-3.4-27.5-4.2-30.4l-0.6-2.4l-0.4,1.1
				c-1.3,3.2-2.2,10-2.2,16.8c-0.7,6.1,4.6,47.7,4.7,52.9c0,5.2,2.9,13.6-1.5,17.9c-0.4,0.5-2.2,0.1-2.5,0.9
				c-0.2,1.1-4.1,1.4-6.8,0.7c-1.6-0.5-2.8-1.7-4.2-4.2c-3.9-6.7-5.8-8.8-9.6-27.4c-0.8-4.1-1.9-9.1-3.4-14
				c-1.3,3.8-1.8,9.8-1.9,14.3c0.2,8.7,1.8,16.2,6,30.4c1.8,5.8,5.5,13.1,2.4,19.4c-0.8,0.7-0.1,2.6-1.2,3c-0.2,0.1-0.5,0.4-0.6,0.6
				c-0.2,0.1-0.6,0-1.4-1.3l0.2,1.1c0.1,2.2-5.1,0.3-6.8-0.1c-3-1.2-5.3-2.6-8.3-5.6c-6.9-6.8-15.4-21-22-36.1
				c-4.2-9.8-7.1-21.4-6.3-24.9c0.4-1.7,1.2-2.8,2.2-3c0.8,0.1,0.7-0.8,1.3-1.5c1.3-0.4,1.6,3,1.8,4.2l0.4,1.7l0-1.8
				c-0.3-1.3-0.6-4.6,1.6-5.3c1.1-0.4,1.6-0.6,2-0.1c0.7,1,0.8-0.7,1.5-0.3c1.2,0,3.6,1.2,4.7,2c2.4,2.2,3.1,3.9,12.4,21.6
				c1.5,2.7,2.7,5.1,3,5.4c0.1,0.2,0.1-1.4-0.1-3.4c-1-12.3,1.6-23.4,6.3-27.2c3.7-3.1,8.9-3.3,12-0.5c2.3,2,5.7,7.9,7.7,13.8
				c0.9,2.5,1,1.1-0.2-5.3c-3.4-19.9-5.9-47.6,8-54.8c6.3-3.4,12.6-0.5,17.4,6.3c10.6,15.2,12.8,39.7,16.1,58.1
				c2.8,15.8,5.2,34.5,7.3,41c1.2,4.2,2.6,7.7,5,11.5c1.7-1.4,3-4.6,3.8-9.3c1-5.9,1.1-14.2,0.3-24.3c-1.4-17.4-5-34.5-4.9-34.8
				c-0.6-2.2,0.9-4.5,3.1-4.9C1079.6,1217.3,1081.7,1218.8,1082.3,1221z M1025,1231.6c-2.8-16.3-2.8-28.5-1.9-37.2
				c0.3-1.5,0.2-2.9,0.2-2.9c-0.4-0.1-1.2,8.8-1.3,12.7c0.1,5.6-0.2,10.5,1.1,18.9c1.4,8.7,1.9,12.6,2.7,18.9c0.2,2.9,0.8,5.7,1,6.3
				C1027.4,1249.6,1026.2,1239.2,1025,1231.6z M1025.8,1192.9c-0.3-0.3-0.8,5.9-0.9,9.5c0,4-0.3,9.7,1,18.1
				c1.9,14.4,2.6,19.1,3.4,27.3c0.4,4.7,0.9,9.1,1.1,9.6c0.8,2.3-0.8-15.1-2.6-28c-1.8-11.6-1.8-16.8-1.9-23
				c-0.2-4.7-0.2-11.1,0-12.8C1025.9,1193.3,1026,1192.9,1025.8,1192.9z M1044,1247.3c-0.6-3.4-1.8-13.4-3-22
				c-1.9-14.4-2.3-20.2-3.5-25.4c-0.6-3-0.8-2.3-0.2,1.1c0.4,1.7,0,3.6,0.7,8c3.4,26.3,4.8,36.8,6.3,42.3
				C1044.7,1252.7,1044.6,1251.3,1044,1247.3z M1046.4,1232.1c-2.8-18.7-2.6-21.1-4.8-29.8c-0.6-3.6-1.7-7.2-1.9-8
				c-0.6-1.2-0.5-1,0,1.2c0.8,3.5,1.3,9.8,2.6,19.9c3.5,25.4,5.2,34.5,8.3,44.6l1.1,3.6l-0.8-3.5
				C1049.5,1252.7,1048.6,1247.2,1046.4,1232.1z M1054.2,1231.4c-2.3-13.8-3.8-20.9-5.8-29.2c-0.3-0.9-0.4-1.3-0.3-1.5
				c-0.1,0.2,0.2,1.1,0.4,2.3c0.7,3.2,1.4,8.7,2.5,16c4,25.1,7.3,42.8,9.5,50.4l0.9,3.3l-1.1-5.4
				C1059.2,1261.1,1057.6,1252.5,1054.2,1231.4z"/>
			<path class="st2" d="M1135,1203.7c0.1,0.4-0.1,12.6-2.2,25.6c-3.1,17.1-8.4,27.9-16.4,31.5c-36,10.1-50.8-43.6-40.3-69.7
				c3.6-8.8,9.6-16.9,20.2-17.6c4.6-0.2,7.9,2.1,9.2,5.7c1.7,4.8,0.6,12.8-2.7,21.3c-5.1,13.2-8.4,15.1-7.1,18.9
				c3.4,9.9,7,23.4,10.9,28.7c1.6,2.3,4.6,5.2,5.7,5.5c6.5,0.8,11.9-21.5,12.5-25.5c2.2-12.4,2.3-24.2,2.2-24.4c0-2.2,1.8-4,4.2-4.1
				C1133.2,1199.5,1135,1201.3,1135,1203.7z M1080.7,1230.4c0.1-0.2-1.2-4.8-1.5-6.7c-0.7-6.6-0.8-16.3-0.3-22.3
				c0.2-1.9-0.1-1.4-0.6,1.2c-1.4,7.5-1.7,14.4-0.5,20C1078.8,1227.2,1080.5,1231,1080.7,1230.4z M1084.3,1219.3
				c0.7,0.4,0.9-1.5,0.7-5.5c-0.2-4.7-0.4-12.9-0.3-15.3s-0.1-2-0.7,1c-0.7,3.2-1,6.4-1.1,9.8C1083,1212.1,1084,1219,1084.3,1219.3z
				 M1090.4,1208.4c1.1-2.6,11.5-24.2,4.8-27.5c-0.7-0.4-0.7-0.4-1.8,1.8c-2.3,5-3.4,12.8-3.4,20.6
				C1090.2,1206.1,1090.3,1208.2,1090.4,1208.4z"/>
			<path class="st2" d="M1217.1,1177.3c-4.9,8.5-11.8,11.7-18.5,14.4c0.1,0.4,0.2,0.7,0.4,1.3c4.2,12.4,4.5,28.3-0.7,41.7
				c-3.7,9.7-17.3,19.7-27.4,11.8c5.4,17.6,20.5,41,15.3,35.4c0,1.2,0.1,2.6-0.1,3.2c-0.3,1.5-1.6,3.4-2.4,3.6
				c-1.4,0.5-0.2-3.5-1.5-4.3c-0.2,1.3,1.3,4.4,0.1,5.6c-0.7,0.8-1.1,0.8-1.5-0.3l-0.4-1.1l-0.2,1.1c0,0.6-0.5,1.4-0.8,1.7
				c-2.2,1.8-4.6,0.6-7.1,1.4c-1.4,0.5-1.7-0.2-3.2-0.5c-1.4-0.1-4.3-2.1-6.1-4.3c-12.3-15.4-30.2-62.3-36.9-87.1
				c-4.8-16.8-5.5-24.3-3.1-29c0.7-1.4,1.8-1.2,2.4-2.4c0.5-0.8,1.1-0.8,1.4,0.1c0.4,1.1,1.1,0.8,1.1-0.4c0-2.2,1.4-0.7,1.4-1.1
				c0.3-0.9,1.2-1.2,1.4-0.5s2-0.5,2.5-0.3c0.8,0.1,1.6,0.5,2.4,0.6c2.5,0.8,3.3,4.9,4.4,6.9c0.9,1.5,5.6,11.5,7,15
				c7.2-27.3,38.2-40.4,48.6-6.1c6-2.4,10.6-4.6,14.2-10.7c1.1-2,3.7-2.7,5.7-1.5C1217.5,1172.8,1218.2,1175.3,1217.1,1177.3z
				 M1179.8,1191.9c-2-7.5-3.7-16-9.9-19.6c-11.1,9-15.7,22.4-15.1,36c8.6,20.5,8.6,20.5,8.6,20.5
				C1163.5,1213.7,1166.9,1201.4,1179.8,1191.9z M1181,1226.9c0.7-5.5,0.9-18.3,0.3-25.5c-6.9,6.2-7.6,16.8-5,26.8
				c1.2,4,2.6,7.5,2.9,7.4S1180.8,1229.8,1181,1226.9z M1185,1225c0.7-4.3,0.8-9.3,0.5-15.4c-0.1-2.6-0.5-4.8-0.7-5.6
				c-0.2-0.7-0.2-0.5,0,1.6c0.1,3.2,0,18-0.5,20.8C1184,1229.7,1184.4,1229,1185,1225z M1188.3,1227.1c1.3-5,1.4-13.9,0.5-21.4
				c-0.6-4.8-1.3-7.4-1.1-4.2c0.1,2.8,0.2,10.4,0,13.4c-0.1,1.4-0.3,4.5-0.5,6.8c-0.1,2-0.3,5.1-0.5,6.8c0,1.6-0.3,3.3-0.3,3.7
				C1186.3,1233,1187.8,1229,1188.3,1227.1z M1194.6,1202.3c0,0,0,1.6,0,3.6c0,3.4-0.4,9.9-1.3,20.7c-0.4,5.2-0.1,5,1.2,0
				c1.6-6.4,2-14.1,1-20.6C1195.2,1203.9,1194.8,1202.2,1194.6,1202.3z"/>
			<path class="st2" d="M1271.2,1157c0.1,0.2,0,6.4-2.5,13.3c-2.6,7.5-7.1,13.1-13,16.3l0.2,2.9c-0.8,15.7-9.9,28.8-27.7,22.1
				c-5.8-2.2-11.3-9.1-13.6-17c-2-7.1-3.9-16.1-3.9-19.7c-0.1-1.6-0.2-1.7-2-3.9c-2.8-3.5-4.6-8.2-4.8-12.4
				c-0.3-3.7-0.2-5.2,0.8-8.1c1.8-5.8,9.6-13.5,18.8-12.4c2.3,0.2,7.6,1.6,10.8,3.3c6.8,3.5,12.2,10,16.2,19.1
				c1.5,3.7,4.1,12.6,4.6,16.3c2.6-2.3,4.6-5.2,5.9-9c2-5.7,2.1-10.7,2.1-10.9c0-2.2,1.8-4,4.2-4.1
				C1269.3,1152.8,1271.2,1154.6,1271.2,1157z M1212.9,1159.3l1.7-1.6c0.9-0.9,1.7-1.6,1.8-1.6c0.2,0.5,0,2.4,0.4,1.7
				c-0.4,0.1,1.1-2.2,1.1-2.2c1.1-2.2,1.4,1.1,1.5-0.3c0.2-0.5,1-1.1,1.1-0.8c0.2,0.5,0,3,0.3,2.1c0.4-0.7,0.6-0.6,0.9-1.3
				c1.1-2.8,1.8,1.6,2-0.1l0.1-0.8l1.1,0.8c1.3,0.9,1.2,0.6,2.9,13.8l0.9,7.9c3.8,2.9,9.8,5.7,17.1,4.3l-0.1-1.6
				c-0.4-4.7-1.2-8.2-2.9-13.2c-3.3-8.9-7.8-15.1-13.4-18.6c-4.3-2.7-13.2-4.7-16.4,1.8c-1.1,2.2-1.3,5-0.5,7.8L1212.9,1159.3z
				 M1245.8,1189.7c-4.5,2-14.1-1-13.4-1.2c-1.8,0.6,10.2,13.9,10.9,12.5C1244.1,1199.5,1245.6,1192.2,1245.8,1189.7z"/>
			<path class="st2" d="M1349.6,1130.5c-0.2,0.7-0.9,15.3-16.3,24.4l1,4.1c2.3,10.2,3.3,18.5,3,23.2c-0.5,7.4-4.1,13.6-9.8,16.4
				c-6.7,3.3-13.6,1.3-17.4-5.2c-2.6-4.1-4.3-10.3-4.4-14.5c0.1-5,2.2-11.2,5.5-15.9c1.7-2.6,7.1-8.4,8-8.8c0.7-0.2,0.5-1.6-0.9-5.5
				c-2.5-7.2-6.8-16.3-8.2-17c-0.5-0.2-2.1,1.9-3.9,5.5c-4.8,10-6.1,27.1-3.6,44.5c0.7,4.4,1.9,9.7,3.5,16c1,4.7,1.3,6.2,1.1,7.4
				c-0.2,1.7-1.1,3.2-1.8,2.8c-0.7-0.4-0.8,0.7-1.4,0.7c-2,1.9-4.6,0.6-5.6,1.3c-24.4-9.8-39.2-55.2-41.4-79.7
				c-1.3-13.6-0.3-30.5,9.8-42c4.6-5.4,13.8-7.7,20.7-5.5c6.9,2.5,10.3,9.7,9.9,19.4c-0.7,8.5-3.2,19.1-7.5,30
				c-1.6,4.6-5.6,12.9-7,15.2c2.5,8.4,5,16.9,8.4,25.1c0.1-0.4-0.3-2.5-0.3-4.9c-1.3-20.8,4.8-39.1,14.1-43.5
				c4.2-1.8,10-1.2,13.6,1.6c4,2.8,6.8,6.9,9.5,13.2c1,2.3,2.8,7.6,2.8,7.6c9.5-6.9,10-16.3,10-16.3c0.2-2.5,2-4.1,4.5-3.9
				C1347.9,1126.2,1349.6,1128.2,1349.6,1130.5z M1265.7,1096c1.8-3.6-4.2,23.3-3.8,23.9C1262.2,1119.2,1262.9,1101.3,1265.7,1096z
				 M1276.1,1123.4c0.3,1.9,0.9,5.7,3.3,13.7c1.8-4.2,4.3-11.5,5.3-15c1.7-6,8.4-30.5-1.9-34.6
				C1275.4,1084.8,1274.5,1112,1276.1,1123.4z M1291.2,1102.8c-1.5,11.9-5.9,26.5-10.1,37.7c7-17.4,10-28.1,10.3-36.4
				c0.2-1.9,0.2-3.5,0.1-3.7C1291.5,1100.5,1291.4,1101.6,1291.2,1102.8z M1294.3,1102.4c-0.4,3.5-3.1,16.7-4.4,21.1
				c-0.6,2.2-1.8,5.8-2.7,7.9c-0.8,2.3-1.1,3.2-0.6,2.2c1.1-2.2,3.9-10.2,4.8-13.9c1.4-4.7,2.9-12,3.2-15.9
				C1294.7,1099.6,1294.6,1098.5,1294.3,1102.4z M1322.5,1164.2c-0.3,0.3-3.1,4.9-3.9,6.7c-2.2,4.8-2.2,9.4-0.6,14.6
				c1,2.9,3.1,7.2,3.6,7s2-2.9,2.8-4.8c1.4-4.7,0.9-10.7-1.5-22.5C1322.7,1164.7,1322.5,1164.2,1322.5,1164.2z"/>
		</g>
		<g>
			<path class="st2" d="M629.1,381.7l-45.9-1c-2.2,0-4.2,0.8-5.8,2.3l-5.9,5.6l-5.6-5.9c-1.5-1.6-3.5-2.5-5.7-2.5l-91.9-1.9
				c-18.4-0.4-49.3-1-81,29.4c-31.7,30.4-32.3,58.9-32.8,79.7c-0.1,3.3,1.8,6.3,4.9,7.6c3,1.3,6.5,0.7,8.9-1.6
				c47.3-45.3,72-30.5,86.5-15.4c12,12.5,14.1,28.9,14.2,38.1l75,1.6c3.6-16.9,10.4-39.3,17.9-45.3l7.7,8c1.5,1.6,3.5,2.5,5.7,2.5
				l57.4,1.2c2.1,0,4.2-0.8,5.8-2.3l0.2-0.2c1.6-1.6,2.4-3.8,2.3-6l-3.9-86.2C636.8,385.2,633.4,381.8,629.1,381.7z"/>
			<path class="st2" d="M463.9,751.5c-0.2,11.2,3.9,21.8,12.3,30.6c16,16.7,42.6,17.2,59.3,1.2c8.5-8.2,13.2-19.6,12.9-31.4
				L542.5,534l-74.1-1.6L463.9,751.5z"/>
		</g>
		<g transform="translate(1 1)">
			<g>
				<g>
					<path class="st2" d="M439.4,953.1h616c14.4,0,27.5-13.1,27.5-27.5v-92.9c0.7-15-11.8-27.5-27.5-27.5H1028l0,0l0,0h-74.5l0,0
						l0,0l-73.2,0l0,0l0,0h-37.9l0,0l0,0h-36.6l0,0l0,0H769l0,0l0,0H657.9l0,0c0,0,0,0,0,0h-36.6l0,0c0,0,0,0,0,0l-181.8,0
						c-6.5,0-11.8,2.6-15.7,6.5s-6.5,9.2-5.9,15v104.6C417.9,943.3,427.7,953.1,439.4,953.1z M436.2,931.5V826.9
						c0-2.6,0.7-3.3,3.3-3.3h135.4V870c0,5.2,3.9,9.2,9.2,9.2c5.2,0,9.2-3.9,9.2-9.2v-46.4h19v27.5c0,5.2,3.9,9.2,9.2,9.2
						c5.2,0,9.2-3.9,9.2-9.2v-27.5h18.3v45.8c0,5.2,3.9,9.2,9.2,9.2c5.2,0,9.2-3.9,9.2-9.2v-45.8h18.3v27.5c0,5.2,3.9,9.2,9.2,9.2
						c5.2,0,9.2-3.9,9.2-9.2v-27.5l19,0V870c0,5.2,3.9,9.2,9.2,9.2c5.2,0,9.2-3.9,9.2-9.2v-46.4h19l0,27.5c0,5.2,3.9,9.2,9.2,9.2
						s9.2-3.9,9.2-9.2v-27.5h18.3v45.8c0,5.2,3.9,9.2,9.2,9.2s9.2-3.9,9.2-9.2v-45.8h18.3v27.5c0,5.2,3.9,9.2,9.2,9.2
						c5.2,0,9.2-3.9,9.2-9.2v-27.5H871v45.8c0,5.2,3.9,9.2,9.2,9.2c5.2,0,9.2-3.9,9.2-9.2l0-45.8h18.3v27.5c0,5.2,3.9,9.2,9.2,9.2
						c5.2,0,9.2-3.9,9.2-9.2v-27.5h18.3v45.8c0,5.2,3.9,9.2,9.2,9.2c5.2,0,9.2-3.9,9.2-9.2v-45.8h19v28.1c0,5.2,3.9,9.2,9.2,9.2
						c5.2,0,9.2-3.9,9.2-9.2v-28.1h19v45.8c0,5.2,3.9,9.2,9.2,9.2c5.2,0,9.2-3.9,9.2-9.2v-45.8l18.3,0c2.6,0,4.6,0.7,6.5,2.6
						c2,2,2.6,3.9,2.6,6.5l0,92.9c0,2.6-0.7,4.6-2.6,6.5c-2,2-3.9,2.6-6.5,2.6h-616C438.1,934.8,436.2,932.8,436.2,931.5z"/>
					<path class="st2" d="M528.4,879.8c0.7-20.3-15.7-36.6-36.6-36.6c-10.5,0-19.6,3.9-26.2,10.5c-6.5,6.5-11.1,15-10.5,26.2
						c-0.7,20.3,16.3,36,36.6,36.6C512,917.1,527.7,900.1,528.4,879.8z M472.8,879.2c0-10.5,7.8-18.3,18.3-18.3
						c10.5,0,18.3,7.8,18.3,18.3c0,5.2-2,9.8-5.2,13.1c-3.3,3.3-7.8,5.2-13.1,5.2C480.6,897.5,472.8,889.6,472.8,879.2z"/>
				</g>
			</g>
		</g>
	</g>
</g>
</svg>
