<svg width="35" height="32" viewBox="0 0 35 32" fill="none" xmlns="http://www.w3.org/2000/svg">
<path d="M31.5469 17.257L31.5674 17.2792L17.0134 31.8332L2.45944 17.2792L2.48002 17.257C0.789917 15.2867 -0.0931448 12.7504 0.00778904 10.1564C0.108723 7.56244 1.1862 5.10244 3.0243 3.26934C4.8624 1.43625 7.32533 0.365487 9.91957 0.271628C12.5138 0.177769 15.0477 1.06774 17.0134 2.76322C18.9792 1.06774 21.5131 0.177769 24.1073 0.271628C26.7015 0.365487 29.1645 1.43625 31.0026 3.26934C32.8407 5.10244 33.9182 7.56244 34.0191 10.1564C34.12 12.7504 33.237 15.2867 31.5469 17.257Z" fill="white"/>
</svg>
