<svg width="32" height="32" viewBox="0 0 32 32" fill="none" xmlns="http://www.w3.org/2000/svg">
<path d="M16.0134 0.166748C20.3153 0.166748 20.8521 0.182581 22.5399 0.261748C24.2261 0.340915 25.3741 0.605332 26.3842 0.997998C27.4292 1.40016 28.3096 1.94483 29.1899 2.82358C29.995 3.61508 30.618 4.57251 31.0155 5.62925C31.4066 6.63783 31.6726 7.78733 31.7517 9.47358C31.8261 11.1614 31.8467 11.6982 31.8467 16.0001C31.8467 20.302 31.8309 20.8387 31.7517 22.5266C31.6726 24.2128 31.4066 25.3608 31.0155 26.3709C30.6191 27.4282 29.996 28.3859 29.1899 29.1766C28.3982 29.9814 27.4408 30.6044 26.3842 31.0022C25.3756 31.3933 24.2261 31.6593 22.5399 31.7384C20.8521 31.8128 20.3153 31.8334 16.0134 31.8334C11.7115 31.8334 11.1747 31.8176 9.48689 31.7384C7.80064 31.6593 6.65272 31.3933 5.64255 31.0022C4.5854 30.6055 3.62781 29.9824 2.83689 29.1766C2.03161 28.3852 1.40861 27.4277 1.0113 26.3709C0.618637 25.3623 0.35422 24.2128 0.275054 22.5266C0.200637 20.8387 0.180054 20.302 0.180054 16.0001C0.180054 11.6982 0.195887 11.1614 0.275054 9.47358C0.35422 7.78575 0.618637 6.63942 1.0113 5.62925C1.40751 4.57187 2.03066 3.61417 2.83689 2.82358C3.62803 2.01803 4.58557 1.39499 5.64255 0.997998C6.65272 0.605332 7.79905 0.340915 9.48689 0.261748C11.1747 0.187331 11.7115 0.166748 16.0134 0.166748ZM16.0134 8.08342C13.9138 8.08342 11.9001 8.91749 10.4155 10.4022C8.9308 11.8868 8.09672 13.9005 8.09672 16.0001C8.09672 18.0997 8.9308 20.1133 10.4155 21.598C11.9001 23.0827 13.9138 23.9167 16.0134 23.9167C18.113 23.9167 20.1267 23.0827 21.6113 21.598C23.096 20.1133 23.9301 18.0997 23.9301 16.0001C23.9301 13.9005 23.096 11.8868 21.6113 10.4022C20.1267 8.91749 18.113 8.08342 16.0134 8.08342ZM26.3051 7.68758C26.3051 7.16267 26.0965 6.65927 25.7254 6.2881C25.3542 5.91693 24.8508 5.70842 24.3259 5.70842C23.801 5.70842 23.2976 5.91693 22.9264 6.2881C22.5552 6.65927 22.3467 7.16267 22.3467 7.68758C22.3467 8.21249 22.5552 8.7159 22.9264 9.08706C23.2976 9.45823 23.801 9.66675 24.3259 9.66675C24.8508 9.66675 25.3542 9.45823 25.7254 9.08706C26.0965 8.7159 26.3051 8.21249 26.3051 7.68758ZM16.0134 11.2501C17.2732 11.2501 18.4813 11.7505 19.3721 12.6413C20.2629 13.5321 20.7634 14.7403 20.7634 16.0001C20.7634 17.2599 20.2629 18.468 19.3721 19.3588C18.4813 20.2496 17.2732 20.7501 16.0134 20.7501C14.7536 20.7501 13.5454 20.2496 12.6546 19.3588C11.7638 18.468 11.2634 17.2599 11.2634 16.0001C11.2634 14.7403 11.7638 13.5321 12.6546 12.6413C13.5454 11.7505 14.7536 11.2501 16.0134 11.2501Z" fill="white"/>
</svg>
