<svg width="32" height="32" viewBox="0 0 32 32" fill="none" xmlns="http://www.w3.org/2000/svg">
<path d="M16 0.166748C20.3019 0.166748 20.8386 0.182581 22.5265 0.261748C24.2127 0.340915 25.3606 0.605332 26.3708 0.997998C27.4158 1.40016 28.2961 1.94483 29.1765 2.82358C29.9816 3.61508 30.6046 4.57251 31.002 5.62925C31.3931 6.63783 31.6591 7.78733 31.7383 9.47358C31.8127 11.1614 31.8333 11.6982 31.8333 16.0001C31.8333 20.302 31.8175 20.8387 31.7383 22.5266C31.6591 24.2128 31.3931 25.3608 31.002 26.3709C30.6057 27.4282 29.9826 28.3859 29.1765 29.1766C28.3847 29.9814 27.4274 30.6044 26.3708 31.0022C25.3622 31.3933 24.2127 31.6593 22.5265 31.7384C20.8386 31.8128 20.3019 31.8334 16 31.8334C11.698 31.8334 11.1613 31.8176 9.47346 31.7384C7.78721 31.6593 6.63929 31.3933 5.62913 31.0022C4.57198 30.6055 3.61438 29.9824 2.82346 29.1766C2.01819 28.3852 1.39518 27.4277 0.997876 26.3709C0.605209 25.3623 0.340793 24.2128 0.261626 22.5266C0.187209 20.8387 0.166626 20.302 0.166626 16.0001C0.166626 11.6982 0.182459 11.1614 0.261626 9.47358C0.340793 7.78575 0.605209 6.63942 0.997876 5.62925C1.39408 4.57187 2.01723 3.61417 2.82346 2.82358C3.61461 2.01803 4.57214 1.39499 5.62913 0.997998C6.63929 0.605332 7.78563 0.340915 9.47346 0.261748C11.1613 0.187331 11.698 0.166748 16 0.166748ZM16 8.08342C13.9003 8.08342 11.8867 8.91749 10.402 10.4022C8.91737 11.8868 8.08329 13.9005 8.08329 16.0001C8.08329 18.0997 8.91737 20.1133 10.402 21.598C11.8867 23.0827 13.9003 23.9167 16 23.9167C18.0996 23.9167 20.1132 23.0827 21.5979 21.598C23.0826 20.1133 23.9166 18.0997 23.9166 16.0001C23.9166 13.9005 23.0826 11.8868 21.5979 10.4022C20.1132 8.91749 18.0996 8.08342 16 8.08342ZM26.2916 7.68758C26.2916 7.16267 26.0831 6.65927 25.7119 6.2881C25.3408 5.91693 24.8374 5.70842 24.3125 5.70842C23.7876 5.70842 23.2841 5.91693 22.913 6.2881C22.5418 6.65927 22.3333 7.16267 22.3333 7.68758C22.3333 8.21249 22.5418 8.7159 22.913 9.08706C23.2841 9.45823 23.7876 9.66675 24.3125 9.66675C24.8374 9.66675 25.3408 9.45823 25.7119 9.08706C26.0831 8.7159 26.2916 8.21249 26.2916 7.68758ZM16 11.2501C17.2597 11.2501 18.4679 11.7505 19.3587 12.6413C20.2495 13.5321 20.75 14.7403 20.75 16.0001C20.75 17.2599 20.2495 18.468 19.3587 19.3588C18.4679 20.2496 17.2597 20.7501 16 20.7501C14.7402 20.7501 13.532 20.2496 12.6412 19.3588C11.7504 18.468 11.25 17.2599 11.25 16.0001C11.25 14.7403 11.7504 13.5321 12.6412 12.6413C13.532 11.7505 14.7402 11.2501 16 11.2501Z" fill="#252525"/>
</svg>
