<svg width="30" height="30" viewBox="0 0 30 30" fill="none" xmlns="http://www.w3.org/2000/svg">
<path d="M29.25 21.9983V27.597C29.2502 27.9979 29.0983 28.3839 28.825 28.6771C28.5517 28.9704 28.1774 29.1491 27.7775 29.1772C27.0856 29.2247 26.5203 29.25 26.0833 29.25C12.0914 29.25 0.75 17.9086 0.75 3.91667C0.75 3.47967 0.77375 2.91442 0.822833 2.2225C0.850894 1.82262 1.02959 1.44827 1.32286 1.17498C1.61612 0.901694 2.00214 0.749819 2.403 0.75H8.00167C8.19806 0.749802 8.38752 0.82261 8.53324 0.954282C8.67895 1.08595 8.77053 1.26709 8.79017 1.4625C8.82658 1.82667 8.85983 2.11642 8.8915 2.3365C9.20616 4.53246 9.85101 6.66823 10.8042 8.67142C10.9546 8.98808 10.8564 9.3665 10.5714 9.56917L7.15458 12.0107C9.24372 16.8785 13.123 20.7579 17.9909 22.847L20.4293 19.4365C20.5289 19.2972 20.6743 19.1972 20.8401 19.1541C21.0059 19.111 21.1816 19.1274 21.3365 19.2006C23.3395 20.152 25.4747 20.7952 27.6698 21.1085C27.8899 21.1402 28.1797 21.175 28.5407 21.2098C28.7358 21.2298 28.9165 21.3216 29.0479 21.4673C29.1792 21.6129 29.2518 21.8022 29.2516 21.9983H29.25Z" fill="#252525"/>
</svg>
