<svg width="24" height="24" viewBox="0 0 24 24" fill="none" xmlns="http://www.w3.org/2000/svg">
<g clip-path="url(#clip0)">
<path d="M0.503819 15.4517C1.98636 20.3969 6.57242 24 12.0001 24C18.6274 24 24.0001 18.6273 24.0001 12C24.0001 5.3726 18.6274 0 12.0001 0C5.64054 0 0.436866 4.94719 0.0258789 11.2027C0.802439 12.5068 1.10547 13.3133 0.503932 15.4517H0.503819Z" fill="#E02929"/>
<path d="M11.3819 8.99455C11.3819 9.01474 11.3819 9.03493 11.3829 9.05389L8.4465 13.3195C7.97082 13.2979 7.4935 13.3813 7.0409 13.5677C6.84138 13.6491 6.65443 13.749 6.47901 13.8644L0.0310486 11.21C0.0310991 11.21 -0.118153 13.6646 0.503632 15.4939L5.06198 17.3748C5.29086 18.3976 5.99252 19.2948 7.02772 19.7264C8.72142 20.434 10.6743 19.6275 11.3788 17.9331C11.5622 17.4901 11.6477 17.0256 11.6353 16.5621L15.8369 13.5595C15.8708 13.5605 15.9059 13.5616 15.9399 13.5616C18.4542 13.5616 20.4978 11.5118 20.4978 8.99455C20.4978 6.47713 18.4542 4.4292 15.9399 4.4292C13.4266 4.4292 11.3819 6.47713 11.3819 8.99455ZM10.6774 17.6385C10.1321 18.9477 8.62758 19.5688 7.31984 19.0239C6.71654 18.7725 6.26106 18.3121 5.99829 17.7631L7.48207 18.378C8.4465 18.7798 9.55297 18.3224 9.95386 17.3583C10.356 16.3931 9.89979 15.2848 8.93587 14.8831L7.40203 14.2476C7.9939 14.023 8.66672 14.0148 9.29536 14.2764C9.92914 14.5401 10.4209 15.0366 10.6815 15.6711C10.9421 16.3056 10.9411 17.006 10.6774 17.6385V17.6385ZM15.9399 12.0371C14.266 12.0371 12.9033 10.6723 12.9033 8.99455C12.9033 7.31816 14.266 5.95294 15.9399 5.95294C17.6147 5.95294 18.9775 7.31816 18.9775 8.99455C18.9775 10.6723 17.6147 12.0371 15.9399 12.0371ZM13.6645 8.98992C13.6645 7.72781 14.6863 6.70415 15.945 6.70415C17.2047 6.70415 18.2265 7.72781 18.2265 8.98992C18.2265 10.2521 17.2047 11.2749 15.945 11.2749C14.6863 11.2749 13.6645 10.2521 13.6645 8.98992V8.98992Z" fill="#0A0A0A"/>
</g>
<defs>
<clipPath id="clip0">
<rect width="24" height="24" fill="#E02929"/>
</clipPath>
</defs>
</svg>
