<svg width="48" height="48" viewBox="0 0 48 48" fill="none" xmlns="http://www.w3.org/2000/svg">
<g clip-path="url(#clip0)">
<path d="M1.00764 30.9033C3.97272 40.7938 13.1448 48 24.0003 48C37.2548 48 48.0003 37.2546 48.0003 24C48.0003 10.7452 37.2548 0 24.0003 0C11.2811 0 0.873732 9.89439 0.0517578 22.4055C1.60488 25.0136 2.21093 26.6266 1.00786 30.9033H1.00764Z" fill="white"/>
<path d="M22.7638 17.9891C22.7638 18.0295 22.7638 18.0699 22.7659 18.1078L16.893 26.639C15.9416 26.5957 14.987 26.7626 14.0818 27.1355C13.6828 27.2982 13.3089 27.4981 12.958 27.7288L0.0620972 22.4199C0.0621982 22.4199 -0.236306 27.3291 1.00726 30.9878L10.124 34.7496C10.5817 36.7952 11.985 38.5896 14.0554 39.4527C17.4428 40.868 21.3486 39.255 22.7576 35.8661C23.1243 34.9803 23.2953 34.0512 23.2706 33.1241L31.6737 27.119C31.7417 27.1211 31.8117 27.1231 31.8797 27.1231C36.9084 27.1231 40.9956 23.0235 40.9956 17.9891C40.9956 12.9543 36.9084 8.8584 31.8797 8.8584C26.8531 8.8584 22.7638 12.9543 22.7638 17.9891ZM21.3547 35.2769C20.2641 37.8953 17.2552 39.1375 14.6397 38.0478C13.4331 37.5451 12.5221 36.6242 11.9966 35.5262L14.9641 36.7561C16.893 37.5595 19.1059 36.6448 19.9077 34.7166C20.712 32.7863 19.7996 30.5696 17.8717 29.7662L14.8041 28.4951C15.9878 28.046 17.3334 28.0296 18.5907 28.5528C19.8583 29.0802 20.8418 30.0732 21.363 31.3422C21.8842 32.6112 21.8821 34.012 21.3547 35.2769ZM31.8797 24.0742C28.5321 24.0742 25.8066 21.3446 25.8066 17.9891C25.8066 14.6363 28.5321 11.9059 31.8797 11.9059C35.2294 11.9059 37.9549 14.6363 37.9549 17.9891C37.9549 21.3446 35.2294 24.0742 31.8797 24.0742ZM27.329 17.9798C27.329 15.4556 29.3726 13.4083 31.89 13.4083C34.4095 13.4083 36.4531 15.4556 36.4531 17.9798C36.4531 20.5043 34.4095 22.5497 31.89 22.5497C29.3726 22.5497 27.329 20.5043 27.329 17.9798Z" fill="#0A0A0A"/>
</g>
<defs>
<clipPath id="clip0">
<rect width="48" height="48" fill="white"/>
</clipPath>
</defs>
</svg>
