<svg width="64" height="64" viewBox="0 0 64 64" fill="none" xmlns="http://www.w3.org/2000/svg">
<g clip-path="url(#clip0)">
<g opacity="0.4" filter="url(#filter0_d)">
<path d="M26.695 59.004C20.6295 57.8125 15.1417 54.6135 11.1159 49.9226C7.09016 45.2317 4.76094 39.3221 4.50355 33.1459C4.24617 26.9698 6.07561 20.8868 9.6971 15.8772C13.3186 10.8677 18.5212 7.22321 24.4666 5.53114C30.412 3.83907 36.754 4.19793 42.4706 6.5499C48.1872 8.90186 52.9454 13.1099 55.9787 18.4961C59.0119 23.8822 60.1435 30.1327 59.191 36.2404C58.2386 42.3481 55.2576 47.9573 50.7283 52.1641L49.7919 51.1559C54.0947 47.1594 56.9266 41.8307 57.8315 36.0284C58.7363 30.2261 57.6613 24.2881 54.7797 19.1713C51.8982 14.0545 47.3778 10.0568 41.947 7.82241C36.5163 5.58804 30.4914 5.24712 24.8433 6.85459C19.1951 8.46206 14.2526 11.9243 10.8122 16.6834C7.37182 21.4425 5.63384 27.2213 5.87836 33.0886C6.12287 38.956 8.33564 44.5702 12.1601 49.0265C15.9846 53.4829 21.198 56.5218 26.9603 57.6538L26.695 59.004Z" fill="#E02929"/>
</g>
<g opacity="0.2" filter="url(#filter1_d)">
<path d="M56.256 32C56.256 37.4483 54.4217 42.738 51.0487 47.0167C47.6756 51.2954 42.9603 54.3139 37.6625 55.5858C32.3647 56.8577 26.7929 56.3089 21.845 54.0279C16.8971 51.7469 12.8613 47.8665 10.3878 43.012C7.91426 38.1575 7.14717 32.6116 8.21009 27.2679C9.27301 21.9242 12.104 17.094 16.247 13.5556C20.39 10.0172 25.6036 7.97659 31.0477 7.76269C36.4919 7.54878 41.8495 9.174 46.2573 12.3765L45.5445 13.3576C41.357 10.3153 36.2673 8.77135 31.0953 8.97456C25.9234 9.17776 20.9705 11.1163 17.0346 14.4778C13.0988 17.8393 10.4094 22.428 9.39959 27.5045C8.38981 32.581 9.11855 37.8496 11.4684 42.4614C13.8182 47.0732 17.6523 50.7596 22.3528 52.9265C27.0533 55.0935 32.3464 55.6148 37.3794 54.4065C42.4123 53.1982 46.8918 50.3306 50.0962 46.2659C53.3006 42.2011 55.0432 37.1759 55.0432 32H56.256Z" fill="#E02929"/>
</g>
<g opacity="0.8" filter="url(#filter2_d)">
<path d="M26.152 11.4406C30.77 10.1271 35.6958 10.4065 40.1356 12.234C44.5755 14.0614 48.2707 17.3304 50.6261 21.5142C52.9814 25.698 53.8595 30.5529 53.119 35.2966C52.3786 40.0404 50.0625 44.3967 46.5442 47.6636C43.0258 50.9305 38.5101 52.9178 33.7245 53.3052C28.939 53.6925 24.1624 52.4575 20.1644 49.799C16.1664 47.1405 13.1798 43.2134 11.686 38.6505C10.1922 34.0876 10.278 29.1547 11.9297 24.6465L12.9332 25.0142C11.3641 29.297 11.2825 33.9833 12.7017 38.318C14.1208 42.6527 16.9581 46.3835 20.7561 48.909C24.5542 51.4346 29.092 52.6079 33.6383 52.2399C38.1846 51.8719 42.4745 49.984 45.817 46.8804C49.1594 43.7769 51.3596 39.6384 52.0631 35.1318C52.7665 30.6252 51.9323 26.0131 49.6947 22.0385C47.4572 18.0639 43.9467 14.9583 39.7289 13.2223C35.511 11.4862 30.8315 11.2207 26.4444 12.4686L26.152 11.4406Z" fill="#E02929"/>
</g>
<g opacity="0.6" filter="url(#filter3_d)">
<path d="M13.7015 36.903C12.6002 32.7928 12.9147 28.4316 14.5944 24.5219C16.2741 20.6123 19.2212 17.3821 22.9607 15.3517C26.7002 13.3213 31.0144 12.609 35.2081 13.3296C39.4018 14.0502 43.2308 16.1617 46.0781 19.324C48.9254 22.4862 50.6251 26.5149 50.9034 30.761C51.1817 35.007 50.0224 39.2231 47.6122 42.7299C45.2021 46.2368 41.6814 48.83 37.6177 50.0918C33.5539 51.3537 29.1836 51.2106 25.2111 49.6857L25.5505 48.8014C29.3244 50.2501 33.4762 50.386 37.3368 49.1873C41.1974 47.9885 44.542 45.5249 46.8316 42.1935C49.1213 38.862 50.2226 34.8567 49.9582 30.8229C49.6938 26.7891 48.0791 22.9619 45.3742 19.9578C42.6693 16.9537 39.0317 14.9477 35.0477 14.2631C31.0637 13.5785 26.9652 14.2552 23.4126 16.1841C19.8601 18.113 17.0604 21.1817 15.4647 24.8958C13.869 28.61 13.5701 32.7532 14.6164 36.6579L13.7015 36.903Z" fill="#E02929"/>
</g>
<path d="M17.5206 31.5988C17.5206 31.2554 17.5824 30.9325 17.7061 30.6303C17.8435 30.328 18.0221 30.067 18.2419 29.8471C18.4754 29.6136 18.7434 29.435 19.0456 29.3113C19.3479 29.174 19.6707 29.1053 20.0142 29.1053H22.8993C23.2428 29.1053 23.5656 29.174 23.8679 29.3113C24.1839 29.435 24.4586 29.6136 24.6922 29.8471C24.9258 30.067 25.1044 30.328 25.228 30.6303C25.3654 30.9325 25.4341 31.2554 25.4341 31.5988V33.3093H22.7757V32.8765C22.7757 32.5605 22.6657 32.2926 22.4459 32.0728C22.2398 31.853 21.9788 31.7431 21.6628 31.7431H21.2713C20.969 31.7431 20.708 31.853 20.4882 32.0728C20.2683 32.2926 20.1584 32.5605 20.1584 32.8765V32.9177L21.704 34.5664V38.791L18.7571 35.535C18.4411 35.164 18.1526 34.7587 17.8916 34.3191C17.6443 33.8795 17.5206 33.4742 17.5206 33.1032V31.5988ZM21.6628 41.0991C21.9651 41.0991 22.2261 40.9892 22.4459 40.7694C22.6795 40.5496 22.7963 40.2817 22.7963 39.9657V35.7204L24.177 37.163C24.493 37.5339 24.7746 37.9392 25.0219 38.3789C25.283 38.8185 25.4135 39.2307 25.4135 39.6154V41.2434C25.4135 41.6006 25.3448 41.9303 25.2074 42.2326C25.0838 42.5348 24.9052 42.7959 24.6716 43.0157C24.4518 43.2355 24.1907 43.4141 23.8885 43.5515C23.5862 43.6751 23.2634 43.737 22.9199 43.737H20.0348C19.6776 43.737 19.3479 43.6751 19.0456 43.5515C18.7434 43.4141 18.4754 43.2355 18.2419 43.0157C18.0083 42.7959 17.8229 42.5348 17.6855 42.2326C17.5618 41.9303 17.5 41.6006 17.5 41.2434V39.5329H20.179V39.9657C20.179 40.2817 20.2821 40.5496 20.4882 40.7694C20.6942 40.9892 20.9553 41.0991 21.2713 41.0991H21.6628Z" fill="white"/>
<path d="M28.046 31.5988C28.046 31.2554 28.1078 30.9325 28.2315 30.6303C28.3689 30.328 28.5475 30.067 28.7673 29.8471C29.0008 29.6136 29.2687 29.435 29.571 29.3113C29.8732 29.174 30.1961 29.1053 30.5396 29.1053H33.4247C33.7682 29.1053 34.091 29.174 34.3933 29.3113C34.7093 29.435 34.984 29.6136 35.2176 29.8471C35.4511 30.067 35.6297 30.328 35.7534 30.6303C35.8908 30.9325 35.9595 31.2554 35.9595 31.5988V33.3093H33.301V32.8765C33.301 32.5605 33.1911 32.2926 32.9713 32.0728C32.7652 31.853 32.5042 31.7431 32.1882 31.7431H31.7967C31.4944 31.7431 31.2334 31.853 31.0135 32.0728C30.7937 32.2926 30.6838 32.5605 30.6838 32.8765V32.9177L32.2294 34.5664V38.791L29.2825 35.535C28.9665 35.164 28.678 34.7587 28.4169 34.3191C28.1696 33.8795 28.046 33.4742 28.046 33.1032V31.5988ZM32.1882 41.0991C32.4905 41.0991 32.7515 40.9892 32.9713 40.7694C33.2049 40.5496 33.3216 40.2817 33.3216 39.9657V35.7204L34.7024 37.163C35.0184 37.5339 35.3 37.9392 35.5473 38.3789C35.8083 38.8185 35.9389 39.2307 35.9389 39.6154V41.2434C35.9389 41.6006 35.8702 41.9303 35.7328 42.2326C35.6091 42.5348 35.4305 42.7959 35.197 43.0157C34.9772 43.2355 34.7161 43.4141 34.4139 43.5515C34.1116 43.6751 33.7888 43.737 33.4453 43.737H30.5602C30.203 43.737 29.8732 43.6751 29.571 43.5515C29.2687 43.4141 29.0008 43.2355 28.7673 43.0157C28.5337 42.7959 28.3482 42.5348 28.2109 42.2326C28.0872 41.9303 28.0254 41.6006 28.0254 41.2434V39.5329H30.7044V39.9657C30.7044 40.2817 30.8075 40.5496 31.0135 40.7694C31.2196 40.9892 31.4807 41.0991 31.7967 41.0991H32.1882Z" fill="white"/>
<path d="M41.0856 29.1053H41.2298V43.84H41.0856C40.3437 43.84 39.7529 43.6064 39.3133 43.1393C38.8736 42.6585 38.6195 42.0677 38.5508 41.367V31.5988C38.5508 31.2554 38.6195 30.9325 38.7569 30.6303C38.8942 30.328 39.0797 30.067 39.3133 29.8471C39.5468 29.6136 39.8147 29.435 40.117 29.3113C40.4192 29.174 40.7421 29.1053 41.0856 29.1053ZM46.5055 35.1434L46.4849 41.367C46.4849 41.7105 46.4162 42.0334 46.2788 42.3356C46.1551 42.6379 45.9765 42.8989 45.743 43.1187C45.5232 43.3385 45.2553 43.5171 44.9393 43.6545C44.637 43.7782 44.3142 43.84 43.9707 43.84H42.2602V41.2434H42.7342C43.0502 41.2434 43.3181 41.1335 43.5379 40.9137C43.7577 40.6801 43.8676 40.4191 43.8676 40.1306V37.7812H42.2602V35.1434H46.5055ZM43.8676 33.3093V32.8765C43.8676 32.5605 43.7577 32.2926 43.5379 32.0728C43.3181 31.853 43.0502 31.7431 42.7342 31.7431H42.2602V29.1053H43.9707C44.3142 29.1053 44.637 29.174 44.9393 29.3113C45.2553 29.435 45.5232 29.6136 45.743 29.8471C45.9765 30.067 46.1551 30.328 46.2788 30.6303C46.4162 30.9325 46.4849 31.2554 46.4849 31.5988V33.3093H43.8676Z" fill="white"/>
<path d="M24.3964 22.5979C24.3964 22.432 24.3351 22.2914 24.2125 22.176C24.0972 22.0607 23.9638 22.003 23.8124 22.003H23.5744V20.6185H24.4613C24.6416 20.6185 24.811 20.6546 24.9697 20.7267C25.1283 20.7916 25.2653 20.8853 25.3807 21.0079C25.5033 21.1233 25.597 21.2603 25.6619 21.4189C25.734 21.5776 25.7701 21.747 25.7701 21.9273V27.0541C25.7701 27.2343 25.734 27.4038 25.6619 27.5624C25.597 27.721 25.5033 27.858 25.3807 27.9734C25.2653 28.0888 25.1283 28.1825 24.9697 28.2546C24.811 28.3195 24.6416 28.352 24.4613 28.352H23.5744V26.9892H23.8124C23.9638 26.9892 24.0972 26.9315 24.2125 26.8161C24.3351 26.6935 24.3964 26.5565 24.3964 26.4051V22.5979ZM21.6167 20.6185V28.352H23.0228V20.6185H21.6167Z" fill="white"/>
<path d="M28.4391 20.6185H29.326V22.003H29.0988C28.933 22.003 28.7924 22.0607 28.677 22.176C28.5689 22.2914 28.5148 22.432 28.5148 22.5979V23.7876H29.326V25.1829H28.5148V28.352H27.1303V21.9273C27.1303 21.747 27.1628 21.5776 27.2277 21.4189C27.2998 21.2603 27.3935 21.1233 27.5089 21.0079C27.6315 20.8853 27.7721 20.7916 27.9307 20.7267C28.0894 20.6546 28.2588 20.6185 28.4391 20.6185ZM29.8992 20.6185H31.2837V28.352H29.8992V20.6185Z" fill="white"/>
<path d="M35.402 26.1888V28.352H34.0284V26.1888L32.644 20.6185H34.0284L35.402 26.1888ZM35.4129 20.6185H36.7973L35.6508 25.118L34.9694 22.3707L35.4129 20.6185Z" fill="white"/>
<path d="M40.7426 20.6185H42.3001L39.7151 28.352H38.1576L40.7426 20.6185ZM40.7534 26.9567H42.3218V28.3412H40.2775L40.7534 26.9567ZM38.1576 20.6185H40.191L39.7259 22.003H38.1576V20.6185Z" fill="white"/>
<rect x="26.5598" y="29.12" width="0.256001" height="14.592" fill="#E02929"/>
<rect x="37.1838" y="29.12" width="0.256001" height="14.592" fill="#E02929"/>
</g>
<defs>
<filter id="filter0_d" x="-4.52039" y="-4.51996" width="73.0401" height="72.5239" filterUnits="userSpaceOnUse" color-interpolation-filters="sRGB">
<feFlood flood-opacity="0" result="BackgroundImageFix"/>
<feColorMatrix in="SourceAlpha" type="matrix" values="0 0 0 0 0 0 0 0 0 0 0 0 0 0 0 0 0 0 127 0" result="hardAlpha"/>
<feOffset/>
<feGaussianBlur stdDeviation="4.5"/>
<feComposite in2="hardAlpha" operator="out"/>
<feColorMatrix type="matrix" values="0 0 0 0 1 0 0 0 0 1 0 0 0 0 1 0 0 0 0.3 0"/>
<feBlend mode="normal" in2="BackgroundImageFix" result="effect1_dropShadow"/>
<feBlend mode="normal" in="SourceGraphic" in2="effect1_dropShadow" result="shape"/>
</filter>
<filter id="filter1_d" x="-1.25598" y="-1.25601" width="66.512" height="66.512" filterUnits="userSpaceOnUse" color-interpolation-filters="sRGB">
<feFlood flood-opacity="0" result="BackgroundImageFix"/>
<feColorMatrix in="SourceAlpha" type="matrix" values="0 0 0 0 0 0 0 0 0 0 0 0 0 0 0 0 0 0 127 0" result="hardAlpha"/>
<feOffset/>
<feGaussianBlur stdDeviation="4.5"/>
<feComposite in2="hardAlpha" operator="out"/>
<feColorMatrix type="matrix" values="0 0 0 0 1 0 0 0 0 1 0 0 0 0 1 0 0 0 0.3 0"/>
<feBlend mode="normal" in2="BackgroundImageFix" result="effect1_dropShadow"/>
<feBlend mode="normal" in="SourceGraphic" in2="effect1_dropShadow" result="shape"/>
</filter>
<filter id="filter2_d" x="1.625" y="1.62509" width="60.7498" height="60.7498" filterUnits="userSpaceOnUse" color-interpolation-filters="sRGB">
<feFlood flood-opacity="0" result="BackgroundImageFix"/>
<feColorMatrix in="SourceAlpha" type="matrix" values="0 0 0 0 0 0 0 0 0 0 0 0 0 0 0 0 0 0 127 0" result="hardAlpha"/>
<feOffset/>
<feGaussianBlur stdDeviation="4.5"/>
<feComposite in2="hardAlpha" operator="out"/>
<feColorMatrix type="matrix" values="0 0 0 0 1 0 0 0 0 1 0 0 0 0 1 0 0 0 0.3 0"/>
<feBlend mode="normal" in2="BackgroundImageFix" result="effect1_dropShadow"/>
<feBlend mode="normal" in="SourceGraphic" in2="effect1_dropShadow" result="shape"/>
</filter>
<filter id="filter3_d" x="4.05591" y="4.05594" width="55.888" height="55.888" filterUnits="userSpaceOnUse" color-interpolation-filters="sRGB">
<feFlood flood-opacity="0" result="BackgroundImageFix"/>
<feColorMatrix in="SourceAlpha" type="matrix" values="0 0 0 0 0 0 0 0 0 0 0 0 0 0 0 0 0 0 127 0" result="hardAlpha"/>
<feOffset/>
<feGaussianBlur stdDeviation="4.5"/>
<feComposite in2="hardAlpha" operator="out"/>
<feColorMatrix type="matrix" values="0 0 0 0 1 0 0 0 0 1 0 0 0 0 1 0 0 0 0.3 0"/>
<feBlend mode="normal" in2="BackgroundImageFix" result="effect1_dropShadow"/>
<feBlend mode="normal" in="SourceGraphic" in2="effect1_dropShadow" result="shape"/>
</filter>
<clipPath id="clip0">
<rect width="64" height="64" fill="white"/>
</clipPath>
</defs>
</svg>
