<svg width="990" height="425" viewBox="0 0 990 425" fill="none" xmlns="http://www.w3.org/2000/svg">
<g filter="url(#filter0_bd)">
<path opacity="0.4" d="M452.295 381.484C414.338 374.028 379.996 354.01 354.804 324.655C329.612 295.301 315.036 258.319 313.426 219.671C311.815 181.022 323.263 142.956 345.926 111.607C368.588 80.2586 401.145 57.4526 438.35 46.864C475.555 36.2755 515.241 38.5211 551.014 53.2391C586.787 67.9571 616.563 94.2903 635.545 127.995C654.526 161.701 661.607 200.815 655.647 239.035C649.686 277.256 631.032 312.356 602.689 338.682L596.829 332.373C623.755 307.364 641.476 274.018 647.139 237.708C652.801 201.399 646.074 164.241 628.042 132.221C610.01 100.201 581.722 75.1843 547.738 61.2022C513.753 47.2201 476.051 45.0867 440.707 55.1458C405.362 65.205 374.433 86.8707 352.904 116.652C331.375 146.433 320.499 182.596 322.029 219.312C323.559 256.028 337.406 291.161 361.338 319.047C385.271 346.934 417.895 365.951 453.954 373.035L452.295 381.484Z" fill="#E02929"/>
<path opacity="0.2" d="M637.278 212.5C637.278 246.594 625.799 279.696 604.692 306.471C583.584 333.246 554.077 352.135 520.924 360.094C487.772 368.053 452.905 364.619 421.942 350.345C390.98 336.071 365.724 311.789 350.246 281.41C334.767 251.032 329.967 216.327 336.618 182.888C343.27 149.448 360.986 119.222 386.911 97.0795C412.837 74.9369 445.462 62.1675 479.531 60.8289C513.599 59.4903 547.126 69.6606 574.709 89.7008L570.248 95.8407C544.044 76.8025 512.193 67.1408 479.828 68.4125C447.464 69.6841 416.47 81.815 391.84 102.85C367.211 123.886 350.381 152.601 344.062 184.368C337.743 216.136 342.303 249.105 357.008 277.965C371.712 306.824 395.705 329.893 425.12 343.453C454.534 357.013 487.658 360.276 519.152 352.715C550.647 345.153 578.679 327.209 598.732 301.773C618.784 276.336 629.689 244.89 629.689 212.5H637.278Z" fill="#E02929"/>
<path opacity="0.8" d="M448.895 83.8446C477.794 75.6247 508.618 77.3735 536.401 88.8091C564.185 100.245 587.309 120.701 602.048 146.882C616.787 173.063 622.282 203.444 617.648 233.13C613.014 262.815 598.521 290.076 576.504 310.519C554.487 330.963 526.229 343.398 496.282 345.823C466.335 348.247 436.444 340.518 411.426 323.882C386.407 307.246 367.718 282.671 358.37 254.118C349.022 225.564 349.559 194.695 359.896 166.484L366.175 168.785C356.356 195.585 355.846 224.911 364.726 252.037C373.607 279.162 391.362 302.508 415.129 318.313C438.897 334.117 467.293 341.459 495.742 339.156C524.192 336.854 551.037 325.04 571.954 305.618C592.87 286.197 606.638 260.299 611.04 232.098C615.442 203.897 610.222 175.035 596.22 150.163C582.218 125.291 560.25 105.858 533.856 94.9937C507.461 84.1298 478.178 82.4685 450.725 90.2773L448.895 83.8446Z" fill="#E02929"/>
<path opacity="0.6" d="M370.982 243.182C364.09 217.462 366.059 190.17 376.57 165.704C387.081 141.239 405.523 121.025 428.924 108.319C452.325 95.6132 479.322 91.156 505.566 95.6654C531.809 100.175 555.77 113.388 573.587 133.177C591.405 152.965 602.041 178.176 603.783 204.747C605.524 231.317 598.27 257.701 583.187 279.646C568.105 301.59 546.074 317.818 520.644 325.715C495.214 333.611 467.866 332.716 443.006 323.173L445.131 317.639C468.747 326.705 494.728 327.555 518.886 320.054C543.045 312.552 563.974 297.136 578.302 276.288C592.631 255.441 599.523 230.377 597.868 205.134C596.214 179.892 586.109 155.942 569.182 137.143C552.256 118.344 529.493 105.791 504.562 101.507C479.631 97.2232 453.983 101.458 431.752 113.528C409.521 125.598 392.001 144.802 382.016 168.044C372.03 191.286 370.16 217.214 376.708 241.648L370.982 243.182Z" fill="#E02929"/>
<rect x="381.311" y="120.321" width="14" height="166" fill="white"/>
<path d="M449.611 153.121H451.711C453.244 153.121 454.544 152.621 455.611 151.621C456.677 150.621 457.211 149.354 457.211 147.821V123.821H470.011V145.021C470.011 147.888 469.477 150.554 468.411 153.021C467.411 155.488 465.944 157.688 464.011 159.621C465.944 161.554 467.411 163.788 468.411 166.321C469.477 168.788 470.011 171.421 470.011 174.221V195.321H457.211V171.521C457.211 169.988 456.677 168.688 455.611 167.621C454.544 166.554 453.244 166.021 451.711 166.021H449.611V153.121ZM444.411 123.821H431.611V195.321H444.411V123.821Z" fill="white"/>
<path d="M494.687 195.321C493.021 195.321 491.454 195.021 489.987 194.421C488.521 193.754 487.221 192.888 486.087 191.821C485.021 190.754 484.154 189.488 483.487 188.021C482.887 186.554 482.587 184.988 482.587 183.321V135.921C482.587 134.254 482.887 132.688 483.487 131.221C484.154 129.754 485.021 128.488 486.087 127.421C487.221 126.288 488.521 125.421 489.987 124.821C491.454 124.154 493.021 123.821 494.687 123.821H502.887V136.621H500.787C499.254 136.621 497.954 137.154 496.887 138.221C495.887 139.288 495.387 140.588 495.387 142.121V177.321C495.387 178.721 495.887 179.988 496.887 181.121C497.954 182.188 499.254 182.721 500.787 182.721H502.887V195.321H494.687ZM508.687 123.821C510.354 123.821 511.921 124.154 513.387 124.821C514.921 125.421 516.221 126.288 517.287 127.421C518.421 128.488 519.321 129.754 519.987 131.221C520.654 132.688 520.987 134.254 520.987 135.921V183.321C520.654 186.721 519.421 189.588 517.287 191.921C515.154 194.188 512.287 195.321 508.687 195.321H508.087V123.821H508.687Z" fill="white"/>
<path d="M559.064 123.821H571.964V195.321H559.064V123.821ZM546.364 195.321H533.564V123.821H546.364L553.964 138.421V171.621L546.364 157.021V195.321Z" fill="white"/>
<path d="M584.54 123.821H622.94V136.621H610.34V195.321H597.54V136.621H584.54V123.821Z" fill="white"/>
<path d="M648.517 123.821V195.321H635.517V123.821H648.517ZM653.617 166.021H655.817C657.217 166.021 658.45 166.554 659.517 167.621C660.65 168.688 661.217 169.988 661.217 171.521V195.321H673.917V170.221C673.784 167.621 673.15 165.488 672.017 163.821C670.95 162.088 669.617 160.688 668.017 159.621C669.884 158.621 671.317 157.121 672.317 155.121C673.384 153.054 673.917 150.621 673.917 147.821V135.921C673.917 134.254 673.584 132.688 672.917 131.221C672.317 129.754 671.45 128.488 670.317 127.421C669.25 126.288 667.984 125.421 666.517 124.821C665.05 124.154 663.484 123.821 661.817 123.821H653.617V136.621H655.817C657.217 136.621 658.45 137.154 659.517 138.221C660.65 139.288 661.217 140.588 661.217 142.121V147.821C661.217 149.354 660.65 150.621 659.517 151.621C658.45 152.621 657.217 153.121 655.817 153.121H653.617V166.021Z" fill="white"/>
<path d="M698.594 123.821H706.794V136.621H704.694C703.16 136.621 701.86 137.154 700.794 138.221C699.794 139.288 699.294 140.588 699.294 142.121V153.121H706.794V166.021H699.294V195.321H686.494V135.921C686.494 134.254 686.794 132.688 687.394 131.221C688.06 129.754 688.927 128.488 689.994 127.421C691.127 126.288 692.427 125.421 693.894 124.821C695.36 124.154 696.927 123.821 698.594 123.821ZM712.094 123.821H724.894V195.321H712.094V123.821Z" fill="white"/>
<path d="M755.57 153.121H757.77C759.17 153.121 760.403 152.621 761.47 151.621C762.603 150.621 763.17 149.354 763.17 147.821V142.121C763.17 140.588 762.603 139.288 761.47 138.221C760.403 137.154 759.17 136.621 757.77 136.621H755.57V123.821H763.77C765.437 123.821 767.003 124.154 768.47 124.821C769.937 125.421 771.203 126.288 772.27 127.421C773.403 128.488 774.27 129.754 774.87 131.221C775.537 132.688 775.87 134.254 775.87 135.921V147.821C775.87 150.621 775.337 153.054 774.27 155.121C773.27 157.121 771.803 158.621 769.87 159.621C771.537 160.688 772.903 162.088 773.97 163.821C775.103 165.488 775.737 167.621 775.87 170.221V183.321C775.87 184.988 775.537 186.554 774.87 188.021C774.27 189.488 773.403 190.754 772.27 191.821C771.203 192.888 769.937 193.754 768.47 194.421C767.003 195.021 765.437 195.321 763.77 195.321H755.57V182.721H757.77C759.17 182.721 760.403 182.188 761.47 181.121C762.603 179.988 763.17 178.721 763.17 177.321V171.521C763.17 169.988 762.603 168.688 761.47 167.621C760.403 166.554 759.17 166.021 757.77 166.021H755.57V153.121ZM737.47 123.821V195.321H750.47V123.821H737.47Z" fill="white"/>
<path d="M800.547 123.821H808.747V136.621H806.647C805.113 136.621 803.813 137.154 802.747 138.221C801.747 139.288 801.247 140.588 801.247 142.121V153.121H808.747V166.021H801.247V195.321H788.447V135.921C788.447 134.254 788.747 132.688 789.347 131.221C790.013 129.754 790.88 128.488 791.947 127.421C793.08 126.288 794.38 125.421 795.847 124.821C797.313 124.154 798.88 123.821 800.547 123.821ZM814.047 123.821H826.847V195.321H814.047V123.821Z" fill="white"/>
<path d="M864.923 123.821H877.823V195.321H864.923V123.821ZM852.223 195.321H839.423V123.821H852.223L859.823 138.421V171.621L852.223 157.021V195.321Z" fill="white"/>
<path d="M916.1 142.121C916.1 140.588 915.533 139.288 914.4 138.221C913.333 137.154 912.1 136.621 910.7 136.621H908.5V123.821H916.7C918.366 123.821 919.933 124.154 921.4 124.821C922.866 125.421 924.133 126.288 925.2 127.421C926.333 128.488 927.2 129.754 927.8 131.221C928.466 132.688 928.8 134.254 928.8 135.921V183.321C928.8 184.988 928.466 186.554 927.8 188.021C927.2 189.488 926.333 190.754 925.2 191.821C924.133 192.888 922.866 193.754 921.4 194.421C919.933 195.021 918.366 195.321 916.7 195.321H908.5V182.721H910.7C912.1 182.721 913.333 182.188 914.4 181.121C915.533 179.988 916.1 178.721 916.1 177.321V142.121ZM890.4 123.821V195.321H903.4V123.821H890.4Z" fill="white"/>
<path d="M953.476 123.821H961.676V136.621H959.576C958.043 136.621 956.743 137.154 955.676 138.221C954.676 139.288 954.176 140.588 954.176 142.121V153.121H961.676V166.021H954.176V195.321H941.376V135.921C941.376 134.254 941.676 132.688 942.276 131.221C942.943 129.754 943.81 128.488 944.876 127.421C946.01 126.288 947.31 125.421 948.776 124.821C950.243 124.154 951.81 123.821 953.476 123.821ZM966.976 123.821H979.776V195.321H966.976V123.821Z" fill="white"/>
<path d="M443.711 287.321C442.044 287.321 440.477 287.021 439.011 286.421C437.544 285.754 436.244 284.888 435.111 283.821C434.044 282.754 433.177 281.488 432.511 280.021C431.911 278.554 431.611 276.988 431.611 275.321V227.921C431.611 226.254 431.911 224.688 432.511 223.221C433.177 221.754 434.044 220.488 435.111 219.421C436.244 218.288 437.544 217.421 439.011 216.821C440.477 216.154 442.044 215.821 443.711 215.821H451.911V228.621H449.811C448.277 228.621 446.977 229.154 445.911 230.221C444.911 231.288 444.411 232.588 444.411 234.121V269.321C444.411 270.721 444.911 271.988 445.911 273.121C446.977 274.188 448.277 274.721 449.811 274.721H451.911V287.321H443.711ZM457.711 215.821C459.377 215.821 460.944 216.154 462.411 216.821C463.944 217.421 465.244 218.288 466.311 219.421C467.444 220.488 468.344 221.754 469.011 223.221C469.677 224.688 470.011 226.254 470.011 227.921V275.321C469.677 278.721 468.444 281.588 466.311 283.921C464.177 286.188 461.311 287.321 457.711 287.321H457.111V215.821H457.711Z" fill="white"/>
<path d="M494.887 215.821H495.587V287.321H494.887C491.287 287.321 488.421 286.188 486.287 283.921C484.154 281.588 482.921 278.721 482.587 275.321V227.921C482.587 226.254 482.921 224.688 483.587 223.221C484.254 221.754 485.154 220.488 486.287 219.421C487.421 218.288 488.721 217.421 490.187 216.821C491.654 216.154 493.221 215.821 494.887 215.821ZM521.187 245.121L521.087 275.321C521.087 276.988 520.754 278.554 520.087 280.021C519.487 281.488 518.621 282.754 517.487 283.821C516.421 284.888 515.121 285.754 513.587 286.421C512.121 287.021 510.554 287.321 508.887 287.321H500.587V274.721H502.887C504.421 274.721 505.721 274.188 506.787 273.121C507.854 271.988 508.387 270.721 508.387 269.321V257.921H500.587V245.121H521.187ZM508.387 236.221V234.121C508.387 232.588 507.854 231.288 506.787 230.221C505.721 229.154 504.421 228.621 502.887 228.621H500.587V215.821H508.887C510.554 215.821 512.121 216.154 513.587 216.821C515.121 217.421 516.421 218.288 517.487 219.421C518.621 220.488 519.487 221.754 520.087 223.221C520.754 224.688 521.087 226.254 521.087 227.921V236.221H508.387Z" fill="white"/>
<path d="M545.859 287.321C544.192 287.321 542.626 287.021 541.159 286.421C539.692 285.754 538.392 284.888 537.259 283.821C536.192 282.754 535.326 281.488 534.659 280.021C534.059 278.554 533.759 276.988 533.759 275.321V227.921C533.759 226.254 534.059 224.688 534.659 223.221C535.326 221.754 536.192 220.488 537.259 219.421C538.392 218.288 539.692 217.421 541.159 216.821C542.626 216.154 544.192 215.821 545.859 215.821H554.059V228.621H551.959C550.426 228.621 549.126 229.154 548.059 230.221C547.059 231.288 546.559 232.588 546.559 234.121V269.321C546.559 270.721 547.059 271.988 548.059 273.121C549.126 274.188 550.426 274.721 551.959 274.721H554.059V287.321H545.859ZM559.859 215.821C561.526 215.821 563.092 216.154 564.559 216.821C566.092 217.421 567.392 218.288 568.459 219.421C569.592 220.488 570.492 221.754 571.159 223.221C571.826 224.688 572.159 226.254 572.159 227.921V275.321C571.826 278.721 570.592 281.588 568.459 283.921C566.326 286.188 563.459 287.321 559.859 287.321H559.259V215.821H559.859Z" fill="white"/>
<path d="M597.736 215.821V287.321H584.736V215.821H597.736ZM602.836 258.021H605.036C606.436 258.021 607.669 258.554 608.736 259.621C609.869 260.688 610.436 261.988 610.436 263.521V287.321H623.136V262.221C623.002 259.621 622.369 257.488 621.236 255.821C620.169 254.088 618.836 252.688 617.236 251.621C619.102 250.621 620.536 249.121 621.536 247.121C622.602 245.054 623.136 242.621 623.136 239.821V227.921C623.136 226.254 622.802 224.688 622.136 223.221C621.536 221.754 620.669 220.488 619.536 219.421C618.469 218.288 617.202 217.421 615.736 216.821C614.269 216.154 612.702 215.821 611.036 215.821H602.836V228.621H605.036C606.436 228.621 607.669 229.154 608.736 230.221C609.869 231.288 610.436 232.588 610.436 234.121V239.821C610.436 241.354 609.869 242.621 608.736 243.621C607.669 244.621 606.436 245.121 605.036 245.121H602.836V258.021Z" fill="white"/>
<path d="M647.812 287.321C646.146 287.321 644.579 287.021 643.112 286.421C641.646 285.754 640.346 284.888 639.212 283.821C638.146 282.754 637.279 281.488 636.612 280.021C636.012 278.554 635.712 276.988 635.712 275.321V227.921C635.712 226.254 636.012 224.688 636.612 223.221C637.279 221.754 638.146 220.488 639.212 219.421C640.346 218.288 641.646 217.421 643.112 216.821C644.579 216.154 646.146 215.821 647.812 215.821H656.012V228.621H653.912C652.379 228.621 651.079 229.154 650.012 230.221C649.012 231.288 648.512 232.588 648.512 234.121V269.321C648.512 270.721 649.012 271.988 650.012 273.121C651.079 274.188 652.379 274.721 653.912 274.721H656.012V287.321H647.812ZM661.812 215.821C663.479 215.821 665.046 216.154 666.512 216.821C668.046 217.421 669.346 218.288 670.412 219.421C671.546 220.488 672.446 221.754 673.112 223.221C673.779 224.688 674.112 226.254 674.112 227.921V275.321C673.779 278.721 672.546 281.588 670.412 283.921C668.279 286.188 665.412 287.321 661.812 287.321H661.212V215.821H661.812Z" fill="white"/>
<path d="M712.389 234.121C712.389 232.588 711.822 231.288 710.689 230.221C709.622 229.154 708.389 228.621 706.989 228.621H704.789V215.821H712.989C714.655 215.821 716.222 216.154 717.689 216.821C719.156 217.421 720.422 218.288 721.489 219.421C722.622 220.488 723.489 221.754 724.089 223.221C724.755 224.688 725.089 226.254 725.089 227.921V275.321C725.089 276.988 724.755 278.554 724.089 280.021C723.489 281.488 722.622 282.754 721.489 283.821C720.422 284.888 719.156 285.754 717.689 286.421C716.222 287.021 714.655 287.321 712.989 287.321H704.789V274.721H706.989C708.389 274.721 709.622 274.188 710.689 273.121C711.822 271.988 712.389 270.721 712.389 269.321V234.121ZM686.689 215.821V287.321H699.689V215.821H686.689Z" fill="white"/>
<path d="M763.165 215.821H776.065V287.321H763.165V215.821ZM750.465 287.321H737.665V215.821H750.465L758.065 230.421V263.621L750.465 249.021V287.321Z" fill="white"/>
<path d="M788.642 215.821H801.242V287.321H788.642V215.821Z" fill="white"/>
<path d="M831.837 245.121H833.937C835.471 245.121 836.771 244.621 837.837 243.621C838.904 242.621 839.437 241.354 839.437 239.821V215.821H852.237V237.021C852.237 239.888 851.704 242.554 850.637 245.021C849.637 247.488 848.171 249.688 846.237 251.621C848.171 253.554 849.637 255.788 850.637 258.321C851.704 260.788 852.237 263.421 852.237 266.221V287.321H839.437V263.521C839.437 261.988 838.904 260.688 837.837 259.621C836.771 258.554 835.471 258.021 833.937 258.021H831.837V245.121ZM826.637 215.821H813.837V287.321H826.637V215.821Z" fill="white"/>
<path d="M864.814 215.821H877.414V287.321H864.814V215.821Z" fill="white"/>
<path d="M10.4556 148.513C10.4556 144.646 11.1516 141.012 12.5436 137.609C14.0903 134.206 16.101 131.268 18.5756 128.793C21.205 126.164 24.221 124.153 27.6236 122.761C31.0263 121.214 34.661 120.441 38.5276 120.441H71.0076C74.8743 120.441 78.509 121.214 81.9116 122.761C85.469 124.153 88.5623 126.164 91.1916 128.793C93.821 131.268 95.8316 134.206 97.2236 137.609C98.7703 141.012 99.5436 144.646 99.5436 148.513V167.769H69.6156V162.897C69.6156 159.34 68.3783 156.324 65.9036 153.849C63.5836 151.374 60.645 150.137 57.0876 150.137H52.6796C49.277 150.137 46.3383 151.374 43.8636 153.849C41.389 156.324 40.1516 159.34 40.1516 162.897V163.361L57.5516 181.921V229.481L24.3756 192.825C20.8183 188.649 17.5703 184.086 14.6316 179.137C11.8476 174.188 10.4556 169.625 10.4556 165.449V148.513ZM57.0876 255.465C60.4903 255.465 63.429 254.228 65.9036 251.753C68.533 249.278 69.8476 246.262 69.8476 242.705V194.913L85.3916 211.153C88.949 215.329 92.1196 219.892 94.9036 224.841C97.8423 229.79 99.3116 234.43 99.3116 238.761V257.089C99.3116 261.11 98.5383 264.822 96.9916 268.225C95.5996 271.628 93.589 274.566 90.9596 277.041C88.485 279.516 85.5463 281.526 82.1436 283.073C78.741 284.465 75.1063 285.161 71.2396 285.161H38.7596C34.7383 285.161 31.0263 284.465 27.6236 283.073C24.221 281.526 21.205 279.516 18.5756 277.041C15.9463 274.566 13.8583 271.628 12.3116 268.225C10.9196 264.822 10.2236 261.11 10.2236 257.089V237.833H40.3836V242.705C40.3836 246.262 41.5436 249.278 43.8636 251.753C46.1836 254.228 49.1223 255.465 52.6796 255.465H57.0876Z" fill="white"/>
<path d="M128.948 148.513C128.948 144.646 129.644 141.012 131.036 137.609C132.582 134.206 134.593 131.268 137.068 128.793C139.697 126.164 142.713 124.153 146.116 122.761C149.518 121.214 153.153 120.441 157.02 120.441H189.5C193.366 120.441 197.001 121.214 200.404 122.761C203.961 124.153 207.054 126.164 209.684 128.793C212.313 131.268 214.324 134.206 215.716 137.609C217.262 141.012 218.036 144.646 218.036 148.513V167.769H188.108V162.897C188.108 159.34 186.87 156.324 184.396 153.849C182.076 151.374 179.137 150.137 175.58 150.137H171.172C167.769 150.137 164.83 151.374 162.356 153.849C159.881 156.324 158.644 159.34 158.644 162.897V163.361L176.044 181.921V229.481L142.868 192.825C139.311 188.649 136.062 184.086 133.124 179.137C130.34 174.188 128.948 169.625 128.948 165.449V148.513ZM175.58 255.465C178.982 255.465 181.921 254.228 184.396 251.753C187.025 249.278 188.34 246.262 188.34 242.705V194.913L203.884 211.153C207.441 215.329 210.612 219.892 213.396 224.841C216.334 229.79 217.804 234.43 217.804 238.761V257.089C217.804 261.11 217.031 264.822 215.484 268.225C214.092 271.628 212.081 274.566 209.452 277.041C206.977 279.516 204.038 281.526 200.636 283.073C197.233 284.465 193.598 285.161 189.732 285.161H157.252C153.23 285.161 149.518 284.465 146.116 283.073C142.713 281.526 139.697 279.516 137.068 277.041C134.438 274.566 132.35 271.628 130.804 268.225C129.412 264.822 128.716 261.11 128.716 257.089V237.833H158.876V242.705C158.876 246.262 160.036 249.278 162.356 251.753C164.676 254.228 167.615 255.465 171.172 255.465H175.58Z" fill="white"/>
<path d="M275.744 120.441H277.368V286.321H275.744C267.392 286.321 260.741 283.692 255.792 278.433C250.843 273.02 247.981 266.369 247.208 258.481V148.513C247.208 144.646 247.981 141.012 249.528 137.609C251.075 134.206 253.163 131.268 255.792 128.793C258.421 126.164 261.437 124.153 264.84 122.761C268.243 121.214 271.877 120.441 275.744 120.441ZM336.76 188.417L336.528 258.481C336.528 262.348 335.755 265.982 334.208 269.385C332.816 272.788 330.805 275.726 328.176 278.201C325.701 280.676 322.685 282.686 319.128 284.233C315.725 285.625 312.091 286.321 308.224 286.321H288.968V257.089H294.304C297.861 257.089 300.877 255.852 303.352 253.377C305.827 250.748 307.064 247.809 307.064 244.561V218.113H288.968V188.417H336.76ZM307.064 167.769V162.897C307.064 159.34 305.827 156.324 303.352 153.849C300.877 151.374 297.861 150.137 294.304 150.137H288.968V120.441H308.224C312.091 120.441 315.725 121.214 319.128 122.761C322.685 124.153 325.701 126.164 328.176 128.793C330.805 131.268 332.816 134.206 334.208 137.609C335.755 141.012 336.528 144.646 336.528 148.513V167.769H307.064Z" fill="white"/>
</g>
<defs>
<filter id="filter0_bd" x="0.223633" y="0.32077" width="989.553" height="424.358" filterUnits="userSpaceOnUse" color-interpolation-filters="sRGB">
<feFlood flood-opacity="0" result="BackgroundImageFix"/>
<feGaussianBlur in="BackgroundImage" stdDeviation="3.5"/>
<feComposite in2="SourceAlpha" operator="in" result="effect1_backgroundBlur"/>
<feColorMatrix in="SourceAlpha" type="matrix" values="0 0 0 0 0 0 0 0 0 0 0 0 0 0 0 0 0 0 127 0" result="hardAlpha"/>
<feOffset/>
<feGaussianBlur stdDeviation="5"/>
<feComposite in2="hardAlpha" operator="out"/>
<feColorMatrix type="matrix" values="0 0 0 0 0.0392157 0 0 0 0 0.0392157 0 0 0 0 0.0392157 0 0 0 0.1 0"/>
<feBlend mode="normal" in2="effect1_backgroundBlur" result="effect2_dropShadow"/>
<feBlend mode="normal" in="SourceGraphic" in2="effect2_dropShadow" result="shape"/>
</filter>
</defs>
</svg>
