<svg width="990" height="405" viewBox="0 0 990 405" fill="none" xmlns="http://www.w3.org/2000/svg">
<g filter="url(#filter0_bd)">
<path opacity="0.4" d="M452.295 371.484C414.338 364.028 379.996 344.01 354.804 314.655C329.612 285.301 315.036 248.319 313.426 209.671C311.815 171.022 323.263 132.956 345.926 101.607C368.588 70.2586 401.145 47.4526 438.35 36.864C475.555 26.2755 515.241 28.5211 551.014 43.2391C586.787 57.9571 616.563 84.2903 635.545 117.995C654.526 151.701 661.607 190.815 655.647 229.035C649.686 267.256 631.032 302.356 602.689 328.682L596.829 322.373C623.755 297.364 641.476 264.018 647.139 227.708C652.801 191.399 646.074 154.241 628.042 122.221C610.01 90.2008 581.722 65.1843 547.738 51.2022C513.753 37.2201 476.051 35.0867 440.707 45.1458C405.362 55.205 374.433 76.8707 352.904 106.652C331.375 136.433 320.499 172.596 322.029 209.312C323.559 246.028 337.406 281.161 361.338 309.047C385.271 336.934 417.895 355.951 453.954 363.035L452.295 371.484Z" fill="#E02929"/>
<path opacity="0.2" d="M637.278 202.5C637.278 236.594 625.799 269.696 604.692 296.471C583.584 323.246 554.077 342.135 520.924 350.094C487.772 358.053 452.905 354.619 421.942 340.345C390.98 326.071 365.724 301.789 350.246 271.41C334.767 241.032 329.967 206.327 336.618 172.888C343.27 139.448 360.986 109.222 386.911 87.0795C412.837 64.9369 445.462 52.1675 479.531 50.8289C513.599 49.4903 547.126 59.6606 574.709 79.7008L570.248 85.8407C544.044 66.8025 512.193 57.1408 479.828 58.4125C447.464 59.6841 416.47 71.815 391.84 92.8505C367.211 113.886 350.381 142.601 344.062 174.368C337.743 206.136 342.303 239.105 357.008 267.965C371.712 296.824 395.705 319.893 425.12 333.453C454.534 347.013 487.658 350.276 519.152 342.715C550.647 335.153 578.679 317.209 598.732 291.773C618.784 266.336 629.689 234.89 629.689 202.5H637.278Z" fill="#E02929"/>
<path opacity="0.8" d="M448.895 73.8446C477.794 65.6247 508.618 67.3735 536.401 78.8091C564.185 90.2448 587.309 110.701 602.048 136.882C616.787 163.063 622.282 193.444 617.648 223.13C613.014 252.815 598.521 280.076 576.504 300.519C554.487 320.963 526.229 333.398 496.282 335.823C466.335 338.247 436.444 330.518 411.426 313.882C386.407 297.246 367.718 272.671 358.37 244.118C349.022 215.564 349.559 184.695 359.896 156.484L366.175 158.785C356.356 185.585 355.846 214.911 364.726 242.037C373.607 269.162 391.362 292.508 415.129 308.313C438.897 324.117 467.293 331.459 495.742 329.156C524.192 326.854 551.037 315.04 571.954 295.618C592.87 276.197 606.638 250.299 611.04 222.098C615.442 193.897 610.222 165.035 596.22 140.163C582.218 115.291 560.25 95.8576 533.856 84.9937C507.461 74.1298 478.178 72.4685 450.725 80.2773L448.895 73.8446Z" fill="#E02929"/>
<path opacity="0.6" d="M370.982 233.182C364.09 207.462 366.059 180.17 376.57 155.704C387.081 131.239 405.523 111.025 428.924 98.319C452.325 85.6132 479.322 81.156 505.566 85.6654C531.809 90.1748 555.77 103.388 573.587 123.177C591.405 142.965 602.041 168.176 603.783 194.747C605.524 221.317 598.27 247.701 583.187 269.646C568.105 291.59 546.074 307.818 520.644 315.715C495.214 323.611 467.866 322.716 443.006 313.173L445.131 307.639C468.747 316.705 494.728 317.555 518.886 310.054C543.045 302.552 563.974 287.136 578.302 266.288C592.631 245.441 599.523 220.377 597.868 195.134C596.214 169.892 586.109 145.942 569.182 127.143C552.256 108.344 529.493 95.791 504.562 91.5071C479.631 87.2232 453.983 91.4576 431.752 103.528C409.521 115.598 392.001 134.802 382.016 158.044C372.03 181.286 370.16 207.214 376.708 231.648L370.982 233.182Z" fill="#E02929"/>
<rect x="381.311" y="110.321" width="14" height="166" fill="white"/>
<path d="M449.611 143.121H451.711C453.244 143.121 454.544 142.621 455.611 141.621C456.677 140.621 457.211 139.354 457.211 137.821V113.821H470.011V135.021C470.011 137.888 469.477 140.554 468.411 143.021C467.411 145.488 465.944 147.688 464.011 149.621C465.944 151.554 467.411 153.788 468.411 156.321C469.477 158.788 470.011 161.421 470.011 164.221V185.321H457.211V161.521C457.211 159.988 456.677 158.688 455.611 157.621C454.544 156.554 453.244 156.021 451.711 156.021H449.611V143.121ZM444.411 113.821H431.611V185.321H444.411V113.821Z" fill="white"/>
<path d="M494.687 185.321C493.021 185.321 491.454 185.021 489.987 184.421C488.521 183.754 487.221 182.888 486.087 181.821C485.021 180.754 484.154 179.488 483.487 178.021C482.887 176.554 482.587 174.988 482.587 173.321V125.921C482.587 124.254 482.887 122.688 483.487 121.221C484.154 119.754 485.021 118.488 486.087 117.421C487.221 116.288 488.521 115.421 489.987 114.821C491.454 114.154 493.021 113.821 494.687 113.821H502.887V126.621H500.787C499.254 126.621 497.954 127.154 496.887 128.221C495.887 129.288 495.387 130.588 495.387 132.121V167.321C495.387 168.721 495.887 169.988 496.887 171.121C497.954 172.188 499.254 172.721 500.787 172.721H502.887V185.321H494.687ZM508.687 113.821C510.354 113.821 511.921 114.154 513.387 114.821C514.921 115.421 516.221 116.288 517.287 117.421C518.421 118.488 519.321 119.754 519.987 121.221C520.654 122.688 520.987 124.254 520.987 125.921V173.321C520.654 176.721 519.421 179.588 517.287 181.921C515.154 184.188 512.287 185.321 508.687 185.321H508.087V113.821H508.687Z" fill="white"/>
<path d="M559.064 113.821H571.964V185.321H559.064V113.821ZM546.364 185.321H533.564V113.821H546.364L553.964 128.421V161.621L546.364 147.021V185.321Z" fill="white"/>
<path d="M584.54 113.821H622.94V126.621H610.34V185.321H597.54V126.621H584.54V113.821Z" fill="white"/>
<path d="M648.517 113.821V185.321H635.517V113.821H648.517ZM653.617 156.021H655.817C657.217 156.021 658.45 156.554 659.517 157.621C660.65 158.688 661.217 159.988 661.217 161.521V185.321H673.917V160.221C673.784 157.621 673.15 155.488 672.017 153.821C670.95 152.088 669.617 150.688 668.017 149.621C669.884 148.621 671.317 147.121 672.317 145.121C673.384 143.054 673.917 140.621 673.917 137.821V125.921C673.917 124.254 673.584 122.688 672.917 121.221C672.317 119.754 671.45 118.488 670.317 117.421C669.25 116.288 667.984 115.421 666.517 114.821C665.05 114.154 663.484 113.821 661.817 113.821H653.617V126.621H655.817C657.217 126.621 658.45 127.154 659.517 128.221C660.65 129.288 661.217 130.588 661.217 132.121V137.821C661.217 139.354 660.65 140.621 659.517 141.621C658.45 142.621 657.217 143.121 655.817 143.121H653.617V156.021Z" fill="white"/>
<path d="M698.594 113.821H706.794V126.621H704.694C703.16 126.621 701.86 127.154 700.794 128.221C699.794 129.288 699.294 130.588 699.294 132.121V143.121H706.794V156.021H699.294V185.321H686.494V125.921C686.494 124.254 686.794 122.688 687.394 121.221C688.06 119.754 688.927 118.488 689.994 117.421C691.127 116.288 692.427 115.421 693.894 114.821C695.36 114.154 696.927 113.821 698.594 113.821ZM712.094 113.821H724.894V185.321H712.094V113.821Z" fill="white"/>
<path d="M755.57 143.121H757.77C759.17 143.121 760.403 142.621 761.47 141.621C762.603 140.621 763.17 139.354 763.17 137.821V132.121C763.17 130.588 762.603 129.288 761.47 128.221C760.403 127.154 759.17 126.621 757.77 126.621H755.57V113.821H763.77C765.437 113.821 767.003 114.154 768.47 114.821C769.937 115.421 771.203 116.288 772.27 117.421C773.403 118.488 774.27 119.754 774.87 121.221C775.537 122.688 775.87 124.254 775.87 125.921V137.821C775.87 140.621 775.337 143.054 774.27 145.121C773.27 147.121 771.803 148.621 769.87 149.621C771.537 150.688 772.903 152.088 773.97 153.821C775.103 155.488 775.737 157.621 775.87 160.221V173.321C775.87 174.988 775.537 176.554 774.87 178.021C774.27 179.488 773.403 180.754 772.27 181.821C771.203 182.888 769.937 183.754 768.47 184.421C767.003 185.021 765.437 185.321 763.77 185.321H755.57V172.721H757.77C759.17 172.721 760.403 172.188 761.47 171.121C762.603 169.988 763.17 168.721 763.17 167.321V161.521C763.17 159.988 762.603 158.688 761.47 157.621C760.403 156.554 759.17 156.021 757.77 156.021H755.57V143.121ZM737.47 113.821V185.321H750.47V113.821H737.47Z" fill="white"/>
<path d="M800.547 113.821H808.747V126.621H806.647C805.113 126.621 803.813 127.154 802.747 128.221C801.747 129.288 801.247 130.588 801.247 132.121V143.121H808.747V156.021H801.247V185.321H788.447V125.921C788.447 124.254 788.747 122.688 789.347 121.221C790.013 119.754 790.88 118.488 791.947 117.421C793.08 116.288 794.38 115.421 795.847 114.821C797.313 114.154 798.88 113.821 800.547 113.821ZM814.047 113.821H826.847V185.321H814.047V113.821Z" fill="white"/>
<path d="M864.923 113.821H877.823V185.321H864.923V113.821ZM852.223 185.321H839.423V113.821H852.223L859.823 128.421V161.621L852.223 147.021V185.321Z" fill="white"/>
<path d="M916.1 132.121C916.1 130.588 915.533 129.288 914.4 128.221C913.333 127.154 912.1 126.621 910.7 126.621H908.5V113.821H916.7C918.366 113.821 919.933 114.154 921.4 114.821C922.866 115.421 924.133 116.288 925.2 117.421C926.333 118.488 927.2 119.754 927.8 121.221C928.466 122.688 928.8 124.254 928.8 125.921V173.321C928.8 174.988 928.466 176.554 927.8 178.021C927.2 179.488 926.333 180.754 925.2 181.821C924.133 182.888 922.866 183.754 921.4 184.421C919.933 185.021 918.366 185.321 916.7 185.321H908.5V172.721H910.7C912.1 172.721 913.333 172.188 914.4 171.121C915.533 169.988 916.1 168.721 916.1 167.321V132.121ZM890.4 113.821V185.321H903.4V113.821H890.4Z" fill="white"/>
<path d="M953.476 113.821H961.676V126.621H959.576C958.043 126.621 956.743 127.154 955.676 128.221C954.676 129.288 954.176 130.588 954.176 132.121V143.121H961.676V156.021H954.176V185.321H941.376V125.921C941.376 124.254 941.676 122.688 942.276 121.221C942.943 119.754 943.81 118.488 944.876 117.421C946.01 116.288 947.31 115.421 948.776 114.821C950.243 114.154 951.81 113.821 953.476 113.821ZM966.976 113.821H979.776V185.321H966.976V113.821Z" fill="white"/>
<path d="M443.711 277.321C442.044 277.321 440.477 277.021 439.011 276.421C437.544 275.754 436.244 274.888 435.111 273.821C434.044 272.754 433.177 271.488 432.511 270.021C431.911 268.554 431.611 266.988 431.611 265.321V217.921C431.611 216.254 431.911 214.688 432.511 213.221C433.177 211.754 434.044 210.488 435.111 209.421C436.244 208.288 437.544 207.421 439.011 206.821C440.477 206.154 442.044 205.821 443.711 205.821H451.911V218.621H449.811C448.277 218.621 446.977 219.154 445.911 220.221C444.911 221.288 444.411 222.588 444.411 224.121V259.321C444.411 260.721 444.911 261.988 445.911 263.121C446.977 264.188 448.277 264.721 449.811 264.721H451.911V277.321H443.711ZM457.711 205.821C459.377 205.821 460.944 206.154 462.411 206.821C463.944 207.421 465.244 208.288 466.311 209.421C467.444 210.488 468.344 211.754 469.011 213.221C469.677 214.688 470.011 216.254 470.011 217.921V265.321C469.677 268.721 468.444 271.588 466.311 273.921C464.177 276.188 461.311 277.321 457.711 277.321H457.111V205.821H457.711Z" fill="white"/>
<path d="M494.887 205.821H495.587V277.321H494.887C491.287 277.321 488.421 276.188 486.287 273.921C484.154 271.588 482.921 268.721 482.587 265.321V217.921C482.587 216.254 482.921 214.688 483.587 213.221C484.254 211.754 485.154 210.488 486.287 209.421C487.421 208.288 488.721 207.421 490.187 206.821C491.654 206.154 493.221 205.821 494.887 205.821ZM521.187 235.121L521.087 265.321C521.087 266.988 520.754 268.554 520.087 270.021C519.487 271.488 518.621 272.754 517.487 273.821C516.421 274.888 515.121 275.754 513.587 276.421C512.121 277.021 510.554 277.321 508.887 277.321H500.587V264.721H502.887C504.421 264.721 505.721 264.188 506.787 263.121C507.854 261.988 508.387 260.721 508.387 259.321V247.921H500.587V235.121H521.187ZM508.387 226.221V224.121C508.387 222.588 507.854 221.288 506.787 220.221C505.721 219.154 504.421 218.621 502.887 218.621H500.587V205.821H508.887C510.554 205.821 512.121 206.154 513.587 206.821C515.121 207.421 516.421 208.288 517.487 209.421C518.621 210.488 519.487 211.754 520.087 213.221C520.754 214.688 521.087 216.254 521.087 217.921V226.221H508.387Z" fill="white"/>
<path d="M545.859 277.321C544.192 277.321 542.626 277.021 541.159 276.421C539.692 275.754 538.392 274.888 537.259 273.821C536.192 272.754 535.326 271.488 534.659 270.021C534.059 268.554 533.759 266.988 533.759 265.321V217.921C533.759 216.254 534.059 214.688 534.659 213.221C535.326 211.754 536.192 210.488 537.259 209.421C538.392 208.288 539.692 207.421 541.159 206.821C542.626 206.154 544.192 205.821 545.859 205.821H554.059V218.621H551.959C550.426 218.621 549.126 219.154 548.059 220.221C547.059 221.288 546.559 222.588 546.559 224.121V259.321C546.559 260.721 547.059 261.988 548.059 263.121C549.126 264.188 550.426 264.721 551.959 264.721H554.059V277.321H545.859ZM559.859 205.821C561.526 205.821 563.092 206.154 564.559 206.821C566.092 207.421 567.392 208.288 568.459 209.421C569.592 210.488 570.492 211.754 571.159 213.221C571.826 214.688 572.159 216.254 572.159 217.921V265.321C571.826 268.721 570.592 271.588 568.459 273.921C566.326 276.188 563.459 277.321 559.859 277.321H559.259V205.821H559.859Z" fill="white"/>
<path d="M597.736 205.821V277.321H584.736V205.821H597.736ZM602.836 248.021H605.036C606.436 248.021 607.669 248.554 608.736 249.621C609.869 250.688 610.436 251.988 610.436 253.521V277.321H623.136V252.221C623.002 249.621 622.369 247.488 621.236 245.821C620.169 244.088 618.836 242.688 617.236 241.621C619.102 240.621 620.536 239.121 621.536 237.121C622.602 235.054 623.136 232.621 623.136 229.821V217.921C623.136 216.254 622.802 214.688 622.136 213.221C621.536 211.754 620.669 210.488 619.536 209.421C618.469 208.288 617.202 207.421 615.736 206.821C614.269 206.154 612.702 205.821 611.036 205.821H602.836V218.621H605.036C606.436 218.621 607.669 219.154 608.736 220.221C609.869 221.288 610.436 222.588 610.436 224.121V229.821C610.436 231.354 609.869 232.621 608.736 233.621C607.669 234.621 606.436 235.121 605.036 235.121H602.836V248.021Z" fill="white"/>
<path d="M647.812 277.321C646.146 277.321 644.579 277.021 643.112 276.421C641.646 275.754 640.346 274.888 639.212 273.821C638.146 272.754 637.279 271.488 636.612 270.021C636.012 268.554 635.712 266.988 635.712 265.321V217.921C635.712 216.254 636.012 214.688 636.612 213.221C637.279 211.754 638.146 210.488 639.212 209.421C640.346 208.288 641.646 207.421 643.112 206.821C644.579 206.154 646.146 205.821 647.812 205.821H656.012V218.621H653.912C652.379 218.621 651.079 219.154 650.012 220.221C649.012 221.288 648.512 222.588 648.512 224.121V259.321C648.512 260.721 649.012 261.988 650.012 263.121C651.079 264.188 652.379 264.721 653.912 264.721H656.012V277.321H647.812ZM661.812 205.821C663.479 205.821 665.046 206.154 666.512 206.821C668.046 207.421 669.346 208.288 670.412 209.421C671.546 210.488 672.446 211.754 673.112 213.221C673.779 214.688 674.112 216.254 674.112 217.921V265.321C673.779 268.721 672.546 271.588 670.412 273.921C668.279 276.188 665.412 277.321 661.812 277.321H661.212V205.821H661.812Z" fill="white"/>
<path d="M712.389 224.121C712.389 222.588 711.822 221.288 710.689 220.221C709.622 219.154 708.389 218.621 706.989 218.621H704.789V205.821H712.989C714.655 205.821 716.222 206.154 717.689 206.821C719.156 207.421 720.422 208.288 721.489 209.421C722.622 210.488 723.489 211.754 724.089 213.221C724.755 214.688 725.089 216.254 725.089 217.921V265.321C725.089 266.988 724.755 268.554 724.089 270.021C723.489 271.488 722.622 272.754 721.489 273.821C720.422 274.888 719.156 275.754 717.689 276.421C716.222 277.021 714.655 277.321 712.989 277.321H704.789V264.721H706.989C708.389 264.721 709.622 264.188 710.689 263.121C711.822 261.988 712.389 260.721 712.389 259.321V224.121ZM686.689 205.821V277.321H699.689V205.821H686.689Z" fill="white"/>
<path d="M763.165 205.821H776.065V277.321H763.165V205.821ZM750.465 277.321H737.665V205.821H750.465L758.065 220.421V253.621L750.465 239.021V277.321Z" fill="white"/>
<path d="M788.642 205.821H801.242V277.321H788.642V205.821Z" fill="white"/>
<path d="M831.837 235.121H833.937C835.471 235.121 836.771 234.621 837.837 233.621C838.904 232.621 839.437 231.354 839.437 229.821V205.821H852.237V227.021C852.237 229.888 851.704 232.554 850.637 235.021C849.637 237.488 848.171 239.688 846.237 241.621C848.171 243.554 849.637 245.788 850.637 248.321C851.704 250.788 852.237 253.421 852.237 256.221V277.321H839.437V253.521C839.437 251.988 838.904 250.688 837.837 249.621C836.771 248.554 835.471 248.021 833.937 248.021H831.837V235.121ZM826.637 205.821H813.837V277.321H826.637V205.821Z" fill="white"/>
<path d="M864.814 205.821H877.414V277.321H864.814V205.821Z" fill="white"/>
<path d="M10.4556 138.513C10.4556 134.646 11.1516 131.012 12.5436 127.609C14.0903 124.206 16.101 121.268 18.5756 118.793C21.205 116.164 24.221 114.153 27.6236 112.761C31.0263 111.214 34.661 110.441 38.5276 110.441H71.0076C74.8743 110.441 78.509 111.214 81.9116 112.761C85.469 114.153 88.5623 116.164 91.1916 118.793C93.821 121.268 95.8316 124.206 97.2236 127.609C98.7703 131.012 99.5436 134.646 99.5436 138.513V157.769H69.6156V152.897C69.6156 149.34 68.3783 146.324 65.9036 143.849C63.5836 141.374 60.645 140.137 57.0876 140.137H52.6796C49.277 140.137 46.3383 141.374 43.8636 143.849C41.389 146.324 40.1516 149.34 40.1516 152.897V153.361L57.5516 171.921V219.481L24.3756 182.825C20.8183 178.649 17.5703 174.086 14.6316 169.137C11.8476 164.188 10.4556 159.625 10.4556 155.449V138.513ZM57.0876 245.465C60.4903 245.465 63.429 244.228 65.9036 241.753C68.533 239.278 69.8476 236.262 69.8476 232.705V184.913L85.3916 201.153C88.949 205.329 92.1196 209.892 94.9036 214.841C97.8423 219.79 99.3116 224.43 99.3116 228.761V247.089C99.3116 251.11 98.5383 254.822 96.9916 258.225C95.5996 261.628 93.589 264.566 90.9596 267.041C88.485 269.516 85.5463 271.526 82.1436 273.073C78.741 274.465 75.1063 275.161 71.2396 275.161H38.7596C34.7383 275.161 31.0263 274.465 27.6236 273.073C24.221 271.526 21.205 269.516 18.5756 267.041C15.9463 264.566 13.8583 261.628 12.3116 258.225C10.9196 254.822 10.2236 251.11 10.2236 247.089V227.833H40.3836V232.705C40.3836 236.262 41.5436 239.278 43.8636 241.753C46.1836 244.228 49.1223 245.465 52.6796 245.465H57.0876Z" fill="white"/>
<path d="M128.948 138.513C128.948 134.646 129.644 131.012 131.036 127.609C132.582 124.206 134.593 121.268 137.068 118.793C139.697 116.164 142.713 114.153 146.116 112.761C149.518 111.214 153.153 110.441 157.02 110.441H189.5C193.366 110.441 197.001 111.214 200.404 112.761C203.961 114.153 207.054 116.164 209.684 118.793C212.313 121.268 214.324 124.206 215.716 127.609C217.262 131.012 218.036 134.646 218.036 138.513V157.769H188.108V152.897C188.108 149.34 186.87 146.324 184.396 143.849C182.076 141.374 179.137 140.137 175.58 140.137H171.172C167.769 140.137 164.83 141.374 162.356 143.849C159.881 146.324 158.644 149.34 158.644 152.897V153.361L176.044 171.921V219.481L142.868 182.825C139.311 178.649 136.062 174.086 133.124 169.137C130.34 164.188 128.948 159.625 128.948 155.449V138.513ZM175.58 245.465C178.982 245.465 181.921 244.228 184.396 241.753C187.025 239.278 188.34 236.262 188.34 232.705V184.913L203.884 201.153C207.441 205.329 210.612 209.892 213.396 214.841C216.334 219.79 217.804 224.43 217.804 228.761V247.089C217.804 251.11 217.031 254.822 215.484 258.225C214.092 261.628 212.081 264.566 209.452 267.041C206.977 269.516 204.038 271.526 200.636 273.073C197.233 274.465 193.598 275.161 189.732 275.161H157.252C153.23 275.161 149.518 274.465 146.116 273.073C142.713 271.526 139.697 269.516 137.068 267.041C134.438 264.566 132.35 261.628 130.804 258.225C129.412 254.822 128.716 251.11 128.716 247.089V227.833H158.876V232.705C158.876 236.262 160.036 239.278 162.356 241.753C164.676 244.228 167.615 245.465 171.172 245.465H175.58Z" fill="white"/>
<path d="M275.744 110.441H277.368V276.321H275.744C267.392 276.321 260.741 273.692 255.792 268.433C250.843 263.02 247.981 256.369 247.208 248.481V138.513C247.208 134.646 247.981 131.012 249.528 127.609C251.075 124.206 253.163 121.268 255.792 118.793C258.421 116.164 261.437 114.153 264.84 112.761C268.243 111.214 271.877 110.441 275.744 110.441ZM336.76 178.417L336.528 248.481C336.528 252.348 335.755 255.982 334.208 259.385C332.816 262.788 330.805 265.726 328.176 268.201C325.701 270.676 322.685 272.686 319.128 274.233C315.725 275.625 312.091 276.321 308.224 276.321H288.968V247.089H294.304C297.861 247.089 300.877 245.852 303.352 243.377C305.827 240.748 307.064 237.809 307.064 234.561V208.113H288.968V178.417H336.76ZM307.064 157.769V152.897C307.064 149.34 305.827 146.324 303.352 143.849C300.877 141.374 297.861 140.137 294.304 140.137H288.968V110.441H308.224C312.091 110.441 315.725 111.214 319.128 112.761C322.685 114.153 325.701 116.164 328.176 118.793C330.805 121.268 332.816 124.206 334.208 127.609C335.755 131.012 336.528 134.646 336.528 138.513V157.769H307.064Z" fill="white"/>
</g>
<defs>
<filter id="filter0_bd" x="0.223633" y="-9.67899" width="989.553" height="424.358" filterUnits="userSpaceOnUse" color-interpolation-filters="sRGB">
<feFlood flood-opacity="0" result="BackgroundImageFix"/>
<feGaussianBlur in="BackgroundImage" stdDeviation="3.5"/>
<feComposite in2="SourceAlpha" operator="in" result="effect1_backgroundBlur"/>
<feColorMatrix in="SourceAlpha" type="matrix" values="0 0 0 0 0 0 0 0 0 0 0 0 0 0 0 0 0 0 127 0" result="hardAlpha"/>
<feOffset/>
<feGaussianBlur stdDeviation="5"/>
<feComposite in2="hardAlpha" operator="out"/>
<feColorMatrix type="matrix" values="0 0 0 0 0.0392157 0 0 0 0 0.0392157 0 0 0 0 0.0392157 0 0 0 0.1 0"/>
<feBlend mode="normal" in2="effect1_backgroundBlur" result="effect2_dropShadow"/>
<feBlend mode="normal" in="SourceGraphic" in2="effect2_dropShadow" result="shape"/>
</filter>
</defs>
</svg>
