<?xml version="1.0" encoding="utf-8"?>
<!-- Generator: Adobe Illustrator 23.0.2, SVG Export Plug-In . SVG Version: 6.00 Build 0)  -->
<svg version="1.1" xmlns="http://www.w3.org/2000/svg" xmlns:xlink="http://www.w3.org/1999/xlink" x="0px" y="0px"
	 viewBox="0 0 89.6 53.9" style="enable-background:new 0 0 89.6 53.9;" xml:space="preserve">
<style type="text/css">
	.st0{display:none;}
	.st1{clip-path:url(#SVGID_2_);fill:url(#SVGID_3_);}
	.st2{clip-path:url(#SVGID_5_);fill:url(#SVGID_6_);}
	.st3{fill:#FFFFFF;}
	.st4{fill:none;}
	.st5{clip-path:url(#SVGID_8_);fill:url(#SVGID_9_);}
	.st6{clip-path:url(#SVGID_11_);fill:url(#SVGID_12_);}
	.st7{clip-path:url(#SVGID_14_);}
	.st8{clip-path:url(#SVGID_16_);}
	.st9{clip-path:url(#SVGID_20_);fill:#EDECEB;}
	.st10{clip-path:url(#SVGID_20_);fill:#FFFFFF;}
	.st11{clip-path:url(#SVGID_22_);fill:url(#SVGID_23_);}
	.st12{clip-path:url(#SVGID_25_);fill:none;stroke:#000000;stroke-width:1.000000e-02;stroke-miterlimit:10;}
	.st13{clip-path:url(#SVGID_27_);fill:url(#SVGID_28_);}
	.st14{clip-path:url(#SVGID_30_);fill:none;stroke:#000000;stroke-width:1.000000e-02;stroke-miterlimit:10;}
	.st15{clip-path:url(#SVGID_32_);fill:url(#SVGID_33_);}
	.st16{clip-path:url(#SVGID_35_);fill:none;stroke:#000000;stroke-width:1.000000e-02;stroke-miterlimit:10;}
	.st17{clip-path:url(#SVGID_35_);fill:#B1232E;}
	.st18{clip-path:url(#SVGID_37_);fill:url(#SVGID_38_);}
	.st19{clip-path:url(#SVGID_40_);fill:none;stroke:#000000;stroke-width:1.000000e-02;stroke-miterlimit:10;}
	.st20{clip-path:url(#SVGID_42_);fill:url(#SVGID_43_);}
	.st21{clip-path:url(#SVGID_45_);fill:none;stroke:#000000;stroke-width:1.000000e-02;stroke-miterlimit:10;}
	.st22{clip-path:url(#SVGID_47_);fill:url(#SVGID_48_);}
	.st23{clip-path:url(#SVGID_50_);fill:none;stroke:#000000;stroke-width:1.000000e-02;stroke-miterlimit:10;}
	.st24{clip-path:url(#SVGID_50_);fill:#B1232E;}
	.st25{clip-path:url(#SVGID_52_);fill:url(#SVGID_53_);}
	.st26{fill:#B1232E;}
	.st27{fill:#007DB6;}
</style>
<g>
	<rect x="-39.7" y="-45" class="st0" width="167.3" height="153.1"/>
	<g>
		<defs>
			<polygon id="SVGID_1_" points="55.4,6.4 52.5,12.9 54.4,12 59.8,1.5 			"/>
		</defs>
		<clipPath id="SVGID_2_">
			<use xlink:href="#SVGID_1_"  style="overflow:visible;"/>
		</clipPath>
		
			<linearGradient id="SVGID_3_" gradientUnits="userSpaceOnUse" x1="-90.749" y1="142.4237" x2="-90.4233" y2="142.4237" gradientTransform="matrix(23.5777 -12.0281 -12.0281 -23.5777 3906.0632 2275.1086)">
			<stop  offset="0" style="stop-color:#0065A6"/>
			<stop  offset="2.263590e-03" style="stop-color:#0065A6"/>
			<stop  offset="0.5907" style="stop-color:#0089C3"/>
			<stop  offset="1" style="stop-color:#00A4D9"/>
		</linearGradient>
		<polygon class="st1" points="47.9,3.8 58.3,-1.5 64.4,10.5 54,15.9 		"/>
	</g>
	<g>
		<defs>
			<path id="SVGID_4_" d="M37.7,21.9l0.8-10.2l-2.7-2l-5.2,0.8l-6.8,30.5c-0.1,0.4-0.2,0.9-0.3,1.3l-0.7,3.1
				c0.1-0.2,0.2-0.5,0.3-0.7c-0.1,0.5-0.2,1-0.3,1.5c0,0,3.3-4.7,4.5-6.3c1.2-1.6,5.6-6.3,5.6-6.3l-2.6,0.6c0,0-1.6,0.8-3.3,2.2
				c4.4-8.5,6.8-10.2,6.8-10.2l5.9,9.6l2.9-0.8c0,0,2.9-19.3,15.3-32.3L37.7,21.9z"/>
		</defs>
		<clipPath id="SVGID_5_">
			<use xlink:href="#SVGID_4_"  style="overflow:visible;"/>
		</clipPath>
		
			<linearGradient id="SVGID_6_" gradientUnits="userSpaceOnUse" x1="-89.3688" y1="142.902" x2="-89.0431" y2="142.902" gradientTransform="matrix(102.8127 -52.4498 -52.4498 -102.8127 16711.5332 10035.3848)">
			<stop  offset="0" style="stop-color:#0065A6"/>
			<stop  offset="2.263590e-03" style="stop-color:#0065A6"/>
			<stop  offset="0.5907" style="stop-color:#0089C3"/>
			<stop  offset="1" style="stop-color:#00A4D9"/>
		</linearGradient>
		<polygon class="st2" points="5.2,11.6 50.7,-11.6 75.6,37.1 30.1,60.3 		"/>
	</g>
	<path class="st3" d="M4.1,16.6c0.4-1.9,1.4-2.7,3.2-2.7h4.6c-0.2,1.4-1.2,2.1-2.3,2.1H8l-1,4.4h3.2C10,21.8,9.1,22.5,8,22.5H6.7
		l-1.2,5.9C5,30.3,4,31.1,2.2,31.1H1L4.1,16.6z"/>
	<path class="st3" d="M12.6,16.6c0.4-1.9,1.4-2.7,3.2-2.7h1.1l-3.1,14.5c-0.4,1.9-1.4,2.7-3.2,2.7H9.5L12.6,16.6z"/>
	<path class="st3" d="M19.9,16h-2.6c0.3-1.4,1.2-2.1,2.3-2.1h7c-0.2,1.4-1.2,2.1-2.3,2.1h-0.7l-2.6,12.4c-0.4,1.9-1.4,2.7-3.2,2.7
		h-1.1L19.9,16z"/>
	<path class="st3" d="M51.4,16.6c0.4-1.9,1.4-2.7,3.2-2.7h4.6C59,15.3,58,16,56.9,16h-1.5l-1,4.4h3.2c-0.2,1.4-1.2,2.1-2.3,2.1h-1.3
		l-1.2,5.9c-0.4,1.9-1.4,2.7-3.2,2.7h-1.1L51.4,16.6z"/>
	<path class="st3" d="M60.4,16.6c0.5-1.6,1.1-2.7,3.2-2.7h3.6l-1.5,14.5c-0.2,2.2-1.7,2.7-3.2,2.7h-0.8l0.7-5.1h-1.8L60,28.4
		c-0.5,1.6-1,2.7-3.2,2.7h-1.2L60.4,16.6z M62.7,23.9l1-7.7h-0.2l-2.3,7.7H62.7z"/>
	<path class="st3" d="M78.9,15.6c-0.4,1.6-1.1,2.7-3.2,2.7h-1.1l0.4-1.6c0.1-0.3-0.1-0.6-0.5-0.6c-0.1,0-0.6,0.1-0.7,0.6l-0.2,0.9
		c-0.2,1.1-0.1,1.1,0.5,1.7l2.3,2.3c0.9,0.9,1.1,1.4,0.8,2.7l-0.9,4.3c-0.4,1.9-1.4,2.7-3.2,2.7h-6.1l0.8-3.9
		c0.4-1.9,1.4-2.7,3.2-2.7H72l-0.8,3.8c-0.1,0.4,0.2,0.6,0.5,0.6c0.3,0,0.7-0.2,0.7-0.6l0.6-3c0.2-0.9-0.1-1.2-0.6-1.7L70,21.6
		c-0.9-0.8-0.8-1.8-0.6-2.5l0.5-2.5c0.4-1.9,1.4-2.7,3.2-2.7h6.1L78.9,15.6z"/>
	<path class="st3" d="M82.1,16h-2.6c0.3-1.4,1.2-2.1,2.3-2.1h7c-0.2,1.4-1.2,2.1-2.3,2.1h-0.7l-2.6,12.4c-0.4,1.9-1.4,2.7-3.2,2.7
		h-1.1L82.1,16z"/>
	<rect x="1" y="-11.6" class="st4" width="87.9" height="72.3"/>
	<g>
		<defs>
			<path id="SVGID_7_" d="M49.4,4.7l2.7,0.8c0,0,0,0,0,0c0,0,0,0,0,0c-11.6,7.2-15.6,17-15.6,17c-0.9-4.1-1.2-8.4-0.6-12.9l-5.2,0.8
				c-3.3,5.8-6.3,17.3-7.5,26.2l-2-2.4c-0.4,6.6,1.7,12,1.7,12s3.8-8.1,7.5-12l-4.7,2.5c1.8-5.2,3.7-10,5.5-12.8c0,0,1,6.9,4,11.8
				c0,0,2.9,0,4.6,0.1C40.2,27.4,45,17.2,53,7.8c0,0,0,0.1-0.1,0.1l-0.5,5C54.4,8,59.8,1.5,59.8,1.5S54.7,1.8,49.4,4.7"/>
		</defs>
		<clipPath id="SVGID_8_">
			<use xlink:href="#SVGID_7_"  style="overflow:visible;"/>
		</clipPath>
		
			<linearGradient id="SVGID_9_" gradientUnits="userSpaceOnUse" x1="-89.3002" y1="143.0104" x2="-88.9746" y2="143.0104" gradientTransform="matrix(118.7095 0 0 -118.7095 10621.9277 17000.4766)">
			<stop  offset="0" style="stop-color:#008DCA"/>
			<stop  offset="2.263590e-03" style="stop-color:#008DCA"/>
			<stop  offset="0.6605" style="stop-color:#76BAE1"/>
			<stop  offset="1" style="stop-color:#A2D4ED"/>
		</linearGradient>
		<rect x="20.8" y="1.5" class="st5" width="39" height="44.6"/>
	</g>
	<g>
		<path class="st3" d="M47.4,33.9c0.1-0.3,0.1-0.5,0.1-0.6h0.3l-0.1,0.3h0c0.2-0.2,0.5-0.4,0.8-0.4c0.5,0,0.8,0.4,0.6,1
			c-0.2,0.7-0.7,1-1.1,1c-0.3,0-0.5-0.1-0.5-0.3h0L47.2,36h-0.4L47.4,33.9z M47.6,34.4c0,0.1,0,0.1,0,0.1c0,0.2,0.2,0.4,0.4,0.4
			c0.4,0,0.7-0.3,0.8-0.8c0.1-0.4,0-0.7-0.4-0.7c-0.2,0-0.5,0.2-0.6,0.4c0,0,0,0.1-0.1,0.1L47.6,34.4z"/>
		<path class="st3" d="M51.4,34.2c-0.2,0.7-0.8,1-1.2,1c-0.5,0-0.9-0.4-0.7-1c0.1-0.6,0.7-1,1.2-1C51.3,33.2,51.6,33.6,51.4,34.2z
			 M49.8,34.3c-0.1,0.4,0.1,0.7,0.4,0.7c0.3,0,0.7-0.3,0.8-0.8c0.1-0.3,0-0.7-0.4-0.7C50.2,33.5,49.9,33.9,49.8,34.3z"/>
		<path class="st3" d="M52.2,33.3l0,1c0,0.2,0,0.4,0,0.6h0c0.1-0.2,0.2-0.4,0.3-0.6l0.6-1h0.3l0.1,1c0,0.2,0,0.4,0,0.6h0
			c0.1-0.2,0.2-0.4,0.3-0.6l0.5-1h0.4l-1.1,2h-0.3l-0.1-0.9c0-0.2,0-0.4,0-0.6h0c-0.1,0.2-0.2,0.4-0.3,0.6l-0.5,0.9H52l-0.2-2H52.2z
			"/>
		<path class="st3" d="M55,34.3c-0.1,0.5,0.2,0.7,0.5,0.7c0.3,0,0.4,0,0.6-0.1l0,0.3c-0.1,0.1-0.4,0.1-0.7,0.1c-0.6,0-0.9-0.4-0.8-1
			c0.1-0.6,0.6-1,1.2-1c0.7,0,0.7,0.6,0.6,0.9c0,0.1,0,0.1-0.1,0.2H55z M56.2,34.1c0.1-0.2,0-0.6-0.4-0.6c-0.4,0-0.6,0.3-0.7,0.6
			H56.2z"/>
		<path class="st3" d="M57,33.9c0.1-0.2,0.1-0.4,0.1-0.6h0.3l-0.1,0.4h0c0.2-0.3,0.4-0.4,0.7-0.4c0,0,0.1,0,0.1,0L58,33.6
			c0,0-0.1,0-0.1,0c-0.3,0-0.5,0.2-0.6,0.5c0,0,0,0.1-0.1,0.2l-0.2,1h-0.4L57,33.9z"/>
		<path class="st3" d="M58.4,34.3c-0.1,0.5,0.2,0.7,0.5,0.7c0.3,0,0.4,0,0.6-0.1l0,0.3c-0.1,0.1-0.4,0.1-0.7,0.1
			c-0.6,0-0.9-0.4-0.8-1c0.1-0.6,0.6-1,1.2-1c0.7,0,0.7,0.6,0.6,0.9c0,0.1,0,0.1-0.1,0.2H58.4z M59.5,34.1c0.1-0.2,0-0.6-0.4-0.6
			c-0.4,0-0.6,0.3-0.7,0.6H59.5z"/>
		<path class="st3" d="M62.4,32.4l-0.5,2.4c0,0.2-0.1,0.4-0.1,0.5h-0.3l0.1-0.3h0c-0.2,0.2-0.4,0.4-0.8,0.4c-0.5,0-0.8-0.4-0.6-1
			c0.1-0.6,0.7-1,1.1-1c0.3,0,0.5,0.1,0.5,0.3h0l0.3-1.2H62.4z M61.7,34.1c0,0,0-0.1,0-0.1c0-0.2-0.2-0.4-0.4-0.4
			c-0.4,0-0.7,0.3-0.8,0.8c-0.1,0.4,0,0.7,0.4,0.7c0.2,0,0.5-0.2,0.6-0.4c0,0,0-0.1,0.1-0.2L61.7,34.1z"/>
		<path class="st3" d="M63.9,32.4h0.4L64,33.6h0c0.2-0.2,0.4-0.4,0.8-0.4c0.5,0,0.8,0.4,0.6,1c-0.2,0.7-0.7,1-1.1,1
			c-0.3,0-0.5-0.1-0.6-0.4h0l-0.1,0.3h-0.3c0-0.1,0.1-0.3,0.1-0.5L63.9,32.4z M63.8,34.4c0,0,0,0.1,0,0.1c0,0.2,0.2,0.4,0.4,0.4
			c0.4,0,0.7-0.3,0.8-0.8c0.1-0.4,0-0.7-0.4-0.7c-0.2,0-0.5,0.2-0.6,0.4c0,0,0,0.1-0.1,0.1L63.8,34.4z"/>
		<path class="st3" d="M66.1,33.3l0.2,1.2c0,0.1,0,0.3,0,0.4h0c0.1-0.1,0.1-0.3,0.2-0.4l0.7-1.1h0.4l-0.9,1.4c-0.4,0.7-0.7,1-1,1.2
			c-0.2,0.1-0.4,0.2-0.5,0.2l0-0.3c0.1,0,0.2-0.1,0.4-0.2c0.1-0.1,0.3-0.2,0.4-0.4c0,0,0-0.1,0-0.1c0,0,0,0,0-0.1l-0.3-1.8H66.1z"/>
	</g>
	<rect x="1" y="-11.6" class="st4" width="87.9" height="72.3"/>
	<g>
		<defs>
			<path id="SVGID_10_" d="M68.3,34.2c0,0.8,0.7,1.5,1.5,1.5c0.8,0,1.5-0.7,1.5-1.5c0-0.8-0.7-1.5-1.5-1.5
				C68.9,32.8,68.3,33.4,68.3,34.2"/>
		</defs>
		<clipPath id="SVGID_11_">
			<use xlink:href="#SVGID_10_"  style="overflow:visible;"/>
		</clipPath>
		
			<radialGradient id="SVGID_12_" cx="-99.6196" cy="147.7749" r="0.3256" gradientTransform="matrix(5.2195 0 0 -5.2195 589.6523 804.4604)" gradientUnits="userSpaceOnUse">
			<stop  offset="0" style="stop-color:#EA9A55"/>
			<stop  offset="1" style="stop-color:#AF232F"/>
		</radialGradient>
		<rect x="68.3" y="32.8" class="st6" width="3" height="3"/>
	</g>
	<g>
		<defs>
			<path id="SVGID_13_" d="M68.8,33.3c-0.2,0.2-0.2,1,0.9,1c1.2,0,1.1-0.8,0.9-1c-0.2-0.3-0.6-0.4-0.9-0.4
				C69.4,32.9,69,33,68.8,33.3"/>
		</defs>
		<clipPath id="SVGID_14_">
			<use xlink:href="#SVGID_13_"  style="overflow:visible;"/>
		</clipPath>
		<g class="st7">
			<defs>
				<rect id="SVGID_15_" x="68.6" y="32.9" width="2.4" height="1.4"/>
			</defs>
			<clipPath id="SVGID_16_">
				<use xlink:href="#SVGID_15_"  style="overflow:visible;"/>
			</clipPath>
			<g class="st8">
				<defs>
					<rect id="SVGID_17_" x="68.6" y="32.9" width="2.4" height="1.4"/>
				</defs>
				<clipPath id="SVGID_18_">
					<use xlink:href="#SVGID_17_"  style="overflow:visible;"/>
				</clipPath>
				<g style="clip-path:url(#SVGID_18_);">
					
						<image style="overflow:visible;" width="10" height="6" xlink:href="31539D46.jpg"  transform="matrix(0.24 0 0 0.24 68.5554 32.8542)">
					</image>
				</g>
			</g>
		</g>
	</g>
	<g>
		<defs>
			<rect id="SVGID_19_" x="1" y="-11.6" width="87.9" height="72.3"/>
		</defs>
		<clipPath id="SVGID_20_">
			<use xlink:href="#SVGID_19_"  style="overflow:visible;"/>
		</clipPath>
		<path class="st9" d="M69.8,33.9l-0.5-0.5c0,0-0.1,0-0.1,0L69,33.7c0,0,0,0.1,0,0.1l0.5,0.5L69.8,33.9z"/>
		<path class="st10" d="M69.4,34.3L69.4,34.3L69,33.8c0,0,0,0,0,0c0,0,0-0.1,0-0.2l0,0c0,0,0,0.1,0,0.2c0,0,0,0,0,0L69.4,34.3z"/>
		<path class="st10" d="M70.6,34.8C70.6,34.8,70.6,34.8,70.6,34.8c0,0.1,0,0.1,0,0.1l-0.2,0.2c0,0-0.1,0-0.1,0l-0.5-0.5l0,0l0.5,0.5
			c0,0,0.1,0,0.2,0l0.2-0.2C70.6,34.9,70.6,34.8,70.6,34.8"/>
	</g>
	<g>
		<defs>
			<path id="SVGID_21_" d="M70.6,33.7C70.6,33.7,70.6,33.7,70.6,33.7C70.6,33.7,70.6,33.7,70.6,33.7"/>
		</defs>
		<clipPath id="SVGID_22_">
			<use xlink:href="#SVGID_21_"  style="overflow:visible;"/>
		</clipPath>
		
			<linearGradient id="SVGID_23_" gradientUnits="userSpaceOnUse" x1="-621.7968" y1="-36.3424" x2="-621.4714" y2="-36.3424" gradientTransform="matrix(7.510000e-02 7.510000e-02 7.510000e-02 -7.510000e-02 119.977 77.6452)">
			<stop  offset="0" style="stop-color:#FFFFFF"/>
			<stop  offset="1" style="stop-color:#E1E2E0"/>
		</linearGradient>
		<polygon class="st11" points="70.6,33.7 70.6,33.7 70.6,33.7 70.5,33.7 		"/>
	</g>
	<g>
		<defs>
			<rect id="SVGID_24_" x="1" y="-11.6" width="87.9" height="72.3"/>
		</defs>
		<clipPath id="SVGID_25_">
			<use xlink:href="#SVGID_24_"  style="overflow:visible;"/>
		</clipPath>
		<path class="st12" d="M70.6,33.7C70.6,33.7,70.6,33.7,70.6,33.7C70.6,33.7,70.6,33.7,70.6,33.7z"/>
	</g>
	<g>
		<defs>
			<path id="SVGID_26_" d="M70.6,33.8C70.6,33.8,70.6,33.8,70.6,33.8C70.6,33.8,70.6,33.8,70.6,33.8"/>
		</defs>
		<clipPath id="SVGID_27_">
			<use xlink:href="#SVGID_26_"  style="overflow:visible;"/>
		</clipPath>
		
			<linearGradient id="SVGID_28_" gradientUnits="userSpaceOnUse" x1="-1070.1689" y1="-183.9882" x2="-1069.8434" y2="-183.9882" gradientTransform="matrix(4.080000e-02 4.080000e-02 4.080000e-02 -4.080000e-02 121.741 69.9148)">
			<stop  offset="0" style="stop-color:#FFFFFF"/>
			<stop  offset="1" style="stop-color:#E1E2E0"/>
		</linearGradient>
		<polygon class="st13" points="70.6,33.7 70.6,33.8 70.6,33.8 70.6,33.8 		"/>
	</g>
	<g>
		<defs>
			<rect id="SVGID_29_" x="1" y="-11.6" width="87.9" height="72.3"/>
		</defs>
		<clipPath id="SVGID_30_">
			<use xlink:href="#SVGID_29_"  style="overflow:visible;"/>
		</clipPath>
		<path class="st14" d="M70.6,33.7C70.6,33.8,70.6,33.8,70.6,33.7C70.6,33.8,70.6,33.8,70.6,33.7z"/>
	</g>
	<g>
		<defs>
			<path id="SVGID_31_" d="M70.6,33.7C70.6,33.7,70.6,33.7,70.6,33.7C70.6,33.7,70.6,33.7,70.6,33.7"/>
		</defs>
		<clipPath id="SVGID_32_">
			<use xlink:href="#SVGID_31_"  style="overflow:visible;"/>
		</clipPath>
		
			<linearGradient id="SVGID_33_" gradientUnits="userSpaceOnUse" x1="-979.0536" y1="-148.7764" x2="-978.7278" y2="-148.7764" gradientTransform="matrix(4.450000e-02 4.450000e-02 4.450000e-02 -4.450000e-02 120.7596 70.6664)">
			<stop  offset="0" style="stop-color:#FFFFFF"/>
			<stop  offset="1" style="stop-color:#E1E2E0"/>
		</linearGradient>
		<polygon class="st15" points="70.6,33.7 70.6,33.7 70.6,33.7 70.6,33.7 		"/>
	</g>
	<g>
		<defs>
			<rect id="SVGID_34_" x="1" y="-11.6" width="87.9" height="72.3"/>
		</defs>
		<clipPath id="SVGID_35_">
			<use xlink:href="#SVGID_34_"  style="overflow:visible;"/>
		</clipPath>
		<path class="st16" d="M70.6,33.7C70.6,33.7,70.6,33.7,70.6,33.7C70.6,33.7,70.6,33.7,70.6,33.7z"/>
		<path class="st17" d="M70.6,34.7l-1.2-1.2c0,0-0.1,0-0.1,0L69,33.7c0,0,0,0.1,0,0.1c0,0,0-0.1,0-0.2l0.2-0.2
			c0.1-0.1,0.1-0.1,0.2,0L70.6,34.7c0,0,0,0.1,0,0.1C70.6,34.8,70.6,34.7,70.6,34.7"/>
	</g>
	<g>
		<defs>
			<path id="SVGID_36_" d="M68.9,34.8C68.9,34.8,68.9,34.8,68.9,34.8C68.9,34.8,68.9,34.8,68.9,34.8"/>
		</defs>
		<clipPath id="SVGID_37_">
			<use xlink:href="#SVGID_36_"  style="overflow:visible;"/>
		</clipPath>
		
			<linearGradient id="SVGID_38_" gradientUnits="userSpaceOnUse" x1="-1396.156" y1="-201.6825" x2="-1395.8297" y2="-201.6825" gradientTransform="matrix(2.990000e-02 2.990000e-02 2.990000e-02 -2.990000e-02 116.7051 70.4803)">
			<stop  offset="0" style="stop-color:#FFFFFF"/>
			<stop  offset="1" style="stop-color:#E1E2E0"/>
		</linearGradient>
		<polygon class="st18" points="68.9,34.8 68.9,34.8 68.9,34.8 68.9,34.8 		"/>
	</g>
	<g>
		<defs>
			<rect id="SVGID_39_" x="1" y="-11.6" width="87.9" height="72.3"/>
		</defs>
		<clipPath id="SVGID_40_">
			<use xlink:href="#SVGID_39_"  style="overflow:visible;"/>
		</clipPath>
		<path class="st19" d="M68.9,34.8C68.9,34.8,68.9,34.8,68.9,34.8C68.9,34.8,68.9,34.8,68.9,34.8z"/>
	</g>
	<g>
		<defs>
			<path id="SVGID_41_" d="M68.9,34.7C68.9,34.7,69,34.7,68.9,34.7C69,34.7,68.9,34.7,68.9,34.7"/>
		</defs>
		<clipPath id="SVGID_42_">
			<use xlink:href="#SVGID_41_"  style="overflow:visible;"/>
		</clipPath>
		
			<linearGradient id="SVGID_43_" gradientUnits="userSpaceOnUse" x1="-2695.3562" y1="-576.4928" x2="-2695.0315" y2="-576.4928" gradientTransform="matrix(1.520000e-02 1.520000e-02 1.520000e-02 -1.520000e-02 118.6796 66.9383)">
			<stop  offset="0" style="stop-color:#FFFFFF"/>
			<stop  offset="1" style="stop-color:#E1E2E0"/>
		</linearGradient>
		<polygon class="st20" points="69,34.7 69,34.7 69,34.8 68.9,34.7 		"/>
	</g>
	<g>
		<defs>
			<rect id="SVGID_44_" x="1" y="-11.6" width="87.9" height="72.3"/>
		</defs>
		<clipPath id="SVGID_45_">
			<use xlink:href="#SVGID_44_"  style="overflow:visible;"/>
		</clipPath>
		<path class="st21" d="M69,34.7C69,34.7,68.9,34.7,69,34.7C68.9,34.7,69,34.7,69,34.7z"/>
	</g>
	<g>
		<defs>
			<path id="SVGID_46_" d="M68.9,34.8C68.9,34.8,68.9,34.8,68.9,34.8C68.9,34.8,68.9,34.8,68.9,34.8"/>
		</defs>
		<clipPath id="SVGID_47_">
			<use xlink:href="#SVGID_46_"  style="overflow:visible;"/>
		</clipPath>
		
			<linearGradient id="SVGID_48_" gradientUnits="userSpaceOnUse" x1="-743.152" y1="-32.5608" x2="-742.8262" y2="-32.5608" gradientTransform="matrix(6.030000e-02 6.030000e-02 6.030000e-02 -6.030000e-02 115.7005 77.6482)">
			<stop  offset="0" style="stop-color:#FFFFFF"/>
			<stop  offset="1" style="stop-color:#E1E2E0"/>
		</linearGradient>
		<polygon class="st22" points="68.9,34.8 69,34.8 68.9,34.8 68.9,34.8 		"/>
	</g>
	<g>
		<defs>
			<rect id="SVGID_49_" x="1" y="-11.6" width="87.9" height="72.3"/>
		</defs>
		<clipPath id="SVGID_50_">
			<use xlink:href="#SVGID_49_"  style="overflow:visible;"/>
		</clipPath>
		<path class="st23" d="M68.9,34.8C68.9,34.8,68.9,34.8,68.9,34.8C68.9,34.8,68.9,34.8,68.9,34.8z"/>
		<path class="st24" d="M70.6,34.7l-1.2-1.2c-0.1-0.1-0.1-0.1-0.2,0L69,33.6l0,0c0,0,0,0.1,0,0.2c0,0,0,0,0,0c0,0-0.1-0.1,0-0.2
			l0.2-0.2c0,0,0.1,0,0.1,0L70.6,34.7c0,0.1,0,0.1,0,0.1C70.6,34.8,70.6,34.7,70.6,34.7"/>
	</g>
	<g>
		<defs>
			<path id="SVGID_51_" d="M70.2,33.5L69,34.7c0,0,0,0.1,0,0.1l0.2,0.2c0,0,0.1,0,0.1,0l0.5-0.5l0.5,0.5c0,0,0.1,0,0.1,0l0.2-0.2
				c0,0,0-0.1,0-0.1l-0.5-0.5l0.5-0.5c0,0,0-0.1,0-0.1l-0.2-0.2C70.3,33.5,70.3,33.4,70.2,33.5C70.3,33.4,70.2,33.5,70.2,33.5"/>
		</defs>
		<clipPath id="SVGID_52_">
			<use xlink:href="#SVGID_51_"  style="overflow:visible;"/>
		</clipPath>
		
			<linearGradient id="SVGID_53_" gradientUnits="userSpaceOnUse" x1="-100.724" y1="139.5677" x2="-100.3983" y2="139.5677" gradientTransform="matrix(3.5468 3.5468 3.5468 -3.5468 -68.3514 886.2008)">
			<stop  offset="0" style="stop-color:#FFFFFF"/>
			<stop  offset="1" style="stop-color:#D3D3D0"/>
		</linearGradient>
		<polygon class="st25" points="69.8,32.6 71.4,34.3 69.8,35.9 68.1,34.3 		"/>
	</g>
	<path class="st26" d="M69,34.7l1.2-1.2c0,0,0.1,0,0.1,0l0.2,0.2c0,0,0,0.1,0,0.1c0,0,0-0.1,0-0.2l-0.2-0.2c-0.1-0.1-0.1-0.1-0.2,0
		L69,34.7c0,0,0,0.1,0,0.1C68.9,34.8,68.9,34.7,69,34.7"/>
	<path class="st3" d="M70.6,33.8C70.6,33.8,70.6,33.8,70.6,33.8l-0.5,0.5l0,0L70.6,33.8C70.6,33.8,70.6,33.8,70.6,33.8
		c0,0,0-0.1,0-0.1l0,0C70.6,33.7,70.6,33.7,70.6,33.8"/>
	<path class="st3" d="M69.8,34.6l-0.5,0.5c0,0-0.1,0-0.1,0L69,34.9c0,0,0,0,0,0c0,0,0,0,0-0.1c0,0,0,0.1,0,0.1l0.2,0.2
		c0,0,0.1,0,0.2,0L69.8,34.6L69.8,34.6z"/>
	<path class="st3" d="M74.4,34.2c0.2,0,0.3-0.2,0.3-0.4l0-0.1c0-0.3-0.3-0.5-0.6-0.5h-1.8c-0.1,0-0.1,0-0.1,0.1v0.8v1
		c0,0.1,0,0.1,0.1,0.1c0,0,1.8,0,1.8,0c0.6,0,0.7-0.2,0.7-0.5v-0.1C74.8,34.3,74.4,34.2,74.4,34.2 M72.9,33.7H74
		c0.1,0,0.1,0.1,0.1,0.1v0.1C74.1,34,74,34,74,34h-1.1V33.7z M74.2,34.7c0,0.1-0.1,0.1-0.1,0.1h-1.2v-0.4H74
		C74.1,34.5,74.2,34.5,74.2,34.7L74.2,34.7z"/>
	<path class="st3" d="M80.1,33.3h-1.7c-0.1,0-0.1,0-0.1,0.1v0.5v0.3v1c0,0.1,0,0.1,0.1,0.1h1.7c0.5,0,0.9-0.1,0.9-0.7v-0.5v0v-0.1
		C81,33.4,80.6,33.3,80.1,33.3 M80.3,34.2L80.3,34.2v0.3c0,0.3-0.2,0.4-0.5,0.4h-1v-1h1C80.1,33.7,80.3,33.8,80.3,34.2L80.3,34.2z"
		/>
	<path class="st3" d="M83.8,33.2l-0.6,0l-0.7,0.8l-0.7-0.8l-0.6,0c-0.1,0-0.1,0.1-0.1,0.1l1,1.2v0.6c0,0.1,0,0.1,0.1,0.1h0.4
		c0.1,0,0.1,0,0.1-0.1v-0.6l1-1.2C83.9,33.3,83.8,33.2,83.8,33.2"/>
	<path class="st3" d="M77.1,33.2H76c-0.5,0-0.8,0.1-0.8,0.7v0.7c0,0.6,0.3,0.7,0.8,0.7h1.1c0.5,0,0.8-0.1,0.8-0.7v-0.7
		C77.9,33.4,77.6,33.2,77.1,33.2 M77.3,34.4c0,0.3-0.2,0.4-0.4,0.4h-0.7c-0.3,0-0.4-0.1-0.4-0.4v-0.4c0-0.3,0.2-0.4,0.4-0.4h0.7
		c0.3,0,0.4,0.1,0.4,0.4V34.4z"/>
	<rect x="1" y="-11.6" class="st4" width="87.9" height="72.3"/>
	<g>
		<g>
			<path class="st3" d="M2.9,51.8c-0.6,0-1-0.2-1.3-0.5c-0.3-0.4-0.4-0.9-0.4-1.5c0-0.6,0-1.3,0.5-1.7c0.2-0.3,0.7-0.5,1.3-0.5h1.4
				v0.4H3c-0.7,0-1.1,0.4-1.2,0.9c-0.1,0.2-0.1,0.8-0.1,1c0,0.3,0,0.8,0.1,1c0.3,0.6,0.9,0.6,1.3,0.6h1.5v0.4H2.9z"/>
			<path class="st3" d="M6.4,51.8v-3.9H4.8v-0.4h3.6v0.4H6.8v3.9H6.4z"/>
			<path class="st3" d="M10,53.2H9.6l0.6-1.4l-1.8-4.2h0.5l1.6,3.7l1.7-3.7h0.5L10,53.2z"/>
			<path class="st3" d="M13.8,47.9c0.1-0.2,0.2-0.4,0.5-0.4c0.3,0,0.4,0.2,0.5,0.4l1.4,3.6h0.3v0.4h-4.4v-0.4h0.3L13.8,47.9z
				 M12.9,51.4h2.8L14.4,48c0,0-0.1-0.1-0.1-0.1c0,0-0.1,0.1-0.1,0.1L12.9,51.4z"/>
			<path class="st3" d="M20,51.8v-3.7c0,0,0-0.1,0-0.1c0,0,0,0-0.1,0.1l-2.2,3.5c-0.1,0.2-0.3,0.3-0.5,0.3c-0.2,0-0.4-0.2-0.4-0.4
				v-3.9h0.4v3.7c0,0,0,0.1,0,0.1c0,0,0.1,0,0.1-0.1l2.2-3.5c0.1-0.2,0.3-0.3,0.4-0.3c0.4,0,0.4,0.4,0.4,0.5v3.8H20z"/>
			<path class="st3" d="M22.6,50.3C22.7,50.2,22.7,50.2,22.6,50.3c0.1-0.1,0-0.1,0-0.1h-0.5c-0.3,0-0.6,0-0.8-0.4
				c-0.2-0.3-0.2-0.7-0.2-1c0-0.3,0-0.7,0.3-1c0.2-0.2,0.4-0.3,0.7-0.3h1.8c0.2,0,0.4,0,0.5,0.1c0.1,0.1,0.1,0.4,0.1,0.5v3.6h-0.4
				v-3.6c0-0.1,0-0.2,0-0.2c-0.1-0.1-0.2-0.1-0.3-0.1h-1.7c-0.1,0-0.3,0-0.4,0.2c-0.1,0.2-0.1,0.4-0.1,0.7c0,0.4,0,0.6,0.1,0.7
				c0.1,0.2,0.3,0.3,0.5,0.3H23c0.1,0,0.3,0,0.3,0.2c0,0.1,0,0.2-0.1,0.3l-1.6,1.5H21L22.6,50.3z"/>
			<path class="st27" d="M28.2,51.8c-0.2,0-0.5,0-0.6-0.2c-0.2-0.2-0.2-0.4-0.2-0.7v-4c0-0.2,0.1-0.5,0.2-0.6
				c0.2-0.2,0.5-0.2,0.7-0.2h3.6V47h-3c-0.1,0-0.2,0-0.3,0.1c-0.1,0.1-0.1,0.2-0.1,0.3v1.1h3.3v0.8h-3.3v1.3c0,0.1,0,0.2,0.1,0.2
				c0.1,0.1,0.2,0.1,0.4,0.1h3v0.8H28.2z"/>
			<path class="st27" d="M36.9,51.2c-0.2,0.4-0.3,0.7-0.8,0.7c-0.5,0-0.7-0.3-0.8-0.7l-1.4-3.8c0-0.1-0.1-0.2-0.1-0.2
				c-0.1,0-0.1,0.1-0.1,0.2l0,4.4h-1.1v-5c0-0.7,0.7-0.7,0.9-0.7c0.7,0,0.8,0.3,1,0.7l1.5,3.8c0,0.1,0.1,0.2,0.2,0.2
				c0,0,0.1-0.1,0.2-0.2l1.5-3.8c0.2-0.6,0.6-0.7,1-0.7c0.5,0,0.9,0.2,0.9,0.7v5h-1.1l0-4.4c0-0.2-0.1-0.2-0.1-0.2
				c-0.1,0-0.1,0.1-0.1,0.2L36.9,51.2z"/>
			<path class="st27" d="M40.4,51h3.1c0.5,0,0.5-0.4,0.5-0.6c0-0.2-0.1-0.5-0.5-0.6L41.3,49c-0.1,0-0.4-0.1-0.7-0.4
				c-0.3-0.3-0.3-0.7-0.3-1.1c0-0.3,0-0.7,0.4-1c0.3-0.3,0.7-0.3,0.9-0.3h3.2V47H42c-0.1,0-0.3,0-0.4,0.1c-0.1,0.1-0.1,0.3-0.1,0.4
				c0,0.2,0.1,0.5,0.5,0.6l2.1,0.7c0.4,0.1,0.6,0.2,0.8,0.4c0.3,0.3,0.4,0.8,0.4,1.1c0,0.4,0,0.7-0.3,1c-0.3,0.4-0.6,0.4-1,0.4h-3.5
				V51z"/>
			<path class="st3" d="M48.8,51.8v-3.9h-1.6v-0.4h3.6v0.4h-1.6v3.9H48.8z"/>
			<path class="st3" d="M51.6,53.2h-0.4v-5.1c0-0.2,0.1-0.4,0.2-0.4c0.2-0.1,0.4-0.1,0.5-0.1h1.1c0.3,0,0.9,0,1.3,0.5
				c0.4,0.5,0.5,1.1,0.5,1.6c0,0.5,0,1.1-0.3,1.6c-0.3,0.5-0.8,0.6-1.5,0.6h-1.2V53.2z M53,51.4c0.4,0,0.8-0.2,1-0.5
				c0.2-0.3,0.2-0.7,0.2-1.3c0-0.6-0.1-0.9-0.2-1.1c-0.2-0.5-0.6-0.6-1-0.6h-1.2c0,0-0.1,0-0.1,0.1c-0.1,0-0.1,0.1-0.1,0.2v3.3H53z"
				/>
			<path class="st3" d="M56.6,51.8c-0.3,0-0.8-0.1-1.1-0.5c-0.3-0.4-0.3-1-0.3-1.6c0-0.6,0-1.3,0.6-1.8c0.4-0.3,0.9-0.4,1.3-0.4
				c0.3,0,0.7,0,1.1,0.2c0.2,0.1,0.7,0.5,0.7,1.4c0,0.1,0,0.4-0.2,0.6c-0.1,0.1-0.3,0.1-0.5,0.1h-2.6c0,0.3,0,0.6,0.1,0.9
				c0.1,0.3,0.4,0.7,1,0.7h2.1v0.4H56.6z M58.2,49.4c0.2,0,0.2-0.2,0.2-0.3c0-0.4-0.1-0.7-0.3-0.9c-0.3-0.4-0.7-0.4-1.1-0.4
				c-0.4,0-0.9,0-1.2,0.5c-0.2,0.3-0.2,0.6-0.2,1H58.2z"/>
			<path class="st3" d="M62.5,51.8v-2h-2.6v2h-0.4v-4.3h0.4v1.9h2.6v-1.9h0.4v4.3H62.5z"/>
			<path class="st3" d="M66.8,51.8v-3.7c0,0,0-0.1,0-0.1c0,0,0,0-0.1,0.1l-2.2,3.5c-0.1,0.2-0.3,0.3-0.5,0.3c-0.2,0-0.4-0.2-0.4-0.4
				v-3.9h0.4v3.7c0,0,0,0.1,0,0.1c0,0,0.1,0,0.1-0.1l2.2-3.5c0.1-0.2,0.3-0.3,0.4-0.3c0.4,0,0.4,0.4,0.4,0.5v3.8H66.8z"/>
			<path class="st3" d="M68.5,53.2h-0.4v-5.1c0-0.2,0.1-0.4,0.2-0.4c0.2-0.1,0.4-0.1,0.5-0.1h1.1c0.3,0,0.9,0,1.3,0.5
				c0.4,0.5,0.5,1.1,0.5,1.6c0,0.5,0,1.1-0.3,1.6c-0.3,0.5-0.8,0.6-1.5,0.6h-1.2V53.2z M69.9,51.4c0.4,0,0.8-0.2,1-0.5
				c0.2-0.3,0.2-0.7,0.2-1.3c0-0.6-0.1-0.9-0.2-1.1c-0.2-0.5-0.6-0.6-1-0.6h-1.2c0,0-0.1,0-0.1,0.1c-0.1,0-0.1,0.1-0.1,0.2v3.3H69.9
				z"/>
			<path class="st3" d="M72.6,48c0.4-0.4,1-0.5,1.6-0.5s1.2,0.1,1.6,0.5c0.5,0.5,0.5,1.2,0.5,1.7c0,0.9-0.3,1.5-0.5,1.7
				c-0.5,0.5-1.2,0.5-1.6,0.5s-1.1,0-1.6-0.5c-0.3-0.3-0.5-0.8-0.5-1.7C72,49.2,72.1,48.4,72.6,48z M72.8,51.1
				c0.3,0.4,0.9,0.4,1.3,0.4s1,0,1.3-0.4c0.4-0.4,0.3-1,0.3-1.4c0-0.4,0-1-0.3-1.4c-0.3-0.4-0.9-0.4-1.3-0.4s-1,0-1.3,0.4
				c-0.3,0.4-0.3,1.1-0.3,1.4C72.5,50,72.5,50.7,72.8,51.1z"/>
			<path class="st3" d="M76.9,48c0-0.1,0.1-0.3,0.1-0.4c0.1-0.1,0.2-0.1,0.4-0.1h1.9c0.2,0,0.6,0,0.8,0.3c0.2,0.2,0.2,0.6,0.2,0.8
				c0,0.2,0,0.5-0.2,0.6c-0.1,0.1-0.2,0.2-0.4,0.3v0c0.2,0,0.4,0.2,0.4,0.3c0.1,0.2,0.1,0.4,0.1,0.6c0,0.4,0,0.7-0.3,1
				c-0.2,0.2-0.5,0.3-0.6,0.3h-2c-0.1,0-0.3-0.1-0.4-0.1c-0.1-0.1-0.1-0.2-0.1-0.4V48z M79.2,49.4c0.2,0,0.3,0,0.5-0.2
				c0.2-0.2,0.2-0.4,0.2-0.6c0-0.2,0-0.4-0.2-0.6c-0.1-0.1-0.3-0.1-0.5-0.1h-1.7c0,0-0.1,0-0.1,0c0,0,0,0.1,0,0.1v1.3H79.2z
				 M77.3,51.2c0,0.1,0,0.2,0,0.2c0.1,0.1,0.1,0.1,0.2,0.1h1.5c0.2,0,0.4,0,0.6-0.2c0.2-0.2,0.2-0.4,0.2-0.7c0-0.2,0-0.4-0.2-0.6
				c-0.1-0.2-0.3-0.2-0.5-0.2h-1.9V51.2z"/>
			<path class="st3" d="M81.3,48c0.4-0.4,1-0.5,1.6-0.5c0.5,0,1.2,0.1,1.6,0.5c0.5,0.5,0.5,1.2,0.5,1.7c0,0.9-0.3,1.5-0.5,1.7
				c-0.5,0.5-1.2,0.5-1.6,0.5c-0.4,0-1.1,0-1.6-0.5c-0.3-0.3-0.5-0.8-0.5-1.7C80.7,49.2,80.8,48.4,81.3,48z M81.5,51.1
				c0.3,0.4,0.9,0.4,1.3,0.4s1,0,1.3-0.4c0.4-0.4,0.3-1,0.3-1.4c0-0.4,0-1-0.3-1.4c-0.3-0.4-0.9-0.4-1.3-0.4c-0.4,0-1,0-1.3,0.4
				c-0.3,0.4-0.3,1.1-0.3,1.4C81.2,50,81.2,50.7,81.5,51.1z"/>
			<path class="st3" d="M85.6,51.8v-4.3H86v4.3H85.6z M88.3,51.8l-1.8-1.7c-0.2-0.2-0.3-0.4-0.3-0.5c0-0.2,0.2-0.4,0.3-0.6l1.6-1.5
				h0.6l-1.9,1.8c-0.1,0.1-0.2,0.2-0.2,0.3c0,0.1,0.1,0.2,0.1,0.2l2.1,2H88.3z"/>
		</g>
	</g>
</g>
<g>
</g>
</svg>
