<?xml version="1.0" encoding="utf-8"?>
<!-- Generator: Adobe Illustrator 23.0.2, SVG Export Plug-In . SVG Version: 6.00 Build 0)  -->
<svg version="1.1" id="Capa_1" xmlns="http://www.w3.org/2000/svg" xmlns:xlink="http://www.w3.org/1999/xlink" x="0px" y="0px"
	 viewBox="0 0 80.3 31.1" style="enable-background:new 0 0 80.3 31.1;" xml:space="preserve">
<style type="text/css">
	.st0{fill:#FFFFFF;}
	.st1{display:none;fill:#010002;}
</style>
<path class="st0" d="M64.8,31.1c-8.6,0-15.5-7-15.5-15.5C49.2,7,56.2,0,64.8,0s15.5,7,15.5,15.5C80.3,24.1,73.3,31.1,64.8,31.1z
	 M64.8,1.8C57.2,1.8,51,7.9,51,15.5s6.2,13.8,13.8,13.8s13.8-6.2,13.8-13.8C78.5,7.9,72.3,1.8,64.8,1.8z"/>
<path class="st1" d="M69.5,21.2c-0.2,0-0.5-0.1-0.6-0.3l-4.8-4.8c-0.2-0.2-0.3-0.4-0.3-0.6v-10c0-0.5,0.4-0.9,0.9-0.9
	s0.9,0.4,0.9,0.9v9.7l4.5,4.5c0.3,0.3,0.3,0.9,0,1.3C70,21.1,69.7,21.2,69.5,21.2z"/>
<path class="st0" d="M64.1,14.9L64.1,14.9c0.3-0.3,0.9-0.3,1.3,0l6.5,6.5c0.3,0.3,0.3,0.9,0,1.3l0,0c-0.3,0.3-0.9,0.3-1.3,0
	l-6.5-6.5C63.7,15.8,63.7,15.2,64.1,14.9z"/>
<path class="st0" d="M15.5,31.1C7,31.1,0,24.1,0,15.5C0,7,7,0,15.5,0S31,7,31,15.5C31.1,24.1,24.1,31.1,15.5,31.1z M15.5,1.8
	C7.9,1.8,1.8,7.9,1.8,15.5S8,29.3,15.6,29.3s13.8-6.2,13.8-13.8C29.3,7.9,23.1,1.8,15.5,1.8z"/>
<path class="st0" d="M15.5,15.5L15.5,15.5c-0.5,0-0.9-0.4-0.9-0.9V5.5c0-0.5,0.4-0.9,0.9-0.9l0,0c0.5,0,0.9,0.4,0.9,0.9v9.2
	C16.4,15.1,16,15.5,15.5,15.5z"/>
<g>
	<circle class="st0" cx="35" cy="15.5" r="1"/>
	<circle class="st0" cx="40.2" cy="15.5" r="1"/>
	<circle class="st0" cx="45.3" cy="15.5" r="1"/>
</g>
</svg>
