<?xml version="1.0" encoding="utf-8"?>
<!-- Generator: Adobe Illustrator 23.0.2, SVG Export Plug-In . SVG Version: 6.00 Build 0)  -->
<svg version="1.1" id="Capa_1" xmlns="http://www.w3.org/2000/svg" xmlns:xlink="http://www.w3.org/1999/xlink" x="0px" y="0px"
	 viewBox="0 0 512 512" style="enable-background:new 0 0 512 512;" xml:space="preserve">
<style type="text/css">
	.st0{fill:#FFFFFF;}
</style>
<g>
	<g>
		<path class="st0" d="M438.5,264.5h-54.3c-8.1-7.2-15.7-10.3-16-10.5c0,0-0.1,0-0.1-0.1l-82.9-32.1v-18.9
			c13.1-10.3,22.2-25.4,24.6-42.7c16.2-1.4,28.1-14.6,28.1-30.2c0-7.2-2.6-14.1-7.2-19.5V84.9c0-19.8-6.9-39.2-19.3-54.6
			C299,15.2,281.8,4.5,262.9,0.2c-4.1-0.9-8.1,1.6-9,5.7c-0.9,4.1,1.6,8.1,5.7,9c32.9,7.4,56,36.3,56,70.1v16
			c-1.7-0.5-3.4-0.8-5.2-1v-0.2c0-6.2-1-6.2-22.1-28.8c0,0,0,0,0,0c-4.3-4.7-11.3-5.4-16.5-2c-24.2,15.8-53.7,23.7-80.9,21.8
			c-6.2-0.5-11.7,3.5-13.4,9.4c-1.6,0.2-3.8,0.7-5.7,1.2V84.9c0-33.8,23-62.6,56-70.1c4.1-0.9,6.6-4.9,5.7-9c-0.9-4.1-4.9-6.6-9-5.7
			c-18.9,4.3-36.1,15-48.4,30.1c-12.5,15.4-19.3,34.8-19.3,54.6v26.3c-4.7,5.3-7.2,11.9-7.2,18.9c0,8.8,3.8,17.1,10.5,22.8
			c5,4.3,11.1,6.8,17.6,7.3c2.4,16.8,11.5,33,26,43.7v17.8L120.8,254c0,0-0.1,0-0.1,0.1c-1.5,0.6-37.1,15.7-37.1,57.3v136.8
			l-15.1,15c-11.2,11.1-11.2,29.2-0.1,40.4c11.1,11.2,29.2,11.2,40.4,0.1l97.7-97.3l62.2,53.4c11.7,10,29.1,9.1,39.5-2.2
			l109.5-117.9l11.4,11.4c8.4,8.4,22.9,2.4,22.9-9.5v-63.6C451.9,270.5,445.9,264.5,438.5,264.5z M310.4,115.2
			c7.5,1.5,12.3,7.9,12.3,14.9c0,7.1-4.9,13.4-12.3,14.9V115.2z M177,145c-15.6-3.2-17.2-24.7,0-29.4V145z M364.8,269.1
			c-0.9,1-1.7,2.3-2.2,3.6c-2.1,5-0.9,10.8,2.9,14.6l11.8,11.8l-27.2,29.3V324c0-4.2-3.4-7.5-7.5-7.5s-7.5,3.4-7.5,7.5v20.7
			l-50,53.8l-4.8-4.1l-6.2-36.5c-0.7-4.1-4.6-6.9-8.7-6.2c-4.1,0.7-6.9,4.6-6.2,8.7l3.1,18.6L231,352.1l7.3-43.2h12.1l2.8,16.4
			c0.7,4.1,4.6,6.9,8.7,6.2c4.1-0.7,6.9-4.6,6.2-8.7l-3.3-19.7l5.2-7.8l2.4,1.7c6.4,4.5,15.3,2.3,18.8-4.7v0l21.7-43.6
			C366.9,269.7,362.5,267.9,364.8,269.1z M257.6,286.6l-4.8,7.3H236l-4.8-7.3l13.2-9.4L257.6,286.6z M218.7,224.3v-12
			c8.3,3.2,17.2,4.7,25.8,4.7c8.9,0,17.7-1.9,25.5-5.1v12.5l-25.6,31.6L218.7,224.3z M298.8,243.3l-19.9,39.9
			c-2.8-2-5.1-3.7-23.6-16.8l19.3-23.8l5.4-6.6L298.8,243.3z M192,151.1c0-10.7,0-22.3,0-45.2c29.8,1.6,61-7.2,86.4-23.4
			c9.7,10.4,15,15.9,16.8,18.2c0,56.7,0,49.4,0,51.7c-0.7,27.4-23.2,49.5-50.8,49.5C213.1,201.9,192,177.5,192,151.1z M208.8,236
			l24.7,30.5c-9.4,6.7-22.8,16.2-23.6,16.8L190,243.3L208.8,236z M126.4,268l49.5-19.2l21.7,43.6v0c1.7,3.3,4.7,5.8,8.3,6.7
			c3.6,0.9,7.4,0.2,10.5-2l2.4-1.7l5.2,7.8l-6.5,38.7c-10.7-5.1-23.9-3.2-32.6,5.4l-31,30.9V324c0-4.2-3.4-7.5-7.5-7.5
			c-4.2,0-7.5,3.4-7.5,7.5v69.1l-40.2,40V311.3h0C98.6,280.4,124.7,268.7,126.4,268z M436.9,337.5l-14.1-14.1
			c-3.1-3.1-8-2.8-10.8,0.2L297.1,447.3c-5,5.3-13.2,5.8-18.7,1.1l-67.4-58c-3-2.6-7.4-2.4-10.2,0.4L98.2,493
			c-5.3,5.3-13.8,5.3-19.1,0c-5.3-5.3-5.3-13.8,0-19.1c5.6-5.5,112.7-112.3,116.4-116c5-5,13.1-5.2,18.3-0.7
			c0,0,66.8,57.5,66.8,57.5c3.1,2.6,7.7,2.4,10.4-0.6l102.1-110c2.8-3,2.7-7.6-0.2-10.4L379,279.6h2.3l0,0h55.6V337.5z"/>
	</g>
</g>
</svg>
