<?xml version="1.0" encoding="utf-8"?>
<!-- Generator: Adobe Illustrator 23.0.2, SVG Export Plug-In . SVG Version: 6.00 Build 0)  -->
<svg version="1.1" id="Capa_1" xmlns="http://www.w3.org/2000/svg" xmlns:xlink="http://www.w3.org/1999/xlink" x="0px" y="0px"
	 viewBox="0 0 425 425" style="enable-background:new 0 0 425 425;" xml:space="preserve">
<style type="text/css">
	.st0{fill:#FFFFFF;}
</style>
<g>
	<g>
		<path class="st0" d="M385.3,17c0-9.4-7.6-17-17-17H56.7c-9.3,0-17,7.7-17,17v391c0,9.4,7.7,17,17,17h311.7c9.4,0,17-7.6,17-17
			L385.3,17L385.3,17z M73.7,34h277.7v357H73.7V34z"/>
		<path class="st0" d="M289,99.2H136c-9.3,0-17,7.7-17,17s7.7,17,17,17h153c9.4,0,17-7.7,17-17S298.4,99.2,289,99.2z"/>
		<path class="st0" d="M289,189.8H136c-9.3,0-17,7.6-17,17s7.7,17,17,17h153c9.4,0,17-7.6,17-17S298.4,189.8,289,189.8z"/>
		<path class="st0" d="M289,286.2H136c-9.3,0-17,7.6-17,17s7.7,17,17,17h153c9.4,0,17-7.6,17-17S298.4,286.2,289,286.2z"/>
	</g>
</g>
</svg>
