<?xml version="1.0" encoding="utf-8"?>
<!-- Generator: Adobe Illustrator 23.0.2, SVG Export Plug-In . SVG Version: 6.00 Build 0)  -->
<svg version="1.1" id="Capa_1" xmlns="http://www.w3.org/2000/svg" xmlns:xlink="http://www.w3.org/1999/xlink" x="0px" y="0px"
	 viewBox="0 0 512 512" style="enable-background:new 0 0 512 512;" xml:space="preserve">
<style type="text/css">
	.st0{fill:#FFFFFF;}
</style>
<g>
	<g>
		<path class="st0" d="M336,86c-5.5,0-10,4.5-10,10s4.5,10,10,10s10-4.5,10-10S341.5,86,336,86z"/>
	</g>
</g>
<g>
	<g>
		<path class="st0" d="M436.2,253.2c-11.4-40.7-60.8-104.6-54.7-216.6c0.2-2.7-0.8-5.4-2.7-7.4c-1.9-2-4.5-3.1-7.3-3.1h-231
			c-2.7,0-5.4,1.1-7.3,3.1s-2.9,4.7-2.7,7.4c6.1,111.5-43.2,176.1-54.8,216.6c-20.9,73,13.2,167.3,60.9,229c1.9,2.4,4.8,3.9,7.9,3.9
			h222.9c3.1,0,6-1.4,7.9-3.9C420.8,423.4,456.4,325.2,436.2,253.2z M124.4,190.2c18.8-47.5,27.6-95.9,26.5-144.2h210.2
			c-1.2,48.2,7.7,96.7,26.5,144.1c0.8,2,1.6,4,2.5,6.1c-41.1,19.5-87.3,29.8-134,29.8s-92.9-10.3-134-29.8
			C122.8,194.2,123.6,192.2,124.4,190.2z M246,466h-96.5c-51.5-68.9-66.9-147-57-197c54.2,20.8,105.5,65.6,153.5,102V466z
			 M97.9,249.6c3.4-9.3,7.6-18,12.3-27.7c1.2-2.4,2.4-4.9,3.6-7.5C157.5,235.1,206.4,246,256,246c49.6,0,98.5-10.9,142.3-31.5
			c1.2,2.5,2.4,5,3.6,7.5c4.7,9.7,8.9,18.4,12.2,27.7c-57.2,21.5-111,68-158.1,103.8C208.7,317.5,155.1,271.2,97.9,249.6z
			 M362.5,466H266v-95c48.4-36.7,99.4-81.2,153.4-101.9C431.3,332.2,400.2,415,362.5,466z"/>
	</g>
</g>
<g>
	<g>
		<path class="st0" d="M360.4,173.9c-4.4-13.4-8-26.9-10.9-40.2c-1.2-5.4-6.5-8.8-11.9-7.7c-5.4,1.2-8.8,6.5-7.7,11.9
			c3,14,6.9,28.2,11.5,42.2c1.7,5.2,7.4,8.1,12.6,6.4C359.3,184.8,362.2,179.2,360.4,173.9z"/>
	</g>
</g>
<g>
	<g>
		<path class="st0" d="M502,106h-61.9l22.9-22.9c3.9-3.9,3.9-10.2,0-14.1s-10.2-3.9-14.1,0l-40,40c-3.9,3.9-3.9,10.2,0,14.1l40,40
			c3.9,3.9,10.2,3.9,14.1,0c3.9-3.9,3.9-10.2,0-14.1L440.1,126H502c5.5,0,10-4.5,10-10S507.5,106,502,106z"/>
	</g>
</g>
<g>
	<g>
		<path class="st0" d="M103.1,108.9l-40-40c-3.9-3.9-10.2-3.9-14.1,0s-3.9,10.2,0,14.1L71.9,106H10c-5.5,0-10,4.5-10,10
			s4.5,10,10,10h61.9l-22.9,22.9c-3.9,3.9-3.9,10.2,0,14.1c3.9,3.9,10.2,3.9,14.1,0l40-40C107,119.2,107,112.8,103.1,108.9z"/>
	</g>
</g>
</svg>
