<svg width="36" height="32" viewBox="0 0 36 32" fill="none" xmlns="http://www.w3.org/2000/svg">
<path d="M32.5334 17.257L32.554 17.2792L18 31.8332L3.44601 17.2792L3.46659 17.257C1.77649 15.2867 0.893428 12.7504 0.994361 10.1564C1.0953 7.56244 2.17277 5.10244 4.01087 3.26934C5.84897 1.43625 8.31191 0.365487 10.9061 0.271628C13.5004 0.177769 16.0342 1.06774 18 2.76322C19.9658 1.06774 22.4996 0.177769 25.0939 0.271628C27.6881 0.365487 30.1511 1.43625 31.9892 3.26934C33.8273 5.10244 34.9047 7.56244 35.0057 10.1564C35.1066 12.7504 34.2235 15.2867 32.5334 17.257Z" fill="#252525"/>
</svg>
