<svg width="30" height="35" viewBox="0 0 30 35" fill="none" xmlns="http://www.w3.org/2000/svg">
<path d="M25.0763 24.493L15 34.5693L4.92367 24.493C2.93079 22.5001 1.57363 19.9609 1.0238 17.1967C0.473978 14.4325 0.756186 11.5673 1.83474 8.96347C2.91329 6.35963 4.73975 4.1341 7.08315 2.56829C9.42655 1.00249 12.1816 0.166748 15 0.166748C17.8184 0.166748 20.5735 1.00249 22.9169 2.56829C25.2603 4.1341 27.0867 6.35963 28.1653 8.96347C29.2438 11.5673 29.526 14.4325 28.9762 17.1967C28.4264 19.9609 27.0692 22.5001 25.0763 24.493ZM15 17.5833C15.8399 17.5833 16.6453 17.2497 17.2392 16.6558C17.833 16.0619 18.1667 15.2565 18.1667 14.4166C18.1667 13.5768 17.833 12.7713 17.2392 12.1775C16.6453 11.5836 15.8399 11.25 15 11.25C14.1602 11.25 13.3547 11.5836 12.7608 12.1775C12.167 12.7713 11.8333 13.5768 11.8333 14.4166C11.8333 15.2565 12.167 16.0619 12.7608 16.6558C13.3547 17.2497 14.1602 17.5833 15 17.5833Z" fill="#252525"/>
</svg>
