<svg width="30" height="35" viewBox="0 0 30 35" fill="none" xmlns="http://www.w3.org/2000/svg">
<path d="M25.0898 24.493L15.0134 34.5693L4.9371 24.493C2.94422 22.5001 1.58706 19.9609 1.03723 17.1967C0.487406 14.4325 0.769614 11.5673 1.84817 8.96347C2.92672 6.35963 4.75318 4.1341 7.09658 2.56829C9.43997 1.00249 12.1951 0.166748 15.0134 0.166748C17.8318 0.166748 20.5869 1.00249 22.9303 2.56829C25.2737 4.1341 27.1001 6.35963 28.1787 8.96347C29.2573 11.5673 29.5395 14.4325 28.9896 17.1967C28.4398 19.9609 27.0826 22.5001 25.0898 24.493ZM15.0134 17.5833C15.8533 17.5833 16.6587 17.2497 17.2526 16.6558C17.8465 16.0619 18.1801 15.2565 18.1801 14.4166C18.1801 13.5768 17.8465 12.7713 17.2526 12.1775C16.6587 11.5836 15.8533 11.25 15.0134 11.25C14.1736 11.25 13.3681 11.5836 12.7743 12.1775C12.1804 12.7713 11.8468 13.5768 11.8468 14.4166C11.8468 15.2565 12.1804 16.0619 12.7743 16.6558C13.3681 17.2497 14.1736 17.5833 15.0134 17.5833Z" fill="white"/>
</svg>
