<svg width="30" height="30" viewBox="0 0 30 30" fill="none" xmlns="http://www.w3.org/2000/svg">
<path d="M29.2634 21.9983V27.597C29.2636 27.9979 29.1117 28.3839 28.8384 28.6771C28.5652 28.9704 28.1908 29.1491 27.7909 29.1772C27.099 29.2247 26.5338 29.25 26.0968 29.25C12.1048 29.25 0.763428 17.9086 0.763428 3.91667C0.763428 3.47967 0.787178 2.91442 0.836261 2.2225C0.864322 1.82262 1.04301 1.44827 1.33628 1.17498C1.62955 0.901694 2.01556 0.749819 2.41643 0.75H8.01509C8.21149 0.749802 8.40095 0.82261 8.54666 0.954282C8.69238 1.08595 8.78396 1.26709 8.80359 1.4625C8.84001 1.82667 8.87326 2.11642 8.90493 2.3365C9.21959 4.53246 9.86443 6.66823 10.8176 8.67142C10.968 8.98808 10.8698 9.3665 10.5848 9.56917L7.16801 12.0107C9.25715 16.8785 13.1365 20.7579 18.0043 22.847L20.4427 19.4365C20.5423 19.2972 20.6877 19.1972 20.8535 19.1541C21.0193 19.111 21.195 19.1274 21.3499 19.2006C23.3529 20.152 25.4881 20.7952 27.6833 21.1085C27.9033 21.1402 28.1931 21.175 28.5541 21.2098C28.7492 21.2298 28.93 21.3216 29.0613 21.4673C29.1927 21.6129 29.2652 21.8022 29.265 21.9983H29.2634Z" fill="white"/>
</svg>
