<svg width="39" height="38" viewBox="0 0 39 38" fill="none" xmlns="http://www.w3.org/2000/svg">
<path d="M19.0134 0C8.52263 0 0.0134277 8.5092 0.0134277 19C0.0134277 29.4908 8.52263 38 19.0134 38C29.5042 38 38.0134 29.4908 38.0134 19C38.0134 8.5092 29.5042 0 19.0134 0ZM28.6494 21.0593C29.5431 21.9141 30.4756 22.7301 31.2527 23.7014C31.6024 24.1288 31.9521 24.5562 32.1852 25.0613C32.5349 25.7607 32.2241 26.5378 31.6024 26.5767H27.7169C26.7067 26.6544 25.9296 26.2658 25.2302 25.5665C24.6862 25.0225 24.1811 24.4397 23.676 23.8569C23.4817 23.6237 23.2486 23.3906 22.9766 23.2352C22.4326 22.8855 21.9664 23.002 21.6944 23.546C21.3836 24.1288 21.3059 24.7505 21.267 25.3722C21.2282 26.3047 20.9562 26.5378 20.0237 26.5767C18.0421 26.6544 16.177 26.3824 14.4674 25.3722C12.9521 24.4785 11.7476 23.274 10.7374 21.8753C8.7169 19.1554 7.20157 16.1636 5.80279 13.0941C5.49195 12.3947 5.72508 12.045 6.50218 12.0061C7.78439 11.9673 9.02774 11.9673 10.31 12.0061C10.8151 12.0061 11.1648 12.317 11.359 12.7832C12.0584 14.454 12.8744 16.0859 13.9234 17.5624C14.1954 17.9509 14.5063 18.3395 14.8948 18.6503C15.3611 18.9611 15.6719 18.8446 15.905 18.3395C16.0216 18.0286 16.0993 17.6789 16.1382 17.3292C16.2547 16.1636 16.2547 14.998 16.0605 13.8323C15.9439 13.0552 15.5553 12.589 14.8171 12.4335C14.4286 12.3558 14.5063 12.2393 14.6617 12.0061C14.9725 11.6564 15.2834 11.4233 15.8662 11.4233H20.2568C20.9562 11.5787 21.1116 11.8507 21.1893 12.5501V17.4458C21.1893 17.7178 21.3059 18.5337 21.811 18.6892C22.1995 18.8057 22.4715 18.4949 22.7046 18.2618C23.7537 17.135 24.492 15.8139 25.1913 14.454C25.5022 13.8323 25.7353 13.2106 26.0073 12.589C26.2016 12.1227 26.4735 11.8896 27.0175 11.8896H31.2527C31.3693 11.8896 31.4858 11.8896 31.6412 11.9284C32.3406 12.045 32.5349 12.3558 32.3406 13.0552C31.9909 14.1431 31.3304 15.0757 30.6699 15.9693C29.9705 16.9407 29.1934 17.8732 28.494 18.8834C27.7946 19.816 27.8335 20.2822 28.6494 21.0593Z" fill="white"/>
</svg>
