<svg width="38" height="38" viewBox="0 0 38 38" fill="none" xmlns="http://www.w3.org/2000/svg">
<path d="M19 0C8.5092 0 0 8.5092 0 19C0 29.4908 8.5092 38 19 38C29.4908 38 38 29.4908 38 19C38 8.5092 29.4908 0 19 0ZM28.636 21.0593C29.5296 21.9141 30.4622 22.7301 31.2393 23.7014C31.589 24.1288 31.9387 24.5562 32.1718 25.0613C32.5215 25.7607 32.2106 26.5378 31.589 26.5767H27.7035C26.6933 26.6544 25.9162 26.2658 25.2168 25.5665C24.6728 25.0225 24.1677 24.4397 23.6626 23.8569C23.4683 23.6237 23.2352 23.3906 22.9632 23.2352C22.4192 22.8855 21.953 23.002 21.681 23.546C21.3701 24.1288 21.2924 24.7505 21.2536 25.3722C21.2147 26.3047 20.9427 26.5378 20.0102 26.5767C18.0286 26.6544 16.1636 26.3824 14.454 25.3722C12.9387 24.4785 11.7342 23.274 10.7239 21.8753C8.70348 19.1554 7.18814 16.1636 5.78937 13.0941C5.47853 12.3947 5.71166 12.045 6.48875 12.0061C7.77096 11.9673 9.01431 11.9673 10.2965 12.0061C10.8016 12.0061 11.1513 12.317 11.3456 12.7832C12.045 14.454 12.8609 16.0859 13.91 17.5624C14.182 17.9509 14.4928 18.3395 14.8814 18.6503C15.3476 18.9611 15.6585 18.8446 15.8916 18.3395C16.0082 18.0286 16.0859 17.6789 16.1247 17.3292C16.2413 16.1636 16.2413 14.998 16.047 13.8323C15.9305 13.0552 15.5419 12.589 14.8037 12.4335C14.4151 12.3558 14.4928 12.2393 14.6483 12.0061C14.9591 11.6564 15.2699 11.4233 15.8528 11.4233H20.2434C20.9427 11.5787 21.0982 11.8507 21.1759 12.5501V17.4458C21.1759 17.7178 21.2924 18.5337 21.7975 18.6892C22.1861 18.8057 22.4581 18.4949 22.6912 18.2618C23.7403 17.135 24.4785 15.8139 25.1779 14.454C25.4888 13.8323 25.7219 13.2106 25.9939 12.589C26.1881 12.1227 26.4601 11.8896 27.0041 11.8896H31.2393C31.3558 11.8896 31.4724 11.8896 31.6278 11.9284C32.3272 12.045 32.5215 12.3558 32.3272 13.0552C31.9775 14.1431 31.317 15.0757 30.6564 15.9693C29.9571 16.9407 29.18 17.8732 28.4806 18.8834C27.7812 19.816 27.82 20.2822 28.636 21.0593Z" fill="#252525"/>
</svg>
