<svg width="32" height="32" viewBox="0 0 32 32" fill="none" xmlns="http://www.w3.org/2000/svg">
<path d="M0.17298 31.8334L2.31365 23.9674C0.903116 21.5494 0.162049 18.7994 0.166647 16.0001C0.166647 7.25533 7.25523 0.166748 16 0.166748C24.7447 0.166748 31.8333 7.25533 31.8333 16.0001C31.8333 24.7448 24.7447 31.8334 16 31.8334C13.2019 31.8379 10.453 31.0974 8.03581 29.688L0.17298 31.8334ZM10.2857 8.57108C10.0813 8.58378 9.88146 8.63763 9.69831 8.72941C9.52656 8.82668 9.36977 8.94827 9.23281 9.09042C9.04281 9.26933 8.93515 9.4245 8.81956 9.57491C8.23438 10.3365 7.91961 11.2713 7.92498 12.2317C7.92815 13.0076 8.13081 13.7628 8.44748 14.469C9.09506 15.8972 10.1606 17.4092 11.5682 18.8105C11.9071 19.1477 12.238 19.4866 12.5942 19.8017C14.3413 21.3398 16.4231 22.4491 18.6742 23.0412L19.5751 23.1789C19.8681 23.1947 20.161 23.1726 20.4555 23.1583C20.9166 23.1345 21.3669 23.0097 21.7744 22.7926C22.0372 22.6532 22.1607 22.5836 22.3808 22.4442C22.3808 22.4442 22.4489 22.3999 22.5787 22.3017C22.7925 22.1434 22.9239 22.031 23.1012 21.8457C23.2326 21.7096 23.3466 21.5497 23.4337 21.3676C23.5572 21.1095 23.6807 20.6171 23.7314 20.207C23.7694 19.8935 23.7583 19.7225 23.7536 19.6164C23.7472 19.447 23.6063 19.2712 23.4527 19.1968L22.5312 18.7836C22.5312 18.7836 21.1537 18.1835 20.313 17.8003C20.2243 17.7617 20.1293 17.7397 20.0327 17.7354C19.9244 17.7243 19.8149 17.7365 19.7117 17.7712C19.6085 17.8058 19.5139 17.8622 19.4342 17.9365V17.9333C19.4263 17.9333 19.3202 18.0236 18.1755 19.4106C18.1098 19.4989 18.0193 19.5656 17.9155 19.6023C17.8117 19.6389 17.6994 19.6438 17.5928 19.6164C17.4896 19.5888 17.3886 19.5539 17.2904 19.5119C17.0941 19.4296 17.026 19.3979 16.8914 19.3393L16.8835 19.3362C15.9777 18.9407 15.139 18.4065 14.3976 17.7528C14.1981 17.5787 14.0129 17.3887 13.8229 17.205C13.2 16.6085 12.6571 15.9336 12.2079 15.1973L12.1145 15.0469C12.0474 14.9458 11.9931 14.8368 11.953 14.7223C11.8928 14.4896 12.0496 14.3027 12.0496 14.3027C12.0496 14.3027 12.4343 13.8816 12.6132 13.6536C12.7622 13.4641 12.9012 13.267 13.0296 13.063C13.2165 12.7622 13.2751 12.4534 13.1769 12.2143C12.7336 11.1313 12.2744 10.0531 11.8026 8.98275C11.7091 8.77058 11.4321 8.61858 11.1803 8.5885C11.0948 8.579 11.0093 8.5695 10.9238 8.56316C10.7112 8.5526 10.4981 8.55472 10.2857 8.5695V8.57108Z" fill="#252525"/>
</svg>
