<svg width="32" height="32" viewBox="0 0 32 32" fill="none" xmlns="http://www.w3.org/2000/svg">
<path d="M0.186408 31.8334L2.32707 23.9674C0.916543 21.5494 0.175477 18.7994 0.180075 16.0001C0.180075 7.25533 7.26866 0.166748 16.0134 0.166748C24.7582 0.166748 31.8467 7.25533 31.8467 16.0001C31.8467 24.7448 24.7582 31.8334 16.0134 31.8334C13.2153 31.8379 10.4664 31.0974 8.04924 29.688L0.186408 31.8334ZM10.2992 8.57108C10.0947 8.58378 9.89489 8.63763 9.71174 8.72941C9.53998 8.82668 9.38319 8.94827 9.24624 9.09042C9.05624 9.26933 8.94858 9.4245 8.83299 9.57491C8.24781 10.3365 7.93304 11.2713 7.93841 12.2317C7.94157 13.0076 8.14424 13.7628 8.46091 14.469C9.10849 15.8972 10.1741 17.4092 11.5817 18.8105C11.9205 19.1477 12.2514 19.4866 12.6077 19.8017C14.3547 21.3398 16.4366 22.4491 18.6877 23.0412L19.5886 23.1789C19.8815 23.1947 20.1744 23.1726 20.4689 23.1583C20.93 23.1345 21.3803 23.0097 21.7878 22.7926C22.0507 22.6532 22.1742 22.5836 22.3942 22.4442C22.3942 22.4442 22.4623 22.3999 22.5922 22.3017C22.8059 22.1434 22.9373 22.031 23.1147 21.8457C23.2461 21.7096 23.3601 21.5497 23.4472 21.3676C23.5707 21.1095 23.6942 20.6171 23.7448 20.207C23.7828 19.8935 23.7717 19.7225 23.767 19.6164C23.7607 19.447 23.6197 19.2712 23.4662 19.1968L22.5447 18.7836C22.5447 18.7836 21.1672 18.1835 20.3264 17.8003C20.2378 17.7617 20.1428 17.7397 20.0462 17.7354C19.9378 17.7243 19.8284 17.7365 19.7251 17.7712C19.6219 17.8058 19.5273 17.8622 19.4477 17.9365V17.9333C19.4397 17.9333 19.3337 18.0236 18.1889 19.4106C18.1232 19.4989 18.0327 19.5656 17.9289 19.6023C17.8252 19.6389 17.7128 19.6438 17.6062 19.6164C17.5031 19.5888 17.402 19.5539 17.3038 19.5119C17.1075 19.4296 17.0394 19.3979 16.9048 19.3393L16.8969 19.3362C15.9911 18.9407 15.1524 18.4065 14.4111 17.7528C14.2116 17.5787 14.0263 17.3887 13.8363 17.205C13.2134 16.6085 12.6705 15.9336 12.2213 15.1973L12.1279 15.0469C12.0608 14.9458 12.0066 14.8368 11.9664 14.7223C11.9062 14.4896 12.063 14.3027 12.063 14.3027C12.063 14.3027 12.4477 13.8816 12.6267 13.6536C12.7756 13.4641 12.9146 13.267 13.0431 13.063C13.2299 12.7622 13.2885 12.4534 13.1903 12.2143C12.747 11.1313 12.2878 10.0531 11.816 8.98275C11.7226 8.77058 11.4455 8.61858 11.1937 8.5885C11.1082 8.579 11.0227 8.5695 10.9372 8.56316C10.7246 8.5526 10.5115 8.55472 10.2992 8.5695V8.57108Z" fill="white"/>
</svg>
