<svg width="412" height="193" viewBox="0 0 412 193" fill="none" xmlns="http://www.w3.org/2000/svg">
<path d="M124 85.2051L406.852 1.42055C409.5 0.63626 411.646 2.23905 411.646 5.00047V102C411.646 104.762 409.5 107.636 406.852 108.421L128.794 190.785C126.146 191.569 124 189.967 124 187.205V85.2051Z" fill="#F11313"/>
<path d="M154.208 103.75L163.613 100.965V158.471L154.208 161.257V103.75ZM137.371 108.738L146.775 105.952V163.459L137.371 166.245V108.738ZM142.301 107.278L159.896 102.065V111.439L142.301 116.651V107.278ZM184.47 152.887C181.512 153.763 178.971 153.988 176.848 153.562C174.749 153.103 173.144 152.036 172.032 150.362C170.919 148.661 170.363 146.387 170.363 143.539V111.898C170.363 109.051 170.919 106.447 172.032 104.087C173.144 101.727 174.749 99.7093 176.848 98.0331C178.971 96.3493 181.512 95.0694 184.47 94.1932C187.428 93.317 189.956 93.0955 192.054 93.5286C194.178 93.9542 195.796 95.0175 196.908 96.7182C198.021 98.419 198.577 100.693 198.577 103.541V135.181C198.577 138.029 198.021 140.633 196.908 142.993C195.796 145.326 194.178 147.348 192.054 149.058C189.956 150.734 187.428 152.01 184.47 152.887ZM184.47 143.078C185.431 142.793 186.252 142.352 186.935 141.755C187.643 141.149 188.174 140.425 188.528 139.582C188.882 138.739 189.059 137.79 189.059 136.735V107.547C189.059 106.519 188.882 105.688 188.528 105.054C188.174 104.421 187.643 104.011 186.935 103.825C186.252 103.632 185.431 103.678 184.47 103.962C183.509 104.247 182.688 104.688 182.005 105.286C181.322 105.883 180.804 106.604 180.45 107.447C180.096 108.29 179.919 109.226 179.919 110.254V139.443C179.919 140.497 180.096 141.341 180.45 141.975C180.804 142.608 181.322 143.022 182.005 143.215C182.688 143.408 183.509 143.363 184.47 143.078ZM202.369 137.578L203.241 137.32C204.758 136.871 205.896 135.558 206.654 133.382C207.413 131.18 207.792 128.128 207.792 124.225V87.8781L216.4 85.3282V119.184C216.4 123.534 216.008 127.381 215.225 130.725C214.441 134.042 213.126 136.844 211.281 139.131C209.461 141.41 207.034 142.999 204 143.898L202.369 144.381V137.578ZM201.345 137.881L209.991 135.32V155.056L201.345 157.617V137.881ZM201.345 137.881L233.769 128.277V137.69L201.345 147.295V137.881ZM227.891 130.018L236.537 127.457V147.193L227.891 149.754V130.018ZM222.695 83.4636L232.1 80.6778V138.185L222.695 140.97V83.4636ZM214.58 85.8674L227.17 82.1381V91.5511L214.58 95.2805V85.8674ZM271.236 95.2283L276.355 67.5688L286.025 64.7044L278.289 99.9417L271.236 95.2283ZM271.008 101.189L279.01 93.1629L288.338 121.526L278.403 124.469L271.008 101.189ZM257.204 73.2415L266.609 70.4557V127.963L257.204 130.748V73.2415ZM261.376 96.2505L275.976 91.9258V101.339L261.376 105.664V96.2505ZM290.955 111.457C291.714 111.232 292.333 110.903 292.813 110.471C293.319 110.031 293.685 109.488 293.913 108.84C294.166 108.159 294.292 107.37 294.292 106.473V62.2556L303.697 59.4698V104.162C303.697 107.063 303.254 109.593 302.37 111.754C301.51 113.88 300.183 115.684 298.388 117.165C296.618 118.612 294.381 119.736 291.676 120.538L290.955 120.751V111.457ZM309.727 57.6838L319.131 54.898V112.405L309.727 115.191V57.6838ZM300.587 60.3909L314.884 56.1561V65.5691L300.587 69.804V60.3909ZM330.167 75.8738L346.814 70.9425V80.3556L330.167 85.2869V75.8738ZM334.717 107.788L325.313 110.574V53.067L334.717 50.2812V107.788ZM353.982 102.675C351.024 103.551 348.483 103.776 346.359 103.351C344.261 102.891 342.656 101.824 341.543 100.15C340.431 98.4491 339.875 96.1749 339.875 93.3272V61.6866C339.875 58.8389 340.431 56.2352 341.543 53.8755C342.656 51.5157 344.261 49.4977 346.359 47.8214C348.483 46.1377 351.024 44.8577 353.982 43.9815C356.94 43.1054 359.468 42.8838 361.566 43.317C363.69 43.7426 365.308 44.8058 366.42 46.5066C367.532 48.2074 368.089 50.4816 368.089 53.3292V84.9698C368.089 87.8175 367.532 90.4212 366.42 92.781C365.308 95.1144 363.69 97.1362 361.566 98.8463C359.468 100.523 356.94 101.799 353.982 102.675ZM353.982 92.8663C354.942 92.5817 355.764 92.1406 356.447 91.5429C357.154 90.9377 357.685 90.2136 358.039 89.3704C358.393 88.5273 358.57 87.5784 358.57 86.5237V57.3352C358.57 56.3069 358.393 55.476 358.039 54.8426C357.685 54.2092 357.154 53.7995 356.447 53.6137C355.764 53.4204 354.942 53.466 353.982 53.7506C353.021 54.0352 352.199 54.4763 351.517 55.074C350.834 55.6717 350.316 56.3921 349.962 57.2352C349.608 58.0784 349.431 59.0141 349.431 60.0424V89.2309C349.431 90.2856 349.608 91.1296 349.962 91.7631C350.316 92.3965 350.834 92.8099 351.517 93.0032C352.199 93.1965 353.021 93.1509 353.982 92.8663ZM388.453 34.364L398.275 31.4546V88.9615L388.453 91.8708V34.364ZM383.295 75.4029C381.197 76.0245 379.402 76.1079 377.91 75.6533C376.419 75.1986 375.281 74.2436 374.497 72.7883C373.714 71.3065 373.322 69.366 373.322 66.9666V38.846L383.144 35.9366V64.0968C383.144 65.4151 383.384 66.3723 383.864 66.9683C384.345 67.5379 385.014 67.6954 385.874 67.4408C386.683 67.2012 387.315 66.658 387.77 65.8113C388.225 64.9382 388.453 63.8425 388.453 62.5241V55.5237L390.88 54.8047V61.5679C390.88 64.0201 390.576 66.2061 389.97 68.1261C389.388 70.0122 388.529 71.5852 387.391 72.845C386.279 74.071 384.913 74.9236 383.295 75.4029Z" fill="white"/>
<path d="M0 55.0459C0 52.2845 2.14639 49.4101 4.7941 48.6258L130.399 11.4198C133.047 10.6355 135.194 12.2383 135.194 14.9997V79.9997C135.194 95.4637 123.174 111.56 108.347 115.952L4.7941 146.626C2.14639 147.41 0 145.807 0 143.046V55.0459Z" fill="#1C1C1C"/>
<path d="M22.1073 69.6705L28.0541 67.909L39.9134 116.223L31.5059 118.714L25.0807 86.6476L18.6555 122.52L10.248 125.011L22.1073 69.6705ZM18.3137 106.296L31.8477 102.287V110.557L18.3137 114.566V106.296ZM48.4575 105.387L55.9081 103.18C56.9561 102.87 57.765 102.345 58.3346 101.606C58.927 100.836 59.2232 99.9289 59.2232 98.8833V91.9326C59.2232 91.0771 59.0865 90.3929 58.8131 89.8798C58.5624 89.3362 58.1751 88.9875 57.6511 88.8338C57.127 88.6564 56.5005 88.6756 55.7714 88.8916L48.4575 91.0581V82.8598L55.5663 80.7541C56.5688 80.4572 57.3435 79.895 57.8903 79.0677C58.4599 78.2336 58.7447 77.1987 58.7447 75.963V70.4025C58.7447 69.3569 58.4599 68.6333 57.8903 68.2317C57.3435 67.7996 56.5802 67.7287 55.6005 68.0189L48.4575 70.1347V61.8652L56.4549 59.4963C58.6878 58.8349 60.6017 58.6838 62.1966 59.0431C63.7915 59.4023 64.9991 60.2684 65.8193 61.6413C66.6623 62.9838 67.0838 64.7837 67.0838 67.0412V72.6017C67.0838 74.1701 66.799 75.6446 66.2294 77.0252C65.6598 78.3821 64.8282 79.6146 63.7345 80.7228C62.6636 81.8004 61.3649 82.696 59.8384 83.4096C61.5016 83.1545 62.9143 83.247 64.0763 83.6869C65.2611 84.1202 66.1611 84.8873 66.7762 85.9883C67.4142 87.0587 67.7332 88.4375 67.7332 90.1247V97.1823C67.7332 99.4636 67.3231 101.534 66.5028 103.392C65.6826 105.251 64.475 106.845 62.8801 108.173C61.308 109.47 59.4169 110.446 57.2068 111.101L48.4575 113.692V105.387ZM43.6045 63.3027L52.1144 60.782V112.609L43.6045 115.13V63.3027ZM77.7811 57.5278L86.2569 55.0171V102.496L77.7811 105.006V57.5278ZM69.5787 55.6088L94.4594 48.2388V56.7222L69.5787 64.0922V55.6088ZM109.839 96.045C107.173 96.8347 104.883 97.0377 102.969 96.6541C101.078 96.24 99.6314 95.2784 98.6289 93.7694C97.6264 92.2366 97.1251 90.187 97.1251 87.6206V59.105C97.1251 56.5385 97.6264 54.192 98.6289 52.0653C99.6314 49.9386 101.078 48.1199 102.969 46.6092C104.883 45.0917 107.173 43.9382 109.839 43.1485C112.505 42.3589 114.783 42.1593 116.674 42.5496C118.588 42.9332 120.046 43.8914 121.049 45.4242C122.051 46.957 122.553 49.0066 122.553 51.573V80.0886C122.553 82.655 122.051 85.0016 121.049 87.1283C120.046 89.2312 118.588 91.0533 116.674 92.5945C114.783 94.1052 112.505 95.2554 109.839 96.045ZM109.839 87.2052C110.705 86.9487 111.445 86.5512 112.06 86.0125C112.698 85.4671 113.177 84.8144 113.496 84.0546C113.815 83.2947 113.974 82.4395 113.974 81.489V55.1834C113.974 54.2566 113.815 53.5078 113.496 52.9369C113.177 52.366 112.698 51.9969 112.06 51.8294C111.445 51.6552 110.705 51.6963 109.839 51.9527C108.973 52.2092 108.233 52.6068 107.617 53.1454C107.002 53.6841 106.535 54.3334 106.216 55.0932C105.897 55.8531 105.738 56.6964 105.738 57.6231V83.9288C105.738 84.8793 105.897 85.64 106.216 86.2109C106.535 86.7818 107.002 87.1543 107.617 87.3286C108.233 87.5028 108.973 87.4617 109.839 87.2052Z" fill="white"/>
</svg>
