<svg width="544" height="192" viewBox="0 0 544 192" fill="none" xmlns="http://www.w3.org/2000/svg">
<path d="M75.6879 164.513C71.773 164.513 69.2356 162.121 68.0756 157.336C67.2056 154.581 66.7706 151.028 66.7706 146.679C66.7706 142.474 67.0606 137.906 67.6406 132.977C68.8006 123.842 70.5405 113.765 72.8605 102.745L74.3829 95.1326H66.1182C60.4633 95.1326 54.446 95.2775 48.0662 95.5675L33.0591 96.8725C25.9543 111.082 20.1544 123.407 15.6596 133.846C11.3097 143.561 9.13474 149.869 9.13474 152.768C8.84475 154.073 8.04728 154.726 6.74231 154.726C5.72734 154.726 5.07486 154.001 4.78487 152.551C5.07486 149.216 7.46729 142.474 11.9622 132.324C16.312 122.319 21.8944 110.647 28.7092 97.3075C20.2994 98.3225 13.7021 99.6274 8.91725 101.222C7.0323 101.802 5.65484 102.382 4.78487 102.962L4.34988 103.397L4.56737 103.832C5.14736 104.267 5.43735 104.847 5.43735 105.572L5.00236 106.66C4.56737 107.24 3.98739 107.53 3.26241 107.53C2.82742 107.53 2.39243 107.312 1.95745 106.877C0.652482 105.717 0 104.485 0 103.18C0.144996 101.73 1.37746 100.352 3.6974 99.0474C8.33727 97.0175 16.3845 95.4951 27.8392 94.4801H30.2317C36.4665 82.3004 42.9913 70.1933 49.8061 58.1586C60.9708 38.1492 70.8305 22.4896 79.3853 11.1799C83.5902 5.67007 86.9976 2.26266 89.6075 0.9577C90.1875 0.667703 90.695 0.522705 91.13 0.522705C91.5649 0.522705 91.9274 0.595206 92.2174 0.740209C92.7974 0.885203 93.3049 1.32019 93.7399 2.04517C94.3199 2.91514 94.6099 4.58259 94.6099 7.04753C94.6099 8.78747 94.4649 10.9624 94.1749 13.5723C91.9999 28.2169 87.8675 48.1539 81.7777 73.3832L77.6453 93.1751C84.4601 93.3201 89.7525 93.7551 93.5224 94.4801C96.4223 94.9151 98.1623 95.495 98.7422 96.22L98.9597 96.8725L98.5247 97.7425C98.5247 97.8875 98.3797 97.96 98.0898 97.96L97.2198 97.525C96.7848 97.09 95.4073 96.7275 93.0874 96.4375C89.3175 95.7125 84.0252 95.2776 77.2103 95.1326L75.6879 103.397C73.6579 114.417 72.1355 124.422 71.1205 133.411C70.6855 137.616 70.468 141.459 70.468 144.939C70.468 149.434 70.903 153.203 71.773 156.248C72.353 158.858 73.7304 160.163 75.9054 160.163H77.2103C78.0803 160.163 78.7328 160.743 79.1678 161.903V162.338C79.1678 163.208 78.5878 163.861 77.4278 164.296L75.6879 164.513ZM34.364 94.0451L49.1536 93.3926L62.4208 92.9576C66.7706 92.9576 70.903 93.0301 74.8179 93.1751L79.3853 72.9482C85.3301 47.5739 89.39 27.7094 91.5649 13.3548L91.9999 7.91751L91.5649 4.22011L91.13 3.35013L90.695 3.56762C88.52 4.72759 85.5476 7.84501 81.7777 12.9199C73.368 24.2295 63.6532 39.8166 52.6335 59.6811C46.3987 71.1357 40.3089 82.5904 34.364 94.0451Z" fill="white"/>
<path d="M120.786 126.017C119.336 126.017 117.886 125.799 116.436 125.364C109.911 123.189 106.358 117.462 105.779 108.182V104.05L105.126 103.397L104.909 102.527C104.909 101.802 105.199 101.222 105.779 100.787C106.213 96.5825 106.866 92.3051 107.736 87.9553C113.101 64.6109 121.873 44.8915 134.053 28.7969C138.548 23.2871 142.897 19.8072 147.102 18.3572C148.552 17.9222 149.93 17.7047 151.235 17.7047C153.265 17.7047 154.787 18.1397 155.802 19.0097C157.397 20.1697 158.267 22.0546 158.412 24.6645V26.622C158.412 33.1468 155.512 42.2815 149.712 54.0262C142.462 68.3808 133.835 81.068 123.83 92.0876C118.176 98.1775 112.883 102.31 107.953 104.485V107.965C108.533 114.345 110.491 118.839 113.826 121.449C115.566 122.754 117.741 123.407 120.351 123.407C124.265 123.407 129.268 121.884 135.358 118.839C141.593 115.649 148.842 110.575 157.107 103.615C157.542 103.325 158.05 103.18 158.63 103.18C159.065 103.18 159.572 103.47 160.152 104.05C160.442 104.485 160.587 104.92 160.587 105.355C160.587 105.935 160.297 106.442 159.717 106.877C150.872 113.692 143.187 118.622 136.663 121.667C130.283 124.567 124.99 126.017 120.786 126.017ZM107.953 99.6999C112.158 97.67 116.508 94.1901 121.003 89.2602C130.863 78.6755 139.418 66.4959 146.667 52.7213C152.757 41.2666 155.802 32.4218 155.802 26.187V24.882C155.657 23.2871 155.077 22.0546 154.062 21.1846C153.482 20.6046 152.612 20.3147 151.452 20.3147C150.437 20.3147 149.205 20.5321 147.755 20.9671C143.985 22.1271 139.998 25.2445 135.793 30.3194C123.903 45.9789 115.203 65.2634 109.693 88.1728C108.968 92.3776 108.388 96.22 107.953 99.6999Z" fill="white"/>
<path d="M163.041 125.799C159.126 125.799 156.443 124.639 154.993 122.319C154.413 121.014 154.123 119.637 154.123 118.187L154.341 115.577C155.211 111.082 156.951 106.515 159.561 101.875C161.881 97.67 164.201 94.6976 166.52 92.9576C167.68 92.2326 168.695 91.8702 169.565 91.8702L170.653 92.0876C172.248 92.6676 173.045 93.7551 173.045 95.3501C173.045 96.8 172.248 98.7575 170.653 101.222C168.768 103.832 166.593 105.79 164.128 107.095C162.968 107.675 161.808 107.965 160.648 107.965H159.778C159.488 108.4 159.343 108.835 159.343 109.27C157.893 112.315 157.023 115.215 156.733 117.969V119.057C156.733 119.927 156.878 120.652 157.168 121.232C157.748 122.392 158.908 123.117 160.648 123.407C161.518 123.552 162.461 123.624 163.476 123.624C166.085 123.624 168.985 122.972 172.175 121.667C174.06 120.797 175.873 119.782 177.613 118.622C180.078 116.882 182.47 114.852 184.79 112.532C186.965 110.067 188.922 107.24 190.662 104.05C191.097 103.47 191.75 103.18 192.62 103.18L193.707 103.397C194.287 103.832 194.577 104.485 194.577 105.355C194.577 105.79 194.505 106.152 194.36 106.442C190.01 112.242 185.37 116.664 180.44 119.709C177.83 121.159 175.365 122.464 173.045 123.624C169.275 125.074 165.941 125.799 163.041 125.799ZM162.171 103.615C165.94 101.585 168.333 98.9025 169.348 95.5675V95.3501L167.608 96.4375C165.868 98.0325 164.056 100.425 162.171 103.615Z" fill="white"/>
<path d="M188.775 130.802C187.905 130.802 187.397 130.367 187.252 129.497C187.687 126.017 189.499 121.594 192.689 116.229L193.559 114.924C191.239 111.01 190.079 106.007 190.079 99.9174V98.395C190.079 97.235 190.804 96.5825 192.254 96.4375C193.414 96.4375 194.067 97.1625 194.212 98.6125L193.994 102.31C193.994 105.935 194.502 109.052 195.517 111.662L197.692 108.182C201.897 101.947 205.667 97.09 209.001 93.6101C210.741 91.7252 212.046 90.6377 212.916 90.3477L213.569 90.1302C214.004 90.1302 214.366 90.4202 214.656 91.0002L214.874 91.6527C214.874 92.0876 214.584 92.4501 214.004 92.7401C210.089 95.3501 204.362 102.165 196.822 113.185L196.387 113.837C198.272 116.882 200.954 118.404 204.434 118.404H205.087C207.551 118.404 210.524 117.462 214.004 115.577C215.019 114.997 216.179 114.272 217.484 113.402C219.224 112.242 220.964 110.72 222.704 108.835L227.488 103.832C228.068 103.397 228.576 103.18 229.011 103.18C229.446 103.18 229.881 103.397 230.316 103.832C230.751 104.122 230.968 104.63 230.968 105.355C230.968 105.79 230.751 106.297 230.316 106.877C227.851 108.762 225.531 110.502 223.356 112.097L216.179 116.664C214.439 117.679 212.844 118.477 211.394 119.057C208.494 120.217 205.957 120.797 203.782 120.797C202.042 120.797 200.447 120.507 198.997 119.927C197.402 119.057 196.024 117.969 194.864 116.664C194.429 117.099 194.139 117.534 193.994 117.969C191.384 122.754 190.079 126.597 190.079 129.497C190.079 130.077 189.645 130.512 188.775 130.802Z" fill="white"/>
<path d="M243.948 163.426H242.643C238.148 163.426 234.74 162.338 232.42 160.163C230.1 157.843 228.94 154.726 228.94 150.811V149.723C230.1 138.124 238.075 124.349 252.865 108.4C264.029 96.3649 277.659 86.1427 293.754 77.7329C302.163 73.3831 310.863 70.0482 319.853 67.7282C316.228 65.9883 312.313 64.4658 308.108 63.1609C297.524 59.826 287.881 56.8535 279.182 54.2436C273.527 52.3587 269.612 50.0387 267.437 47.2838C266.277 45.9788 265.697 44.4564 265.697 42.7164C265.697 41.1215 266.277 39.309 267.437 37.2791C269.177 34.6692 272.439 31.5517 277.224 27.9268C301.148 10.6723 319.49 1.82757 332.25 1.39258H333.99C339.935 1.39258 343.85 3.20503 345.735 6.82993C346.605 8.27989 347.04 10.0923 347.04 12.2673C347.04 14.8772 346.387 17.8496 345.082 21.1845C344.647 22.0545 343.995 22.4895 343.125 22.4895L342.255 22.272C341.385 21.692 340.95 21.112 340.95 20.532L341.167 19.6621C342.327 16.7622 342.907 14.2247 342.907 12.0498C342.907 10.4548 342.545 9.22236 341.82 8.35238C340.66 6.61244 338.702 5.66996 335.947 5.52496L333.338 5.30747C331.018 5.30747 328.045 5.74246 324.42 6.61243C312.531 9.65735 297.524 17.7046 279.399 30.7543C275.049 33.9442 272.149 36.7716 270.699 39.2365C269.829 40.3965 269.394 41.5565 269.394 42.7164C269.394 43.5864 269.684 44.3839 270.264 45.1089C272.149 47.4288 275.557 49.3862 280.486 50.9812C289.041 53.5911 298.611 56.5635 309.196 59.8984C314.851 61.7834 319.998 64.0308 324.638 66.6408C331.018 65.4808 337.325 64.9008 343.56 64.9008C344.72 64.9008 345.372 65.5533 345.517 66.8583C345.517 68.1632 344.865 68.8882 343.56 69.0332C338.775 69.0332 334.062 69.3232 329.423 69.9032C335.947 74.543 339.645 80.7054 340.515 88.3902L340.732 91.0001C340.732 99.1199 338.557 106.95 334.207 114.489C329.858 122.029 323.913 128.917 316.373 135.151C306.368 143.706 294.841 150.521 281.791 155.596C268.742 160.816 256.127 163.426 243.948 163.426ZM243.513 160.816C255.402 160.816 267.727 158.278 280.486 153.203C293.246 148.128 304.628 141.386 314.633 132.976C321.448 127.032 326.958 120.579 331.163 113.619C335.367 106.515 337.47 99.1924 337.47 91.6526L337.252 88.6077C336.237 80.7779 332.178 74.7605 325.073 70.5556C303.033 75.4855 283.749 84.9827 267.219 99.0473C248.08 115.577 236.48 130.874 232.42 144.939C231.84 147.259 231.55 149.288 231.55 151.028C231.55 153.203 231.985 155.016 232.855 156.466C234.595 159.366 237.93 160.816 242.86 160.816H243.513Z" fill="white"/>
<path d="M378.806 126.452C377.356 126.452 375.833 126.162 374.238 125.582C370.758 123.697 369.018 121.014 369.018 117.534V116.012C369.308 113.982 369.888 111.952 370.758 109.922C365.394 115.287 360.609 119.202 356.404 121.667C355.244 122.392 354.301 122.754 353.576 122.754C352.706 122.754 351.981 122.537 351.401 122.102C350.966 121.667 350.604 121.014 350.314 120.144C350.314 118.984 350.676 117.317 351.401 115.142C355.171 106.297 359.739 99.8448 365.104 95.7849C369.308 92.74 372.788 91.2176 375.543 91.2176H376.196C378.661 91.2176 380.401 92.0875 381.416 93.8275L381.851 94.045C382.286 94.335 382.503 94.6975 382.503 95.1325C382.213 96.4374 380.763 98.6124 378.153 101.657C377.573 102.527 376.848 103.397 375.978 104.267C374.238 107.167 372.788 110.14 371.628 113.184C371.193 114.634 370.976 116.012 370.976 117.317C370.976 119.927 372.353 122.029 375.108 123.624C376.268 124.204 377.573 124.494 379.023 124.494C382.793 124.494 386.925 123.044 391.42 120.144C394.465 118.404 397.438 116.447 400.338 114.272C405.412 110.212 409.545 106.66 412.735 103.615C413.17 103.325 413.605 103.18 414.04 103.18C414.765 103.18 415.272 103.397 415.562 103.832C415.997 104.267 416.215 104.702 416.215 105.137C416.215 105.717 415.925 106.297 415.345 106.877C412.155 109.487 407.877 112.677 402.512 116.447C397.873 119.782 393.16 122.464 388.375 124.494C384.895 125.799 381.706 126.452 378.806 126.452ZM353.576 119.709C356.186 118.984 359.666 116.664 364.016 112.749C368.366 108.835 372.136 105.065 375.326 101.44L378.371 96.8724L377.936 96.2199C377.356 95.4949 376.413 95.1325 375.108 95.1325C371.918 95.5675 368.293 97.6699 364.234 101.44C360.319 105.21 357.056 110.14 354.446 116.229C353.866 117.679 353.576 118.839 353.576 119.709Z" fill="white"/>
<path d="M415.046 126.669C412.726 126.669 411.421 124.712 411.131 120.797V120.144C411.131 116.374 411.783 111.662 413.088 106.007C414.538 100.352 415.263 97.5249 415.263 97.5249C415.698 96.5099 416.351 96.0024 417.22 96.0024L417.873 96.2199C418.888 96.6549 419.395 97.3074 419.395 98.1774L419.178 98.8299C419.178 98.8299 418.67 100.57 417.655 104.05C416.641 107.53 415.771 111.3 415.046 115.359C414.756 117.534 414.611 119.419 414.611 121.014V122.537C414.756 123.117 414.901 123.407 415.046 123.407H415.263C416.133 123.407 417.148 122.754 418.308 121.449C420.483 119.274 422.658 116.447 424.833 112.967C431.068 102.962 434.91 96.2924 436.36 92.9575V92.74C436.65 92.45 437.012 92.305 437.447 92.305H437.882L438.317 93.175V93.61L437.665 94.6975C437.085 96.1474 436.505 98.0324 435.925 100.352L435.707 102.745C435.707 104.195 436.142 105.427 437.012 106.442C438.027 107.457 439.477 107.965 441.362 107.965C444.842 107.965 449.99 106.442 456.804 103.397L457.674 103.18C458.544 103.18 459.197 103.615 459.632 104.485L459.849 105.137C459.849 106.007 459.342 106.732 458.327 107.312C454.992 108.472 452.02 109.27 449.41 109.705C446.655 110.285 444.407 110.575 442.667 110.575C439.042 110.575 436.577 109.777 435.272 108.182C434.113 106.732 433.533 104.92 433.533 102.745C430.923 107.82 428.023 112.822 424.833 117.752C422.948 120.507 421.208 122.682 419.613 124.277C418.308 125.582 417.076 126.307 415.916 126.452L415.046 126.669Z" fill="white"/>
<path d="M478.369 126.669H477.716C475.541 126.524 473.946 125.799 472.931 124.494C471.916 123.334 471.409 121.667 471.409 119.492L471.626 117.317C471.626 116.012 471.844 114.634 472.279 113.184L469.016 118.187C466.986 120.942 465.029 123.117 463.144 124.712C461.694 125.727 460.317 126.234 459.012 126.234H458.359C455.604 126.234 454.299 124.132 454.444 119.927C454.444 117.027 455.024 113.547 456.184 109.487C457.199 105.282 458.214 101.585 459.229 98.3949C459.809 96.9449 460.099 95.7124 460.099 94.6975L460.317 93.3925C460.317 92.5225 460.824 91.9426 461.839 91.6526L462.492 91.4351C463.361 91.4351 464.014 92.0151 464.449 93.175C464.449 93.61 464.304 94.6975 464.014 96.4374C461.984 102.092 459.882 108.907 457.707 116.882L457.272 120.362L457.489 122.319C457.634 123.189 458.142 123.624 459.012 123.624C460.172 123.624 461.332 123.044 462.492 121.884C464.811 119.999 467.204 117.244 469.669 113.619C471.989 110.14 474.091 106.66 475.976 103.18C479.456 96.2199 481.196 92.74 481.196 92.74C481.486 92.45 481.703 92.305 481.848 92.305H482.283C482.573 92.595 482.718 92.9575 482.718 93.3925L477.281 104.485C475.251 108.98 473.946 113.329 473.366 117.534V119.057C473.366 120.797 473.729 122.174 474.454 123.189C475.179 123.914 476.266 124.277 477.716 124.277C482.066 124.277 486.126 122.682 489.896 119.492C493.956 116.157 497.218 112.749 499.683 109.27C502.148 105.79 503.38 104.05 503.38 104.05C503.815 103.47 504.468 103.18 505.338 103.18L506.425 103.397C507.005 103.832 507.295 104.412 507.295 105.137L506.86 106.442C506.86 106.442 505.41 108.255 502.51 111.879C499.755 115.359 496.131 118.694 491.636 121.884C487.576 125.074 483.153 126.669 478.369 126.669Z" fill="white"/>
<path d="M498.997 126.452C498.272 126.307 497.909 125.799 497.909 124.929L498.127 123.624C498.417 122.464 499.286 120.507 500.736 117.752L502.041 115.359L502.694 112.532C503.854 106.007 504.434 100.932 504.434 97.3074L504.216 94.6975C504.071 94.4075 503.999 94.045 503.999 93.61C503.999 93.175 504.144 92.74 504.434 92.305C505.014 91.7251 505.594 91.4351 506.174 91.4351L507.479 91.8701C507.914 92.305 508.276 93.32 508.566 94.915V96.2199C508.566 98.8299 508.204 102.237 507.479 106.442C510.669 101.222 513.496 97.2349 515.961 94.48C517.121 93.175 517.991 92.45 518.571 92.305L519.441 92.0875C519.876 92.0875 520.166 92.2325 520.311 92.5225C520.601 92.6675 520.746 93.1025 520.746 93.8275C520.746 95.1325 520.528 97.2349 520.093 100.135V101.005C520.093 102.455 520.601 103.832 521.616 105.137C522.631 106.007 524.226 106.442 526.401 106.442C529.446 106.442 534.158 105.355 540.538 103.18H540.973C541.843 103.18 542.568 103.687 543.148 104.702L543.365 105.355C543.365 106.225 542.858 106.877 541.843 107.312C537.493 108.327 533.941 108.98 531.186 109.27H528.576C524.226 109.27 521.398 108.472 520.093 106.877C518.643 104.992 517.918 102.89 517.918 100.57C517.918 99.2648 518.063 97.8874 518.353 96.4374L518.788 94.48C518.353 94.77 517.773 95.2775 517.048 96.0024C513.569 100.497 509.871 106.37 505.956 113.619C505.086 117.389 504.144 120.434 503.129 122.754C502.404 124.204 501.606 125.292 500.736 126.017C499.866 126.307 499.286 126.452 498.997 126.452Z" fill="white"/>
<path d="M79.656 191.049C79.4427 191.049 79.2773 190.991 79.16 190.873C79.0533 190.745 79 190.575 79 190.361V180.329C79 180.105 79.0587 179.94 79.176 179.833C79.2933 179.716 79.4587 179.657 79.672 179.657H83.464C84.6693 179.657 85.5973 179.956 86.248 180.553C86.8987 181.14 87.224 181.972 87.224 183.049C87.224 184.116 86.8987 184.948 86.248 185.545C85.5973 186.143 84.6693 186.441 83.464 186.441H80.312V190.361C80.312 190.575 80.2587 190.745 80.152 190.873C80.0453 190.991 79.88 191.049 79.656 191.049ZM80.312 185.337H83.304C84.168 185.337 84.8187 185.145 85.256 184.761C85.704 184.367 85.928 183.796 85.928 183.049C85.928 182.292 85.704 181.721 85.256 181.337C84.8187 180.943 84.168 180.745 83.304 180.745H80.312V185.337Z" fill="white"/>
<path d="M89.781 191.049C89.5677 191.049 89.4023 190.991 89.285 190.873C89.1783 190.745 89.125 190.575 89.125 190.361V180.233C89.125 180.009 89.1783 179.839 89.285 179.721C89.4023 179.604 89.5677 179.545 89.781 179.545C89.9943 179.545 90.1543 179.604 90.261 179.721C90.3783 179.839 90.437 180.009 90.437 180.233V184.649H97.205V180.233C97.205 180.009 97.2583 179.839 97.365 179.721C97.4823 179.604 97.6477 179.545 97.861 179.545C98.0743 179.545 98.2343 179.604 98.341 179.721C98.4583 179.839 98.517 180.009 98.517 180.233V190.361C98.517 190.575 98.4583 190.745 98.341 190.873C98.2343 190.991 98.0743 191.049 97.861 191.049C97.6477 191.049 97.4823 190.991 97.365 190.873C97.2583 190.745 97.205 190.575 97.205 190.361V185.785H90.437V190.361C90.437 190.575 90.3837 190.745 90.277 190.873C90.1703 190.991 90.005 191.049 89.781 191.049Z" fill="white"/>
<path d="M106.033 191.081C104.988 191.081 104.076 190.847 103.297 190.377C102.529 189.897 101.932 189.225 101.505 188.361C101.089 187.497 100.881 186.473 100.881 185.289C100.881 184.393 100.998 183.593 101.233 182.889C101.478 182.175 101.825 181.572 102.273 181.081C102.721 180.58 103.26 180.196 103.889 179.929C104.529 179.652 105.244 179.513 106.033 179.513C107.1 179.513 108.017 179.748 108.785 180.217C109.564 180.687 110.161 181.353 110.577 182.217C111.004 183.071 111.217 184.089 111.217 185.273C111.217 186.169 111.094 186.975 110.849 187.689C110.604 188.404 110.257 189.012 109.809 189.513C109.361 190.015 108.817 190.404 108.177 190.681C107.548 190.948 106.833 191.081 106.033 191.081ZM106.033 189.913C106.844 189.913 107.526 189.732 108.081 189.369C108.646 189.007 109.078 188.479 109.377 187.785C109.676 187.092 109.825 186.26 109.825 185.289C109.825 183.828 109.494 182.697 108.833 181.897C108.182 181.087 107.249 180.681 106.033 180.681C105.244 180.681 104.566 180.863 104.001 181.225C103.446 181.588 103.02 182.116 102.721 182.809C102.422 183.492 102.273 184.319 102.273 185.289C102.273 186.74 102.604 187.876 103.265 188.697C103.926 189.508 104.849 189.913 106.033 189.913Z" fill="white"/>
<path d="M116.283 191.049C116.081 191.049 115.921 190.991 115.803 190.873C115.686 190.745 115.627 190.575 115.627 190.361V180.793H112.027C111.835 180.793 111.686 180.74 111.579 180.633C111.473 180.527 111.419 180.388 111.419 180.217C111.419 180.036 111.473 179.897 111.579 179.801C111.686 179.705 111.835 179.657 112.027 179.657H120.555C120.747 179.657 120.897 179.705 121.003 179.801C121.11 179.897 121.163 180.036 121.163 180.217C121.163 180.399 121.11 180.543 121.003 180.649C120.897 180.745 120.747 180.793 120.555 180.793H116.955V190.361C116.955 190.575 116.897 190.745 116.779 190.873C116.673 190.991 116.507 191.049 116.283 191.049Z" fill="white"/>
<path d="M126.517 191.081C125.472 191.081 124.56 190.847 123.781 190.377C123.013 189.897 122.416 189.225 121.989 188.361C121.573 187.497 121.365 186.473 121.365 185.289C121.365 184.393 121.483 183.593 121.717 182.889C121.963 182.175 122.309 181.572 122.757 181.081C123.205 180.58 123.744 180.196 124.373 179.929C125.013 179.652 125.728 179.513 126.517 179.513C127.584 179.513 128.501 179.748 129.269 180.217C130.048 180.687 130.645 181.353 131.061 182.217C131.488 183.071 131.701 184.089 131.701 185.273C131.701 186.169 131.579 186.975 131.333 187.689C131.088 188.404 130.741 189.012 130.293 189.513C129.845 190.015 129.301 190.404 128.661 190.681C128.032 190.948 127.317 191.081 126.517 191.081ZM126.517 189.913C127.328 189.913 128.011 189.732 128.565 189.369C129.131 189.007 129.563 188.479 129.861 187.785C130.16 187.092 130.309 186.26 130.309 185.289C130.309 183.828 129.979 182.697 129.317 181.897C128.667 181.087 127.733 180.681 126.517 180.681C125.728 180.681 125.051 180.863 124.485 181.225C123.931 181.588 123.504 182.116 123.205 182.809C122.907 183.492 122.757 184.319 122.757 185.289C122.757 186.74 123.088 187.876 123.749 188.697C124.411 189.508 125.333 189.913 126.517 189.913Z" fill="white"/>
<path d="M144.701 188.297C144.16 188.297 143.663 188.168 143.21 187.908C142.757 187.638 142.392 187.277 142.116 186.827C141.839 186.376 141.701 185.869 141.701 185.306C141.701 184.787 141.828 184.303 142.082 183.852C142.348 183.39 142.707 183.018 143.16 182.737C143.613 182.444 144.127 182.297 144.701 182.297C145.232 182.297 145.723 182.427 146.176 182.686C146.64 182.945 147.011 183.306 147.287 183.768C147.563 184.218 147.701 184.731 147.701 185.306C147.701 185.858 147.563 186.359 147.287 186.81C147.022 187.261 146.663 187.621 146.21 187.892C145.757 188.162 145.254 188.297 144.701 188.297Z" fill="white"/>
<path d="M158.421 190.937C158.187 190.937 158.005 190.879 157.877 190.761C157.76 190.633 157.701 190.452 157.701 190.217V180.377C157.701 180.143 157.76 179.967 157.877 179.849C158.005 179.721 158.187 179.657 158.421 179.657H161.509C163.333 179.657 164.741 180.137 165.733 181.097C166.725 182.057 167.221 183.455 167.221 185.289C167.221 186.207 167.093 187.017 166.837 187.721C166.592 188.415 166.224 189.001 165.733 189.481C165.243 189.961 164.645 190.324 163.941 190.569C163.237 190.815 162.427 190.937 161.509 190.937H158.421ZM159.013 189.817H161.413C162.16 189.817 162.805 189.721 163.349 189.529C163.904 189.337 164.363 189.055 164.725 188.681C165.099 188.308 165.376 187.839 165.557 187.273C165.739 186.697 165.829 186.036 165.829 185.289C165.829 183.785 165.461 182.66 164.725 181.913C163.989 181.156 162.885 180.777 161.413 180.777H159.013V189.817Z" fill="white"/>
<path d="M170.296 190.937C170.062 190.937 169.88 190.879 169.752 190.761C169.635 190.633 169.576 190.452 169.576 190.217V180.377C169.576 180.143 169.635 179.967 169.752 179.849C169.88 179.721 170.062 179.657 170.296 179.657H176.248C176.43 179.657 176.568 179.705 176.664 179.801C176.76 179.897 176.808 180.031 176.808 180.201C176.808 180.383 176.76 180.521 176.664 180.617C176.568 180.713 176.43 180.761 176.248 180.761H170.856V184.665H175.912C176.094 184.665 176.232 184.713 176.328 184.809C176.424 184.895 176.472 185.028 176.472 185.209C176.472 185.391 176.424 185.529 176.328 185.625C176.232 185.721 176.094 185.769 175.912 185.769H170.856V189.833H176.248C176.43 189.833 176.568 189.881 176.664 189.977C176.76 190.073 176.808 190.207 176.808 190.377C176.808 190.559 176.76 190.697 176.664 190.793C176.568 190.889 176.43 190.937 176.248 190.937H170.296Z" fill="white"/>
<path d="M182.396 191.081C181.895 191.081 181.404 191.039 180.924 190.953C180.444 190.868 179.996 190.745 179.58 190.585C179.175 190.425 178.807 190.223 178.476 189.977C178.348 189.881 178.257 189.775 178.204 189.657C178.161 189.529 178.151 189.407 178.172 189.289C178.204 189.161 178.257 189.055 178.332 188.969C178.417 188.884 178.519 188.836 178.636 188.825C178.753 188.815 178.881 188.852 179.02 188.937C179.5 189.279 180.012 189.529 180.556 189.689C181.1 189.839 181.713 189.913 182.396 189.913C183.356 189.913 184.065 189.737 184.524 189.385C184.993 189.023 185.228 188.548 185.228 187.961C185.228 187.481 185.057 187.108 184.716 186.841C184.385 186.564 183.825 186.345 183.036 186.185L181.372 185.849C180.369 185.636 179.617 185.289 179.116 184.809C178.625 184.319 178.38 183.668 178.38 182.857C178.38 182.356 178.481 181.903 178.684 181.497C178.887 181.081 179.169 180.729 179.532 180.441C179.895 180.143 180.327 179.913 180.828 179.753C181.329 179.593 181.884 179.513 182.492 179.513C183.164 179.513 183.788 179.609 184.364 179.801C184.951 179.983 185.479 180.26 185.948 180.633C186.065 180.729 186.145 180.841 186.188 180.969C186.231 181.087 186.236 181.204 186.204 181.321C186.172 181.428 186.113 181.519 186.028 181.593C185.953 181.668 185.852 181.711 185.724 181.721C185.607 181.732 185.473 181.689 185.324 181.593C184.897 181.273 184.455 181.044 183.996 180.905C183.537 180.756 183.031 180.681 182.476 180.681C181.911 180.681 181.42 180.767 181.004 180.937C180.599 181.108 180.279 181.359 180.044 181.689C179.82 182.009 179.708 182.383 179.708 182.809C179.708 183.321 179.863 183.727 180.172 184.025C180.492 184.324 181.009 184.543 181.724 184.681L183.388 185.033C184.465 185.257 185.26 185.599 185.772 186.057C186.295 186.505 186.556 187.119 186.556 187.897C186.556 188.367 186.46 188.799 186.268 189.193C186.076 189.588 185.799 189.929 185.436 190.217C185.073 190.495 184.636 190.708 184.124 190.857C183.612 191.007 183.036 191.081 182.396 191.081Z" fill="white"/>
<path d="M189.248 191.049C189.035 191.049 188.869 190.991 188.752 190.873C188.645 190.745 188.592 190.575 188.592 190.361V180.233C188.592 180.009 188.645 179.839 188.752 179.721C188.869 179.604 189.035 179.545 189.248 179.545C189.461 179.545 189.621 179.604 189.728 179.721C189.845 179.839 189.904 180.009 189.904 180.233V190.361C189.904 190.575 189.851 190.745 189.744 190.873C189.637 190.991 189.472 191.049 189.248 191.049Z" fill="white"/>
<path d="M197.853 191.081C196.648 191.081 195.629 190.852 194.797 190.393C193.976 189.935 193.352 189.273 192.925 188.409C192.499 187.545 192.285 186.511 192.285 185.305C192.285 184.409 192.403 183.604 192.637 182.889C192.883 182.175 193.235 181.572 193.693 181.081C194.163 180.58 194.728 180.196 195.389 179.929C196.061 179.652 196.819 179.513 197.661 179.513C198.333 179.513 198.984 179.609 199.613 179.801C200.243 179.983 200.803 180.276 201.293 180.681C201.421 180.777 201.501 180.884 201.533 181.001C201.565 181.119 201.56 181.236 201.517 181.353C201.485 181.471 201.427 181.572 201.341 181.657C201.267 181.732 201.165 181.775 201.037 181.785C200.92 181.796 200.797 181.759 200.669 181.673C200.232 181.332 199.768 181.087 199.277 180.937C198.787 180.777 198.243 180.697 197.645 180.697C196.792 180.697 196.067 180.879 195.469 181.241C194.883 181.604 194.435 182.127 194.125 182.809C193.827 183.492 193.677 184.324 193.677 185.305C193.677 186.799 194.024 187.94 194.717 188.729C195.421 189.519 196.477 189.913 197.885 189.913C198.397 189.913 198.899 189.865 199.389 189.769C199.88 189.663 200.344 189.519 200.781 189.337L200.493 190.089V186.105H198.205C198.013 186.105 197.869 186.057 197.773 185.961C197.677 185.865 197.629 185.737 197.629 185.577C197.629 185.407 197.677 185.279 197.773 185.193C197.869 185.108 198.013 185.065 198.205 185.065H201.069C201.251 185.065 201.389 185.113 201.485 185.209C201.581 185.305 201.629 185.444 201.629 185.625V189.801C201.629 189.961 201.603 190.095 201.549 190.201C201.496 190.308 201.405 190.388 201.277 190.441C200.829 190.623 200.291 190.777 199.661 190.905C199.043 191.023 198.44 191.081 197.853 191.081Z" fill="white"/>
<path d="M204.935 191.049C204.732 191.049 204.577 190.996 204.471 190.889C204.364 190.772 204.311 190.607 204.311 190.393V180.217C204.311 180.004 204.364 179.839 204.471 179.721C204.577 179.604 204.716 179.545 204.887 179.545C205.057 179.545 205.18 179.577 205.255 179.641C205.34 179.695 205.436 179.796 205.543 179.945L212.519 189.241H212.135V180.185C212.135 179.983 212.188 179.828 212.295 179.721C212.401 179.604 212.556 179.545 212.759 179.545C212.951 179.545 213.095 179.604 213.191 179.721C213.297 179.828 213.351 179.983 213.351 180.185V190.409C213.351 190.612 213.303 190.772 213.207 190.889C213.121 190.996 212.993 191.049 212.823 191.049C212.663 191.049 212.535 191.017 212.439 190.953C212.343 190.889 212.241 190.788 212.135 190.649L205.175 181.353H205.543V190.393C205.543 190.607 205.489 190.772 205.383 190.889C205.276 190.996 205.127 191.049 204.935 191.049Z" fill="white"/>
<path d="M226.351 188.297C225.809 188.297 225.312 188.168 224.859 187.908C224.406 187.638 224.041 187.277 223.765 186.827C223.489 186.376 223.351 185.869 223.351 185.306C223.351 184.787 223.478 184.303 223.732 183.852C223.997 183.39 224.356 183.018 224.809 182.737C225.262 182.444 225.776 182.297 226.351 182.297C226.881 182.297 227.373 182.427 227.826 182.686C228.29 182.945 228.66 183.306 228.936 183.768C229.212 184.218 229.351 184.731 229.351 185.306C229.351 185.858 229.212 186.359 228.936 186.81C228.671 187.261 228.312 187.621 227.859 187.892C227.406 188.162 226.903 188.297 226.351 188.297Z" fill="white"/>
<path d="M239.959 191.049C239.767 191.049 239.617 190.996 239.511 190.889C239.404 190.772 239.351 190.612 239.351 190.409V180.185C239.351 179.972 239.404 179.812 239.511 179.705C239.617 179.599 239.767 179.545 239.959 179.545C240.129 179.545 240.263 179.583 240.359 179.657C240.465 179.721 240.561 179.833 240.647 179.993L245.031 188.249H244.551L248.919 179.993C249.004 179.833 249.095 179.721 249.191 179.657C249.287 179.583 249.425 179.545 249.607 179.545C249.788 179.545 249.932 179.599 250.039 179.705C250.145 179.812 250.199 179.972 250.199 180.185V190.409C250.199 190.612 250.145 190.772 250.039 190.889C249.943 190.996 249.793 191.049 249.591 191.049C249.399 191.049 249.249 190.996 249.143 190.889C249.036 190.772 248.983 190.612 248.983 190.409V181.417H249.367L245.367 188.921C245.292 189.06 245.212 189.161 245.127 189.225C245.052 189.279 244.94 189.305 244.791 189.305C244.641 189.305 244.524 189.273 244.439 189.209C244.353 189.145 244.279 189.049 244.215 188.921L240.167 181.401H240.551V190.409C240.551 190.612 240.497 190.772 240.391 190.889C240.295 190.996 240.151 191.049 239.959 191.049Z" fill="white"/>
<path d="M252.766 191.049C252.595 191.049 252.457 191.012 252.35 190.937C252.254 190.852 252.195 190.745 252.174 190.617C252.163 190.479 252.195 190.324 252.27 190.153L256.67 180.137C256.766 179.924 256.878 179.775 257.006 179.689C257.145 179.593 257.294 179.545 257.454 179.545C257.614 179.545 257.758 179.593 257.886 179.689C258.025 179.775 258.137 179.924 258.222 180.137L262.638 190.153C262.723 190.324 262.755 190.479 262.734 190.617C262.723 190.756 262.67 190.863 262.574 190.937C262.478 191.012 262.345 191.049 262.174 191.049C261.982 191.049 261.827 191.001 261.71 190.905C261.593 190.799 261.497 190.649 261.422 190.457L260.238 187.721L260.878 188.057H253.998L254.654 187.721L253.486 190.457C253.39 190.66 253.289 190.809 253.182 190.905C253.075 191.001 252.937 191.049 252.766 191.049ZM257.438 181.193L254.862 187.257L254.478 186.953H260.398L260.046 187.257L257.47 181.193H257.438Z" fill="white"/>
<path d="M265.318 191.049C265.105 191.049 264.94 190.991 264.822 190.873C264.716 190.745 264.662 190.575 264.662 190.361V180.329C264.662 180.105 264.721 179.94 264.838 179.833C264.956 179.716 265.121 179.657 265.334 179.657H269.126C270.332 179.657 271.26 179.94 271.91 180.505C272.561 181.071 272.886 181.876 272.886 182.921C272.886 183.583 272.737 184.159 272.438 184.649C272.15 185.129 271.724 185.497 271.158 185.753C270.593 185.999 269.916 186.121 269.126 186.121L269.286 185.913H269.606C270.022 185.913 270.385 186.02 270.694 186.233C271.004 186.447 271.286 186.788 271.542 187.257L273.078 190.121C273.164 190.271 273.201 190.42 273.19 190.569C273.19 190.708 273.142 190.825 273.046 190.921C272.95 191.007 272.812 191.049 272.63 191.049C272.449 191.049 272.3 191.007 272.182 190.921C272.065 190.836 271.964 190.713 271.878 190.553L270.134 187.321C269.889 186.863 269.606 186.559 269.286 186.409C268.966 186.249 268.545 186.169 268.022 186.169H265.974V190.361C265.974 190.575 265.921 190.745 265.814 190.873C265.708 190.991 265.542 191.049 265.318 191.049ZM265.974 185.129H268.934C269.809 185.129 270.47 184.948 270.918 184.585C271.366 184.212 271.59 183.657 271.59 182.921C271.59 182.207 271.366 181.668 270.918 181.305C270.47 180.932 269.809 180.745 268.934 180.745H265.974V185.129Z" fill="white"/>
<path d="M276.021 191.049C275.808 191.049 275.643 190.991 275.525 190.873C275.419 190.745 275.365 190.575 275.365 190.361V180.217C275.365 179.993 275.419 179.828 275.525 179.721C275.643 179.604 275.808 179.545 276.021 179.545C276.235 179.545 276.395 179.604 276.501 179.721C276.619 179.828 276.677 179.993 276.677 180.217V184.777H276.709L281.925 179.913C282.053 179.785 282.181 179.695 282.309 179.641C282.438 179.577 282.576 179.545 282.725 179.545C282.928 179.545 283.072 179.593 283.157 179.689C283.253 179.785 283.291 179.903 283.27 180.041C283.248 180.18 283.173 180.313 283.045 180.441L277.589 185.497L277.605 184.793L283.301 190.057C283.461 190.207 283.547 190.361 283.557 190.521C283.568 190.671 283.52 190.799 283.413 190.905C283.317 191.001 283.168 191.049 282.965 191.049C282.805 191.049 282.667 191.012 282.549 190.937C282.443 190.873 282.32 190.772 282.181 190.633L276.709 185.625H276.677V190.361C276.677 190.575 276.624 190.745 276.517 190.873C276.411 190.991 276.245 191.049 276.021 191.049Z" fill="white"/>
<path d="M286.085 190.937C285.851 190.937 285.669 190.879 285.541 190.761C285.424 190.633 285.365 190.452 285.365 190.217V180.377C285.365 180.143 285.424 179.967 285.541 179.849C285.669 179.721 285.851 179.657 286.085 179.657H292.037C292.219 179.657 292.357 179.705 292.453 179.801C292.549 179.897 292.597 180.031 292.597 180.201C292.597 180.383 292.549 180.521 292.453 180.617C292.357 180.713 292.219 180.761 292.037 180.761H286.645V184.665H291.701C291.883 184.665 292.021 184.713 292.117 184.809C292.213 184.895 292.261 185.028 292.261 185.209C292.261 185.391 292.213 185.529 292.117 185.625C292.021 185.721 291.883 185.769 291.701 185.769H286.645V189.833H292.037C292.219 189.833 292.357 189.881 292.453 189.977C292.549 190.073 292.597 190.207 292.597 190.377C292.597 190.559 292.549 190.697 292.453 190.793C292.357 190.889 292.219 190.937 292.037 190.937H286.085Z" fill="white"/>
<path d="M297.914 191.049C297.712 191.049 297.552 190.991 297.434 190.873C297.317 190.745 297.258 190.575 297.258 190.361V180.793H293.658C293.466 180.793 293.317 180.74 293.21 180.633C293.104 180.527 293.05 180.388 293.05 180.217C293.05 180.036 293.104 179.897 293.21 179.801C293.317 179.705 293.466 179.657 293.658 179.657H302.186C302.378 179.657 302.528 179.705 302.634 179.801C302.741 179.897 302.794 180.036 302.794 180.217C302.794 180.399 302.741 180.543 302.634 180.649C302.528 180.745 302.378 180.793 302.186 180.793H298.586V190.361C298.586 190.575 298.528 190.745 298.41 190.873C298.304 190.991 298.138 191.049 297.914 191.049Z" fill="white"/>
<path d="M304.771 191.049C304.558 191.049 304.393 190.991 304.275 190.873C304.169 190.745 304.115 190.575 304.115 190.361V180.233C304.115 180.009 304.169 179.839 304.275 179.721C304.393 179.604 304.558 179.545 304.771 179.545C304.985 179.545 305.145 179.604 305.251 179.721C305.369 179.839 305.427 180.009 305.427 180.233V190.361C305.427 190.575 305.374 190.745 305.267 190.873C305.161 190.991 304.995 191.049 304.771 191.049Z" fill="white"/>
<path d="M308.849 191.049C308.646 191.049 308.492 190.996 308.385 190.889C308.278 190.772 308.225 190.607 308.225 190.393V180.217C308.225 180.004 308.278 179.839 308.385 179.721C308.492 179.604 308.63 179.545 308.801 179.545C308.972 179.545 309.094 179.577 309.169 179.641C309.254 179.695 309.35 179.796 309.457 179.945L316.433 189.241H316.049V180.185C316.049 179.983 316.102 179.828 316.209 179.721C316.316 179.604 316.47 179.545 316.673 179.545C316.865 179.545 317.009 179.604 317.105 179.721C317.212 179.828 317.265 179.983 317.265 180.185V190.409C317.265 190.612 317.217 190.772 317.121 190.889C317.036 190.996 316.908 191.049 316.737 191.049C316.577 191.049 316.449 191.017 316.353 190.953C316.257 190.889 316.156 190.788 316.049 190.649L309.089 181.353H309.457V190.393C309.457 190.607 309.404 190.772 309.297 190.889C309.19 190.996 309.041 191.049 308.849 191.049Z" fill="white"/>
<path d="M325.221 191.081C324.015 191.081 322.997 190.852 322.165 190.393C321.343 189.935 320.719 189.273 320.293 188.409C319.866 187.545 319.653 186.511 319.653 185.305C319.653 184.409 319.77 183.604 320.005 182.889C320.25 182.175 320.602 181.572 321.061 181.081C321.53 180.58 322.095 180.196 322.757 179.929C323.429 179.652 324.186 179.513 325.029 179.513C325.701 179.513 326.351 179.609 326.981 179.801C327.61 179.983 328.17 180.276 328.661 180.681C328.789 180.777 328.869 180.884 328.901 181.001C328.933 181.119 328.927 181.236 328.885 181.353C328.853 181.471 328.794 181.572 328.709 181.657C328.634 181.732 328.533 181.775 328.405 181.785C328.287 181.796 328.165 181.759 328.037 181.673C327.599 181.332 327.135 181.087 326.645 180.937C326.154 180.777 325.61 180.697 325.013 180.697C324.159 180.697 323.434 180.879 322.837 181.241C322.25 181.604 321.802 182.127 321.493 182.809C321.194 183.492 321.045 184.324 321.045 185.305C321.045 186.799 321.391 187.94 322.085 188.729C322.789 189.519 323.845 189.913 325.253 189.913C325.765 189.913 326.266 189.865 326.757 189.769C327.247 189.663 327.711 189.519 328.149 189.337L327.861 190.089V186.105H325.573C325.381 186.105 325.237 186.057 325.141 185.961C325.045 185.865 324.997 185.737 324.997 185.577C324.997 185.407 325.045 185.279 325.141 185.193C325.237 185.108 325.381 185.065 325.573 185.065H328.437C328.618 185.065 328.757 185.113 328.853 185.209C328.949 185.305 328.997 185.444 328.997 185.625V189.801C328.997 189.961 328.97 190.095 328.917 190.201C328.863 190.308 328.773 190.388 328.645 190.441C328.197 190.623 327.658 190.777 327.029 190.905C326.41 191.023 325.807 191.081 325.221 191.081Z" fill="white"/>
<path d="M341.997 188.297C341.455 188.297 340.958 188.168 340.505 187.908C340.052 187.638 339.687 187.277 339.411 186.827C339.135 186.376 338.997 185.869 338.997 185.306C338.997 184.787 339.124 184.303 339.378 183.852C339.643 183.39 340.002 183.018 340.455 182.737C340.908 182.444 341.422 182.297 341.997 182.297C342.527 182.297 343.019 182.427 343.472 182.686C343.936 182.945 344.306 183.306 344.582 183.768C344.858 184.218 344.997 184.731 344.997 185.306C344.997 185.858 344.858 186.359 344.582 186.81C344.317 187.261 343.958 187.621 343.505 187.892C343.052 188.162 342.549 188.297 341.997 188.297Z" fill="white"/>
<path d="M359.331 191.049C359.139 191.049 358.984 191.001 358.867 190.905C358.749 190.799 358.653 190.644 358.579 190.441L355.043 180.345C354.968 180.121 354.984 179.935 355.091 179.785C355.208 179.625 355.389 179.545 355.635 179.545C355.816 179.545 355.96 179.593 356.067 179.689C356.173 179.775 356.264 179.913 356.339 180.105L359.651 189.817H359.091L362.467 180.153C362.541 179.951 362.632 179.801 362.739 179.705C362.845 179.599 362.989 179.545 363.171 179.545C363.341 179.545 363.475 179.599 363.571 179.705C363.677 179.801 363.768 179.951 363.843 180.153L367.171 189.817H366.675L370.019 180.105C370.072 179.924 370.152 179.785 370.259 179.689C370.376 179.593 370.525 179.545 370.707 179.545C370.931 179.545 371.096 179.62 371.203 179.769C371.309 179.919 371.32 180.111 371.235 180.345L367.683 190.441C367.608 190.644 367.512 190.799 367.395 190.905C367.288 191.001 367.133 191.049 366.931 191.049C366.739 191.049 366.584 191.001 366.467 190.905C366.36 190.799 366.264 190.644 366.179 190.441L362.963 181.177H363.315L360.067 190.441C359.992 190.644 359.901 190.799 359.795 190.905C359.688 191.001 359.533 191.049 359.331 191.049Z" fill="white"/>
<path d="M374.044 190.937C373.809 190.937 373.628 190.879 373.5 190.761C373.383 190.633 373.324 190.452 373.324 190.217V180.377C373.324 180.143 373.383 179.967 373.5 179.849C373.628 179.721 373.809 179.657 374.044 179.657H379.996C380.177 179.657 380.316 179.705 380.412 179.801C380.508 179.897 380.556 180.031 380.556 180.201C380.556 180.383 380.508 180.521 380.412 180.617C380.316 180.713 380.177 180.761 379.996 180.761H374.604V184.665H379.66C379.841 184.665 379.98 184.713 380.076 184.809C380.172 184.895 380.22 185.028 380.22 185.209C380.22 185.391 380.172 185.529 380.076 185.625C379.98 185.721 379.841 185.769 379.66 185.769H374.604V189.833H379.996C380.177 189.833 380.316 189.881 380.412 189.977C380.508 190.073 380.556 190.207 380.556 190.377C380.556 190.559 380.508 190.697 380.412 190.793C380.316 190.889 380.177 190.937 379.996 190.937H374.044Z" fill="white"/>
<path d="M383.372 190.937C383.138 190.937 382.956 190.879 382.828 190.761C382.711 190.633 382.652 190.452 382.652 190.217V180.377C382.652 180.143 382.711 179.967 382.828 179.849C382.956 179.721 383.138 179.657 383.372 179.657H387.164C387.943 179.657 388.599 179.775 389.132 180.009C389.676 180.233 390.092 180.564 390.38 181.001C390.668 181.439 390.812 181.972 390.812 182.601C390.812 183.305 390.604 183.892 390.188 184.361C389.783 184.831 389.228 185.14 388.524 185.289V185.065C389.324 185.161 389.948 185.449 390.396 185.929C390.855 186.409 391.084 187.044 391.084 187.833C391.084 188.836 390.759 189.604 390.108 190.137C389.458 190.671 388.54 190.937 387.356 190.937H383.372ZM383.932 189.881H387.228C388.082 189.881 388.722 189.711 389.148 189.369C389.575 189.028 389.788 188.511 389.788 187.817C389.788 187.113 389.575 186.596 389.148 186.265C388.722 185.924 388.082 185.753 387.228 185.753H383.932V189.881ZM383.932 184.697H386.972C387.804 184.697 388.434 184.527 388.86 184.185C389.298 183.844 389.516 183.353 389.516 182.713C389.516 182.052 389.298 181.556 388.86 181.225C388.434 180.884 387.804 180.713 386.972 180.713H383.932V184.697Z" fill="white"/>
<path d="M404.084 188.297C403.543 188.297 403.046 188.168 402.593 187.908C402.139 187.638 401.775 187.277 401.499 186.827C401.222 186.376 401.084 185.869 401.084 185.306C401.084 184.787 401.211 184.303 401.465 183.852C401.731 183.39 402.09 183.018 402.543 182.737C402.996 182.444 403.51 182.297 404.084 182.297C404.615 182.297 405.106 182.427 405.559 182.686C406.023 182.945 406.394 183.306 406.67 183.768C406.946 184.218 407.084 184.731 407.084 185.306C407.084 185.858 406.946 186.359 406.67 186.81C406.405 187.261 406.046 187.621 405.593 187.892C405.139 188.162 404.637 188.297 404.084 188.297Z" fill="white"/>
<path d="M422.363 191.049C422.16 191.049 421.995 191.001 421.867 190.905C421.739 190.809 421.637 190.665 421.563 190.473L417.163 180.409C417.088 180.228 417.067 180.079 417.099 179.961C417.131 179.833 417.2 179.732 417.307 179.657C417.424 179.583 417.557 179.545 417.707 179.545C417.909 179.545 418.059 179.593 418.155 179.689C418.261 179.775 418.347 179.903 418.411 180.073L422.635 189.881H422.123L426.331 180.057C426.405 179.897 426.496 179.775 426.603 179.689C426.709 179.593 426.859 179.545 427.051 179.545C427.2 179.545 427.323 179.583 427.419 179.657C427.525 179.732 427.589 179.833 427.611 179.961C427.643 180.089 427.621 180.239 427.547 180.409L423.147 190.473C423.072 190.665 422.971 190.809 422.843 190.905C422.725 191.001 422.565 191.049 422.363 191.049Z" fill="white"/>
<path d="M429.922 191.049C429.709 191.049 429.543 190.991 429.426 190.873C429.319 190.745 429.266 190.575 429.266 190.361V180.233C429.266 180.009 429.319 179.839 429.426 179.721C429.543 179.604 429.709 179.545 429.922 179.545C430.135 179.545 430.295 179.604 430.402 179.721C430.519 179.839 430.578 180.009 430.578 180.233V190.361C430.578 190.575 430.525 190.745 430.418 190.873C430.311 190.991 430.146 191.049 429.922 191.049Z" fill="white"/>
<path d="M434.095 190.937C433.861 190.937 433.679 190.879 433.551 190.761C433.434 190.633 433.375 190.452 433.375 190.217V180.377C433.375 180.143 433.434 179.967 433.551 179.849C433.679 179.721 433.861 179.657 434.095 179.657H437.183C439.007 179.657 440.415 180.137 441.407 181.097C442.399 182.057 442.895 183.455 442.895 185.289C442.895 186.207 442.767 187.017 442.511 187.721C442.266 188.415 441.898 189.001 441.407 189.481C440.917 189.961 440.319 190.324 439.615 190.569C438.911 190.815 438.101 190.937 437.183 190.937H434.095ZM434.687 189.817H437.087C437.834 189.817 438.479 189.721 439.023 189.529C439.578 189.337 440.037 189.055 440.399 188.681C440.773 188.308 441.05 187.839 441.231 187.273C441.413 186.697 441.503 186.036 441.503 185.289C441.503 183.785 441.135 182.66 440.399 181.913C439.663 181.156 438.559 180.777 437.087 180.777H434.687V189.817Z" fill="white"/>
<path d="M445.97 190.937C445.736 190.937 445.554 190.879 445.426 190.761C445.309 190.633 445.25 190.452 445.25 190.217V180.377C445.25 180.143 445.309 179.967 445.426 179.849C445.554 179.721 445.736 179.657 445.97 179.657H451.922C452.104 179.657 452.242 179.705 452.338 179.801C452.434 179.897 452.482 180.031 452.482 180.201C452.482 180.383 452.434 180.521 452.338 180.617C452.242 180.713 452.104 180.761 451.922 180.761H446.53V184.665H451.586C451.768 184.665 451.906 184.713 452.002 184.809C452.098 184.895 452.146 185.028 452.146 185.209C452.146 185.391 452.098 185.529 452.002 185.625C451.906 185.721 451.768 185.769 451.586 185.769H446.53V189.833H451.922C452.104 189.833 452.242 189.881 452.338 189.977C452.434 190.073 452.482 190.207 452.482 190.377C452.482 190.559 452.434 190.697 452.338 190.793C452.242 190.889 452.104 190.937 451.922 190.937H445.97Z" fill="white"/>
<path d="M459.268 191.081C458.222 191.081 457.31 190.847 456.531 190.377C455.763 189.897 455.166 189.225 454.74 188.361C454.324 187.497 454.116 186.473 454.116 185.289C454.116 184.393 454.233 183.593 454.467 182.889C454.713 182.175 455.06 181.572 455.508 181.081C455.956 180.58 456.494 180.196 457.124 179.929C457.764 179.652 458.478 179.513 459.268 179.513C460.334 179.513 461.251 179.748 462.02 180.217C462.798 180.687 463.396 181.353 463.811 182.217C464.238 183.071 464.452 184.089 464.452 185.273C464.452 186.169 464.329 186.975 464.083 187.689C463.838 188.404 463.492 189.012 463.044 189.513C462.596 190.015 462.052 190.404 461.411 190.681C460.782 190.948 460.068 191.081 459.268 191.081ZM459.268 189.913C460.078 189.913 460.761 189.732 461.315 189.369C461.881 189.007 462.313 188.479 462.612 187.785C462.91 187.092 463.06 186.26 463.06 185.289C463.06 183.828 462.729 182.697 462.068 181.897C461.417 181.087 460.484 180.681 459.268 180.681C458.478 180.681 457.801 180.863 457.236 181.225C456.681 181.588 456.254 182.116 455.956 182.809C455.657 183.492 455.508 184.319 455.508 185.289C455.508 186.74 455.838 187.876 456.5 188.697C457.161 189.508 458.084 189.913 459.268 189.913Z" fill="white"/>
</svg>
