<svg width="547" height="167" viewBox="0 0 547 167" fill="none" xmlns="http://www.w3.org/2000/svg">
<mask id="path-1-outside-1_672_522" maskUnits="userSpaceOnUse" x="0.9646" y="0.522705" width="233" height="166" fill="black">
<rect fill="white" x="0.9646" y="0.522705" width="233" height="166"/>
<path d="M77.6525 165.513C73.7376 165.513 71.2002 163.121 70.0402 158.336C69.1702 155.581 68.7352 152.028 68.7352 147.679C68.7352 143.474 69.0252 138.906 69.6052 133.977C70.7652 124.842 72.5051 114.765 74.8251 103.745L76.3475 96.1326H68.0828C62.4279 96.1326 56.4106 96.2776 50.0308 96.5675L35.0237 97.8725C27.9189 112.082 22.119 124.407 17.6242 134.846C13.2743 144.561 11.0993 150.869 11.0993 153.768C10.8094 155.073 10.0119 155.726 8.70691 155.726C7.69194 155.726 7.03946 155.001 6.74947 153.551C7.03946 150.216 9.43189 143.474 13.9268 133.324C18.2766 123.319 23.859 111.647 30.6738 98.3075C22.264 99.3225 15.6667 100.627 10.8819 102.222C8.9969 102.802 7.61944 103.382 6.74947 103.962L6.31448 104.397L6.53197 104.832C7.11196 105.267 7.40195 105.847 7.40195 106.572L6.96696 107.66C6.53197 108.24 5.95199 108.53 5.22701 108.53C4.79202 108.53 4.35703 108.312 3.92204 107.877C2.61708 106.717 1.9646 105.485 1.9646 104.18C2.1096 102.73 3.34206 101.352 5.662 100.047C10.3019 98.0175 18.3491 96.4951 29.8038 95.4801H32.1963C38.4311 83.3004 44.9559 71.1933 51.7707 59.1586C62.9354 39.1492 72.7951 23.4896 81.3499 12.1799C85.5548 6.67007 88.9622 3.26266 91.5721 1.9577C92.1521 1.6677 92.6596 1.52271 93.0946 1.52271C93.5295 1.52271 93.892 1.59521 94.182 1.74021C94.762 1.8852 95.2695 2.32019 95.7045 3.04517C96.2845 3.91514 96.5745 5.5826 96.5745 8.04753C96.5745 9.78747 96.4295 11.9624 96.1395 14.5723C93.9645 29.2169 89.8321 49.1539 83.7423 74.3832L79.6099 94.1751C86.4247 94.3201 91.7171 94.7551 95.487 95.4801C98.3869 95.9151 100.127 96.495 100.707 97.22L100.924 97.8725L100.489 98.7425C100.489 98.8875 100.344 98.96 100.054 98.96L99.1844 98.525C98.7494 98.09 97.3719 97.7275 95.052 97.4375C91.2821 96.7125 85.9898 96.2776 79.1749 96.1326L77.6525 104.397C75.6225 115.417 74.1001 125.422 73.0851 134.411C72.6501 138.616 72.4326 142.459 72.4326 145.939C72.4326 150.434 72.8676 154.203 73.7376 157.248C74.3176 159.858 75.695 161.163 77.87 161.163H79.1749C80.0449 161.163 80.6974 161.743 81.1324 162.903V163.338C81.1324 164.208 80.5524 164.861 79.3924 165.296L77.6525 165.513ZM36.3286 95.0451L51.1182 94.3926L64.3854 93.9576C68.7352 93.9576 72.8676 94.0301 76.7825 94.1751L81.3499 73.9482C87.2947 48.5739 91.3546 28.7094 93.5295 14.3548L93.9645 8.91751L93.5295 5.22011L93.0946 4.35013L92.6596 4.56762C90.4846 5.72759 87.5122 8.845 83.7423 13.9199C75.3326 25.2295 65.6178 40.8166 54.5981 60.6811C48.3633 72.1357 42.2735 83.5904 36.3286 95.0451Z"/>
<path d="M122.75 127.017C121.3 127.017 119.85 126.799 118.4 126.364C111.875 124.189 108.323 118.462 107.743 109.182V105.05L107.091 104.397L106.873 103.527C106.873 102.802 107.163 102.222 107.743 101.787C108.178 97.5825 108.831 93.3051 109.701 88.9553C115.065 65.6109 123.838 45.8915 136.017 29.7969C140.512 24.2871 144.862 20.8072 149.067 19.3572C150.517 18.9222 151.894 18.7047 153.199 18.7047C155.229 18.7047 156.752 19.1397 157.767 20.0097C159.362 21.1697 160.232 23.0546 160.377 25.6645V27.622C160.377 34.1468 157.477 43.2815 151.677 55.0262C144.427 69.3808 135.8 82.068 125.795 93.0876C120.14 99.1775 114.848 103.31 109.918 105.485V108.965C110.498 115.345 112.455 119.839 115.79 122.449C117.53 123.754 119.705 124.407 122.315 124.407C126.23 124.407 131.232 122.884 137.322 119.839C143.557 116.649 150.807 111.575 159.072 104.615C159.507 104.325 160.014 104.18 160.594 104.18C161.029 104.18 161.537 104.47 162.117 105.05C162.407 105.485 162.552 105.92 162.552 106.355C162.552 106.935 162.262 107.442 161.682 107.877C152.837 114.692 145.152 119.622 138.627 122.667C132.247 125.567 126.955 127.017 122.75 127.017ZM109.918 100.7C114.123 98.67 118.473 95.1901 122.968 90.2602C132.827 79.6755 141.382 67.4959 148.632 53.7213C154.722 42.2666 157.767 33.4218 157.767 27.187V25.882C157.622 24.2871 157.042 23.0546 156.027 22.1846C155.447 21.6046 154.577 21.3147 153.417 21.3147C152.402 21.3147 151.169 21.5321 149.719 21.9671C145.95 23.1271 141.962 26.2445 137.757 31.3194C125.868 46.9789 117.168 66.2634 111.658 89.1728C110.933 93.3776 110.353 97.22 109.918 100.7Z"/>
<path d="M165.005 126.799C161.09 126.799 158.408 125.639 156.958 123.319C156.378 122.014 156.088 120.637 156.088 119.187L156.305 116.577C157.175 112.082 158.915 107.515 161.525 102.875C163.845 98.67 166.165 95.6976 168.485 93.9576C169.645 93.2326 170.66 92.8702 171.53 92.8702L172.617 93.0876C174.212 93.6676 175.01 94.7551 175.01 96.35C175.01 97.8 174.212 99.7575 172.617 102.222C170.733 104.832 168.558 106.79 166.093 108.095C164.933 108.675 163.773 108.965 162.613 108.965H161.743C161.453 109.4 161.308 109.835 161.308 110.27C159.858 113.315 158.988 116.215 158.698 118.969V120.057C158.698 120.927 158.843 121.652 159.133 122.232C159.713 123.392 160.873 124.117 162.613 124.407C163.483 124.552 164.425 124.624 165.44 124.624C168.05 124.624 170.95 123.972 174.14 122.667C176.025 121.797 177.837 120.782 179.577 119.622C182.042 117.882 184.435 115.852 186.755 113.532C188.929 111.067 190.887 108.24 192.627 105.05C193.062 104.47 193.714 104.18 194.584 104.18L195.672 104.397C196.252 104.832 196.542 105.485 196.542 106.355C196.542 106.79 196.469 107.152 196.324 107.442C191.974 113.242 187.335 117.664 182.405 120.709C179.795 122.159 177.33 123.464 175.01 124.624C171.24 126.074 167.905 126.799 165.005 126.799ZM164.135 104.615C167.905 102.585 170.298 99.9025 171.312 96.5675V96.35L169.573 97.4375C167.833 99.0325 166.02 101.425 164.135 104.615Z"/>
<path d="M190.739 131.802C189.869 131.802 189.362 131.367 189.217 130.497C189.652 127.017 191.464 122.594 194.654 117.229L195.524 115.925C193.204 112.01 192.044 107.007 192.044 100.917V99.395C192.044 98.235 192.769 97.5825 194.219 97.4375C195.379 97.4375 196.031 98.1625 196.176 99.6125L195.959 103.31C195.959 106.935 196.466 110.052 197.481 112.662L199.656 109.182C203.861 102.947 207.631 98.09 210.966 94.6101C212.706 92.7252 214.011 91.6377 214.881 91.3477L215.533 91.1302C215.968 91.1302 216.331 91.4202 216.621 92.0002L216.838 92.6527C216.838 93.0876 216.548 93.4501 215.968 93.7401C212.054 96.3501 206.326 103.165 198.786 114.185L198.351 114.837C200.236 117.882 202.919 119.404 206.399 119.404H207.051C209.516 119.404 212.489 118.462 215.968 116.577C216.983 115.997 218.143 115.272 219.448 114.402C221.188 113.242 222.928 111.72 224.668 109.835L229.453 104.832C230.033 104.397 230.541 104.18 230.975 104.18C231.41 104.18 231.845 104.397 232.28 104.832C232.715 105.122 232.933 105.63 232.933 106.355C232.933 106.79 232.715 107.297 232.28 107.877C229.816 109.762 227.496 111.502 225.321 113.097L218.143 117.664C216.403 118.679 214.808 119.477 213.358 120.057C210.459 121.217 207.921 121.797 205.746 121.797C204.006 121.797 202.411 121.507 200.961 120.927C199.366 120.057 197.989 118.969 196.829 117.664C196.394 118.099 196.104 118.534 195.959 118.969C193.349 123.754 192.044 127.597 192.044 130.497C192.044 131.077 191.609 131.512 190.739 131.802Z"/>
</mask>
<path d="M77.6525 165.513C73.7376 165.513 71.2002 163.121 70.0402 158.336C69.1702 155.581 68.7352 152.028 68.7352 147.679C68.7352 143.474 69.0252 138.906 69.6052 133.977C70.7652 124.842 72.5051 114.765 74.8251 103.745L76.3475 96.1326H68.0828C62.4279 96.1326 56.4106 96.2776 50.0308 96.5675L35.0237 97.8725C27.9189 112.082 22.119 124.407 17.6242 134.846C13.2743 144.561 11.0993 150.869 11.0993 153.768C10.8094 155.073 10.0119 155.726 8.70691 155.726C7.69194 155.726 7.03946 155.001 6.74947 153.551C7.03946 150.216 9.43189 143.474 13.9268 133.324C18.2766 123.319 23.859 111.647 30.6738 98.3075C22.264 99.3225 15.6667 100.627 10.8819 102.222C8.9969 102.802 7.61944 103.382 6.74947 103.962L6.31448 104.397L6.53197 104.832C7.11196 105.267 7.40195 105.847 7.40195 106.572L6.96696 107.66C6.53197 108.24 5.95199 108.53 5.22701 108.53C4.79202 108.53 4.35703 108.312 3.92204 107.877C2.61708 106.717 1.9646 105.485 1.9646 104.18C2.1096 102.73 3.34206 101.352 5.662 100.047C10.3019 98.0175 18.3491 96.4951 29.8038 95.4801H32.1963C38.4311 83.3004 44.9559 71.1933 51.7707 59.1586C62.9354 39.1492 72.7951 23.4896 81.3499 12.1799C85.5548 6.67007 88.9622 3.26266 91.5721 1.9577C92.1521 1.6677 92.6596 1.52271 93.0946 1.52271C93.5295 1.52271 93.892 1.59521 94.182 1.74021C94.762 1.8852 95.2695 2.32019 95.7045 3.04517C96.2845 3.91514 96.5745 5.5826 96.5745 8.04753C96.5745 9.78747 96.4295 11.9624 96.1395 14.5723C93.9645 29.2169 89.8321 49.1539 83.7423 74.3832L79.6099 94.1751C86.4247 94.3201 91.7171 94.7551 95.487 95.4801C98.3869 95.9151 100.127 96.495 100.707 97.22L100.924 97.8725L100.489 98.7425C100.489 98.8875 100.344 98.96 100.054 98.96L99.1844 98.525C98.7494 98.09 97.3719 97.7275 95.052 97.4375C91.2821 96.7125 85.9898 96.2776 79.1749 96.1326L77.6525 104.397C75.6225 115.417 74.1001 125.422 73.0851 134.411C72.6501 138.616 72.4326 142.459 72.4326 145.939C72.4326 150.434 72.8676 154.203 73.7376 157.248C74.3176 159.858 75.695 161.163 77.87 161.163H79.1749C80.0449 161.163 80.6974 161.743 81.1324 162.903V163.338C81.1324 164.208 80.5524 164.861 79.3924 165.296L77.6525 165.513ZM36.3286 95.0451L51.1182 94.3926L64.3854 93.9576C68.7352 93.9576 72.8676 94.0301 76.7825 94.1751L81.3499 73.9482C87.2947 48.5739 91.3546 28.7094 93.5295 14.3548L93.9645 8.91751L93.5295 5.22011L93.0946 4.35013L92.6596 4.56762C90.4846 5.72759 87.5122 8.845 83.7423 13.9199C75.3326 25.2295 65.6178 40.8166 54.5981 60.6811C48.3633 72.1357 42.2735 83.5904 36.3286 95.0451Z" stroke="white" stroke-width="2" mask="url(#path-1-outside-1_672_522)"/>
<path d="M122.75 127.017C121.3 127.017 119.85 126.799 118.4 126.364C111.875 124.189 108.323 118.462 107.743 109.182V105.05L107.091 104.397L106.873 103.527C106.873 102.802 107.163 102.222 107.743 101.787C108.178 97.5825 108.831 93.3051 109.701 88.9553C115.065 65.6109 123.838 45.8915 136.017 29.7969C140.512 24.2871 144.862 20.8072 149.067 19.3572C150.517 18.9222 151.894 18.7047 153.199 18.7047C155.229 18.7047 156.752 19.1397 157.767 20.0097C159.362 21.1697 160.232 23.0546 160.377 25.6645V27.622C160.377 34.1468 157.477 43.2815 151.677 55.0262C144.427 69.3808 135.8 82.068 125.795 93.0876C120.14 99.1775 114.848 103.31 109.918 105.485V108.965C110.498 115.345 112.455 119.839 115.79 122.449C117.53 123.754 119.705 124.407 122.315 124.407C126.23 124.407 131.232 122.884 137.322 119.839C143.557 116.649 150.807 111.575 159.072 104.615C159.507 104.325 160.014 104.18 160.594 104.18C161.029 104.18 161.537 104.47 162.117 105.05C162.407 105.485 162.552 105.92 162.552 106.355C162.552 106.935 162.262 107.442 161.682 107.877C152.837 114.692 145.152 119.622 138.627 122.667C132.247 125.567 126.955 127.017 122.75 127.017ZM109.918 100.7C114.123 98.67 118.473 95.1901 122.968 90.2602C132.827 79.6755 141.382 67.4959 148.632 53.7213C154.722 42.2666 157.767 33.4218 157.767 27.187V25.882C157.622 24.2871 157.042 23.0546 156.027 22.1846C155.447 21.6046 154.577 21.3147 153.417 21.3147C152.402 21.3147 151.169 21.5321 149.719 21.9671C145.95 23.1271 141.962 26.2445 137.757 31.3194C125.868 46.9789 117.168 66.2634 111.658 89.1728C110.933 93.3776 110.353 97.22 109.918 100.7Z" stroke="white" stroke-width="2" mask="url(#path-1-outside-1_672_522)"/>
<path d="M165.005 126.799C161.09 126.799 158.408 125.639 156.958 123.319C156.378 122.014 156.088 120.637 156.088 119.187L156.305 116.577C157.175 112.082 158.915 107.515 161.525 102.875C163.845 98.67 166.165 95.6976 168.485 93.9576C169.645 93.2326 170.66 92.8702 171.53 92.8702L172.617 93.0876C174.212 93.6676 175.01 94.7551 175.01 96.35C175.01 97.8 174.212 99.7575 172.617 102.222C170.733 104.832 168.558 106.79 166.093 108.095C164.933 108.675 163.773 108.965 162.613 108.965H161.743C161.453 109.4 161.308 109.835 161.308 110.27C159.858 113.315 158.988 116.215 158.698 118.969V120.057C158.698 120.927 158.843 121.652 159.133 122.232C159.713 123.392 160.873 124.117 162.613 124.407C163.483 124.552 164.425 124.624 165.44 124.624C168.05 124.624 170.95 123.972 174.14 122.667C176.025 121.797 177.837 120.782 179.577 119.622C182.042 117.882 184.435 115.852 186.755 113.532C188.929 111.067 190.887 108.24 192.627 105.05C193.062 104.47 193.714 104.18 194.584 104.18L195.672 104.397C196.252 104.832 196.542 105.485 196.542 106.355C196.542 106.79 196.469 107.152 196.324 107.442C191.974 113.242 187.335 117.664 182.405 120.709C179.795 122.159 177.33 123.464 175.01 124.624C171.24 126.074 167.905 126.799 165.005 126.799ZM164.135 104.615C167.905 102.585 170.298 99.9025 171.312 96.5675V96.35L169.573 97.4375C167.833 99.0325 166.02 101.425 164.135 104.615Z" stroke="white" stroke-width="2" mask="url(#path-1-outside-1_672_522)"/>
<path d="M190.739 131.802C189.869 131.802 189.362 131.367 189.217 130.497C189.652 127.017 191.464 122.594 194.654 117.229L195.524 115.925C193.204 112.01 192.044 107.007 192.044 100.917V99.395C192.044 98.235 192.769 97.5825 194.219 97.4375C195.379 97.4375 196.031 98.1625 196.176 99.6125L195.959 103.31C195.959 106.935 196.466 110.052 197.481 112.662L199.656 109.182C203.861 102.947 207.631 98.09 210.966 94.6101C212.706 92.7252 214.011 91.6377 214.881 91.3477L215.533 91.1302C215.968 91.1302 216.331 91.4202 216.621 92.0002L216.838 92.6527C216.838 93.0876 216.548 93.4501 215.968 93.7401C212.054 96.3501 206.326 103.165 198.786 114.185L198.351 114.837C200.236 117.882 202.919 119.404 206.399 119.404H207.051C209.516 119.404 212.489 118.462 215.968 116.577C216.983 115.997 218.143 115.272 219.448 114.402C221.188 113.242 222.928 111.72 224.668 109.835L229.453 104.832C230.033 104.397 230.541 104.18 230.975 104.18C231.41 104.18 231.845 104.397 232.28 104.832C232.715 105.122 232.933 105.63 232.933 106.355C232.933 106.79 232.715 107.297 232.28 107.877C229.816 109.762 227.496 111.502 225.321 113.097L218.143 117.664C216.403 118.679 214.808 119.477 213.358 120.057C210.459 121.217 207.921 121.797 205.746 121.797C204.006 121.797 202.411 121.507 200.961 120.927C199.366 120.057 197.989 118.969 196.829 117.664C196.394 118.099 196.104 118.534 195.959 118.969C193.349 123.754 192.044 127.597 192.044 130.497C192.044 131.077 191.609 131.512 190.739 131.802Z" stroke="white" stroke-width="2" mask="url(#path-1-outside-1_672_522)"/>
<mask id="path-2-outside-2_672_522" maskUnits="userSpaceOnUse" x="229.905" y="1.39258" width="317" height="165" fill="black">
<rect fill="white" x="229.905" y="1.39258" width="317" height="165"/>
<path d="M245.912 164.426H244.607C240.112 164.426 236.705 163.338 234.385 161.163C232.065 158.843 230.905 155.726 230.905 151.811V150.723C232.065 139.124 240.04 125.349 254.829 109.4C265.994 97.3649 279.624 87.1427 295.718 78.7329C304.128 74.3831 312.828 71.0482 321.817 68.7282C318.193 66.9883 314.278 65.4658 310.073 64.1609C299.488 60.826 289.846 57.8535 281.146 55.2436C275.491 53.3587 271.576 51.0387 269.401 48.2838C268.241 46.9788 267.662 45.4564 267.662 43.7164C267.662 42.1215 268.241 40.309 269.401 38.2791C271.141 35.6692 274.404 32.5517 279.189 28.9268C303.113 11.6723 321.455 2.82757 334.215 2.39258H335.955C341.899 2.39258 345.814 4.20503 347.699 7.82993C348.569 9.27989 349.004 11.0923 349.004 13.2673C349.004 15.8772 348.352 18.8496 347.047 22.1845C346.612 23.0545 345.959 23.4895 345.089 23.4895L344.219 23.272C343.349 22.692 342.914 22.112 342.914 21.532L343.132 20.6621C344.292 17.7622 344.872 15.2247 344.872 13.0498C344.872 11.4548 344.509 10.2224 343.784 9.35238C342.624 7.61244 340.667 6.66996 337.912 6.52496L335.302 6.30747C332.982 6.30747 330.01 6.74246 326.385 7.61243C314.495 10.6573 299.488 18.7046 281.364 31.7543C277.014 34.9442 274.114 37.7716 272.664 40.2365C271.794 41.3965 271.359 42.5565 271.359 43.7164C271.359 44.5864 271.649 45.3839 272.229 46.1089C274.114 48.4288 277.521 50.3862 282.451 51.9812C291.006 54.5911 300.576 57.5635 311.16 60.8984C316.815 62.7834 321.962 65.0308 326.602 67.6408C332.982 66.4808 339.29 65.9008 345.524 65.9008C346.684 65.9008 347.337 66.5533 347.482 67.8583C347.482 69.1632 346.829 69.8882 345.524 70.0332C340.739 70.0332 336.027 70.3232 331.387 70.9032C337.912 75.543 341.609 81.7054 342.479 89.3902L342.697 92.0001C342.697 100.12 340.522 107.95 336.172 115.489C331.822 123.029 325.877 129.917 318.338 136.151C308.333 144.706 296.806 151.521 283.756 156.596C270.706 161.816 258.092 164.426 245.912 164.426ZM245.477 161.816C257.367 161.816 269.691 159.278 282.451 154.203C295.211 149.128 306.593 142.386 316.598 133.976C323.412 128.032 328.922 121.579 333.127 114.619C337.332 107.515 339.434 100.192 339.434 92.6526L339.217 89.6076C338.202 81.7779 334.142 75.7605 327.037 71.5556C304.998 76.4855 285.714 85.9827 269.184 100.047C250.044 116.577 238.445 131.874 234.385 145.939C233.805 148.259 233.515 150.288 233.515 152.028C233.515 154.203 233.95 156.016 234.82 157.466C236.56 160.366 239.895 161.816 244.825 161.816H245.477Z"/>
<path d="M380.77 127.452C379.32 127.452 377.798 127.162 376.203 126.582C372.723 124.697 370.983 122.014 370.983 118.534V117.012C371.273 114.982 371.853 112.952 372.723 110.922C367.358 116.287 362.573 120.202 358.368 122.667C357.208 123.392 356.266 123.754 355.541 123.754C354.671 123.754 353.946 123.537 353.366 123.102C352.931 122.667 352.569 122.014 352.279 121.144C352.279 119.984 352.641 118.317 353.366 116.142C357.136 107.297 361.703 100.845 367.068 96.7849C371.273 93.74 374.753 92.2176 377.508 92.2176H378.16C380.625 92.2176 382.365 93.0876 383.38 94.8275L383.815 95.045C384.25 95.335 384.468 95.6975 384.468 96.1325C384.178 97.4374 382.728 99.6124 380.118 102.657C379.538 103.527 378.813 104.397 377.943 105.267C376.203 108.167 374.753 111.14 373.593 114.184C373.158 115.634 372.94 117.012 372.94 118.317C372.94 120.927 374.318 123.029 377.073 124.624C378.233 125.204 379.538 125.494 380.988 125.494C384.758 125.494 388.89 124.044 393.385 121.144C396.43 119.404 399.402 117.447 402.302 115.272C407.377 111.212 411.509 107.66 414.699 104.615C415.134 104.325 415.569 104.18 416.004 104.18C416.729 104.18 417.237 104.397 417.527 104.832C417.962 105.267 418.179 105.702 418.179 106.137C418.179 106.717 417.889 107.297 417.309 107.877C414.119 110.487 409.842 113.677 404.477 117.447C399.837 120.782 395.125 123.464 390.34 125.494C386.86 126.799 383.67 127.452 380.77 127.452ZM355.541 120.709C358.151 119.984 361.631 117.664 365.981 113.749C370.331 109.835 374.1 106.065 377.29 102.44L380.335 97.8724L379.9 97.2199C379.32 96.495 378.378 96.1325 377.073 96.1325C373.883 96.5675 370.258 98.6699 366.198 102.44C362.283 106.21 359.021 111.14 356.411 117.229C355.831 118.679 355.541 119.839 355.541 120.709Z"/>
<path d="M417.01 127.669C414.69 127.669 413.385 125.712 413.095 121.797V121.144C413.095 117.374 413.748 112.662 415.053 107.007C416.503 101.352 417.228 98.5249 417.228 98.5249C417.663 97.5099 418.315 97.0024 419.185 97.0024L419.838 97.2199C420.853 97.6549 421.36 98.3074 421.36 99.1774L421.143 99.8299C421.143 99.8299 420.635 101.57 419.62 105.05C418.605 108.53 417.735 112.3 417.01 116.359C416.72 118.534 416.575 120.419 416.575 122.014V123.537C416.72 124.117 416.865 124.407 417.01 124.407H417.228C418.098 124.407 419.113 123.754 420.273 122.449C422.447 120.274 424.622 117.447 426.797 113.967C433.032 103.962 436.875 97.2924 438.325 93.9575V93.74C438.615 93.45 438.977 93.305 439.412 93.305H439.847L440.282 94.175V94.61L439.63 95.6975C439.05 97.1474 438.47 99.0324 437.89 101.352L437.672 103.745C437.672 105.195 438.107 106.427 438.977 107.442C439.992 108.457 441.442 108.965 443.327 108.965C446.807 108.965 451.954 107.442 458.769 104.397L459.639 104.18C460.509 104.18 461.161 104.615 461.596 105.485L461.814 106.137C461.814 107.007 461.306 107.732 460.291 108.312C456.957 109.472 453.984 110.27 451.374 110.705C448.619 111.285 446.372 111.575 444.632 111.575C441.007 111.575 438.542 110.777 437.237 109.182C436.077 107.732 435.497 105.92 435.497 103.745C432.887 108.82 429.987 113.822 426.797 118.752C424.912 121.507 423.172 123.682 421.578 125.277C420.273 126.582 419.04 127.307 417.88 127.452L417.01 127.669Z"/>
<path d="M480.333 127.669H479.681C477.506 127.524 475.911 126.799 474.896 125.494C473.881 124.334 473.373 122.667 473.373 120.492L473.591 118.317C473.591 117.012 473.808 115.634 474.243 114.184L470.981 119.187C468.951 121.942 466.994 124.117 465.109 125.712C463.659 126.727 462.281 127.234 460.976 127.234H460.324C457.569 127.234 456.264 125.132 456.409 120.927C456.409 118.027 456.989 114.547 458.149 110.487C459.164 106.282 460.179 102.585 461.194 99.3949C461.774 97.9449 462.064 96.7125 462.064 95.6975L462.281 94.3925C462.281 93.5225 462.789 92.9426 463.804 92.6526L464.456 92.4351C465.326 92.4351 465.979 93.015 466.414 94.175C466.414 94.61 466.269 95.6975 465.979 97.4374C463.949 103.092 461.846 109.907 459.671 117.882L459.236 121.362L459.454 123.319C459.599 124.189 460.106 124.624 460.976 124.624C462.136 124.624 463.296 124.044 464.456 122.884C466.776 120.999 469.168 118.244 471.633 114.619C473.953 111.14 476.056 107.66 477.941 104.18C481.421 97.2199 483.161 93.74 483.161 93.74C483.451 93.45 483.668 93.305 483.813 93.305H484.248C484.538 93.595 484.683 93.9575 484.683 94.3925L479.246 105.485C477.216 109.98 475.911 114.329 475.331 118.534V120.057C475.331 121.797 475.693 123.174 476.418 124.189C477.143 124.914 478.231 125.277 479.681 125.277C484.031 125.277 488.09 123.682 491.86 120.492C495.92 117.157 499.183 113.749 501.648 110.27C504.113 106.79 505.345 105.05 505.345 105.05C505.78 104.47 506.432 104.18 507.302 104.18L508.39 104.397C508.97 104.832 509.26 105.412 509.26 106.137L508.825 107.442C508.825 107.442 507.375 109.255 504.475 112.879C501.72 116.359 498.095 119.694 493.6 122.884C489.54 126.074 485.118 127.669 480.333 127.669Z"/>
<path d="M500.961 127.452C500.236 127.307 499.874 126.799 499.874 125.929L500.091 124.624C500.381 123.464 501.251 121.507 502.701 118.752L504.006 116.359L504.659 113.532C505.818 107.007 506.398 101.932 506.398 98.3074L506.181 95.6975C506.036 95.4075 505.963 95.045 505.963 94.61C505.963 94.175 506.108 93.74 506.398 93.305C506.978 92.7251 507.558 92.4351 508.138 92.4351L509.443 92.8701C509.878 93.305 510.241 94.32 510.531 95.915V97.2199C510.531 99.8299 510.168 103.237 509.443 107.442C512.633 102.222 515.461 98.2349 517.926 95.48C519.086 94.175 519.956 93.45 520.536 93.305L521.406 93.0875C521.841 93.0875 522.131 93.2325 522.276 93.5225C522.566 93.6675 522.711 94.1025 522.711 94.8275C522.711 96.1325 522.493 98.2349 522.058 101.135V102.005C522.058 103.455 522.566 104.832 523.58 106.137C524.595 107.007 526.19 107.442 528.365 107.442C531.41 107.442 536.123 106.355 542.502 104.18H542.937C543.807 104.18 544.532 104.687 545.112 105.702L545.33 106.355C545.33 107.225 544.822 107.877 543.807 108.312C539.458 109.327 535.905 109.98 533.15 110.27H530.54C526.19 110.27 523.363 109.472 522.058 107.877C520.608 105.992 519.883 103.89 519.883 101.57C519.883 100.265 520.028 98.8874 520.318 97.4374L520.753 95.48C520.318 95.77 519.738 96.2775 519.013 97.0024C515.533 101.497 511.836 107.37 507.921 114.619C507.051 118.389 506.108 121.434 505.094 123.754C504.369 125.204 503.571 126.292 502.701 127.017C501.831 127.307 501.251 127.452 500.961 127.452Z"/>
</mask>
<path d="M245.912 164.426H244.607C240.112 164.426 236.705 163.338 234.385 161.163C232.065 158.843 230.905 155.726 230.905 151.811V150.723C232.065 139.124 240.04 125.349 254.829 109.4C265.994 97.3649 279.624 87.1427 295.718 78.7329C304.128 74.3831 312.828 71.0482 321.817 68.7282C318.193 66.9883 314.278 65.4658 310.073 64.1609C299.488 60.826 289.846 57.8535 281.146 55.2436C275.491 53.3587 271.576 51.0387 269.401 48.2838C268.241 46.9788 267.662 45.4564 267.662 43.7164C267.662 42.1215 268.241 40.309 269.401 38.2791C271.141 35.6692 274.404 32.5517 279.189 28.9268C303.113 11.6723 321.455 2.82757 334.215 2.39258H335.955C341.899 2.39258 345.814 4.20503 347.699 7.82993C348.569 9.27989 349.004 11.0923 349.004 13.2673C349.004 15.8772 348.352 18.8496 347.047 22.1845C346.612 23.0545 345.959 23.4895 345.089 23.4895L344.219 23.272C343.349 22.692 342.914 22.112 342.914 21.532L343.132 20.6621C344.292 17.7622 344.872 15.2247 344.872 13.0498C344.872 11.4548 344.509 10.2224 343.784 9.35238C342.624 7.61244 340.667 6.66996 337.912 6.52496L335.302 6.30747C332.982 6.30747 330.01 6.74246 326.385 7.61243C314.495 10.6573 299.488 18.7046 281.364 31.7543C277.014 34.9442 274.114 37.7716 272.664 40.2365C271.794 41.3965 271.359 42.5565 271.359 43.7164C271.359 44.5864 271.649 45.3839 272.229 46.1089C274.114 48.4288 277.521 50.3862 282.451 51.9812C291.006 54.5911 300.576 57.5635 311.16 60.8984C316.815 62.7834 321.962 65.0308 326.602 67.6408C332.982 66.4808 339.29 65.9008 345.524 65.9008C346.684 65.9008 347.337 66.5533 347.482 67.8583C347.482 69.1632 346.829 69.8882 345.524 70.0332C340.739 70.0332 336.027 70.3232 331.387 70.9032C337.912 75.543 341.609 81.7054 342.479 89.3902L342.697 92.0001C342.697 100.12 340.522 107.95 336.172 115.489C331.822 123.029 325.877 129.917 318.338 136.151C308.333 144.706 296.806 151.521 283.756 156.596C270.706 161.816 258.092 164.426 245.912 164.426ZM245.477 161.816C257.367 161.816 269.691 159.278 282.451 154.203C295.211 149.128 306.593 142.386 316.598 133.976C323.412 128.032 328.922 121.579 333.127 114.619C337.332 107.515 339.434 100.192 339.434 92.6526L339.217 89.6076C338.202 81.7779 334.142 75.7605 327.037 71.5556C304.998 76.4855 285.714 85.9827 269.184 100.047C250.044 116.577 238.445 131.874 234.385 145.939C233.805 148.259 233.515 150.288 233.515 152.028C233.515 154.203 233.95 156.016 234.82 157.466C236.56 160.366 239.895 161.816 244.825 161.816H245.477Z" stroke="white" stroke-width="2" mask="url(#path-2-outside-2_672_522)"/>
<path d="M380.77 127.452C379.32 127.452 377.798 127.162 376.203 126.582C372.723 124.697 370.983 122.014 370.983 118.534V117.012C371.273 114.982 371.853 112.952 372.723 110.922C367.358 116.287 362.573 120.202 358.368 122.667C357.208 123.392 356.266 123.754 355.541 123.754C354.671 123.754 353.946 123.537 353.366 123.102C352.931 122.667 352.569 122.014 352.279 121.144C352.279 119.984 352.641 118.317 353.366 116.142C357.136 107.297 361.703 100.845 367.068 96.7849C371.273 93.74 374.753 92.2176 377.508 92.2176H378.16C380.625 92.2176 382.365 93.0876 383.38 94.8275L383.815 95.045C384.25 95.335 384.468 95.6975 384.468 96.1325C384.178 97.4374 382.728 99.6124 380.118 102.657C379.538 103.527 378.813 104.397 377.943 105.267C376.203 108.167 374.753 111.14 373.593 114.184C373.158 115.634 372.94 117.012 372.94 118.317C372.94 120.927 374.318 123.029 377.073 124.624C378.233 125.204 379.538 125.494 380.988 125.494C384.758 125.494 388.89 124.044 393.385 121.144C396.43 119.404 399.402 117.447 402.302 115.272C407.377 111.212 411.509 107.66 414.699 104.615C415.134 104.325 415.569 104.18 416.004 104.18C416.729 104.18 417.237 104.397 417.527 104.832C417.962 105.267 418.179 105.702 418.179 106.137C418.179 106.717 417.889 107.297 417.309 107.877C414.119 110.487 409.842 113.677 404.477 117.447C399.837 120.782 395.125 123.464 390.34 125.494C386.86 126.799 383.67 127.452 380.77 127.452ZM355.541 120.709C358.151 119.984 361.631 117.664 365.981 113.749C370.331 109.835 374.1 106.065 377.29 102.44L380.335 97.8724L379.9 97.2199C379.32 96.495 378.378 96.1325 377.073 96.1325C373.883 96.5675 370.258 98.6699 366.198 102.44C362.283 106.21 359.021 111.14 356.411 117.229C355.831 118.679 355.541 119.839 355.541 120.709Z" stroke="white" stroke-width="2" mask="url(#path-2-outside-2_672_522)"/>
<path d="M417.01 127.669C414.69 127.669 413.385 125.712 413.095 121.797V121.144C413.095 117.374 413.748 112.662 415.053 107.007C416.503 101.352 417.228 98.5249 417.228 98.5249C417.663 97.5099 418.315 97.0024 419.185 97.0024L419.838 97.2199C420.853 97.6549 421.36 98.3074 421.36 99.1774L421.143 99.8299C421.143 99.8299 420.635 101.57 419.62 105.05C418.605 108.53 417.735 112.3 417.01 116.359C416.72 118.534 416.575 120.419 416.575 122.014V123.537C416.72 124.117 416.865 124.407 417.01 124.407H417.228C418.098 124.407 419.113 123.754 420.273 122.449C422.447 120.274 424.622 117.447 426.797 113.967C433.032 103.962 436.875 97.2924 438.325 93.9575V93.74C438.615 93.45 438.977 93.305 439.412 93.305H439.847L440.282 94.175V94.61L439.63 95.6975C439.05 97.1474 438.47 99.0324 437.89 101.352L437.672 103.745C437.672 105.195 438.107 106.427 438.977 107.442C439.992 108.457 441.442 108.965 443.327 108.965C446.807 108.965 451.954 107.442 458.769 104.397L459.639 104.18C460.509 104.18 461.161 104.615 461.596 105.485L461.814 106.137C461.814 107.007 461.306 107.732 460.291 108.312C456.957 109.472 453.984 110.27 451.374 110.705C448.619 111.285 446.372 111.575 444.632 111.575C441.007 111.575 438.542 110.777 437.237 109.182C436.077 107.732 435.497 105.92 435.497 103.745C432.887 108.82 429.987 113.822 426.797 118.752C424.912 121.507 423.172 123.682 421.578 125.277C420.273 126.582 419.04 127.307 417.88 127.452L417.01 127.669Z" stroke="white" stroke-width="2" mask="url(#path-2-outside-2_672_522)"/>
<path d="M480.333 127.669H479.681C477.506 127.524 475.911 126.799 474.896 125.494C473.881 124.334 473.373 122.667 473.373 120.492L473.591 118.317C473.591 117.012 473.808 115.634 474.243 114.184L470.981 119.187C468.951 121.942 466.994 124.117 465.109 125.712C463.659 126.727 462.281 127.234 460.976 127.234H460.324C457.569 127.234 456.264 125.132 456.409 120.927C456.409 118.027 456.989 114.547 458.149 110.487C459.164 106.282 460.179 102.585 461.194 99.3949C461.774 97.9449 462.064 96.7125 462.064 95.6975L462.281 94.3925C462.281 93.5225 462.789 92.9426 463.804 92.6526L464.456 92.4351C465.326 92.4351 465.979 93.015 466.414 94.175C466.414 94.61 466.269 95.6975 465.979 97.4374C463.949 103.092 461.846 109.907 459.671 117.882L459.236 121.362L459.454 123.319C459.599 124.189 460.106 124.624 460.976 124.624C462.136 124.624 463.296 124.044 464.456 122.884C466.776 120.999 469.168 118.244 471.633 114.619C473.953 111.14 476.056 107.66 477.941 104.18C481.421 97.2199 483.161 93.74 483.161 93.74C483.451 93.45 483.668 93.305 483.813 93.305H484.248C484.538 93.595 484.683 93.9575 484.683 94.3925L479.246 105.485C477.216 109.98 475.911 114.329 475.331 118.534V120.057C475.331 121.797 475.693 123.174 476.418 124.189C477.143 124.914 478.231 125.277 479.681 125.277C484.031 125.277 488.09 123.682 491.86 120.492C495.92 117.157 499.183 113.749 501.648 110.27C504.113 106.79 505.345 105.05 505.345 105.05C505.78 104.47 506.432 104.18 507.302 104.18L508.39 104.397C508.97 104.832 509.26 105.412 509.26 106.137L508.825 107.442C508.825 107.442 507.375 109.255 504.475 112.879C501.72 116.359 498.095 119.694 493.6 122.884C489.54 126.074 485.118 127.669 480.333 127.669Z" stroke="white" stroke-width="2" mask="url(#path-2-outside-2_672_522)"/>
<path d="M500.961 127.452C500.236 127.307 499.874 126.799 499.874 125.929L500.091 124.624C500.381 123.464 501.251 121.507 502.701 118.752L504.006 116.359L504.659 113.532C505.818 107.007 506.398 101.932 506.398 98.3074L506.181 95.6975C506.036 95.4075 505.963 95.045 505.963 94.61C505.963 94.175 506.108 93.74 506.398 93.305C506.978 92.7251 507.558 92.4351 508.138 92.4351L509.443 92.8701C509.878 93.305 510.241 94.32 510.531 95.915V97.2199C510.531 99.8299 510.168 103.237 509.443 107.442C512.633 102.222 515.461 98.2349 517.926 95.48C519.086 94.175 519.956 93.45 520.536 93.305L521.406 93.0875C521.841 93.0875 522.131 93.2325 522.276 93.5225C522.566 93.6675 522.711 94.1025 522.711 94.8275C522.711 96.1325 522.493 98.2349 522.058 101.135V102.005C522.058 103.455 522.566 104.832 523.58 106.137C524.595 107.007 526.19 107.442 528.365 107.442C531.41 107.442 536.123 106.355 542.502 104.18H542.937C543.807 104.18 544.532 104.687 545.112 105.702L545.33 106.355C545.33 107.225 544.822 107.877 543.807 108.312C539.458 109.327 535.905 109.98 533.15 110.27H530.54C526.19 110.27 523.363 109.472 522.058 107.877C520.608 105.992 519.883 103.89 519.883 101.57C519.883 100.265 520.028 98.8874 520.318 97.4374L520.753 95.48C520.318 95.77 519.738 96.2775 519.013 97.0024C515.533 101.497 511.836 107.37 507.921 114.619C507.051 118.389 506.108 121.434 505.094 123.754C504.369 125.204 503.571 126.292 502.701 127.017C501.831 127.307 501.251 127.452 500.961 127.452Z" stroke="white" stroke-width="2" mask="url(#path-2-outside-2_672_522)"/>
</svg>
