<svg width="42" height="42" viewBox="0 0 42 42" fill="none" xmlns="http://www.w3.org/2000/svg">
<g clip-path="url(#clip0_440_4084)">
<path d="M0 14.0273C0 6.28026 6.28026 0 14.0273 0H27.9727C35.7197 0 42 6.28026 42 14.0273V27.9727C42 35.7197 35.7197 42 27.9727 42H14.0273C6.28026 42 0 35.7197 0 27.9727V14.0273Z" fill="white"/>
<path d="M11.2383 21C11.2383 15.6088 15.6088 11.2383 21 11.2383C26.3912 11.2383 30.7617 15.6088 30.7617 21C30.7617 26.3912 26.3912 30.7617 21 30.7617C15.6088 30.7617 11.2383 26.3912 11.2383 21Z" fill="white"/>
<path d="M12.4091 0C5.56737 0 0 5.56737 0 12.4091V29.5909C0 36.4326 5.56737 42 12.4091 42H29.5909C36.4326 42 42 36.4326 42 29.5909V12.4091C42 5.56737 36.4326 0 29.5909 0H12.4091ZM12.4091 1.90909H29.5909C35.4007 1.90909 40.0909 6.59926 40.0909 12.4091V29.5909C40.0909 35.4007 35.4007 40.0909 29.5909 40.0909H12.4091C6.59926 40.0909 1.90909 35.4007 1.90909 29.5909V12.4091C1.90909 6.59926 6.59926 1.90909 12.4091 1.90909Z" fill="white"/>
<path d="M32.4545 7.63635C31.9482 7.63635 31.4626 7.83749 31.1046 8.19551C30.7466 8.55354 30.5455 9.03912 30.5455 9.54544C30.5455 10.0518 30.7466 10.5374 31.1046 10.8954C31.4626 11.2534 31.9482 11.4545 32.4545 11.4545C32.9609 11.4545 33.4465 11.2534 33.8045 10.8954C34.1625 10.5374 34.3636 10.0518 34.3636 9.54544C34.3636 9.03912 34.1625 8.55354 33.8045 8.19551C33.4465 7.83749 32.9609 7.63635 32.4545 7.63635ZM21 10.5C15.2123 10.5 10.5 15.2123 10.5 21C10.5 26.7877 15.2123 31.5 21 31.5C26.7877 31.5 31.5 26.7877 31.5 21C31.5 15.2123 26.7877 10.5 21 10.5ZM21 12.4091C25.7559 12.4091 29.5909 16.2441 29.5909 21C29.5909 25.7559 25.7559 29.5909 21 29.5909C16.2441 29.5909 12.4091 25.7559 12.4091 21C12.4091 16.2441 16.2441 12.4091 21 12.4091Z" fill="#181818"/>
</g>
<defs>
<clipPath id="clip0_440_4084">
<rect width="42" height="42" fill="white"/>
</clipPath>
</defs>
</svg>
