<svg width="42" height="42" viewBox="0 0 42 42" fill="none" xmlns="http://www.w3.org/2000/svg">
<path fill-rule="evenodd" clip-rule="evenodd" d="M2.87568 19.0178C14.1477 14.1193 21.6516 10.8644 25.4196 9.28523C36.1441 4.80568 38.3985 4.03223 39.8478 4C40.1698 4 40.8783 4.06445 41.3614 4.45118C41.7479 4.77345 41.8445 5.1924 41.9089 5.51467C41.9733 5.83694 42.0377 6.51371 41.9733 7.02934C41.3936 13.1525 38.8816 28.0091 37.5934 34.8413C37.0459 37.7417 35.9831 38.7085 34.9525 38.8052C32.6981 38.9986 30.9912 37.3228 28.8334 35.9048C25.4196 33.6811 23.5195 32.2953 20.2023 30.1039C16.3698 27.5902 18.8497 26.2044 21.0397 23.9485C21.6194 23.3685 31.5065 14.3449 31.6997 13.5392C31.7319 13.4425 31.7319 13.0558 31.5065 12.8624C31.2811 12.6691 30.959 12.7335 30.7013 12.798C30.3471 12.8624 24.9365 16.4719 14.4053 23.594C12.8594 24.6575 11.4746 25.1732 10.2186 25.1409C8.83373 25.1087 6.19287 24.3675 4.19612 23.7229C1.78069 22.9495 -0.151644 22.5305 0.0093838 21.177C0.106001 20.468 1.07217 19.759 2.87568 19.0178Z" fill="white"/>
</svg>
