<svg width="128" height="129" viewBox="0 0 128 129" fill="none" xmlns="http://www.w3.org/2000/svg">
<path d="M121.081 125.041H6.91893C6.00143 125.041 5.1215 124.676 4.47272 124.028C3.82395 123.379 3.45947 122.499 3.45947 121.581V43.7436C3.45947 43.2848 3.64171 42.8449 3.9661 42.5205C4.29049 42.1961 4.73045 42.0139 5.1892 42.0139H122.811C123.27 42.0139 123.71 42.1961 124.034 42.5205C124.358 42.8449 124.541 43.2848 124.541 43.7436V121.581C124.541 122.499 124.176 123.379 123.527 124.028C122.879 124.676 121.999 125.041 121.081 125.041ZM6.91893 45.4733V121.581H121.081V45.4733H6.91893Z" fill="#5F6A71"/>
<path d="M122.811 45.4729H5.1892C4.73045 45.4729 4.29049 45.2906 3.9661 44.9663C3.64171 44.6419 3.45947 44.2023 3.45947 43.7436V19.5269C3.45947 18.6094 3.82395 17.7295 4.47272 17.0807C5.1215 16.432 6.00143 16.0675 6.91893 16.0675H24.787C25.2458 16.0675 25.6858 16.2497 26.0101 16.5741C26.3345 16.8985 26.5168 17.3385 26.5168 17.7972C26.5168 18.256 26.3345 18.6959 26.0101 19.0203C25.6858 19.3447 25.2458 19.5269 24.787 19.5269H6.91893V42.0134H121.081V19.5269H103.213C102.754 19.5269 102.314 19.3447 101.99 19.0203C101.665 18.6959 101.483 18.256 101.483 17.7972C101.483 17.3385 101.665 16.8985 101.99 16.5741C102.314 16.2497 102.754 16.0675 103.213 16.0675H121.081C121.999 16.0675 122.879 16.432 123.527 17.0807C124.176 17.7295 124.541 18.6094 124.541 19.5269V43.7436C124.541 44.2023 124.358 44.6419 124.034 44.9663C123.71 45.2906 123.27 45.4729 122.811 45.4729Z" fill="#5F6A71"/>
<path d="M91.6757 19.5269H36.3243C35.8656 19.5269 35.4256 19.3447 35.1012 19.0203C34.7768 18.6959 34.5946 18.256 34.5946 17.7972C34.5946 17.3385 34.7768 16.8985 35.1012 16.5741C35.4256 16.2497 35.8656 16.0675 36.3243 16.0675H91.6757C92.1344 16.0675 92.5744 16.2497 92.8988 16.5741C93.2231 16.8985 93.4054 17.3385 93.4054 17.7972C93.4054 18.256 93.2231 18.6959 92.8988 19.0203C92.5744 19.3447 92.1344 19.5269 91.6757 19.5269Z" fill="#5F6A71"/>
<path d="M97.4357 31.635C95.4493 31.635 93.5442 30.8459 92.1396 29.4413C90.735 28.0367 89.9459 26.1316 89.9459 24.1452V11.449C90.0385 9.52263 90.8689 7.70575 92.265 6.37513C93.6611 5.04451 95.5157 4.30225 97.4443 4.30225C99.3729 4.30225 101.228 5.04451 102.624 6.37513C104.02 7.70575 104.85 9.52263 104.943 11.449V24.1452C104.938 26.1332 104.145 28.0382 102.738 29.4423C101.33 30.8464 99.4237 31.635 97.4357 31.635ZM97.4357 7.41876C96.3682 7.42331 95.3457 7.84939 94.5909 8.60423C93.836 9.35906 93.41 10.3815 93.4054 11.449V24.1452C93.4725 25.1708 93.9273 26.1323 94.6773 26.8349C95.4274 27.5374 96.4166 27.9284 97.4443 27.9284C98.472 27.9284 99.4612 27.5374 100.211 26.8349C100.961 26.1323 101.416 25.1708 101.483 24.1452V11.449C101.479 10.3785 101.05 9.35347 100.292 8.59814C99.5331 7.84281 98.5062 7.41875 97.4357 7.41876Z" fill="#5F6A71"/>
<path d="M30.5643 31.635C28.5763 31.635 26.6695 30.8464 25.2621 29.4423C23.8548 28.0382 23.0618 26.1332 23.0573 24.1452V11.449C23.1498 9.52263 23.9802 7.70575 25.3763 6.37513C26.7724 5.04451 28.627 4.30225 30.5556 4.30225C32.4843 4.30225 34.3389 5.04451 35.735 6.37513C37.1311 7.70575 37.9615 9.52263 38.054 11.449V24.1452C38.054 26.1316 37.2649 28.0367 35.8603 29.4413C34.4557 30.8459 32.5507 31.635 30.5643 31.635ZM30.5643 7.41876C29.4938 7.41875 28.4669 7.84281 27.7083 8.59814C26.9498 9.35347 26.5213 10.3785 26.5167 11.449V24.1452C26.5839 25.1708 27.0386 26.1323 27.7887 26.8349C28.5387 27.5374 29.5279 27.9284 30.5556 27.9284C31.5833 27.9284 32.5726 27.5374 33.3226 26.8349C34.0727 26.1323 34.5274 25.1708 34.5946 24.1452V11.449C34.59 10.3815 34.1639 9.35906 33.4091 8.60423C32.6543 7.84939 31.6318 7.42331 30.5643 7.41876Z" fill="#5F6A71"/>
<path d="M105.081 69.6894H96.4325C95.515 69.6894 94.6351 69.3249 93.9863 68.6761C93.3375 68.0274 92.973 67.1474 92.973 66.2299V57.5813C92.973 56.6638 93.3375 55.7839 93.9863 55.1351C94.6351 54.4863 95.515 54.1218 96.4325 54.1218H105.081C105.999 54.1218 106.879 54.4863 107.527 55.1351C108.176 55.7839 108.541 56.6638 108.541 57.5813V66.2299C108.541 67.1474 108.176 68.0274 107.527 68.6761C106.879 69.3249 105.999 69.6894 105.081 69.6894ZM96.4325 57.5813V66.2299H105.081V57.5813H96.4325Z" fill="#5F6A71"/>
<path d="M105.081 91.3111H96.4325C95.515 91.3111 94.6351 90.9467 93.9863 90.2979C93.3375 89.6491 92.973 88.7692 92.973 87.8517V79.203C92.973 78.2855 93.3375 77.4056 93.9863 76.7568C94.6351 76.108 95.515 75.7436 96.4325 75.7436H105.081C105.999 75.7436 106.879 76.108 107.527 76.7568C108.176 77.4056 108.541 78.2855 108.541 79.203V87.8517C108.541 88.7692 108.176 89.6491 107.527 90.2979C106.879 90.9467 105.999 91.3111 105.081 91.3111ZM96.4325 79.203V87.8517H105.081V79.203H96.4325Z" fill="#5F6A71"/>
<path d="M80.5708 69.6894H71.9222C71.0047 69.6894 70.1247 69.3249 69.476 68.6761C68.8272 68.0274 68.4627 67.1474 68.4627 66.2299V57.5813C68.4627 56.6638 68.8272 55.7839 69.476 55.1351C70.1247 54.4863 71.0047 54.1218 71.9222 54.1218H80.5708C81.4883 54.1218 82.3683 54.4863 83.017 55.1351C83.6658 55.7839 84.0303 56.6638 84.0303 57.5813V66.2299C84.0303 67.1474 83.6658 68.0274 83.017 68.6761C82.3683 69.3249 81.4883 69.6894 80.5708 69.6894ZM71.9222 57.5813V66.2299H80.5708V57.5813H71.9222Z" fill="#5F6A71"/>
<path d="M80.5708 91.3111H71.9222C71.0047 91.3111 70.1247 90.9467 69.476 90.2979C68.8272 89.6491 68.4627 88.7692 68.4627 87.8517V79.203C68.4627 78.2855 68.8272 77.4056 69.476 76.7568C70.1247 76.108 71.0047 75.7436 71.9222 75.7436H80.5708C81.4883 75.7436 82.3683 76.108 83.017 76.7568C83.6658 77.4056 84.0303 78.2855 84.0303 79.203V87.8517C84.0303 88.7692 83.6658 89.6491 83.017 90.2979C82.3683 90.9467 81.4883 91.3111 80.5708 91.3111ZM71.9222 79.203V87.8517H80.5708V79.203H71.9222Z" fill="#5F6A71"/>
<path d="M80.5708 112.933H71.9222C71.0047 112.933 70.1247 112.568 69.476 111.92C68.8272 111.271 68.4627 110.391 68.4627 109.473V100.825C68.4627 99.9073 68.8272 99.0274 69.476 98.3786C70.1247 97.7298 71.0047 97.3653 71.9222 97.3653H80.5708C81.4883 97.3653 82.3683 97.7298 83.017 98.3786C83.6658 99.0274 84.0303 99.9073 84.0303 100.825V109.473C84.0303 110.391 83.6658 111.271 83.017 111.92C82.3683 112.568 81.4883 112.933 80.5708 112.933ZM71.9222 100.825V109.473H80.5708V100.825H71.9222Z" fill="#5F6A71"/>
<path d="M56.0779 69.6894H47.4292C46.5117 69.6894 45.6318 69.3249 44.983 68.6761C44.3342 68.0274 43.9698 67.1474 43.9698 66.2299V57.5813C43.9698 56.6638 44.3342 55.7839 44.983 55.1351C45.6318 54.4863 46.5117 54.1218 47.4292 54.1218H56.0779C56.9954 54.1218 57.8753 54.4863 58.5241 55.1351C59.1728 55.7839 59.5373 56.6638 59.5373 57.5813V66.2299C59.5373 67.1474 59.1728 68.0274 58.5241 68.6761C57.8753 69.3249 56.9954 69.6894 56.0779 69.6894ZM47.4292 57.5813V66.2299H56.0779V57.5813H47.4292Z" fill="#5F6A71"/>
<path d="M56.0779 91.3111H47.4292C46.5117 91.3111 45.6318 90.9467 44.983 90.2979C44.3342 89.6491 43.9698 88.7692 43.9698 87.8517V79.203C43.9698 78.2855 44.3342 77.4056 44.983 76.7568C45.6318 76.108 46.5117 75.7436 47.4292 75.7436H56.0779C56.9954 75.7436 57.8753 76.108 58.5241 76.7568C59.1728 77.4056 59.5373 78.2855 59.5373 79.203V87.8517C59.5373 88.7692 59.1728 89.6491 58.5241 90.2979C57.8753 90.9467 56.9954 91.3111 56.0779 91.3111ZM47.4292 79.203V87.8517H56.0779V79.203H47.4292Z" fill="#5F6A71"/>
<path d="M56.0779 112.933H47.4292C46.5117 112.933 45.6318 112.568 44.983 111.92C44.3342 111.271 43.9698 110.391 43.9698 109.473V100.825C43.9698 99.9073 44.3342 99.0274 44.983 98.3786C45.6318 97.7298 46.5117 97.3653 47.4292 97.3653H56.0779C56.9954 97.3653 57.8753 97.7298 58.5241 98.3786C59.1728 99.0274 59.5373 99.9073 59.5373 100.825V109.473C59.5373 110.391 59.1728 111.271 58.5241 111.92C57.8753 112.568 56.9954 112.933 56.0779 112.933ZM47.4292 100.825V109.473H56.0779V100.825H47.4292Z" fill="#5F6A71"/>
<path d="M31.5675 91.3111H22.9189C22.0014 91.3111 21.1215 90.9467 20.4727 90.2979C19.8239 89.6491 19.4594 88.7692 19.4594 87.8517V79.203C19.4594 78.2855 19.8239 77.4056 20.4727 76.7568C21.1215 76.108 22.0014 75.7436 22.9189 75.7436H31.5675C32.4851 75.7436 33.365 76.108 34.0138 76.7568C34.6625 77.4056 35.027 78.2855 35.027 79.203V87.8517C35.027 88.7692 34.6625 89.6491 34.0138 90.2979C33.365 90.9467 32.4851 91.3111 31.5675 91.3111ZM22.9189 79.203V87.8517H31.5675V79.203H22.9189Z" fill="#5F6A71"/>
<path d="M31.5675 112.933H22.9189C22.0014 112.933 21.1215 112.568 20.4727 111.92C19.8239 111.271 19.4594 110.391 19.4594 109.473V100.825C19.4594 99.9073 19.8239 99.0274 20.4727 98.3786C21.1215 97.7298 22.0014 97.3653 22.9189 97.3653H31.5675C32.4851 97.3653 33.365 97.7298 34.0138 98.3786C34.6625 99.0274 35.027 99.9073 35.027 100.825V109.473C35.027 110.391 34.6625 111.271 34.0138 111.92C33.365 112.568 32.4851 112.933 31.5675 112.933ZM22.9189 100.825V109.473H31.5675V100.825H22.9189Z" fill="#5F6A71"/>
</svg>
