<svg width="32" height="33" viewBox="0 0 32 33" fill="none" xmlns="http://www.w3.org/2000/svg">
<g clip-path="url(#clip0)">
<path d="M10.2079 25.3902C8.36278 25.3902 6.86712 26.8859 6.86712 28.7309C6.86712 30.576 8.36285 32.0717 10.2079 32.0717C12.0529 32.0717 13.5486 30.5759 13.5486 28.7309C13.5487 26.8859 12.0529 25.3902 10.2079 25.3902ZM10.2079 30.5869C9.18283 30.5869 8.35191 29.756 8.35191 28.731C8.35191 27.706 9.18283 26.875 10.2079 26.875C11.2329 26.875 12.0638 27.706 12.0638 28.731C12.0639 29.756 11.2329 30.5869 10.2079 30.5869Z" fill="white"/>
<path d="M24.3134 25.3902C22.4683 25.3902 20.9727 26.8859 20.9727 28.7309C20.9727 30.576 22.4684 32.0717 24.3134 32.0717C26.1584 32.0717 27.6542 30.5759 27.6542 28.7309C27.6542 26.8859 26.1585 25.3902 24.3134 25.3902ZM24.3134 30.5869C23.2884 30.5869 22.4575 29.756 22.4575 28.731C22.4575 27.706 23.2884 26.875 24.3134 26.875C25.3385 26.875 26.1694 27.706 26.1694 28.731C26.1694 29.756 25.3385 30.5869 24.3134 30.5869Z" fill="white"/>
<path d="M31.8487 5.90232C31.6941 5.73343 31.4826 5.62771 31.2548 5.60533L7.08988 5.27126L6.42174 3.22965C5.95103 1.86487 4.67299 0.943498 3.22941 0.928223H0.742396C0.332369 0.928223 0 1.26059 0 1.67062C0 2.08064 0.332369 2.41301 0.742396 2.41301H3.22941C4.0366 2.43085 4.74738 2.94915 5.01119 3.71222L9.72539 17.9291L9.35423 18.7828C8.94023 19.8504 9.06456 21.052 9.68831 22.0122C10.3061 22.9553 11.3454 23.5373 12.4723 23.5712H26.9119C27.3219 23.5712 27.6543 23.2389 27.6543 22.8288C27.6543 22.4188 27.3219 22.0864 26.9119 22.0864H12.4722C11.8358 22.0705 11.25 21.7357 10.9132 21.1956C10.5801 20.662 10.5117 20.0046 10.7276 19.4138L11.0246 18.7456L26.652 17.1123C28.3686 16.9233 29.7806 15.6748 30.1784 13.9943L31.9602 6.53324C32.0405 6.31838 31.9978 6.07675 31.8487 5.90232ZM28.7307 13.6603C28.4897 14.7421 27.5712 15.54 26.4664 15.6276L11.0246 17.2238L7.57245 6.75605L30.3268 7.09012L28.7307 13.6603Z" fill="white"/>
</g>
<defs>
<clipPath id="clip0">
<rect width="32" height="32" fill="white" transform="translate(0 0.5)"/>
</clipPath>
</defs>
</svg>
