<svg width="24" height="25" viewBox="0 0 24 25" fill="none" xmlns="http://www.w3.org/2000/svg">
<g clip-path="url(#clip0)">
<path d="M12 0.5C5.38332 0.5 0 5.88332 0 12.5C0 19.1167 5.38332 24.5 12 24.5C18.6167 24.5 24 19.1167 24 12.5C24 5.88332 18.6167 0.5 12 0.5ZM12 23C6.2102 23 1.50001 18.2898 1.50001 12.5C1.50001 6.7102 6.2102 2.00001 12 2.00001C17.7898 2.00001 22.5 6.7102 22.5 12.5C22.5 18.2898 17.7898 23 12 23Z" fill="#5F6A71"/>
<path d="M12.75 5H11.25V12.8105L15.9697 17.5302L17.0303 16.4697L12.75 12.1894V5Z" fill="#5F6A71"/>
</g>
<defs>
<clipPath id="clip0">
<rect width="24" height="24" fill="white" transform="translate(0 0.5)"/>
</clipPath>
</defs>
</svg>
