<svg width="25" height="25" viewBox="0 0 25 25" fill="none" xmlns="http://www.w3.org/2000/svg">
<g clip-path="url(#clip0)">
<path d="M14.0231 1.42206C13.8521 1.28106 13.6256 1.22256 13.4066 1.26306L1.40656 3.51306C1.05106 3.57906 0.794556 3.88806 0.794556 4.24956V20.7496C0.794556 21.1096 1.05106 21.4201 1.40656 21.4861L13.4066 23.7361C13.4516 23.7451 13.4996 23.7496 13.5446 23.7496C13.7171 23.7496 13.8881 23.6896 14.0231 23.5771C14.1956 23.4346 14.2946 23.2216 14.2946 22.9996V1.99956C14.2946 1.77606 14.1956 1.56456 14.0231 1.42206ZM12.7946 22.0951L2.29456 20.1271V4.87206L12.7946 2.90406V22.0951Z" fill="#5F6A71"/>
<path d="M24.0446 4.24956H13.5446C13.1306 4.24956 12.7946 4.58556 12.7946 4.99956C12.7946 5.41356 13.1306 5.74956 13.5446 5.74956H23.2946V19.2496H13.5446C13.1306 19.2496 12.7946 19.5856 12.7946 19.9996C12.7946 20.4136 13.1306 20.7496 13.5446 20.7496H24.0446C24.4586 20.7496 24.7946 20.4136 24.7946 19.9996V4.99956C24.7946 4.58556 24.4586 4.24956 24.0446 4.24956Z" fill="#5F6A71"/>
<path d="M16.5446 7.24956H13.5446C13.1306 7.24956 12.7946 7.58556 12.7946 7.99956C12.7946 8.41356 13.1306 8.74956 13.5446 8.74956H16.5446C16.9586 8.74956 17.2946 8.41356 17.2946 7.99956C17.2946 7.58556 16.9586 7.24956 16.5446 7.24956Z" fill="#5F6A71"/>
<path d="M16.5446 10.2496H13.5446C13.1306 10.2496 12.7946 10.5856 12.7946 10.9996C12.7946 11.4136 13.1306 11.7496 13.5446 11.7496H16.5446C16.9586 11.7496 17.2946 11.4136 17.2946 10.9996C17.2946 10.5856 16.9586 10.2496 16.5446 10.2496Z" fill="#5F6A71"/>
<path d="M16.5446 13.2496H13.5446C13.1306 13.2496 12.7946 13.5856 12.7946 13.9996C12.7946 14.4136 13.1306 14.7496 13.5446 14.7496H16.5446C16.9586 14.7496 17.2946 14.4136 17.2946 13.9996C17.2946 13.5856 16.9586 13.2496 16.5446 13.2496Z" fill="#5F6A71"/>
<path d="M16.5446 16.2496H13.5446C13.1306 16.2496 12.7946 16.5856 12.7946 16.9996C12.7946 17.4136 13.1306 17.7496 13.5446 17.7496H16.5446C16.9586 17.7496 17.2946 17.4136 17.2946 16.9996C17.2946 16.5856 16.9586 16.2496 16.5446 16.2496Z" fill="#5F6A71"/>
<path d="M21.0446 7.24956H19.5446C19.1306 7.24956 18.7946 7.58556 18.7946 7.99956C18.7946 8.41356 19.1306 8.74956 19.5446 8.74956H21.0446C21.4586 8.74956 21.7946 8.41356 21.7946 7.99956C21.7946 7.58556 21.4586 7.24956 21.0446 7.24956Z" fill="#5F6A71"/>
<path d="M21.0446 10.2496H19.5446C19.1306 10.2496 18.7946 10.5856 18.7946 10.9996C18.7946 11.4136 19.1306 11.7496 19.5446 11.7496H21.0446C21.4586 11.7496 21.7946 11.4136 21.7946 10.9996C21.7946 10.5856 21.4586 10.2496 21.0446 10.2496Z" fill="#5F6A71"/>
<path d="M21.0446 13.2496H19.5446C19.1306 13.2496 18.7946 13.5856 18.7946 13.9996C18.7946 14.4136 19.1306 14.7496 19.5446 14.7496H21.0446C21.4586 14.7496 21.7946 14.4136 21.7946 13.9996C21.7946 13.5856 21.4586 13.2496 21.0446 13.2496Z" fill="#5F6A71"/>
<path d="M21.0446 16.2496H19.5446C19.1306 16.2496 18.7946 16.5856 18.7946 16.9996C18.7946 17.4136 19.1306 17.7496 19.5446 17.7496H21.0446C21.4586 17.7496 21.7946 17.4136 21.7946 16.9996C21.7946 16.5856 21.4586 16.2496 21.0446 16.2496Z" fill="#5F6A71"/>
<path d="M11.1101 15.0061L5.86006 9.00606C5.58406 8.69256 5.11156 8.66256 4.80106 8.93556C4.48906 9.20856 4.45756 9.68256 4.73056 9.99306L9.98056 15.9931C10.1291 16.1626 10.3361 16.2496 10.5446 16.2496C10.7201 16.2496 10.8956 16.1881 11.0396 16.0636C11.3516 15.7906 11.3831 15.3181 11.1101 15.0061Z" fill="#5F6A71"/>
<path d="M11.0051 8.15856C10.6781 7.90206 10.2071 7.96356 9.95206 8.28906L4.70206 15.0391C4.44856 15.3661 4.50706 15.8386 4.83406 16.0921C4.97206 16.1986 5.13406 16.2496 5.29456 16.2496C5.51656 16.2496 5.73856 16.1506 5.88556 15.9616L11.1356 9.21156C11.3906 8.88306 11.3321 8.41206 11.0051 8.15856Z" fill="#5F6A71"/>
</g>
<defs>
<clipPath id="clip0">
<rect width="24" height="24" fill="white" transform="translate(0.794556 0.5)"/>
</clipPath>
</defs>
</svg>
