<svg width="25" height="25" viewBox="0 0 25 25" fill="none" xmlns="http://www.w3.org/2000/svg">
<g clip-path="url(#clip0)">
<path d="M24.7711 7.55607C24.7149 6.28085 24.5087 5.40416 24.2133 4.64449C23.9085 3.83812 23.4397 3.11617 22.8254 2.51602C22.2253 1.90652 21.4986 1.43292 20.7015 1.13294C19.9375 0.837529 19.0654 0.631312 17.7902 0.575088C16.5054 0.514102 16.0976 0.5 12.8391 0.5C9.58068 0.5 9.17282 0.514102 7.89285 0.570326C6.61764 0.626551 5.74094 0.832951 4.98146 1.12817C4.1749 1.43292 3.45296 1.90176 2.85281 2.51602C2.24331 3.11617 1.7699 3.84288 1.46973 4.63991C1.17432 5.40416 0.968104 6.27609 0.91188 7.5513C0.850894 8.83604 0.836792 9.2439 0.836792 12.5023C0.836792 15.7608 0.850894 16.1686 0.907118 17.4486C0.963342 18.7238 1.16974 19.6005 1.46515 20.3602C1.7699 21.1666 2.24331 21.8885 2.85281 22.4887C3.45296 23.0982 4.17966 23.5718 4.97669 23.8718C5.74094 24.1672 6.61288 24.3734 7.88827 24.4296C9.16806 24.486 9.5761 24.4999 12.8345 24.4999C16.093 24.4999 16.5008 24.486 17.7808 24.4296C19.056 24.3734 19.9327 24.1672 20.6922 23.8718C22.3051 23.2482 23.5803 21.9729 24.2039 20.3602C24.4992 19.596 24.7056 18.7238 24.7618 17.4486C24.818 16.1686 24.8321 15.7608 24.8321 12.5023C24.8321 9.2439 24.8274 8.83604 24.7711 7.55607ZM22.6099 17.3549C22.5582 18.527 22.3614 19.1599 22.1973 19.5819C21.794 20.6274 20.9642 21.4572 19.9186 21.8605C19.4967 22.0246 18.8591 22.2215 17.6916 22.2729C16.4258 22.3293 16.0461 22.3433 12.8439 22.3433C9.64166 22.3433 9.25725 22.3293 7.99596 22.2729C6.82385 22.2215 6.19092 22.0246 5.76896 21.8605C5.24866 21.6682 4.77506 21.3635 4.39064 20.9649C3.99213 20.5758 3.68738 20.1069 3.49508 19.5866C3.33099 19.1647 3.13411 18.527 3.08265 17.3596C3.02624 16.0937 3.01232 15.7139 3.01232 12.5117C3.01232 9.30946 3.02624 8.92505 3.08265 7.66394C3.13411 6.49183 3.33099 5.8589 3.49508 5.43694C3.68738 4.91645 3.99213 4.44303 4.39541 4.05843C4.7844 3.65992 5.25324 3.35517 5.77372 3.16306C6.19568 2.99896 6.83338 2.80209 8.00072 2.75044C9.26659 2.69422 9.64642 2.68011 12.8485 2.68011C16.0554 2.68011 16.4351 2.69422 17.6964 2.75044C18.8685 2.80209 19.5014 2.99896 19.9234 3.16306C20.4437 3.35517 20.9173 3.65992 21.3017 4.05843C21.7002 4.44761 22.005 4.91645 22.1973 5.43694C22.3614 5.8589 22.5582 6.49641 22.6099 7.66394C22.6661 8.92981 22.6802 9.30946 22.6802 12.5117C22.6802 15.7139 22.6661 16.089 22.6099 17.3549Z" fill="#5F6A71"/>
<path d="M12.8391 6.33695C9.43544 6.33695 6.67385 9.09835 6.67385 12.5022C6.67385 15.9061 9.43544 18.6675 12.8391 18.6675C16.243 18.6675 19.0044 15.9061 19.0044 12.5022C19.0044 9.09835 16.243 6.33695 12.8391 6.33695ZM12.8391 16.5015C10.631 16.5015 8.83986 14.7105 8.83986 12.5022C8.83986 10.2939 10.631 8.50296 12.8391 8.50296C15.0474 8.50296 16.8384 10.2939 16.8384 12.5022C16.8384 14.7105 15.0474 16.5015 12.8391 16.5015Z" fill="#5F6A71"/>
<path d="M20.6876 6.09331C20.6876 6.88814 20.0431 7.53262 19.2481 7.53262C18.4533 7.53262 17.8088 6.88814 17.8088 6.09331C17.8088 5.29829 18.4533 4.65399 19.2481 4.65399C20.0431 4.65399 20.6876 5.29829 20.6876 6.09331Z" fill="#5F6A71"/>
</g>
<defs>
<clipPath id="clip0">
<rect width="24" height="24" fill="white" transform="translate(0.794556 0.5)"/>
</clipPath>
</defs>
</svg>
