<svg width="24" height="25" viewBox="0 0 24 25" fill="none" xmlns="http://www.w3.org/2000/svg">
<g clip-path="url(#clip0)">
<path d="M21.3913 0.5H9.91304C8.47514 0.5 7.30436 1.67078 7.30436 3.10868V9.36954C7.30436 9.65754 7.53812 9.8913 7.82612 9.8913C8.11412 9.8913 8.34787 9.65754 8.34787 9.36954V3.10868C8.34787 2.24571 9.05012 1.54346 9.91309 1.54346H21.3914C22.2543 1.54346 22.9566 2.24571 22.9566 3.10868V21.8913C22.9566 22.7542 22.2543 23.4565 21.3914 23.4565H9.91304C9.05007 23.4565 8.34782 22.7542 8.34782 21.8913V15.6304C8.34782 15.3424 8.11407 15.1087 7.82607 15.1087C7.53807 15.1087 7.30431 15.3424 7.30431 15.6304V21.8913C7.30431 23.3292 8.47509 24.5 9.91299 24.5H21.3913C22.8292 24.5 23.9999 23.3292 23.9999 21.8913V3.10868C24 1.67078 22.8292 0.5 21.3913 0.5Z" fill="white"/>
<path d="M17.2174 11.9783H0.521755C0.233755 11.9783 0 12.212 0 12.5C0 12.788 0.233755 13.0217 0.521755 13.0217H17.2174C17.5054 13.0217 17.7391 12.788 17.7391 12.5C17.7391 12.212 17.5054 11.9783 17.2174 11.9783Z" fill="white"/>
<path d="M17.5858 12.1326L14.4553 9.00217C14.2518 8.79869 13.921 8.79869 13.7176 9.00217C13.5141 9.20565 13.5141 9.53645 13.7176 9.73992L16.4786 12.501L13.7176 15.262C13.5141 15.4655 13.5141 15.7963 13.7176 15.9998C13.8198 16.101 13.9534 16.1521 14.0869 16.1521C14.2205 16.1521 14.3541 16.101 14.4553 16.0008L17.5858 12.8704C17.7892 12.6669 17.7892 12.3361 17.5858 12.1326Z" fill="white"/>
</g>
<defs>
<clipPath id="clip0">
<rect width="24" height="24" fill="white" transform="translate(0 0.5)"/>
</clipPath>
</defs>
</svg>
