<svg width="25" height="25" viewBox="0 0 25 25" fill="none" xmlns="http://www.w3.org/2000/svg">
<g clip-path="url(#clip0)">
<path d="M13.5476 24.5H12.0414C10.8232 24.5 9.83201 23.5089 9.83201 22.2906V21.7811C9.31409 21.6156 8.81088 21.4067 8.32746 21.1565L7.96634 21.5177C7.0917 22.3934 5.69065 22.3677 4.84141 21.5173L3.77684 20.4528C2.9261 19.603 2.90163 18.2024 3.77712 17.3279L4.13796 16.967C3.88779 16.4836 3.67896 15.9805 3.51345 15.4625H3.00392C1.78573 15.4625 0.794556 14.4714 0.794556 13.2531V11.7469C0.794556 10.5286 1.78573 9.5375 3.00396 9.5375H3.51349C3.67901 9.01953 3.88784 8.51638 4.13801 8.03295L3.77688 7.67188C2.90192 6.79784 2.92606 5.39712 3.77717 4.54695L4.84184 3.48233C5.69304 2.62995 7.09376 2.60867 7.96671 3.48261L8.32751 3.84341C8.81093 3.59328 9.31413 3.38441 9.83206 3.21889V2.70936C9.83206 1.49112 10.8232 0.5 12.0415 0.5H13.5477C14.7659 0.5 15.7571 1.49112 15.7571 2.70936V3.21894C16.275 3.38441 16.7782 3.59328 17.2616 3.84345L17.6227 3.48233C18.4974 2.60661 19.8984 2.6323 20.7476 3.48266L21.8122 4.54719C22.663 5.39698 22.6874 6.79756 21.8119 7.67211L21.4511 8.03295C21.7013 8.51638 21.9101 9.01948 22.0756 9.5375H22.5851C23.8034 9.5375 24.7946 10.5286 24.7946 11.7469V13.2531C24.7946 14.4714 23.8034 15.4625 22.5851 15.4625H22.0756C21.9101 15.9805 21.7013 16.4836 21.4511 16.967L21.8122 17.3282C22.6872 18.2022 22.6631 19.6029 21.8119 20.4531L20.7473 21.5177C19.8961 22.3701 18.4954 22.3914 17.6224 21.5174L17.2616 21.1566C16.7782 21.4068 16.275 21.6156 15.7571 21.7812V22.2907C15.7571 23.5089 14.7659 24.5 13.5476 24.5ZM8.56254 19.6798C9.23412 20.077 9.95693 20.3771 10.7109 20.5716C11.0214 20.6518 11.2383 20.9318 11.2383 21.2525V22.2906C11.2383 22.7335 11.5986 23.0938 12.0415 23.0938H13.5477C13.9905 23.0938 14.3509 22.7335 14.3509 22.2906V21.2525C14.3509 20.9318 14.5678 20.6518 14.8783 20.5716C15.6322 20.3771 16.355 20.077 17.0266 19.6798C17.3029 19.5164 17.6547 19.5609 17.8818 19.7879L18.6171 20.5233C18.9342 20.8407 19.4434 20.8334 19.7526 20.5236L20.818 19.4584C21.1265 19.1502 21.1368 18.641 20.8182 18.3228L20.0825 17.5871C19.8556 17.3601 19.8111 17.0083 19.9745 16.732C20.3717 16.0605 20.6717 15.3377 20.8662 14.5837C20.9464 14.2732 21.2264 14.0563 21.5471 14.0563H22.5852C23.028 14.0563 23.3884 13.696 23.3884 13.2532V11.7469C23.3884 11.3041 23.028 10.9438 22.5852 10.9438H21.5471C21.2264 10.9438 20.9464 10.7269 20.8662 10.4164C20.6717 9.66242 20.3716 8.93961 19.9745 8.26808C19.8111 7.9918 19.8556 7.63995 20.0825 7.41298L20.818 6.67756C21.1359 6.36003 21.1276 5.85097 20.8182 5.54202L19.753 4.47678C19.4442 4.16759 18.935 4.15855 18.6175 4.4765L17.8818 5.2122C17.6548 5.43922 17.3029 5.48366 17.0267 5.32025C16.3551 4.92308 15.6323 4.62303 14.8783 4.42845C14.5678 4.34834 14.3509 4.06831 14.3509 3.74764V2.70936C14.3509 2.26653 13.9906 1.90625 13.5477 1.90625H12.0415C11.5987 1.90625 11.2384 2.26653 11.2384 2.70936V3.74755C11.2384 4.06822 11.0214 4.34825 10.7109 4.42836C9.95698 4.62294 9.23417 4.92298 8.56259 5.32016C8.28621 5.48352 7.93442 5.43908 7.70745 5.21211L6.97207 4.47669C6.65501 4.15925 6.14581 4.16661 5.83657 4.47636L4.77124 5.54164C4.46271 5.8498 4.4524 6.359 4.77096 6.67719L5.50667 7.41289C5.73363 7.63986 5.77807 7.9917 5.61471 8.26798C5.21754 8.93952 4.91754 9.66233 4.72296 10.4163C4.64281 10.7268 4.36277 10.9437 4.04215 10.9437H3.00396C2.56113 10.9437 2.20081 11.304 2.20081 11.7469V13.2531C2.20081 13.696 2.56113 14.0563 3.00396 14.0563H4.0421C4.36277 14.0563 4.64276 14.2732 4.72292 14.5836C4.91749 15.3376 5.21754 16.0604 5.61467 16.732C5.77802 17.0083 5.73359 17.3601 5.50662 17.5871L4.7712 18.3225C4.45329 18.64 4.46159 19.1491 4.77092 19.458L5.83615 20.5233C6.14492 20.8325 6.65417 20.8415 6.9717 20.5235L7.70735 19.7878C7.8746 19.6206 8.22256 19.4788 8.56254 19.6798Z" fill="#5F6A71"/>
<path d="M12.7945 17.7216C9.91512 17.7216 7.57263 15.3791 7.57263 12.4997C7.57263 9.62036 9.91512 7.27783 12.7945 7.27783C15.6739 7.27783 18.0164 9.62036 18.0164 12.4997C18.0164 15.3791 15.6739 17.7216 12.7945 17.7216ZM12.7945 8.68408C10.6905 8.68408 8.97888 10.3958 8.97888 12.4997C8.97888 14.6036 10.6906 16.3153 12.7945 16.3153C14.8984 16.3153 16.6101 14.6036 16.6101 12.4997C16.6101 10.3958 14.8985 8.68408 12.7945 8.68408Z" fill="#5F6A71"/>
</g>
<defs>
<clipPath id="clip0">
<rect width="24" height="24" fill="white" transform="translate(0.794556 0.5)"/>
</clipPath>
</defs>
</svg>
