<svg width="128" height="129" viewBox="0 0 128 129" fill="none" xmlns="http://www.w3.org/2000/svg">
<path d="M121.125 16.7683H87.3968C87.3613 16.7683 87.3268 16.7715 87.2917 16.7735C86.0557 15.6133 84.7278 14.536 83.3115 13.556C82.4595 12.9673 81.292 13.18 80.7025 14.031C80.1135 14.8825 80.326 16.0508 81.1775 16.64C89.4592 22.3695 94.4033 31.7938 94.4033 41.8495C94.4033 58.7403 80.6615 72.482 63.7707 72.482C46.8802 72.482 33.1385 58.7403 33.1385 41.8495C33.1385 24.959 46.8802 11.2173 63.7707 11.2173C67.1237 11.2173 70.419 11.755 73.5648 12.8158C74.5462 13.1475 75.61 12.6195 75.9405 11.6383C76.2715 10.657 75.7442 9.59328 74.763 9.26253C71.2302 8.07128 67.532 7.46729 63.7707 7.46729C44.8122 7.46729 29.3885 22.891 29.3885 41.8495C29.3885 60.808 44.8122 76.232 63.7707 76.232C82.7292 76.232 98.1533 60.808 98.1533 41.8495C98.1533 34.013 95.4762 26.52 90.7302 20.5183H121.125C122.848 20.5183 124.25 21.92 124.25 23.6433V82.6568H109.42C108.384 82.6568 107.545 83.496 107.545 84.5318C107.545 85.5675 108.384 86.4068 109.42 86.4068H124.25V96.2538C124.25 97.977 122.848 99.3788 121.125 99.3788H6.875C5.15175 99.3788 3.75 97.977 3.75 96.2538V86.4068H99.9765C101.012 86.4068 101.852 85.5675 101.852 84.5318C101.852 83.496 101.012 82.6568 99.9765 82.6568H3.75V23.6433C3.75 21.92 5.15175 20.5183 6.875 20.5183H29.2345C30.2703 20.5183 31.1095 19.679 31.1095 18.6433C31.1095 17.6075 30.2703 16.7683 29.2345 16.7683H6.875C3.084 16.7683 0 19.8525 0 23.6433V96.2535C0 100.044 3.084 103.129 6.875 103.129H47.974V117.782H42.3135C41.2777 117.782 40.4385 118.621 40.4385 119.657C40.4385 120.693 41.2777 121.532 42.3135 121.532H85.228C86.2637 121.532 87.103 120.693 87.103 119.657C87.103 118.621 86.2637 117.782 85.228 117.782H79.5675V103.129H121.125C124.916 103.129 128 100.044 128 96.2535V23.6433C128 19.8525 124.916 16.7683 121.125 16.7683ZM75.8177 117.782H51.724V103.129H75.8177V117.782Z" fill="#5F6A71"/>
<path d="M50.411 26.872C50.011 24.7523 48.155 23.2133 45.9975 23.2133H43.9925C42.9568 23.2133 42.1175 24.0525 42.1175 25.0883C42.1175 26.124 42.9568 26.9633 43.9925 26.9633H45.9975C46.3538 26.9633 46.66 27.2173 46.726 27.5675L52.275 56.9585C52.4423 57.8443 53.2163 58.4855 54.1175 58.4855H55.3825C54.8288 59.1045 54.489 59.9193 54.489 60.8153C54.489 62.7478 56.0558 64.3145 57.9883 64.3145C59.9208 64.3145 61.4875 62.7478 61.4875 60.8153C61.4875 59.9193 61.148 59.1045 60.594 58.4855H68.3075C67.7538 59.1045 67.414 59.9193 67.414 60.8153C67.414 62.7478 68.9808 64.3145 70.9133 64.3145C72.8458 64.3145 74.4125 62.7478 74.4125 60.8153C74.4125 59.9193 74.073 59.1045 73.519 58.4855H75.2063C76.242 58.4855 77.0813 57.6463 77.0813 56.6105C77.0813 55.5748 76.242 54.7355 75.2063 54.7355H55.671L54.906 50.6838H75.8605C76.7615 50.6838 77.5348 50.0433 77.7028 49.1578L81.0308 31.601C81.0328 31.5898 81.035 31.5785 81.0368 31.5673C81.1485 30.911 80.9668 30.243 80.5375 29.7343C80.1083 29.2255 79.4803 28.9338 78.8145 28.9338H50.8003L50.411 26.872ZM53.2075 41.6838H58.323L58.7068 46.9338H54.199L53.2075 41.6838ZM66.597 41.6838L66.2133 46.9338H62.4668L62.083 41.6838H66.597ZM61.809 37.9338L61.4253 32.684H67.2548L66.871 37.9338H61.809ZM69.9735 46.9338L70.3573 41.6838H75.3033L74.308 46.9338H69.9735ZM76.0143 37.9338H70.6315L71.0153 32.684H77.0095L76.0143 37.9338ZM57.665 32.684L58.0488 37.9338H52.4995L51.5083 32.684H57.665Z" fill="#5F6A71"/>
<path d="M12.2128 69.2747H23.303C24.3388 69.2747 25.178 68.4355 25.178 67.3997C25.178 66.364 24.3388 65.5247 23.303 65.5247H12.2128C11.177 65.5247 10.3378 66.364 10.3378 67.3997C10.3378 68.4355 11.177 69.2747 12.2128 69.2747Z" fill="#5F6A71"/>
<path d="M12.2128 77.7326H32.9063C33.942 77.7326 34.7813 76.8934 34.7813 75.8576C34.7813 74.8219 33.942 73.9826 32.9063 73.9826H12.2128C11.177 73.9826 10.3378 74.8219 10.3378 75.8576C10.3378 76.8934 11.177 77.7326 12.2128 77.7326Z" fill="#5F6A71"/>
<path d="M111.232 27.5923C110.196 27.5923 109.357 28.4315 109.357 29.4673V34.16H104.664C103.628 34.16 102.789 34.9993 102.789 36.035C102.789 37.0708 103.628 37.91 104.664 37.91H109.357V42.6028C109.357 43.6385 110.196 44.4778 111.232 44.4778C112.268 44.4778 113.107 43.6385 113.107 42.6028V37.91H117.799C118.835 37.91 119.674 37.0708 119.674 36.035C119.674 34.9993 118.835 34.16 117.799 34.16H113.107V29.4673C113.107 28.4318 112.267 27.5923 111.232 27.5923Z" fill="#5F6A71"/>
</svg>
