<svg width="25" height="25" viewBox="0 0 25 25" fill="none" xmlns="http://www.w3.org/2000/svg">
<g clip-path="url(#clip0)">
<path d="M24.424 2.88403C24.1308 2.52551 23.6918 2.32812 23.1875 2.32812C22.9134 2.32812 22.623 2.3858 22.3245 2.49988L2.00895 10.2549C0.930824 10.6664 0.785621 11.2838 0.79496 11.6152C0.804298 11.9467 0.984291 12.5549 2.08402 12.9048C2.09061 12.9069 2.09721 12.9089 2.1038 12.9107L6.31779 14.1166L8.59672 20.6334C8.90745 21.5218 9.6049 22.0737 10.4172 22.0737C10.9293 22.0737 11.433 21.8591 11.8739 21.4533L14.4804 19.0533L18.261 22.0975C18.2614 22.0978 18.2619 22.098 18.2623 22.0984L18.2982 22.1273C18.3015 22.1299 18.305 22.1326 18.3083 22.1352C18.7285 22.4611 19.1872 22.6332 19.6352 22.6334H19.6354C20.5108 22.6334 21.2079 21.9854 21.411 20.9827L24.7397 4.54645C24.8733 3.88672 24.7613 3.29639 24.424 2.88403ZM7.72752 13.8876L15.8576 9.73419L10.7953 15.1133C10.7123 15.2014 10.6535 15.3092 10.6246 15.4266L9.64848 19.3806L7.72752 13.8876ZM10.9212 20.4188C10.8876 20.4497 10.8537 20.4774 10.8198 20.5028L11.7254 16.8348L13.3728 18.1614L10.9212 20.4188ZM23.3614 4.26721L20.0328 20.7037C20.0007 20.861 19.8984 21.227 19.6352 21.227C19.5052 21.227 19.3419 21.1561 19.1747 21.0274L14.8908 17.5781C14.8902 17.5775 14.8895 17.577 14.8888 17.5766L12.3398 15.524L19.6605 7.74512C19.8949 7.49609 19.9161 7.11469 19.7109 6.84113C19.5054 6.56757 19.1332 6.48151 18.8287 6.63715L6.788 12.7884L2.5167 11.5663L22.826 3.81366C22.9976 3.74811 23.1173 3.73438 23.1875 3.73438C23.2305 3.73438 23.307 3.7395 23.3354 3.77448C23.3728 3.82007 23.4204 3.97552 23.3614 4.26721Z" fill="#5F6A71"/>
</g>
<defs>
<clipPath id="clip0">
<rect width="24" height="24" fill="white" transform="translate(0.794556 0.5)"/>
</clipPath>
</defs>
</svg>
