<svg width="25" height="25" viewBox="0 0 25 25" fill="none" xmlns="http://www.w3.org/2000/svg">
<g clip-path="url(#clip0)">
<path d="M12.7946 0.5C9.30523 0.5 6.46643 3.3388 6.46643 6.82812C6.46643 10.3175 9.30523 13.1562 12.7946 13.1562C16.2839 13.1562 19.1227 10.3175 19.1227 6.82812C19.1227 3.3388 16.2839 0.5 12.7946 0.5ZM12.7946 11.75C10.0806 11.75 7.87268 9.54205 7.87268 6.82812C7.87268 4.1142 10.0806 1.90625 12.7946 1.90625C15.5085 1.90625 17.7164 4.1142 17.7164 6.82812C17.7164 9.54205 15.5085 11.75 12.7946 11.75Z" fill="#5F6A71"/>
<path d="M20.668 17.2904C18.9355 15.5313 16.6387 14.5625 14.2008 14.5625H11.3883C8.95043 14.5625 6.65365 15.5313 4.92115 17.2904C3.19713 19.0409 2.24768 21.3515 2.24768 23.7969C2.24768 24.1852 2.56249 24.5 2.95081 24.5H22.6383C23.0266 24.5 23.3414 24.1852 23.3414 23.7969C23.3414 21.3515 22.392 19.0409 20.668 17.2904ZM3.68487 23.0938C4.03713 19.1053 7.35757 15.9688 11.3883 15.9688H14.2008C18.2315 15.9688 21.552 19.1053 21.9042 23.0938H3.68487Z" fill="#5F6A71"/>
</g>
<defs>
<clipPath id="clip0">
<rect width="24" height="24" fill="white" transform="translate(0.794556 0.5)"/>
</clipPath>
</defs>
</svg>
