<svg width="25" height="25" viewBox="0 0 25 25" fill="none" xmlns="http://www.w3.org/2000/svg">
<path fill-rule="evenodd" clip-rule="evenodd" d="M20.9589 4.50809C18.8539 2.40063 16.0545 1.23952 13.0721 1.23828C6.92662 1.23828 1.92509 6.23967 1.92262 12.3868C1.9218 14.3518 2.43513 16.27 3.41086 17.9608L1.8291 23.7383L7.73961 22.1878C9.36819 23.0762 11.2017 23.5444 13.0676 23.5449H13.0722C19.217 23.5449 24.2191 18.5431 24.2214 12.3957C24.2227 9.4165 23.064 6.6154 20.9589 4.50809ZM13.0721 21.662H13.0683C11.4055 21.6613 9.77469 21.2144 8.35168 20.3703L8.01344 20.1694L4.50606 21.0895L5.44223 17.6698L5.22182 17.3192C4.29416 15.8438 3.80431 14.1384 3.80513 12.3875C3.80705 7.27815 7.96428 3.12134 13.0758 3.12134C15.551 3.12216 17.8778 4.08731 19.6274 5.83894C21.3769 7.59057 22.3399 9.91885 22.3391 12.395C22.3369 17.5048 18.1799 21.662 13.0721 21.662ZM18.1552 14.7215C17.8767 14.582 16.507 13.9083 16.2515 13.8152C15.9964 13.7222 15.8104 13.6759 15.6249 13.9547C15.4391 14.2335 14.9053 14.8611 14.7427 15.0469C14.5801 15.2328 14.4178 15.2561 14.1391 15.1166C13.8605 14.9772 12.9629 14.6829 11.8988 13.7339C11.0707 12.9952 10.5116 12.0829 10.349 11.8041C10.1867 11.5251 10.3476 11.3888 10.4712 11.2356C10.7728 10.8611 11.0748 10.4684 11.1676 10.2826C11.2606 10.0967 11.214 9.93396 11.1443 9.79457C11.0748 9.65518 10.5176 8.28395 10.2856 7.72598C10.0592 7.18298 9.82976 7.25632 9.65864 7.2478C9.49632 7.2397 9.31051 7.23805 9.12471 7.23805C8.93904 7.23805 8.63719 7.30768 8.38176 7.58673C8.12646 7.86564 7.40686 8.53952 7.40686 9.91075C7.40686 11.282 8.4051 12.6067 8.54436 12.7926C8.68361 12.9785 10.5088 15.7924 13.3034 16.999C13.968 17.2863 14.4869 17.4575 14.8916 17.5859C15.559 17.798 16.1661 17.768 16.6462 17.6963C17.1815 17.6163 18.2943 17.0223 18.5267 16.3717C18.7588 15.7209 18.7588 15.1632 18.689 15.0469C18.6195 14.9307 18.4337 14.8611 18.1552 14.7215Z" fill="#5F6A71"/>
</svg>
