<?xml version="1.0" encoding="utf-8"?>
<!-- Generator: Adobe Illustrator 23.0.2, SVG Export Plug-In . SVG Version: 6.00 Build 0)  -->
<svg version="1.1" id="Capa_1" xmlns="http://www.w3.org/2000/svg" xmlns:xlink="http://www.w3.org/1999/xlink" x="0px" y="0px"
	 viewBox="0 0 512 512" style="enable-background:new 0 0 512 512;" xml:space="preserve">
<style type="text/css">
	.st0{fill:#FEC303;}
</style>
<g>
	<g>
		<g>
			<g>
				<path class="st0" d="M430.5,418.9h-349c-6.4,0-11.6,5.2-11.6,11.6l0,33.9c0,12.7,4.9,24.6,13.9,33.6c9,9,20.9,13.9,33.6,13.9
					h277.4c26.2,0,47.5-21.3,47.5-47.5v-34C442.2,424.1,437,418.9,430.5,418.9z"/>
				<path class="st0" d="M384,46.5c-7.1,0-14.4,0.7-22.2,2.2C335.2,17.7,297,0,256,0c-77,0-139.6,62.6-139.6,139.6
					c0,6.4-5.2,11.6-11.6,11.6c-6.4,0-11.6-5.2-11.6-11.6c0-25.2,5.8-49.6,17.2-72.4c2-4.1,1.5-8.9-1.3-12.5
					c-2.8-3.5-7.5-5.1-11.9-4C39.9,65,0,115.9,0,174.5c0,48.4,27.3,92.3,70.1,114.1L70,384c0,3.1,1.2,6,3.4,8.2
					c2.2,2.2,5.1,3.4,8.2,3.4h348.9c6.4,0,11.6-5.2,11.6-11.6v-95.6c42.7-21.8,69.8-65.7,69.8-113.9C512,104,454.6,46.5,384,46.5z
					 M170.3,323.2c-2.2,1.8-4.8,2.6-7.4,2.6c-3.4,0-6.7-1.5-9-4.3c-3.8-4.7-37.5-46.6-37.5-77.2c0-6.4,5.2-11.6,11.6-11.6
					c6.4,0,11.6,5.2,11.6,11.6c0,16.8,19.8,47.2,32.3,62.4C176,311.8,175.3,319.1,170.3,323.2z M267.6,314.2
					c0,6.4-5.2,11.6-11.6,11.6s-11.6-5.2-11.6-11.6v-69.8c0-6.4,5.2-11.6,11.6-11.6c6.4,0,11.6,5.2,11.6,11.6L267.6,314.2
					L267.6,314.2z M358.1,321.6c-2.3,2.8-5.6,4.3-9,4.3c-2.6,0-5.2-0.9-7.4-2.6c-5-4.1-5.7-11.4-1.6-16.4
					c12.5-15.2,32.3-45.7,32.3-62.4c0-6.4,5.2-11.6,11.6-11.6c6.4,0,11.6,5.2,11.6,11.6C395.6,274.9,361.9,316.9,358.1,321.6z"/>
			</g>
		</g>
	</g>
</g>
</svg>
