<?xml version="1.0" encoding="utf-8"?>
<!-- Generator: Adobe Illustrator 23.0.2, SVG Export Plug-In . SVG Version: 6.00 Build 0)  -->
<svg version="1.1" id="Capa_1" xmlns="http://www.w3.org/2000/svg" xmlns:xlink="http://www.w3.org/1999/xlink" x="0px" y="0px"
	 viewBox="0 0 512 512" style="enable-background:new 0 0 512 512;" xml:space="preserve">
<style type="text/css">
	.st0{fill:#FEC303;}
</style>
<g>
	<g id="XMLID_913_">
		<circle id="XMLID_915_" class="st0" cx="196.6" cy="82.5" r="44.1"/>
		<path id="XMLID_953_" class="st0" d="M454.9,390.9c-1.7-8.5-21.7-11.9-46.7-8.6L359,136.4l14.9,10.8c4.9,3.5,11.7,2.4,15.2-2.5
			c3.5-4.9,2.4-11.7-2.5-15.2L365,113.9l4.7-9.2c5.3-10.5,1.1-23.3-9.4-28.6c-10.5-5.3-23.3-1.1-28.6,9.4l-1.6,3.2l-13.3-9.6
			c1.3-8.5-2.1-17.5-9.6-22.9c-10.7-7.7-25.6-5.3-33.3,5.4s-5.3,25.6,5.4,33.3c7.5,5.4,17.1,5.8,24.7,1.9l16.1,11.6l-14.8,29.3
			l-53.2-2.4c-5.5-0.2-11,0-16.4,0.8l-61.1,9L123,100.6L98.7,15.5C95.5,4.2,83.7-2.4,72.4,0.8C61.1,4,54.6,15.8,57.8,27.1l26,91.3
			c1.1,4,3.4,7.6,6.6,10.3l65.5,56.5l23.3,144l0.3-0.1l8,69.7l-54.1,72.3c-8.5,11.3-6.1,27.3,5.2,35.8c11.3,8.5,27.3,6.1,35.8-5.2
			l60.2-80.4c3.9-5.2,5.7-11.7,4.9-18.2l-9.4-82.2l10.5-1.7l50.9,63.2l-20.5,98.8c-2.9,13.8,6,27.3,19.8,30.2
			c13.8,2.9,27.3-6,30.2-19.8L343.9,381c1.5-7.5-0.3-15.3-5.1-21.2L288.2,297l-19.2-118.3l48.1,2.2c8.6,0.4,16.3-4.4,20-11.7
			l4.5-8.8l45.3,226.2c-24.3,6.6-41.5,17.4-39.7,25.9c1.9,9.7,27.6,12.8,57.4,6.8C434.3,413.3,456.9,400.6,454.9,390.9z"/>
	</g>
</g>
</svg>
