<svg width="388" height="162" viewBox="0 0 388 162" fill="none" xmlns="http://www.w3.org/2000/svg">
<path opacity="0.4" d="M176.91 148.701C161.72 145.714 147.977 137.694 137.896 125.933C127.814 114.173 121.981 99.3568 121.337 83.8727C120.692 68.3886 125.274 53.1382 134.343 40.5788C143.412 28.0194 156.441 18.8824 171.329 14.6403C186.218 10.3982 202.1 11.2978 216.416 17.1944C230.732 23.0909 242.648 33.6409 250.244 47.1444C257.84 60.6479 260.673 76.3184 258.288 91.6308C255.903 106.943 248.438 121.006 237.095 131.553L234.75 129.025C245.526 119.006 252.618 105.646 254.884 91.0993C257.15 76.5524 254.457 61.6655 247.241 48.8372C240.025 36.0089 228.705 25.9864 215.105 20.3847C201.505 14.7829 186.417 13.9282 172.273 17.9583C158.128 21.9883 145.751 30.6684 137.135 42.5998C128.52 54.5313 124.167 69.0192 124.78 83.7291C125.392 98.4389 130.933 112.514 140.511 123.686C150.088 134.859 163.144 142.478 177.574 145.316L176.91 148.701Z" fill="#E02929"/>
<path opacity="0.2" d="M250.937 80.9999C250.937 94.6593 246.344 107.921 237.897 118.648C229.45 129.375 217.641 136.943 204.374 140.131C191.107 143.32 177.154 141.944 164.763 136.226C152.372 130.507 142.266 120.778 136.071 108.608C129.877 96.4372 127.956 82.5331 130.618 69.1361C133.28 55.7392 140.369 43.6295 150.744 34.7584C161.119 25.8873 174.176 20.7714 187.809 20.2351C201.443 19.6988 214.86 23.7734 225.898 31.8022L224.113 34.2621C213.626 26.6347 200.88 22.7639 187.928 23.2734C174.977 23.7828 162.573 28.6429 152.717 37.0704C142.861 45.498 136.125 57.0022 133.597 69.7293C131.068 82.4565 132.893 95.6653 138.777 107.227C144.662 118.79 154.264 128.032 166.035 133.464C177.806 138.897 191.061 140.204 203.665 137.175C216.269 134.145 227.487 126.956 235.512 116.766C243.536 106.575 247.9 93.9764 247.9 80.9999H250.937Z" fill="#E02929"/>
<path opacity="0.8" d="M175.55 29.4562C187.114 26.163 199.45 26.8637 210.568 31.4452C221.687 36.0267 230.941 44.2223 236.839 54.7114C242.737 65.2004 244.936 77.3721 243.082 89.265C241.228 101.158 235.428 112.08 226.617 120.27C217.806 128.46 206.497 133.443 194.513 134.414C182.529 135.385 170.567 132.289 160.555 125.624C150.543 118.959 143.064 109.113 139.323 97.6735C135.582 86.234 135.797 73.8667 139.933 62.5645L142.446 63.4862C138.517 74.2234 138.313 85.9723 141.867 96.8399C145.421 107.707 152.526 117.061 162.037 123.392C171.548 129.724 182.912 132.666 194.297 131.743C205.682 130.82 216.426 126.087 224.796 118.306C233.166 110.526 238.676 100.15 240.438 88.8518C242.199 77.5535 240.11 65.9904 234.507 56.0258C228.903 46.0612 220.112 38.2754 209.55 33.9229C198.987 29.5705 187.268 28.9049 176.282 32.0334L175.55 29.4562Z" fill="#E02929"/>
<path opacity="0.6" d="M144.37 93.2923C141.612 82.9877 142.4 72.0536 146.606 62.2519C150.813 52.4502 158.193 44.3517 167.557 39.2613C176.922 34.1709 187.726 32.3852 198.228 34.1918C208.73 35.9984 218.319 41.2922 225.449 49.2201C232.58 57.148 236.836 67.2484 237.533 77.8936C238.23 88.5388 235.327 99.109 229.291 107.901C223.256 116.693 214.439 123.194 204.262 126.358C194.086 129.521 183.141 129.163 173.193 125.339L174.043 123.122C183.494 126.754 193.891 127.095 203.559 124.09C213.227 121.084 221.603 114.908 227.336 106.556C233.07 98.2035 235.828 88.1619 235.166 78.0489C234.504 67.936 230.46 58.3406 223.687 50.8091C216.913 43.2776 207.804 38.2485 197.827 36.5322C187.849 34.8159 177.586 36.5124 168.689 41.3482C159.793 46.1841 152.782 53.8777 148.786 63.1893C144.789 72.5009 144.041 82.8883 146.661 92.6776L144.37 93.2923Z" fill="#E02929"/>
<rect x="148.503" y="44.0698" width="5.60257" height="66.5054" fill="white"/>
<path d="M175.836 57.2108H176.676C177.29 57.2108 177.81 57.0105 178.237 56.6098C178.664 56.2092 178.877 55.7017 178.877 55.0874V45.4722H183.999V53.9656C183.999 55.1141 183.786 56.1825 183.359 57.1707C182.959 58.1589 182.372 59.0403 181.598 59.8149C182.372 60.5895 182.959 61.4842 183.359 62.4992C183.786 63.4874 183.999 64.5424 183.999 65.6642V74.1176H178.877V64.5825C178.877 63.9682 178.664 63.4473 178.237 63.02C177.81 62.5926 177.29 62.379 176.676 62.379H175.836V57.2108ZM173.755 45.4722H168.632V74.1176H173.755V45.4722Z" fill="white"/>
<path d="M193.875 74.1176C193.208 74.1176 192.581 73.9974 191.994 73.757C191.407 73.4899 190.887 73.1427 190.433 72.7154C190.006 72.288 189.659 71.7805 189.393 71.1929C189.152 70.6053 189.032 69.9777 189.032 69.31V50.3199C189.032 49.6521 189.152 49.0245 189.393 48.4369C189.659 47.8493 190.006 47.3418 190.433 46.9145C190.887 46.4604 191.407 46.1132 191.994 45.8728C192.581 45.6057 193.208 45.4722 193.875 45.4722H197.156V50.6003H196.316C195.702 50.6003 195.182 50.814 194.755 51.2413C194.355 51.6687 194.155 52.1895 194.155 52.8038V66.9062C194.155 67.467 194.355 67.9745 194.755 68.4286C195.182 68.8559 195.702 69.0696 196.316 69.0696H197.156V74.1176H193.875ZM199.477 45.4722C200.144 45.4722 200.771 45.6057 201.358 45.8728C201.972 46.1132 202.492 46.4604 202.919 46.9145C203.372 47.3418 203.732 47.8493 203.999 48.4369C204.266 49.0245 204.399 49.6521 204.399 50.3199V69.31C204.266 70.6721 203.772 71.8206 202.919 72.7554C202.065 73.6635 200.918 74.1176 199.477 74.1176H199.237V45.4722H199.477Z" fill="white"/>
<path d="M219.637 45.4722H224.799V74.1176H219.637V45.4722ZM214.555 74.1176H209.432V45.4722H214.555L217.596 51.3214V64.6225L214.555 58.7733V74.1176Z" fill="white"/>
<path d="M229.832 45.4722H245.2V50.6003H240.157V74.1176H235.035V50.6003H229.832V45.4722Z" fill="white"/>
<path d="M255.435 45.4722V74.1176H250.232V45.4722H255.435ZM257.476 62.379H258.356C258.916 62.379 259.41 62.5926 259.837 63.02C260.29 63.4473 260.517 63.9682 260.517 64.5825V74.1176H265.6V64.0616C265.546 63.02 265.293 62.1653 264.839 61.4976C264.412 60.8031 263.879 60.2423 263.238 59.8149C263.985 59.4143 264.559 58.8133 264.959 58.012C265.386 57.1841 265.6 56.2092 265.6 55.0874V50.3199C265.6 49.6521 265.466 49.0245 265.199 48.4369C264.959 47.8493 264.612 47.3418 264.159 46.9145C263.732 46.4604 263.225 46.1132 262.638 45.8728C262.051 45.6057 261.424 45.4722 260.757 45.4722H257.476V50.6003H258.356C258.916 50.6003 259.41 50.814 259.837 51.2413C260.29 51.6687 260.517 52.1895 260.517 52.8038V55.0874C260.517 55.7017 260.29 56.2092 259.837 56.6098C259.41 57.0105 258.916 57.2108 258.356 57.2108H257.476V62.379Z" fill="white"/>
<path d="M275.475 45.4722H278.756V50.6003H277.916C277.302 50.6003 276.782 50.814 276.355 51.2413C275.955 51.6687 275.755 52.1895 275.755 52.8038V57.2108H278.756V62.379H275.755V74.1176H270.632V50.3199C270.632 49.6521 270.753 49.0245 270.993 48.4369C271.259 47.8493 271.606 47.3418 272.033 46.9145C272.487 46.4604 273.007 46.1132 273.594 45.8728C274.181 45.6057 274.808 45.4722 275.475 45.4722ZM280.877 45.4722H286V74.1176H280.877V45.4722Z" fill="white"/>
<path d="M298.276 57.2108H299.156C299.717 57.2108 300.21 57.0105 300.637 56.6098C301.09 56.2092 301.317 55.7017 301.317 55.0874V52.8038C301.317 52.1895 301.09 51.6687 300.637 51.2413C300.21 50.814 299.717 50.6003 299.156 50.6003H298.276V45.4722H301.557C302.224 45.4722 302.851 45.6057 303.438 45.8728C304.025 46.1132 304.532 46.4604 304.959 46.9145C305.412 47.3418 305.759 47.8493 305.999 48.4369C306.266 49.0245 306.4 49.6521 306.4 50.3199V55.0874C306.4 56.2092 306.186 57.1841 305.759 58.012C305.359 58.8133 304.772 59.4143 303.998 59.8149C304.665 60.2423 305.212 60.8031 305.639 61.4976C306.093 62.1653 306.346 63.02 306.4 64.0616V69.31C306.4 69.9777 306.266 70.6053 305.999 71.1929C305.759 71.7805 305.412 72.288 304.959 72.7154C304.532 73.1427 304.025 73.4899 303.438 73.757C302.851 73.9974 302.224 74.1176 301.557 74.1176H298.276V69.0696H299.156C299.717 69.0696 300.21 68.8559 300.637 68.4286C301.09 67.9745 301.317 67.467 301.317 66.9062V64.5825C301.317 63.9682 301.09 63.4473 300.637 63.02C300.21 62.5926 299.717 62.379 299.156 62.379H298.276V57.2108ZM291.033 45.4722V74.1176H296.235V45.4722H291.033Z" fill="white"/>
<path d="M316.275 45.4722H319.556V50.6003H318.716C318.102 50.6003 317.582 50.814 317.155 51.2413C316.755 51.6687 316.555 52.1895 316.555 52.8038V57.2108H319.556V62.379H316.555V74.1176H311.433V50.3199C311.433 49.6521 311.553 49.0245 311.793 48.4369C312.06 47.8493 312.406 47.3418 312.833 46.9145C313.287 46.4604 313.807 46.1132 314.394 45.8728C314.981 45.6057 315.608 45.4722 316.275 45.4722ZM321.677 45.4722H326.8V74.1176H321.677V45.4722Z" fill="white"/>
<path d="M342.037 45.4722H347.2V74.1176H342.037V45.4722ZM336.955 74.1176H331.833V45.4722H336.955L339.996 51.3214V64.6225L336.955 58.7733V74.1176Z" fill="white"/>
<path d="M362.517 52.8038C362.517 52.1895 362.291 51.6687 361.837 51.2413C361.41 50.814 360.917 50.6003 360.356 50.6003H359.476V45.4722H362.757C363.424 45.4722 364.051 45.6057 364.638 45.8728C365.225 46.1132 365.732 46.4604 366.159 46.9145C366.613 47.3418 366.959 47.8493 367.2 48.4369C367.466 49.0245 367.6 49.6521 367.6 50.3199V69.31C367.6 69.9777 367.466 70.6053 367.2 71.1929C366.959 71.7805 366.613 72.288 366.159 72.7154C365.732 73.1427 365.225 73.4899 364.638 73.757C364.051 73.9974 363.424 74.1176 362.757 74.1176H359.476V69.0696H360.356C360.917 69.0696 361.41 68.8559 361.837 68.4286C362.291 67.9745 362.517 67.467 362.517 66.9062V52.8038ZM352.233 45.4722V74.1176H357.435V45.4722H352.233Z" fill="white"/>
<path d="M377.475 45.4722H380.756V50.6003H379.916C379.302 50.6003 378.782 50.814 378.355 51.2413C377.955 51.6687 377.755 52.1895 377.755 52.8038V57.2108H380.756V62.379H377.755V74.1176H372.633V50.3199C372.633 49.6521 372.753 49.0245 372.993 48.4369C373.26 47.8493 373.606 47.3418 374.033 46.9145C374.487 46.4604 375.007 46.1132 375.594 45.8728C376.181 45.6057 376.808 45.4722 377.475 45.4722ZM382.877 45.4722H388V74.1176H382.877V45.4722Z" fill="white"/>
<path d="M173.475 110.976C172.808 110.976 172.181 110.856 171.594 110.615C171.007 110.348 170.487 110.001 170.033 109.574C169.606 109.146 169.259 108.639 168.992 108.051C168.752 107.464 168.632 106.836 168.632 106.168V87.1783C168.632 86.5105 168.752 85.8829 168.992 85.2953C169.259 84.7077 169.606 84.2002 170.033 83.7729C170.487 83.3188 171.007 82.9716 171.594 82.7312C172.181 82.4641 172.808 82.3306 173.475 82.3306H176.756V87.4587H175.916C175.302 87.4587 174.782 87.6724 174.355 88.0997C173.955 88.5271 173.755 89.0479 173.755 89.6622V103.765C173.755 104.325 173.955 104.833 174.355 105.287C174.782 105.714 175.302 105.928 175.916 105.928H176.756V110.976H173.475ZM179.077 82.3306C179.744 82.3306 180.371 82.4641 180.958 82.7312C181.572 82.9716 182.092 83.3188 182.519 83.7729C182.972 84.2002 183.332 84.7077 183.599 85.2953C183.866 85.8829 183.999 86.5105 183.999 87.1783V106.168C183.866 107.531 183.372 108.679 182.519 109.614C181.665 110.522 180.518 110.976 179.077 110.976H178.837V82.3306H179.077Z" fill="white"/>
<path d="M193.955 82.3306H194.235V110.976H193.955C192.514 110.976 191.367 110.522 190.513 109.614C189.659 108.679 189.166 107.531 189.032 106.168V87.1783C189.032 86.5105 189.166 85.8829 189.433 85.2953C189.699 84.7077 190.059 84.2002 190.513 83.7729C190.967 83.3188 191.487 82.9716 192.074 82.7312C192.661 82.4641 193.288 82.3306 193.955 82.3306ZM204.479 94.0692L204.439 106.168C204.439 106.836 204.306 107.464 204.039 108.051C203.799 108.639 203.452 109.146 202.999 109.574C202.572 110.001 202.052 110.348 201.438 110.615C200.851 110.856 200.224 110.976 199.557 110.976H196.236V105.928H197.156C197.77 105.928 198.29 105.714 198.717 105.287C199.144 104.833 199.357 104.325 199.357 103.765V99.1973H196.236V94.0692H204.479ZM199.357 90.5035V89.6622C199.357 89.0479 199.144 88.5271 198.717 88.0997C198.29 87.6724 197.77 87.4587 197.156 87.4587H196.236V82.3306H199.557C200.224 82.3306 200.851 82.4641 201.438 82.7312C202.052 82.9716 202.572 83.3188 202.999 83.7729C203.452 84.2002 203.799 84.7077 204.039 85.2953C204.306 85.8829 204.439 86.5105 204.439 87.1783V90.5035H199.357Z" fill="white"/>
<path d="M214.353 110.976C213.686 110.976 213.059 110.856 212.472 110.615C211.885 110.348 211.365 110.001 210.911 109.574C210.484 109.146 210.138 108.639 209.871 108.051C209.631 107.464 209.511 106.836 209.511 106.168V87.1783C209.511 86.5105 209.631 85.8829 209.871 85.2953C210.138 84.7077 210.484 84.2002 210.911 83.7729C211.365 83.3188 211.885 82.9716 212.472 82.7312C213.059 82.4641 213.686 82.3306 214.353 82.3306H217.634V87.4587H216.794C216.18 87.4587 215.66 87.6724 215.233 88.0997C214.833 88.5271 214.633 89.0479 214.633 89.6622V103.765C214.633 104.325 214.833 104.833 215.233 105.287C215.66 105.714 216.18 105.928 216.794 105.928H217.634V110.976H214.353ZM219.955 82.3306C220.622 82.3306 221.249 82.4641 221.836 82.7312C222.45 82.9716 222.97 83.3188 223.397 83.7729C223.851 84.2002 224.211 84.7077 224.477 85.2953C224.744 85.8829 224.878 86.5105 224.878 87.1783V106.168C224.744 107.531 224.251 108.679 223.397 109.614C222.543 110.522 221.396 110.976 219.955 110.976H219.715V82.3306H219.955Z" fill="white"/>
<path d="M235.113 82.3306V110.976H229.911V82.3306H235.113ZM237.154 99.2374H238.034C238.595 99.2374 239.088 99.451 239.515 99.8784C239.969 100.306 240.195 100.827 240.195 101.441V110.976H245.278V100.92C245.224 99.8784 244.971 99.0237 244.517 98.356C244.09 97.6615 243.557 97.1006 242.917 96.6733C243.664 96.2727 244.237 95.6717 244.637 94.8704C245.064 94.0425 245.278 93.0676 245.278 91.9458V87.1783C245.278 86.5105 245.144 85.8829 244.877 85.2953C244.637 84.7077 244.291 84.2002 243.837 83.7729C243.41 83.3188 242.903 82.9716 242.316 82.7312C241.729 82.4641 241.102 82.3306 240.435 82.3306H237.154V87.4587H238.034C238.595 87.4587 239.088 87.6724 239.515 88.0997C239.969 88.5271 240.195 89.0479 240.195 89.6622V91.9458C240.195 92.5601 239.969 93.0676 239.515 93.4682C239.088 93.8689 238.595 94.0692 238.034 94.0692H237.154V99.2374Z" fill="white"/>
<path d="M255.153 110.976C254.486 110.976 253.859 110.856 253.272 110.615C252.685 110.348 252.165 110.001 251.711 109.574C251.284 109.146 250.938 108.639 250.671 108.051C250.431 107.464 250.311 106.836 250.311 106.168V87.1783C250.311 86.5105 250.431 85.8829 250.671 85.2953C250.938 84.7077 251.284 84.2002 251.711 83.7729C252.165 83.3188 252.685 82.9716 253.272 82.7312C253.859 82.4641 254.486 82.3306 255.153 82.3306H258.434V87.4587H257.594C256.98 87.4587 256.46 87.6724 256.033 88.0997C255.633 88.5271 255.433 89.0479 255.433 89.6622V103.765C255.433 104.325 255.633 104.833 256.033 105.287C256.46 105.714 256.98 105.928 257.594 105.928H258.434V110.976H255.153ZM260.755 82.3306C261.422 82.3306 262.049 82.4641 262.636 82.7312C263.25 82.9716 263.77 83.3188 264.197 83.7729C264.651 84.2002 265.011 84.7077 265.278 85.2953C265.544 85.8829 265.678 86.5105 265.678 87.1783V106.168C265.544 107.531 265.051 108.679 264.197 109.614C263.343 110.522 262.196 110.976 260.755 110.976H260.515V82.3306H260.755Z" fill="white"/>
<path d="M280.995 89.6622C280.995 89.0479 280.769 88.5271 280.315 88.0997C279.888 87.6724 279.395 87.4587 278.834 87.4587H277.954V82.3306H281.236C281.902 82.3306 282.529 82.4641 283.116 82.7312C283.703 82.9716 284.21 83.3188 284.637 83.7729C285.091 84.2002 285.437 84.7077 285.678 85.2953C285.944 85.8829 286.078 86.5105 286.078 87.1783V106.168C286.078 106.836 285.944 107.464 285.678 108.051C285.437 108.639 285.091 109.146 284.637 109.574C284.21 110.001 283.703 110.348 283.116 110.615C282.529 110.856 281.902 110.976 281.236 110.976H277.954V105.928H278.834C279.395 105.928 279.888 105.714 280.315 105.287C280.769 104.833 280.995 104.325 280.995 103.765V89.6622ZM270.711 82.3306V110.976H275.913V82.3306H270.711Z" fill="white"/>
<path d="M301.315 82.3306H306.478V110.976H301.315V82.3306ZM296.233 110.976H291.111V82.3306H296.233L299.274 88.1798V101.481L296.233 95.6317V110.976Z" fill="white"/>
<path d="M311.511 82.3306H316.553V110.976H311.511V82.3306Z" fill="white"/>
<path d="M328.797 94.0692H329.637C330.251 94.0692 330.771 93.8689 331.198 93.4682C331.625 93.0676 331.838 92.5601 331.838 91.9458V82.3306H336.961V90.824C336.961 91.9725 336.747 93.0409 336.32 94.0291C335.92 95.0173 335.333 95.8987 334.559 96.6733C335.333 97.4479 335.92 98.3426 336.32 99.3576C336.747 100.346 336.961 101.401 336.961 102.523V110.976H331.838V101.441C331.838 100.827 331.625 100.306 331.198 99.8784C330.771 99.451 330.251 99.2374 329.637 99.2374H328.797V94.0692ZM326.716 82.3306H321.594V110.976H326.716V82.3306Z" fill="white"/>
<path d="M341.994 82.3306H347.036V110.976H341.994V82.3306Z" fill="white"/>
<path d="M0.092843 55.3645C0.092843 53.8154 0.371371 52.3593 0.928429 50.996C1.54738 49.6328 2.35202 48.4555 3.34234 47.464C4.39456 46.4106 5.60152 45.6051 6.96321 45.0474C8.32491 44.4277 9.77944 44.1179 11.3268 44.1179H24.3248C25.8722 44.1179 27.3267 44.4277 28.6884 45.0474C30.112 45.6051 31.3499 46.4106 32.4021 47.464C33.4544 48.4555 34.259 49.6328 34.8161 50.996C35.435 52.3593 35.7445 53.8154 35.7445 55.3645V63.0792H23.7678V61.1273C23.7678 59.7021 23.2726 58.4938 22.2823 57.5023C21.3538 56.5109 20.1778 56.0152 18.7542 56.0152H16.9902C15.6285 56.0152 14.4525 56.5109 13.4622 57.5023C12.4719 58.4938 11.9767 59.7021 11.9767 61.1273V61.3132L18.9399 68.749V87.8032L5.66341 73.1175C4.23982 71.4444 2.94002 69.6165 1.76401 67.6336C0.6499 65.6507 0.092843 63.8228 0.092843 62.1497V55.3645ZM18.7542 98.2133C20.1159 98.2133 21.292 97.7176 22.2823 96.7261C23.3345 95.7347 23.8606 94.5264 23.8606 93.1012V73.954L30.0811 80.4603C31.5047 82.1334 32.7735 83.9614 33.8876 85.9442C35.0636 87.9271 35.6516 89.7861 35.6516 91.5211V98.8639C35.6516 100.475 35.3422 101.962 34.7232 103.325C34.1662 104.689 33.3615 105.866 32.3093 106.857C31.319 107.849 30.143 108.654 28.7813 109.274C27.4196 109.832 25.965 110.111 24.4177 110.111H11.4197C9.81039 110.111 8.32491 109.832 6.96321 109.274C5.60152 108.654 4.39456 107.849 3.34234 106.857C2.29012 105.866 1.45454 104.689 0.835586 103.325C0.278529 101.962 0 100.475 0 98.8639V91.1493H12.0696V93.1012C12.0696 94.5264 12.5338 95.7347 13.4622 96.7261C14.3906 97.7176 15.5666 98.2133 16.9902 98.2133H18.7542Z" fill="white"/>
<path d="M47.5116 55.3645C47.5116 53.8154 47.7901 52.3593 48.3472 50.996C48.9661 49.6328 49.7708 48.4555 50.7611 47.464C51.8133 46.4106 53.0203 45.6051 54.382 45.0474C55.7436 44.4277 57.1982 44.1179 58.7456 44.1179H71.7436C73.2909 44.1179 74.7455 44.4277 76.1072 45.0474C77.5308 45.6051 78.7687 46.4106 79.8209 47.464C80.8731 48.4555 81.6777 49.6328 82.2348 50.996C82.8537 52.3593 83.1632 53.8154 83.1632 55.3645V63.0792H71.1865V61.1273C71.1865 59.7021 70.6913 58.4938 69.701 57.5023C68.7726 56.5109 67.5966 56.0152 66.173 56.0152H64.409C63.0473 56.0152 61.8713 56.5109 60.8809 57.5023C59.8906 58.4938 59.3955 59.7021 59.3955 61.1273V61.3132L66.3587 68.749V87.8032L53.0822 73.1175C51.6586 71.4444 50.3588 69.6165 49.1828 67.6336C48.0686 65.6507 47.5116 63.8228 47.5116 62.1497V55.3645ZM66.173 98.2133C67.5347 98.2133 68.7107 97.7176 69.701 96.7261C70.7532 95.7347 71.2793 94.5264 71.2793 93.1012V73.954L77.4998 80.4603C78.9234 82.1334 80.1923 83.9614 81.3064 85.9442C82.4824 87.9271 83.0704 89.7861 83.0704 91.5211V98.8639C83.0704 100.475 82.7609 101.962 82.142 103.325C81.5849 104.689 80.7803 105.866 79.728 106.857C78.7377 107.849 77.5617 108.654 76.2 109.274C74.8383 109.832 73.3838 110.111 71.8364 110.111H58.8384C57.2291 110.111 55.7436 109.832 54.382 109.274C53.0203 108.654 51.8133 107.849 50.7611 106.857C49.7089 105.866 48.8733 104.689 48.2543 103.325C47.6973 101.962 47.4187 100.475 47.4187 98.8639V91.1493H59.4883V93.1012C59.4883 94.5264 59.9525 95.7347 60.8809 96.7261C61.8094 97.7176 62.9854 98.2133 64.409 98.2133H66.173Z" fill="white"/>
<path d="M106.257 44.1179H106.907V110.575H106.257C102.915 110.575 100.253 109.522 98.2727 107.415C96.292 105.246 95.1469 102.582 94.8375 99.4216V55.3645C94.8375 53.8154 95.147 52.3593 95.7659 50.996C96.3849 49.6328 97.2204 48.4555 98.2727 47.464C99.3249 46.4106 100.532 45.6051 101.894 45.0474C103.255 44.4277 104.71 44.1179 106.257 44.1179ZM130.675 71.3515L130.582 99.4216C130.582 100.971 130.272 102.427 129.654 103.79C129.096 105.153 128.292 106.331 127.24 107.322C126.249 108.314 125.042 109.119 123.619 109.739C122.257 110.296 120.803 110.575 119.255 110.575H111.549V98.8639H113.685C115.108 98.8639 116.315 98.3682 117.305 97.3768C118.296 96.3234 118.791 95.146 118.791 93.8448V83.2488H111.549V71.3515H130.675ZM118.791 63.0792V61.1273C118.791 59.7021 118.296 58.4938 117.305 57.5023C116.315 56.5109 115.108 56.0152 113.685 56.0152H111.549V44.1179H119.255C120.803 44.1179 122.257 44.4277 123.619 45.0474C125.042 45.6051 126.249 46.4106 127.24 47.464C128.292 48.4555 129.096 49.6328 129.654 50.996C130.272 52.3593 130.582 53.8154 130.582 55.3645V63.0792H118.791Z" fill="white"/>
</svg>
