<svg width="48" height="48" viewBox="0 0 48 48" fill="none" xmlns="http://www.w3.org/2000/svg">
<path fill-rule="evenodd" clip-rule="evenodd" d="M16.64 0H31.36C44.8 0 48 3.2 48 16.64V31.36C48 44.8 44.8 48 31.36 48H16.64C3.2 48 0 44.8 0 31.36V16.64C0 3.2 3.2 0 16.64 0Z" fill="white"/>
<path fill-rule="evenodd" clip-rule="evenodd" d="M39.3087 16.5366C39.5311 15.7949 39.3087 15.25 38.2503 15.25H34.7503C33.8604 15.25 33.4501 15.7207 33.2276 16.2398C33.2276 16.2398 31.4477 20.5782 28.9263 23.3963C28.1105 24.212 27.7397 24.4716 27.2947 24.4716C27.0723 24.4716 26.7502 24.212 26.7502 23.4705V16.5366C26.7502 15.6466 26.492 15.25 25.7503 15.25H20.2503C19.6942 15.25 19.3597 15.663 19.3597 16.0545C19.3597 16.8981 20.6204 17.0927 20.7503 19.4658V24.62C20.7503 25.75 20.5462 25.9549 20.1013 25.9549C18.9147 25.9549 16.0285 21.5971 14.3167 16.6107C13.9813 15.6415 13.6448 15.25 12.7503 15.25H9.2503C8.2503 15.25 8.05029 15.7207 8.05029 16.2398C8.05029 17.1669 9.23687 21.7648 13.5752 27.8459C16.4674 31.9988 20.5423 34.25 24.2503 34.25C26.4751 34.25 26.7503 33.75 26.7503 32.8887V29.75C26.7503 28.75 26.9611 28.5504 27.6656 28.5504C28.1847 28.5504 29.0746 28.81 31.1511 30.8123C33.5242 33.1854 33.9155 34.25 35.2503 34.25H38.7503C39.7503 34.25 40.2503 33.75 39.9619 32.7633C39.6462 31.7799 38.5132 30.353 37.0098 28.6617C36.194 27.6976 34.9704 26.6594 34.5995 26.1402C34.0804 25.4728 34.2287 25.1761 34.5995 24.5829C34.5995 24.5829 38.8638 18.5759 39.3087 16.5366Z" fill="#0A0A0A"/>
</svg>
