<svg width="1110" height="264" viewBox="0 0 1110 264" fill="none" xmlns="http://www.w3.org/2000/svg">
<path opacity="0.4" d="M288.401 242.219C263.638 237.355 241.234 224.299 224.799 205.152C208.364 186.006 198.855 161.885 197.805 136.677C196.754 111.469 204.223 86.6405 219.007 66.1935C233.792 45.7465 255.031 30.8714 279.303 23.9651C303.575 17.0588 329.466 18.5235 352.804 28.1232C376.142 37.7229 395.567 54.8986 407.95 76.8825C420.334 98.8665 424.953 124.378 421.065 149.307C417.176 174.236 405.006 197.131 386.516 214.301L382.693 210.186C400.259 193.874 411.82 172.125 415.514 148.442C419.208 124.759 414.82 100.523 403.056 79.6384C391.292 58.7536 372.838 42.4368 350.667 33.3171C328.496 24.1973 303.899 22.8059 280.841 29.3669C257.783 35.9279 237.605 50.0592 223.56 69.4838C209.514 88.9085 202.419 112.495 203.417 136.443C204.416 160.391 213.449 183.306 229.062 201.495C244.676 219.684 265.959 232.088 289.484 236.708L288.401 242.219Z" fill="#E02929"/>
<path opacity="0.2" d="M409.081 132C409.081 154.238 401.593 175.828 387.823 193.292C374.052 210.756 354.802 223.076 333.174 228.267C311.546 233.459 288.799 231.219 268.6 221.909C248.4 212.599 231.924 196.76 221.826 176.946C211.728 157.132 208.596 134.496 212.935 112.686C217.275 90.875 228.832 71.1601 245.746 56.7178C262.659 42.2754 283.944 33.9467 306.169 33.0736C328.395 32.2005 350.267 38.834 368.262 51.9051L365.352 55.9098C348.257 43.4923 327.478 37.1905 306.364 38.0199C285.249 38.8493 265.029 46.7616 248.961 60.4819C232.894 74.2021 221.914 92.9312 217.792 113.651C213.669 134.371 216.644 155.876 226.237 174.699C235.83 193.522 251.483 208.569 270.672 217.413C289.862 226.258 311.471 228.386 332.018 223.454C352.565 218.522 370.853 206.818 383.934 190.227C397.016 173.637 404.13 153.126 404.13 132H409.081Z" fill="#E02929"/>
<path opacity="0.8" d="M286.183 48.0854C305.036 42.724 325.145 43.8647 343.271 51.3235C361.396 58.7823 376.482 72.1249 386.097 89.2013C395.713 106.278 399.298 126.093 396.275 145.455C393.252 164.817 383.797 182.598 369.433 195.932C355.07 209.266 336.634 217.378 317.097 218.959C297.56 220.54 278.06 215.499 261.738 204.648C245.417 193.797 233.224 177.769 227.126 159.145C221.027 140.521 221.378 120.387 228.121 101.986L232.218 103.487C225.812 120.967 225.479 140.095 231.272 157.787C237.066 175.48 248.649 190.707 264.154 201.016C279.66 211.324 298.185 216.113 316.745 214.611C335.305 213.109 352.819 205.403 366.464 192.736C380.11 180.068 389.092 163.177 391.964 144.783C394.836 126.389 391.43 107.564 382.295 91.3413C373.161 75.1187 358.829 62.4432 341.61 55.3573C324.391 48.2714 305.287 47.1878 287.377 52.2811L286.183 48.0854Z" fill="#E02929"/>
<path opacity="0.6" d="M235.354 152.012C230.858 135.236 232.142 117.435 238.999 101.478C245.857 85.5204 257.888 72.3359 273.154 64.0486C288.421 55.7614 306.034 52.8542 323.154 55.7954C340.275 58.7366 355.907 67.355 367.531 80.2619C379.155 93.1687 386.094 109.612 387.23 126.943C388.366 144.274 383.633 161.482 373.794 175.795C363.954 190.109 349.581 200.693 332.991 205.843C316.401 210.994 298.559 210.41 282.342 204.186L283.727 200.576C299.134 206.489 316.084 207.044 331.845 202.151C347.605 197.259 361.259 187.203 370.607 173.606C379.954 160.008 384.451 143.66 383.371 127.196C382.292 110.732 375.7 95.1102 364.657 82.8488C353.614 70.5873 338.764 62.3998 322.499 59.6056C306.235 56.8115 289.503 59.5733 275 67.4462C260.496 75.3191 249.067 87.8444 242.552 103.004C236.038 118.164 234.818 135.074 239.089 151.012L235.354 152.012Z" fill="#E02929"/>
<rect x="242.092" y="71.8769" width="9.13341" height="108.272" fill="white"/>
<path d="M307.576 121.51H310.754C313.075 121.51 315.042 120.753 316.657 119.24C318.271 117.727 319.079 115.81 319.079 113.49V77.1732H338.452V109.253C338.452 113.591 337.645 117.626 336.03 121.359C334.517 125.091 332.297 128.42 329.371 131.346C332.297 134.271 334.517 137.651 336.03 141.484C337.645 145.217 338.452 149.202 338.452 153.439V185.367H319.079V149.353C319.079 147.033 318.271 145.066 316.657 143.452C315.042 141.837 313.075 141.03 310.754 141.03H307.576V121.51ZM299.705 77.1732H280.332V185.367H299.705V77.1732Z" fill="white"/>
<path d="M375.801 185.367C373.278 185.367 370.907 184.913 368.687 184.005C366.467 182.997 364.5 181.685 362.784 180.071C361.17 178.457 359.858 176.54 358.849 174.321C357.941 172.102 357.487 169.731 357.487 167.209V95.483C357.487 92.9609 357.941 90.5903 358.849 88.3709C359.858 86.1515 361.17 84.2348 362.784 82.6207C364.5 80.9058 366.467 79.5943 368.687 78.6864C370.907 77.6776 373.278 77.1732 375.801 77.1732H388.212V96.5422H385.033C382.712 96.5422 380.745 97.3492 379.13 98.9633C377.617 100.577 376.86 102.545 376.86 104.865V158.13C376.86 160.248 377.617 162.165 379.13 163.88C380.745 165.494 382.712 166.301 385.033 166.301H388.212V185.367H375.801ZM396.99 77.1732C399.513 77.1732 401.884 77.6776 404.104 78.6864C406.424 79.5943 408.392 80.9058 410.007 82.6207C411.722 84.2348 413.084 86.1515 414.093 88.3709C415.102 90.5903 415.607 92.9609 415.607 95.483V167.209C415.102 172.354 413.235 176.692 410.007 180.222C406.778 183.652 402.439 185.367 396.99 185.367H396.082V77.1732H396.99Z" fill="white"/>
<path d="M473.237 77.1732H492.761V185.367H473.237V77.1732ZM454.015 185.367H434.642V77.1732H454.015L465.518 99.266V149.504L454.015 127.412V185.367Z" fill="white"/>
<path d="M511.796 77.1732H569.916V96.5422H550.846V185.367H531.472V96.5422H511.796V77.1732Z" fill="white"/>
<path d="M608.627 77.1732V185.367H588.951V77.1732H608.627ZM616.346 141.03H619.676C621.795 141.03 623.662 141.837 625.276 143.452C626.991 145.066 627.849 147.033 627.849 149.353V185.367H647.071V147.386C646.869 143.452 645.911 140.223 644.195 137.701C642.581 135.078 640.563 132.96 638.141 131.346C640.966 129.833 643.136 127.563 644.649 124.536C646.264 121.409 647.071 117.727 647.071 113.49V95.483C647.071 92.9609 646.566 90.5903 645.557 88.3709C644.649 86.1515 643.338 84.2348 641.622 82.6207C640.008 80.9058 638.091 79.5943 635.871 78.6864C633.651 77.6776 631.28 77.1732 628.757 77.1732H616.346V96.5422H619.676C621.795 96.5422 623.662 97.3492 625.276 98.9633C626.991 100.577 627.849 102.545 627.849 104.865V113.49C627.849 115.81 626.991 117.727 625.276 119.24C623.662 120.753 621.795 121.51 619.676 121.51H616.346V141.03Z" fill="white"/>
<path d="M684.42 77.1732H696.831V96.5422H693.652C691.332 96.5422 689.364 97.3492 687.75 98.9633C686.236 100.577 685.479 102.545 685.479 104.865V121.51H696.831V141.03H685.479V185.367H666.106V95.483C666.106 92.9609 666.56 90.5903 667.468 88.3709C668.477 86.1515 669.789 84.2348 671.403 82.6207C673.119 80.9058 675.086 79.5943 677.306 78.6864C679.526 77.6776 681.897 77.1732 684.42 77.1732ZM704.853 77.1732H724.226V185.367H704.853V77.1732Z" fill="white"/>
<path d="M770.656 121.51H773.986C776.105 121.51 777.971 120.753 779.586 119.24C781.301 117.727 782.159 115.81 782.159 113.49V104.865C782.159 102.545 781.301 100.577 779.586 98.9633C777.971 97.3492 776.105 96.5422 773.986 96.5422H770.656V77.1732H783.067C785.589 77.1732 787.961 77.6776 790.18 78.6864C792.4 79.5943 794.318 80.9058 795.932 82.6207C797.647 84.2348 798.959 86.1515 799.867 88.3709C800.876 90.5903 801.381 92.9609 801.381 95.483V113.49C801.381 117.727 800.573 121.409 798.959 124.536C797.445 127.563 795.226 129.833 792.299 131.346C794.822 132.96 796.891 135.078 798.505 137.701C800.22 140.223 801.179 143.452 801.381 147.386V167.209C801.381 169.731 800.876 172.102 799.867 174.321C798.959 176.54 797.647 178.457 795.932 180.071C794.318 181.685 792.4 182.997 790.18 184.005C787.961 184.913 785.589 185.367 783.067 185.367H770.656V166.301H773.986C776.105 166.301 777.971 165.494 779.586 163.88C781.301 162.165 782.159 160.248 782.159 158.13V149.353C782.159 147.033 781.301 145.066 779.586 143.452C777.971 141.837 776.105 141.03 773.986 141.03H770.656V121.51ZM743.261 77.1732V185.367H762.937V77.1732H743.261Z" fill="white"/>
<path d="M838.729 77.1732H851.141V96.5422H847.962C845.641 96.5422 843.674 97.3492 842.059 98.9633C840.546 100.577 839.789 102.545 839.789 104.865V121.51H851.141V141.03H839.789V185.367H820.416V95.483C820.416 92.9609 820.87 90.5903 821.778 88.3709C822.787 86.1515 824.099 84.2348 825.713 82.6207C827.428 80.9058 829.396 79.5943 831.616 78.6864C833.836 77.6776 836.207 77.1732 838.729 77.1732ZM859.162 77.1732H878.535V185.367H859.162V77.1732Z" fill="white"/>
<path d="M936.166 77.1732H955.69V185.367H936.166V77.1732ZM916.944 185.367H897.57V77.1732H916.944L928.447 99.266V149.504L916.944 127.412V185.367Z" fill="white"/>
<path d="M1013.62 104.865C1013.62 102.545 1012.77 100.577 1011.05 98.9633C1009.44 97.3492 1007.57 96.5422 1005.45 96.5422H1002.12V77.1732H1014.53C1017.05 77.1732 1019.43 77.6776 1021.64 78.6864C1023.86 79.5943 1025.78 80.9058 1027.4 82.6207C1029.11 84.2348 1030.42 86.1515 1031.33 88.3709C1032.34 90.5903 1032.85 92.9609 1032.85 95.483V167.209C1032.85 169.731 1032.34 172.102 1031.33 174.321C1030.42 176.54 1029.11 178.457 1027.4 180.071C1025.78 181.685 1023.86 182.997 1021.64 184.005C1019.43 184.913 1017.05 185.367 1014.53 185.367H1002.12V166.301H1005.45C1007.57 166.301 1009.44 165.494 1011.05 163.88C1012.77 162.165 1013.62 160.248 1013.62 158.13V104.865ZM974.725 77.1732V185.367H994.401V77.1732H974.725Z" fill="white"/>
<path d="M1070.19 77.1732H1082.6V96.5422H1079.43C1077.11 96.5422 1075.14 97.3492 1073.52 98.9633C1072.01 100.577 1071.25 102.545 1071.25 104.865V121.51H1082.6V141.03H1071.25V185.367H1051.88V95.483C1051.88 92.9609 1052.33 90.5903 1053.24 88.3709C1054.25 86.1515 1055.56 84.2348 1057.18 82.6207C1058.89 80.9058 1060.86 79.5943 1063.08 78.6864C1065.3 77.6776 1067.67 77.1732 1070.19 77.1732ZM1090.63 77.1732H1110V185.367H1090.63V77.1732Z" fill="white"/>
<path d="M0.151354 90.2649C0.151354 87.7429 0.605414 85.3722 1.51354 83.1528C2.52256 80.9335 3.83429 79.0167 5.44873 77.4027C7.16407 75.6877 9.13166 74.3762 11.3515 73.4683C13.5714 72.4595 15.9426 71.9551 18.4651 71.9551H39.6546C42.1772 71.9551 44.5484 72.4595 46.7682 73.4683C49.089 74.3762 51.107 75.6877 52.8224 77.4027C54.5377 79.0167 55.8494 80.9335 56.7576 83.1528C57.7666 85.3722 58.2711 87.7429 58.2711 90.2649V102.824H38.7465V99.6468C38.7465 97.3265 37.9393 95.3593 36.3248 93.7453C34.8113 92.1312 32.8942 91.3241 30.5734 91.3241H27.6977C25.4778 91.3241 23.5607 92.1312 21.9463 93.7453C20.3318 95.3593 19.5246 97.3265 19.5246 99.6468V99.9494L30.8761 112.055V143.076L9.23256 119.167C6.91181 116.443 4.79286 113.467 2.87572 110.239C1.05947 107.011 0.151354 104.035 0.151354 101.311V90.2649ZM30.5734 160.024C32.7933 160.024 34.7104 159.217 36.3248 157.602C38.0402 155.988 38.8979 154.021 38.8979 151.701V120.529L49.0385 131.121C51.3593 133.845 53.4278 136.821 55.244 140.049C57.1612 143.277 58.1197 146.304 58.1197 149.129V161.083C58.1197 163.706 57.6152 166.127 56.6062 168.346C55.6981 170.566 54.3864 172.482 52.671 174.096C51.0566 175.71 49.1394 177.022 46.9196 178.031C44.6997 178.939 42.3285 179.393 39.806 179.393H18.6165C15.993 179.393 13.5714 178.939 11.3515 178.031C9.13166 177.022 7.16407 175.71 5.44873 174.096C3.73339 172.482 2.37121 170.566 1.36218 168.346C0.454061 166.127 0 163.706 0 161.083V148.523H19.676V151.701C19.676 154.021 20.4327 155.988 21.9463 157.602C23.4598 159.217 25.3769 160.024 27.6977 160.024H30.5734Z" fill="white"/>
<path d="M77.454 90.2649C77.454 87.7429 77.908 85.3722 78.8162 83.1528C79.8252 80.9335 81.1369 79.0167 82.7513 77.4027C84.4667 75.6877 86.4343 74.3762 88.6541 73.4683C90.874 72.4595 93.2452 71.9551 95.7677 71.9551H116.957C119.48 71.9551 121.851 72.4595 124.071 73.4683C126.392 74.3762 128.41 75.6877 130.125 77.4027C131.84 79.0167 133.152 80.9335 134.06 83.1528C135.069 85.3722 135.574 87.7429 135.574 90.2649V102.824H116.049V99.6468C116.049 97.3265 115.242 95.3593 113.627 93.7453C112.114 92.1312 110.197 91.3241 107.876 91.3241H105C102.78 91.3241 100.863 92.1312 99.2489 93.7453C97.6344 95.3593 96.8272 97.3265 96.8272 99.6468V99.9494L108.179 112.055V143.076L86.5352 119.167C84.2144 116.443 82.0955 113.467 80.1783 110.239C78.3621 107.011 77.454 104.035 77.454 101.311V90.2649ZM107.876 160.024C110.096 160.024 112.013 159.217 113.627 157.602C115.343 155.988 116.2 154.021 116.2 151.701V120.529L126.341 131.121C128.662 133.845 130.73 136.821 132.547 140.049C134.464 143.277 135.422 146.304 135.422 149.129V161.083C135.422 163.706 134.918 166.127 133.909 168.346C133.001 170.566 131.689 172.482 129.974 174.096C128.359 175.71 126.442 177.022 124.222 178.031C122.002 178.939 119.631 179.393 117.109 179.393H95.9191C93.2956 179.393 90.874 178.939 88.6541 178.031C86.4343 177.022 84.4667 175.71 82.7513 174.096C81.036 172.482 79.6738 170.566 78.6648 168.346C77.7567 166.127 77.3026 163.706 77.3026 161.083V148.523H96.9786V151.701C96.9786 154.021 97.7353 155.988 99.2489 157.602C100.762 159.217 102.68 160.024 105 160.024H107.876Z" fill="white"/>
<path d="M173.222 71.9551H174.281V180.149H173.222C167.773 180.149 163.434 178.434 160.205 175.004C156.976 171.473 155.11 167.136 154.605 161.991V90.2649C154.605 87.7429 155.11 85.3722 156.119 83.1528C157.128 80.9335 158.49 79.0167 160.205 77.4027C161.921 75.6877 163.888 74.3762 166.108 73.4683C168.328 72.4595 170.699 71.9551 173.222 71.9551ZM213.028 116.292L212.876 161.991C212.876 164.513 212.372 166.883 211.363 169.103C210.455 171.322 209.143 173.239 207.428 174.853C205.813 176.467 203.846 177.779 201.525 178.787C199.305 179.695 196.934 180.149 194.411 180.149H181.849V161.083H185.33C187.651 161.083 189.618 160.276 191.233 158.662C192.847 156.947 193.654 155.03 193.654 152.912V135.661H181.849V116.292H213.028ZM193.654 102.824V99.6468C193.654 97.3265 192.847 95.3593 191.233 93.7453C189.618 92.1312 187.651 91.3241 185.33 91.3241H181.849V71.9551H194.411C196.934 71.9551 199.305 72.4595 201.525 73.4683C203.846 74.3762 205.813 75.6877 207.428 77.4027C209.143 79.0167 210.455 80.9335 211.363 83.1528C212.372 85.3722 212.876 87.7429 212.876 90.2649V102.824H193.654Z" fill="white"/>
</svg>
