<svg width="1110" height="308" viewBox="0 0 1110 308" fill="none" xmlns="http://www.w3.org/2000/svg">
<path opacity="0.4" d="M335.184 282.317C306.405 276.664 280.367 261.486 261.266 239.229C242.165 216.972 231.113 188.932 229.892 159.628C228.671 130.324 237.351 101.462 254.534 77.6929C271.717 53.9239 296.402 36.632 324.611 28.6036C352.821 20.5752 382.911 22.2779 410.035 33.4373C437.159 44.5967 459.735 64.5629 474.127 90.1186C488.519 115.674 493.888 145.331 489.369 174.31C484.85 203.29 470.706 229.904 449.216 249.864L444.773 245.08C465.188 226.118 478.625 200.835 482.918 173.304C487.211 145.774 482.111 117.6 468.438 93.3222C454.766 69.0443 433.318 50.0764 407.551 39.475C381.783 28.8736 353.197 27.256 326.398 34.883C299.599 42.51 276.149 58.9372 259.825 81.5178C243.501 104.098 235.255 131.517 236.415 159.356C237.575 187.195 248.074 213.833 266.22 234.977C284.366 256.121 309.102 270.54 336.443 275.911L335.184 282.317Z" fill="#E02929"/>
<path opacity="0.2" d="M475.441 154.191C475.441 180.042 466.738 205.14 450.734 225.441C434.73 245.743 412.357 260.064 387.22 266.099C362.084 272.134 335.647 269.53 312.171 258.707C288.695 247.885 269.546 229.473 257.809 206.44C246.073 183.407 242.434 157.093 247.477 131.739C252.52 106.384 265.953 83.4665 285.61 66.6777C305.267 49.8888 330.004 40.2069 355.835 39.192C381.666 38.1771 407.087 45.8883 428 61.083L424.618 65.7384C404.75 51.3034 380.6 43.9778 356.061 44.9419C331.522 45.9061 308.021 55.1039 289.347 71.0533C270.673 87.0027 257.912 108.775 253.121 132.861C248.33 156.948 251.787 181.946 262.937 203.828C274.086 225.709 292.278 243.2 314.58 253.482C336.883 263.763 361.997 266.237 385.877 260.504C409.757 254.771 431.011 241.165 446.215 221.879C461.419 202.593 469.687 178.75 469.687 154.191H475.441Z" fill="#E02929"/>
<path opacity="0.8" d="M332.607 56.6427C354.518 50.4103 377.89 51.7363 398.955 60.407C420.021 69.0776 437.554 84.588 448.729 104.439C459.905 124.29 464.071 147.325 460.558 169.833C457.044 192.341 446.056 213.01 429.362 228.511C412.668 244.011 391.242 253.44 368.536 255.278C345.83 257.116 323.167 251.256 304.197 238.642C285.228 226.029 271.058 207.396 263.97 185.746C256.882 164.096 257.289 140.691 265.126 119.301L269.888 121.046C262.442 141.366 262.055 163.601 268.789 184.168C275.522 204.736 288.984 222.437 307.005 234.42C325.026 246.403 346.556 251.97 368.127 250.224C389.698 248.478 410.053 239.52 425.912 224.795C441.77 210.069 452.21 190.433 455.548 169.051C458.885 147.668 454.927 125.785 444.311 106.927C433.694 88.0682 417.038 73.3333 397.025 65.0962C377.013 56.859 354.81 55.5994 333.994 61.5202L332.607 56.6427Z" fill="#E02929"/>
<path opacity="0.6" d="M273.532 177.455C268.307 157.953 269.799 137.26 277.769 118.71C285.739 100.16 299.722 84.8333 317.465 75.1996C335.208 65.5659 355.677 62.1864 375.575 65.6055C395.473 69.0246 413.641 79.0432 427.15 94.047C440.66 109.051 448.725 128.166 450.045 148.312C451.366 168.459 445.865 188.463 434.429 205.102C422.994 221.741 406.289 234.045 387.008 240.032C367.726 246.019 346.991 245.34 328.142 238.105L329.753 233.909C347.659 240.783 367.358 241.428 385.675 235.74C403.993 230.052 419.862 218.363 430.726 202.556C441.589 186.75 446.815 167.745 445.56 148.606C444.306 129.467 436.645 111.308 423.81 97.0542C410.976 82.8006 393.717 73.2829 374.814 70.0347C355.911 66.7866 336.465 69.9972 319.609 79.1492C302.753 88.3012 289.469 102.862 281.898 120.484C274.327 138.107 272.909 157.765 277.873 176.292L273.532 177.455Z" fill="#E02929"/>
<rect x="281.364" y="84.2997" width="10.615" height="125.864" fill="white"/>
<path d="M347.091 216.229C344.16 216.229 341.404 215.701 338.824 214.646C336.244 213.473 333.957 211.949 331.964 210.072C330.087 208.196 328.563 205.968 327.39 203.388C326.335 200.808 325.807 198.052 325.807 195.12V111.741C325.807 108.809 326.335 106.053 327.39 103.473C328.563 100.893 330.087 98.6653 331.964 96.789C333.957 94.7954 336.244 93.2709 338.824 92.2154C341.404 91.0427 344.16 90.4564 347.091 90.4564H361.516V112.972H357.822C355.124 112.972 352.838 113.91 350.961 115.787C349.202 117.663 348.323 119.95 348.323 122.647V184.566C348.323 187.029 349.202 189.257 350.961 191.25C352.838 193.127 355.124 194.065 357.822 194.065H361.516V216.229H347.091ZM371.718 90.4564C374.65 90.4564 377.406 91.0427 379.986 92.2154C382.683 93.2709 384.97 94.7954 386.846 96.789C388.84 98.6653 390.423 100.893 391.596 103.473C392.768 106.053 393.355 108.809 393.355 111.741V195.12C392.768 201.101 390.599 206.144 386.846 210.248C383.093 214.235 378.051 216.229 371.718 216.229H370.663V90.4564H371.718Z" fill="white"/>
<path d="M437.114 90.4564H438.345V216.229H437.114C430.781 216.229 425.739 214.235 421.986 210.248C418.233 206.144 416.064 201.101 415.478 195.12V111.741C415.478 108.809 416.064 106.053 417.237 103.473C418.409 100.893 419.992 98.6653 421.986 96.789C423.98 94.7954 426.266 93.2709 428.846 92.2154C431.426 91.0427 434.182 90.4564 437.114 90.4564ZM483.377 141.997L483.201 195.12C483.201 198.052 482.615 200.808 481.442 203.388C480.387 205.968 478.862 208.196 476.869 210.072C474.992 211.949 472.706 213.473 470.008 214.646C467.428 215.701 464.673 216.229 461.741 216.229H447.141V194.065H451.186C453.884 194.065 456.17 193.127 458.047 191.25C459.923 189.257 460.861 187.029 460.861 184.566V164.513H447.141V141.997H483.377ZM460.861 126.341V122.647C460.861 119.95 459.923 117.663 458.047 115.787C456.17 113.91 453.884 112.972 451.186 112.972H447.141V90.4564H461.741C464.673 90.4564 467.428 91.0427 470.008 92.2154C472.706 93.2709 474.992 94.7954 476.869 96.789C478.862 98.6653 480.387 100.893 481.442 103.473C482.615 106.053 483.201 108.809 483.201 111.741V126.341H460.861Z" fill="white"/>
<path d="M526.776 216.229C523.845 216.229 521.089 215.701 518.509 214.646C515.929 213.473 513.642 211.949 511.648 210.072C509.772 208.196 508.248 205.968 507.075 203.388C506.019 200.808 505.492 198.052 505.492 195.12V111.741C505.492 108.809 506.019 106.053 507.075 103.473C508.248 100.893 509.772 98.6653 511.648 96.789C513.642 94.7954 515.929 93.2709 518.509 92.2154C521.089 91.0427 523.845 90.4564 526.776 90.4564H541.201V112.972H537.507C534.809 112.972 532.523 113.91 530.646 115.787C528.887 117.663 528.008 119.95 528.008 122.647V184.566C528.008 187.029 528.887 189.257 530.646 191.25C532.523 193.127 534.809 194.065 537.507 194.065H541.201V216.229H526.776ZM551.403 90.4564C554.335 90.4564 557.091 91.0427 559.671 92.2154C562.368 93.2709 564.655 94.7954 566.531 96.789C568.525 98.6653 570.108 100.893 571.28 103.473C572.453 106.053 573.04 108.809 573.04 111.741V195.12C572.453 201.101 570.284 206.144 566.531 210.248C562.778 214.235 557.736 216.229 551.403 216.229H550.348V90.4564H551.403Z" fill="white"/>
<path d="M618.03 90.4564V216.229H595.162V90.4564H618.03ZM627.001 164.689H630.871C633.334 164.689 635.503 165.627 637.38 167.503C639.373 169.379 640.37 171.666 640.37 174.363V216.229H662.71V172.077C662.476 167.503 661.362 163.75 659.368 160.819C657.492 157.77 655.146 155.307 652.332 153.431C655.615 151.672 658.137 149.033 659.896 145.515C661.772 141.879 662.71 137.599 662.71 132.674V111.741C662.71 108.809 662.124 106.053 660.951 103.473C659.896 100.893 658.371 98.6653 656.378 96.789C654.501 94.7954 652.273 93.2709 649.693 92.2154C647.113 91.0427 644.357 90.4564 641.426 90.4564H627.001V112.972H630.871C633.334 112.972 635.503 113.91 637.38 115.787C639.373 117.663 640.37 119.95 640.37 122.647V132.674C640.37 135.371 639.373 137.599 637.38 139.358C635.503 141.117 633.334 141.997 630.871 141.997H627.001V164.689Z" fill="white"/>
<path d="M706.118 216.229C703.186 216.229 700.43 215.701 697.85 214.646C695.27 213.473 692.983 211.949 690.99 210.072C689.113 208.196 687.589 205.968 686.416 203.388C685.361 200.808 684.833 198.052 684.833 195.12V111.741C684.833 108.809 685.361 106.053 686.416 103.473C687.589 100.893 689.113 98.6653 690.99 96.789C692.983 94.7954 695.27 93.2709 697.85 92.2154C700.43 91.0427 703.186 90.4564 706.118 90.4564H720.542V112.972H716.848C714.151 112.972 711.864 113.91 709.988 115.787C708.229 117.663 707.349 119.95 707.349 122.647V184.566C707.349 187.029 708.229 189.257 709.988 191.25C711.864 193.127 714.151 194.065 716.848 194.065H720.542V216.229H706.118ZM730.744 90.4564C733.676 90.4564 736.432 91.0427 739.012 92.2154C741.709 93.2709 743.996 94.7954 745.872 96.789C747.866 98.6653 749.449 100.893 750.622 103.473C751.795 106.053 752.381 108.809 752.381 111.741V195.12C751.795 201.101 749.625 206.144 745.872 210.248C742.12 214.235 737.077 216.229 730.744 216.229H729.689V90.4564H730.744Z" fill="white"/>
<path d="M819.712 122.647C819.712 119.95 818.715 117.663 816.721 115.787C814.845 113.91 812.675 112.972 810.213 112.972H806.343V90.4564H820.767C823.699 90.4564 826.455 91.0427 829.034 92.2154C831.614 93.2709 833.843 94.7954 835.719 96.789C837.713 98.6653 839.237 100.893 840.292 103.473C841.465 106.053 842.052 108.809 842.052 111.741V195.12C842.052 198.052 841.465 200.808 840.292 203.388C839.237 205.968 837.713 208.196 835.719 210.072C833.843 211.949 831.614 213.473 829.034 214.646C826.455 215.701 823.699 216.229 820.767 216.229H806.343V194.065H810.213C812.675 194.065 814.845 193.127 816.721 191.25C818.715 189.257 819.712 187.029 819.712 184.566V122.647ZM774.504 90.4564V216.229H797.371V90.4564H774.504Z" fill="white"/>
<path d="M909.03 90.4564H931.722V216.229H909.03V90.4564ZM886.69 216.229H864.174V90.4564H886.69L900.059 116.139V174.539L886.69 148.857V216.229Z" fill="white"/>
<path d="M953.845 90.4564H976.009V216.229H953.845V90.4564Z" fill="white"/>
<path d="M1029.83 141.997H1033.52C1036.22 141.997 1038.51 141.117 1040.38 139.358C1042.26 137.599 1043.2 135.371 1043.2 132.674V90.4564H1065.71V127.748C1065.71 132.791 1064.77 137.482 1062.9 141.821C1061.14 146.16 1058.56 150.03 1055.16 153.431C1058.56 156.831 1061.14 160.76 1062.9 165.216C1064.77 169.555 1065.71 174.188 1065.71 179.113V216.229H1043.2V174.363C1043.2 171.666 1042.26 169.379 1040.38 167.503C1038.51 165.627 1036.22 164.689 1033.52 164.689H1029.83V141.997ZM1020.68 90.4564H998.165V216.229H1020.68V90.4564Z" fill="white"/>
<path d="M1087.84 90.4564H1110V216.229H1087.84V90.4564Z" fill="white"/>
<path d="M0.175906 105.675C0.175906 102.744 0.703623 99.9876 1.75906 97.4077C2.93176 94.8277 4.45628 92.5996 6.33261 90.7233C8.3262 88.7297 10.613 87.2052 13.1929 86.1497C15.7729 84.977 18.5287 84.3907 21.4605 84.3907H46.0873C49.0191 84.3907 51.7749 84.977 54.3549 86.1497C57.0521 87.2052 59.3975 88.7297 61.3911 90.7233C63.3847 92.5996 64.9092 94.8277 65.9646 97.4077C67.1373 99.9876 67.7237 102.744 67.7237 105.675V120.275H45.0319V116.581C45.0319 113.884 44.0937 111.597 42.2174 109.721C40.4583 107.845 38.2302 106.907 35.5329 106.907H32.1907C29.6108 106.907 27.3827 107.845 25.5063 109.721C23.63 111.597 22.6918 113.884 22.6918 116.581V116.933L35.8848 131.006V167.066L10.7302 139.273C8.03303 136.107 5.57035 132.647 3.34221 128.895C1.23134 125.142 0.175906 121.683 0.175906 118.516V105.675ZM35.5329 186.768C38.1129 186.768 40.341 185.83 42.2174 183.953C44.211 182.077 45.2078 179.79 45.2078 177.093V140.856L56.9934 153.17C59.6907 156.336 62.0947 159.796 64.2056 163.548C66.4337 167.301 67.5478 170.819 67.5478 174.103V187.999C67.5478 191.048 66.9614 193.863 65.7887 196.443C64.7333 199.023 63.2088 201.251 61.2152 203.127C59.3388 205.003 57.1107 206.528 54.5308 207.701C51.9508 208.756 49.195 209.284 46.2632 209.284H21.6364C18.5874 209.284 15.7729 208.756 13.1929 207.701C10.613 206.528 8.3262 205.003 6.33261 203.127C4.33901 201.251 2.75586 199.023 1.58315 196.443C0.527717 193.863 0 191.048 0 187.999V173.399H22.8677V177.093C22.8677 179.79 23.7473 182.077 25.5063 183.953C27.2654 185.83 29.4935 186.768 32.1907 186.768H35.5329Z" fill="white"/>
<path d="M90.0184 105.675C90.0184 102.744 90.5461 99.9876 91.6015 97.4077C92.7742 94.8277 94.2987 92.5996 96.1751 90.7233C98.1687 88.7297 100.455 87.2052 103.035 86.1497C105.615 84.977 108.371 84.3907 111.303 84.3907H135.93C138.861 84.3907 141.617 84.977 144.197 86.1497C146.895 87.2052 149.24 88.7297 151.234 90.7233C153.227 92.5996 154.752 94.8277 155.807 97.4077C156.98 99.9876 157.566 102.744 157.566 105.675V120.275H134.874V116.581C134.874 113.884 133.936 111.597 132.06 109.721C130.301 107.845 128.073 106.907 125.375 106.907H122.033C119.453 106.907 117.225 107.845 115.349 109.721C113.472 111.597 112.534 113.884 112.534 116.581V116.933L125.727 131.006V167.066L100.573 139.273C97.8755 136.107 95.4128 132.647 93.1847 128.895C91.0738 125.142 90.0184 121.683 90.0184 118.516V105.675ZM125.375 186.768C127.955 186.768 130.183 185.83 132.06 183.953C134.053 182.077 135.05 179.79 135.05 177.093V140.856L146.836 153.17C149.533 156.336 151.937 159.796 154.048 163.548C156.276 167.301 157.39 170.819 157.39 174.103V187.999C157.39 191.048 156.804 193.863 155.631 196.443C154.576 199.023 153.051 201.251 151.058 203.127C149.181 205.003 146.953 206.528 144.373 207.701C141.793 208.756 139.037 209.284 136.106 209.284H111.479C108.43 209.284 105.615 208.756 103.035 207.701C100.455 206.528 98.1687 205.003 96.1751 203.127C94.1815 201.251 92.5983 199.023 91.4256 196.443C90.3702 193.863 89.8425 191.048 89.8425 187.999V173.399H112.71V177.093C112.71 179.79 113.59 182.077 115.349 183.953C117.108 185.83 119.336 186.768 122.033 186.768H125.375Z" fill="white"/>
<path d="M201.321 84.3907H202.553V210.163H201.321C194.989 210.163 189.946 208.17 186.193 204.182C182.441 200.078 180.271 195.035 179.685 189.055V105.675C179.685 102.744 180.271 99.9876 181.444 97.4077C182.617 94.8277 184.2 92.5996 186.193 90.7233C188.187 88.7297 190.474 87.2052 193.054 86.1497C195.634 84.977 198.39 84.3907 201.321 84.3907ZM247.584 135.931L247.409 189.055C247.409 191.986 246.822 194.742 245.65 197.322C244.594 199.902 243.07 202.13 241.076 204.007C239.2 205.883 236.913 207.407 234.216 208.58C231.636 209.636 228.88 210.163 225.948 210.163H211.348V187.999H215.394C218.091 187.999 220.378 187.061 222.254 185.185C224.13 183.191 225.069 180.963 225.069 178.5V158.447H211.348V135.931H247.584ZM225.069 120.275V116.581C225.069 113.884 224.13 111.597 222.254 109.721C220.378 107.845 218.091 106.907 215.394 106.907H211.348V84.3907H225.948C228.88 84.3907 231.636 84.977 234.216 86.1497C236.913 87.2052 239.2 88.7297 241.076 90.7233C243.07 92.5996 244.594 94.8277 245.65 97.4077C246.822 99.9876 247.409 102.744 247.409 105.675V120.275H225.069Z" fill="white"/>
</svg>
