<svg width="800" height="983" viewBox="0 0 800 983" fill="none" xmlns="http://www.w3.org/2000/svg">
<path d="M406.23 282.175C367.438 282.175 307.389 238.069 244.152 239.663C160.722 240.726 84.1999 288.021 41.1562 362.948C-45.4625 513.336 18.8373 735.462 103.33 857.685C144.78 917.202 193.669 984.159 258.5 982.033C320.674 979.376 344.056 941.647 419.515 941.647C494.443 941.647 515.699 982.033 581.593 980.439C648.55 979.376 691.062 919.859 731.98 859.811C779.275 790.728 798.937 723.771 800 720.051C798.406 719.52 669.806 670.1 668.212 521.307C667.149 396.958 769.71 337.441 774.493 334.784C716.038 249.228 626.231 239.663 594.878 237.537C513.042 231.16 444.491 282.175 406.23 282.175V282.175ZM544.395 156.764C578.936 115.315 601.787 57.3916 595.41 0C545.989 2.12561 486.472 32.947 450.868 74.3964C418.984 111.063 391.351 170.049 398.791 226.378C453.525 230.629 509.854 198.213 544.395 156.764" fill="#808080"/>
</svg>
