<svg width="815" height="1000" viewBox="0 0 815 1000" fill="none" xmlns="http://www.w3.org/2000/svg">
<mask id="mask0" mask-type="alpha" maskUnits="userSpaceOnUse" x="0" y="0" width="815" height="1000">
<path d="M413.641 287.323C374.142 287.323 312.997 242.412 248.606 244.036C163.654 245.118 85.7361 293.276 41.9071 369.57C-46.2919 522.702 19.181 748.88 105.215 873.333C147.421 933.936 197.202 1002.11 263.216 999.95C326.525 997.244 350.333 958.827 427.169 958.827C503.464 958.827 525.108 999.95 592.204 998.327C660.382 997.244 703.67 936.641 745.335 875.498C793.492 805.154 813.513 736.976 814.596 733.188C812.973 732.647 682.026 682.326 680.403 530.818C679.321 404.2 783.753 343.597 788.623 340.892C729.102 253.775 637.656 244.036 605.731 241.871C522.402 235.377 452.601 287.323 413.641 287.323ZM554.327 159.624C589.498 117.419 612.766 58.4387 606.273 0C555.95 2.16439 495.347 33.5481 459.094 75.7537C426.628 113.089 398.491 173.151 406.067 230.508C461.799 234.837 519.156 201.829 554.327 159.624Z" fill="#131313"/>
</mask>
<g mask="url(#mask0)">
<rect x="50" width="756" height="351" fill="#11B35C"/>
<rect y="351" width="777" height="119" fill="#FFB638"/>
<rect x="-15" y="470" width="718" height="119" fill="#F8863E"/>
<rect y="589" width="776" height="119" fill="#F24A48"/>
<rect x="18" y="708" width="797" height="119" fill="#9F5896"/>
<rect x="73" y="827" width="703" height="173" fill="#0098CB"/>
</g>
</svg>
