<svg width="1098" height="227" viewBox="0 0 1098 227" fill="none" xmlns="http://www.w3.org/2000/svg">
<path d="M96.5567 72.1589C94.318 67.6489 92.0793 64.6423 89.0944 62.3873C86.1094 60.1324 83.1245 59.3807 79.3933 59.3807C75.6622 59.3807 72.6773 60.1324 69.6923 62.3873C66.7074 63.8907 64.4687 67.6489 62.23 72.1589L1.78521 207.457C0.292751 211.215 -0.453482 214.222 0.29275 217.228C1.03898 220.235 1.78521 222.49 4.02391 223.993C6.26261 225.497 9.24753 226.248 12.9787 226.248C16.7099 226.248 19.6948 225.497 21.9335 223.242C24.1722 220.987 26.4109 217.98 27.9033 213.47L39.0968 186.411H118.197L129.391 213.47C130.883 217.98 133.122 220.987 135.361 223.242C137.599 225.497 141.331 226.248 145.808 226.248C149.539 226.248 151.778 225.497 154.017 223.993C156.255 222.49 157.748 220.235 157.748 217.228C158.494 214.222 157.748 211.215 156.255 207.457L96.5567 72.1589ZM79.3933 93.9569L109.243 163.109H50.2903L79.3933 93.9569Z" fill="#DADADA"/>
<path d="M350.276 172.881C352.514 171.377 353.26 169.122 353.26 166.116C353.26 157.096 351.768 149.579 349.529 142.815C347.291 136.05 343.56 130.036 339.082 124.775C334.605 119.513 329.381 115.755 322.665 113.5C316.695 111.245 309.233 109.742 301.024 109.742C289.831 109.742 280.13 111.997 271.921 117.258C263.713 122.52 256.997 129.285 251.773 137.553C247.296 146.573 244.311 156.344 244.311 168.371C244.311 180.397 246.549 190.921 251.773 199.189C256.997 208.209 263.713 214.974 273.414 219.483C283.115 223.993 293.562 227 306.248 227C312.218 227 318.934 226.248 325.65 224.745C332.366 223.242 339.082 220.235 344.306 217.228C347.291 215.725 348.783 213.47 350.276 211.215C351.768 208.96 351.768 206.705 351.768 204.45C351.768 202.195 350.276 199.94 348.783 198.437C347.291 196.934 345.798 196.182 342.813 196.182C340.575 196.182 337.59 196.934 334.605 198.437C330.127 200.692 325.65 202.947 320.426 203.699C315.203 204.45 311.472 205.202 306.994 205.202C295.801 205.202 286.846 202.195 280.876 196.182C276.399 190.921 273.414 184.156 272.667 175.136H342.067C345.798 174.384 348.783 173.632 350.276 172.881ZM286.846 133.795C291.323 130.788 297.293 129.285 303.263 129.285C309.233 129.285 313.71 130.788 317.441 133.043C321.173 135.298 324.157 139.056 326.396 143.566C327.889 147.324 329.381 152.586 329.381 157.848H273.414C274.16 153.338 274.906 149.579 276.399 145.821C278.637 140.56 282.368 136.05 286.846 133.795Z" fill="#DADADA"/>
<path d="M439.823 166.116L468.926 130.036C471.911 126.278 472.658 123.271 472.658 120.265C472.658 117.258 471.911 115.003 469.673 112.748C467.434 110.493 464.449 109.742 461.464 109.742C457.733 109.742 455.494 110.493 453.256 111.245C451.017 112.748 448.778 114.252 446.539 117.258L424.153 146.573L401.766 117.258C399.527 115.003 397.288 112.748 395.049 111.245C392.811 109.742 389.826 109.742 386.095 109.742C382.364 109.742 380.125 110.493 377.886 112.748C375.647 114.252 374.901 117.258 374.155 120.265C374.155 123.271 375.647 126.278 377.886 130.036L406.989 166.116L374.901 205.202C372.663 208.96 371.17 211.967 371.17 214.973C371.17 217.98 372.663 220.235 374.901 222.49C377.14 223.993 380.125 225.497 383.11 225.497C386.841 225.497 389.826 224.745 392.065 223.993C394.303 222.49 396.542 220.987 398.781 217.98L423.406 186.411L448.032 217.98C450.271 220.235 452.509 222.49 454.748 223.993C456.987 225.497 459.972 225.497 462.957 225.497C466.688 225.497 468.926 224.745 471.165 222.49C473.404 220.235 474.896 217.98 474.896 214.973C474.896 211.967 473.404 208.96 471.165 205.202L439.823 166.116Z" fill="#DADADA"/>
<path d="M232.371 202.195C231.625 202.195 230.132 202.195 229.386 202.947C228.64 202.947 227.147 202.947 225.655 202.947C220.431 202.947 215.954 201.444 212.969 197.685C209.984 193.927 208.492 189.417 208.492 181.901V74.4138C208.492 69.9039 206.999 66.1456 204.76 63.8907C202.522 61.6357 198.79 60.1324 194.313 60.1324C189.836 60.1324 186.105 61.6357 183.866 63.8907C181.627 66.1456 180.135 69.9039 180.135 74.4138V183.404C180.135 197.685 183.12 208.209 189.836 215.725C196.552 223.242 205.507 226.248 218.193 226.248C219.685 226.248 221.924 226.248 223.416 226.248C224.909 226.248 226.401 226.248 227.894 225.497C231.625 224.745 233.863 223.993 235.356 221.738C236.848 219.483 237.595 216.477 237.595 212.719C237.595 208.209 236.848 205.202 236.102 203.699C236.102 202.947 234.61 202.195 232.371 202.195Z" fill="#DADADA"/>
<path d="M1094.27 111.997C1092.78 109.742 1089.79 108.99 1086.81 109.742C1076.36 110.493 1068.15 113.5 1062.18 118.01C1057.7 121.768 1053.97 126.278 1051.73 131.54V124.023C1051.73 119.513 1050.24 115.755 1048 113.5C1045.76 111.245 1042.03 109.742 1037.56 109.742C1033.08 109.742 1029.35 111.245 1027.11 113.5C1024.87 115.755 1023.38 119.513 1023.38 124.023V211.215C1023.38 215.725 1024.87 219.483 1027.11 222.49C1029.35 224.745 1033.08 226.248 1038.3 226.248C1043.53 226.248 1046.51 224.745 1048.75 222.49C1050.99 220.235 1052.48 216.477 1052.48 211.215V163.109C1052.48 154.089 1054.72 147.324 1059.94 142.815C1064.42 137.553 1071.88 135.298 1080.84 133.795L1086.06 133.043C1090.54 132.291 1093.52 131.54 1095.02 128.533C1097.25 126.278 1098 123.271 1098 118.762C1097.25 116.507 1095.76 113.5 1094.27 111.997Z" fill="#DADADA"/>
<path d="M978.603 109.742C974.125 109.742 970.394 111.245 968.156 113.5C965.917 115.755 964.424 119.513 964.424 124.023V175.136C964.424 184.156 962.186 190.921 956.962 196.182C951.739 201.444 945.769 203.699 938.306 203.699C931.59 203.699 926.367 201.444 922.636 197.685C919.651 193.927 918.158 187.914 918.158 179.646V124.023C918.158 118.762 916.666 115.755 914.427 113.5C912.188 111.245 908.457 109.742 903.98 109.742C899.502 109.742 895.771 111.245 893.532 113.5C891.294 115.755 889.801 119.513 889.801 124.023V179.646C889.801 190.169 891.294 198.437 894.279 205.202C897.264 211.967 901.741 217.228 907.711 220.987C913.681 224.745 921.889 226.248 930.844 226.248C939.799 226.248 947.261 223.993 953.977 219.483C958.455 216.477 962.186 211.967 965.171 206.705V210.464C965.171 214.974 966.663 218.732 968.902 221.738C971.141 223.993 974.872 225.497 979.349 225.497C988.304 225.497 993.528 220.235 993.528 210.464V124.023C993.528 118.762 992.035 115.755 989.796 113.5C986.811 111.245 983.08 109.742 978.603 109.742Z" fill="#DADADA"/>
<path d="M577.876 134.546L553.251 129.285C544.296 127.781 538.326 124.775 534.595 121.768C530.864 118.01 529.371 114.252 529.371 108.238C529.371 102.977 530.864 99.2185 533.102 95.4602C536.087 91.7019 539.818 88.6953 545.042 87.192C550.266 84.937 556.236 84.1854 562.952 84.1854C569.668 84.1854 575.638 84.937 581.607 86.4403C587.577 87.9436 592.801 90.1986 598.771 93.2052C601.756 94.7085 604.741 95.4602 606.979 95.4602C609.218 95.4602 611.457 93.9569 613.695 92.4536C615.934 90.9503 616.68 88.6953 616.68 86.4403C617.427 84.1854 616.68 81.1787 615.934 78.9238C615.188 76.6688 613.695 74.4138 611.457 72.9105C604.741 68.4006 597.278 65.394 589.07 62.3873C580.861 59.3807 571.906 58.6291 562.952 58.6291C553.997 58.6291 545.042 60.1324 537.58 62.3873C530.117 64.6423 523.401 68.4006 517.432 72.9105C512.208 77.4205 507.731 82.6821 504.746 88.6953C501.761 94.7085 500.268 101.473 500.268 108.99C500.268 121.017 503.999 130.788 510.715 138.305C518.178 145.821 528.625 150.331 543.55 154.089L568.922 159.351C578.623 161.606 585.339 163.861 589.07 166.868C592.801 169.874 595.04 174.384 595.04 179.646C595.04 186.411 592.055 191.672 586.831 195.43C581.607 199.189 572.653 201.444 560.713 201.444C552.504 201.444 544.296 200.692 536.834 198.437C529.371 196.934 521.909 193.927 515.193 189.417C512.208 187.914 509.969 187.162 506.984 187.162C503.999 187.162 501.761 190.169 500.268 191.672C498.776 193.175 498.03 195.43 497.283 198.437C497.283 200.692 497.283 203.699 498.776 205.954C499.522 208.209 501.761 210.464 504.746 212.719C509.223 215.725 515.193 218.732 521.163 220.235C527.133 222.49 533.102 223.993 539.818 224.745C546.535 225.497 553.251 226.248 559.967 226.248C569.668 226.248 578.623 224.745 586.085 222.49C593.547 220.235 600.263 217.228 606.233 212.719C612.203 208.209 615.934 202.947 618.919 196.934C621.904 190.921 623.396 184.156 623.396 176.639C623.396 165.364 619.665 155.593 612.203 148.828C603.994 143.566 592.801 138.305 577.876 134.546Z" fill="#DADADA"/>
<path d="M859.206 109.742C855.475 109.742 852.49 110.493 850.251 111.997C848.012 113.5 846.52 116.507 844.281 121.017L815.924 190.169L788.314 121.017C786.821 116.507 784.583 113.5 782.344 111.997C780.105 110.493 777.12 109.742 774.135 109.742C769.658 109.742 766.673 110.493 764.434 112.748C762.196 114.252 760.703 116.507 759.957 119.513C759.957 122.52 759.957 125.526 761.449 129.285L798.015 214.222C799.507 218.732 802.492 221.738 804.731 223.242C807.716 225.497 810.701 226.248 815.178 226.248C818.909 226.248 822.64 225.497 825.625 223.242C828.61 220.987 830.849 217.98 832.341 214.222L869.653 128.533C871.146 124.775 871.892 121.768 871.146 119.513C870.399 116.507 869.653 114.252 867.414 112.748C865.176 110.493 862.191 109.742 859.206 109.742Z" fill="#DADADA"/>
<path d="M720.407 114.252C713.691 110.493 703.99 108.99 693.542 108.99C688.319 108.99 682.349 109.742 675.633 110.493C668.917 111.997 662.201 113.5 655.484 116.507C652.5 117.258 650.261 119.513 649.515 121.768C648.022 124.023 648.022 126.278 648.022 128.533C648.022 130.788 648.768 133.043 649.515 135.298C651.007 136.801 652.5 138.305 654.738 139.056C656.977 139.808 659.962 139.056 662.201 137.553C668.17 135.298 673.394 133.043 678.618 132.291C683.841 131.54 688.319 130.788 692.796 130.788C701.005 130.788 706.228 132.291 709.959 136.05C713.691 139.808 715.183 145.07 715.183 152.586V157.096H706.974C690.557 157.096 677.871 157.848 668.17 160.103C658.469 162.358 651.753 166.116 647.276 170.626C642.799 175.136 640.56 181.901 640.56 190.169C640.56 196.934 642.052 202.947 645.783 208.209C649.515 213.47 654.738 217.98 660.708 220.987C667.424 223.993 674.14 225.497 682.349 225.497C688.319 225.497 693.542 224.745 698.766 222.49C703.243 220.235 707.721 217.228 710.706 213.47C712.944 211.215 714.437 208.209 715.183 205.202V210.464C715.183 214.974 716.675 218.732 718.914 221.738C721.153 223.993 724.884 225.497 729.361 225.497C733.839 225.497 736.824 223.993 739.062 221.738C741.301 219.483 742.794 215.725 742.794 210.464V154.841C742.794 144.318 741.301 135.298 737.57 128.533C733.093 122.52 727.123 118.01 720.407 114.252ZM710.706 193.175C708.467 197.685 705.482 200.692 701.005 202.947C697.273 205.954 692.796 206.705 688.319 206.705C682.349 206.705 677.125 205.202 673.394 202.195C669.663 199.189 668.17 194.679 668.17 189.417C668.17 185.659 669.663 182.652 671.902 180.397C674.14 178.142 678.618 176.639 683.841 175.887C689.811 175.136 697.273 174.384 706.228 174.384H713.691V179.646C714.437 184.907 712.944 189.417 710.706 193.175Z" fill="#DADADA"/>
<path d="M853.236 59.3808C853.982 58.6292 854.728 57.1259 854.728 56.3742C854.728 51.8643 853.982 47.3543 852.49 44.3477C850.997 40.5894 849.505 37.5828 847.266 35.3278C845.027 33.0729 842.042 30.8179 839.057 29.3146C836.072 27.8113 832.341 27.0596 827.864 27.0596C821.894 27.0596 817.417 28.5629 812.939 30.8179C808.462 33.0729 804.731 36.8311 802.492 41.3411C800.253 45.851 798.761 51.1126 798.761 57.1259C798.761 63.1391 800.253 69.1523 802.492 73.6623C805.477 78.1722 808.462 81.9305 813.686 84.1855C818.163 86.4404 824.133 87.9437 830.849 87.9437C833.834 87.9437 837.565 87.1921 840.55 86.4404C844.281 85.6888 847.266 84.1855 850.251 82.6822C851.743 81.9305 852.49 80.4272 853.236 79.6755C853.982 78.1722 853.982 77.4206 853.982 75.9173C853.982 74.4139 853.236 73.6623 852.49 72.9106C851.743 72.159 850.997 71.4073 849.505 71.4073C848.012 71.4073 846.52 71.4073 845.027 72.9106C842.789 74.4139 840.55 75.1656 837.565 75.9173C835.326 76.6689 832.341 76.6689 830.849 76.6689C824.879 76.6689 820.402 75.1656 817.417 72.159C815.178 69.904 813.685 66.1457 812.939 60.8841H848.758C850.997 60.1325 852.49 60.1325 853.236 59.3808ZM819.655 39.0861C821.894 37.5828 824.879 36.8311 828.61 36.8311C831.595 36.8311 833.834 37.5828 836.073 39.0861C838.311 40.5894 839.804 42.0927 840.55 45.0994C841.296 47.3543 842.042 49.6093 842.042 52.6159H812.939C812.939 50.3609 813.686 48.106 814.432 46.6027C815.924 42.8444 817.417 40.5894 819.655 39.0861Z" fill="#DADADA"/>
<path d="M743.54 1.50331H720.407C717.422 1.50331 715.929 2.25497 714.437 3.75828C712.944 5.26159 712.198 6.7649 712.198 9.77153V78.1722C712.198 81.1788 712.944 82.6822 714.437 84.1855C715.929 85.6888 718.168 86.4404 720.407 86.4404H743.54C750.256 86.4404 756.972 85.6888 762.196 83.4338C767.419 81.1788 772.643 78.9239 776.374 75.1656C780.105 71.4073 783.09 66.8974 785.329 61.6358C787.567 56.3742 788.314 50.3609 788.314 43.596C788.314 30.0662 784.583 19.5431 776.374 12.0265C768.912 5.26159 757.718 1.50331 743.54 1.50331ZM770.404 57.1259C768.912 60.8841 767.419 63.8908 765.18 66.1457C762.942 68.4007 759.957 70.6557 756.226 71.4073C752.495 72.9106 748.017 72.9106 743.54 72.9106H728.615V14.2815H743.54C753.241 14.2815 760.703 16.5364 765.18 21.798C770.404 27.0596 772.643 33.8245 772.643 44.3477C771.897 48.8576 771.15 53.3676 770.404 57.1259Z" fill="#DADADA"/>
<path d="M1080.09 36.8311C1078.6 33.0729 1076.36 30.8179 1073.37 28.5629C1070.39 27.0596 1065.91 26.308 1061.43 26.308C1056.96 26.308 1052.48 27.0596 1048.75 29.3146C1045.76 30.8179 1043.52 33.8245 1042.03 36.8311V34.5762C1042.03 32.3212 1041.29 30.0662 1039.79 28.5629C1039.05 27.0596 1036.81 26.308 1034.57 26.308C1032.33 26.308 1030.84 27.0596 1029.35 28.5629C1027.85 30.0662 1027.11 31.5696 1027.11 34.5762V79.6755C1027.11 81.9305 1027.85 84.1855 1029.35 85.6888C1030.84 87.1921 1032.33 87.9437 1034.57 87.9437C1039.79 87.9437 1042.03 85.6888 1042.03 80.4272V54.1192C1042.03 49.6093 1043.52 45.851 1045.76 42.8444C1048.75 39.8378 1051.73 38.3345 1056.21 38.3345C1059.94 38.3345 1062.18 39.0861 1064.42 41.3411C1065.91 43.596 1067.4 46.6027 1067.4 51.1126V79.6755C1067.4 81.9305 1068.15 84.1855 1069.64 85.6888C1071.14 87.1921 1072.63 87.9437 1075.61 87.9437C1077.85 87.9437 1080.09 87.1921 1080.84 85.6888C1082.33 84.1855 1083.08 82.6822 1083.08 79.6755V50.3609C1082.33 45.0994 1081.58 40.5894 1080.09 36.8311Z" fill="#DADADA"/>
<path d="M1004.72 26.308C1002.48 26.308 1000.24 27.0596 999.497 28.5629C998.005 30.0662 997.259 31.5696 997.259 34.5762V36.8311C995.766 34.5762 994.274 32.3212 991.289 30.0662C987.558 27.8113 983.08 26.308 978.603 26.308C974.872 26.308 971.141 27.0596 968.156 28.5629C965.171 30.0662 962.186 31.5696 959.947 34.5762C957.708 36.8311 956.216 40.5894 954.723 43.596C953.231 47.3543 953.231 51.1126 953.231 55.6225C953.231 61.6358 953.977 66.8974 956.216 70.6557C958.454 75.1656 961.44 78.1722 965.171 81.1788C968.902 83.4338 973.379 84.9371 978.603 84.9371C983.08 84.9371 987.558 83.4338 991.289 81.1788C994.274 78.9239 996.512 76.6689 998.005 74.4139V82.6822C998.005 87.9437 996.512 91.702 994.274 93.957C991.289 96.9636 987.558 97.7153 982.334 97.7153C980.095 97.7153 977.11 97.7153 974.125 96.9636C971.141 96.212 967.409 95.4603 964.424 93.957C962.932 93.2053 962.186 93.2053 960.693 93.2053C959.201 93.2053 958.455 93.957 957.708 94.7086C956.962 95.4603 956.216 96.9636 956.216 97.7153C956.216 99.2186 956.216 99.9702 956.962 101.474C957.708 102.225 958.454 103.729 959.947 104.48C962.932 105.983 966.663 107.487 971.14 108.238C974.872 108.99 979.349 109.742 983.826 109.742C993.527 109.742 1000.99 107.487 1005.47 102.225C1010.69 97.7153 1012.93 90.1987 1012.93 80.4272V34.5762C1012.93 32.3212 1012.18 30.0662 1010.69 28.5629C1008.45 27.0596 1006.96 26.308 1004.72 26.308ZM995.766 65.3941C994.274 68.4007 992.781 69.904 990.543 71.4073C988.304 72.9106 985.319 73.6623 982.334 73.6623C977.857 73.6623 974.125 72.159 971.14 69.1523C968.156 66.1457 967.409 61.6358 967.409 56.3742C967.409 52.6159 968.156 49.6093 968.902 46.6027C970.394 43.596 971.887 42.0927 974.125 40.5894C976.364 39.0861 979.349 38.3345 982.334 38.3345C986.811 38.3345 990.542 39.8378 993.527 42.8444C996.512 45.851 997.259 50.3609 997.259 55.6225C997.259 59.3808 996.512 62.3874 995.766 65.3941Z" fill="#DADADA"/>
<path d="M932.336 0C929.351 0 927.113 0.751657 925.62 2.25497C924.128 3.75828 923.382 5.26159 923.382 8.26821C923.382 10.5232 924.128 12.7782 925.62 14.2815C927.113 15.7848 929.351 16.5364 932.336 16.5364C935.321 16.5364 937.56 15.7848 939.053 14.2815C940.545 12.7782 941.291 10.5232 941.291 8.26821C941.291 6.01325 940.545 3.75828 939.053 2.25497C937.56 0.751657 935.321 0 932.336 0Z" fill="#DADADA"/>
<path d="M932.336 27.0596C930.098 27.0596 927.859 27.8113 927.113 29.3146C925.62 30.8179 924.874 32.3212 924.874 35.3278V78.9239C924.874 81.1788 925.62 83.4338 927.113 84.9371C928.605 86.4404 930.098 87.1921 932.336 87.1921C934.575 87.1921 936.814 86.4404 938.306 84.9371C939.799 83.4338 940.545 81.1788 940.545 78.9239V35.3278C940.545 32.3212 939.799 30.8179 938.306 29.3146C936.814 27.8113 934.575 27.0596 932.336 27.0596Z" fill="#DADADA"/>
<path d="M897.263 53.3676L885.324 51.1126C883.085 50.3609 881.593 49.6093 880.1 48.8576C879.354 48.106 878.608 46.6027 878.608 44.3477C878.608 42.0927 879.354 40.5894 881.593 39.0861C883.831 37.5828 886.07 36.8311 890.547 36.8311C892.786 36.8311 895.025 36.8311 897.263 37.5828C899.502 38.3344 901.741 39.0861 904.726 40.5894C906.218 41.3411 906.965 41.3411 908.457 41.3411C909.949 41.3411 910.696 40.5894 911.442 39.8378C912.188 39.0861 912.934 38.3344 912.934 36.8311C912.934 36.0795 912.934 34.5762 912.934 33.8245C912.188 33.0729 911.442 31.5695 910.696 31.5695C907.711 30.0662 904.726 28.5629 901.741 27.8113C896.517 27.0596 893.532 26.308 889.801 26.308C885.324 26.308 880.846 27.0596 877.115 28.5629C873.384 30.0662 870.399 32.3212 868.16 35.3278C865.922 38.3344 865.176 41.3411 865.176 45.0994C865.176 49.6093 866.668 52.6159 868.907 55.6225C871.892 58.6292 875.623 60.1325 880.1 60.8841L892.04 63.1391C894.279 63.8908 896.517 64.6424 897.263 65.3941C898.756 66.1457 899.502 67.649 899.502 69.904C899.502 72.159 898.756 73.6623 896.517 75.1656C895.025 76.6689 892.04 77.4206 888.309 77.4206C885.324 77.4206 883.085 77.4206 880.1 76.6689C877.115 75.9172 874.13 75.1656 871.145 73.6623C869.653 72.9106 868.907 72.9106 867.414 72.9106C866.668 72.9106 865.176 73.6623 864.429 74.4139C863.683 75.1656 863.683 75.9173 862.937 77.4206C862.937 78.1722 862.937 79.6755 863.683 80.4272C864.429 81.1788 865.176 82.6822 866.668 83.4338C869.653 84.9371 873.384 86.4404 877.115 87.1921C880.846 87.9437 884.578 87.9437 888.309 87.9437C895.771 87.9437 901.741 86.4404 906.218 82.6822C910.696 79.6755 912.934 74.4139 912.934 69.1523C912.934 64.6424 911.442 61.6358 909.203 58.6292C906.218 55.6225 902.487 54.1192 897.263 53.3676Z" fill="#DADADA"/>
</svg>
