<?xml version="1.0" encoding="utf-8"?>
<!-- Generator: Adobe Illustrator 23.0.2, SVG Export Plug-In . SVG Version: 6.00 Build 0)  -->
<svg version="1.1" id="Capa_1" xmlns="http://www.w3.org/2000/svg" xmlns:xlink="http://www.w3.org/1999/xlink" x="0px" y="0px"
	 viewBox="0 0 361.7 512" style="enable-background:new 0 0 361.7 512;" xml:space="preserve">
<style type="text/css">
	.st0{fill:#FEC303;}
</style>
<g transform="matrix(1 0 0 1 0 0)">
	<g>
		<g>
			<path class="st0" d="M347,292c-19.7-19.7-51.8-19.7-71.6,0l-29.9,29.9c-8,8-21.1,8-29.1,0s-8-21.1,0-29.1l50.3-50.3
				c9.6-9.6,14.8-22.3,14.8-35.8s-5.3-26.2-14.8-35.8c-19.7-19.7-51.8-19.7-71.6,0l-67.5,67.5c-0.9-0.6-1.9-1.2-2.9-1.7v-0.9V200
				v-0.9c10.7-5.5,18-16.6,18-29.4s-7.3-23.9-18-29.4V105h38.9l10-44.3h-32.5L147.4,0H72.2l6.3,60.7H45.9l10,44.3h38.9v35.3
				c-10.7,5.5-18,16.6-18,29.4s7.3,23.9,18,29.4v0.9v35.8v0.9c-10.7,5.5-18,16.6-18,29.4c0,3.7,0.6,7.3,1.8,10.6h-13v30H82v40.8
				c-33.1,11.5-56.8,42.9-56.8,79.9V482H0v30h219.6v-30h-25.2v-54.6c0-37-23.7-68.4-56.8-79.9v-40.8H154v-30h-13
				c1.1-3.3,1.8-6.9,1.8-10.6c0-0.2,0-0.3,0-0.5l73.6-73.6c8-8,21.1-8,29.1,0c3.9,3.9,6,9.1,6,14.6s-2.1,10.7-6,14.6l-50.3,50.3
				c-19.7,19.7-19.7,51.8,0,71.6s51.8,19.7,71.6,0l29.9-29.9c8-8,21.1-8,29.1,0s8,21.1,0,29.1l-19.3,19.3l-11.8-11.8L273.5,371
				l11.8,11.8L265.1,403l21.2,21.2l20.2-20.2l11.8,11.8l21.2-21.2l-11.8-11.8l19.3-19.3C366.7,343.8,366.7,311.7,347,292z"/>
		</g>
	</g>
</g>
</svg>
