<?xml version="1.0" encoding="utf-8"?>
<!-- Generator: Adobe Illustrator 23.0.2, SVG Export Plug-In . SVG Version: 6.00 Build 0)  -->
<svg version="1.1" id="Layer_1" xmlns="http://www.w3.org/2000/svg" xmlns:xlink="http://www.w3.org/1999/xlink" x="0px" y="0px"
	 viewBox="0 0 512 512" style="enable-background:new 0 0 512 512;" xml:space="preserve">
<style type="text/css">
	.st0{fill:#FEC303;}
</style>
<g>
	<path class="st0" d="M438.9,32H73.1C32.8,32,0,64.8,0,105.1v301.7C0,447.2,32.8,480,73.1,480h365.8c40.3,0,73.1-32.8,73.1-73.1
		V105.1C512,64.8,479.2,32,438.9,32z M127.8,405.2h-21.4c-11.6,0-21-9.4-21-21s9.4-21,21-21h21.4c11.6,0,21,9.4,21,21
		S139.4,405.2,127.8,405.2z M213.3,362.5c-70.5,0-127.8-57.3-127.8-127.8s57.3-127.8,127.8-127.8s127.8,57.3,127.8,127.8
		S283.8,362.5,213.3,362.5z M426.6,330.8c0,41-33.4,74.4-74.4,74.4c-11.6,0-21-9.4-21-21s9.4-21,21-21c17.9,0,32.4-14.5,32.4-32.4
		V127.8c0-11.6,9.4-21,21-21s21,9.4,21,21V330.8z"/>
	<circle class="st0" cx="213.3" cy="234.6" r="21.4"/>
</g>
</svg>
