<?xml version="1.0" encoding="utf-8"?>
<!-- Generator: Adobe Illustrator 23.0.2, SVG Export Plug-In . SVG Version: 6.00 Build 0)  -->
<svg version="1.1" id="Capa_1" xmlns="http://www.w3.org/2000/svg" xmlns:xlink="http://www.w3.org/1999/xlink" x="0px" y="0px"
	 viewBox="0 0 512 512" style="enable-background:new 0 0 512 512;" xml:space="preserve">
<style type="text/css">
	.st0{fill:#FEC303;}
</style>
<g>
	<g>
		<g>
			<path class="st0" d="M344.6,251.1H320v9.8h24.6c2.7,0,4.9-2.2,4.9-4.9C349.5,253.3,347.3,251.1,344.6,251.1z"/>
		</g>
	</g>
	<g>
		<g>
			<path class="st0" d="M511.3,197.3c-1.5-4.5-5.1-8.1-9.6-9.5L356.4,142L268,18c-2.8-3.9-7.3-6.2-12-6.2c-4.8,0-9.3,2.3-12,6.2
				l-88.4,124L10.3,187.8c-4.6,1.4-8.1,5-9.6,9.5c-1.5,4.5-0.7,9.5,2.2,13.4L93.5,333l-1.4,152.3c0,4.8,2.2,9.3,6.1,12.1
				c3.9,2.8,8.8,3.6,13.4,2.1L256,451.1l144.4,48.3c1.5,0.5,3.1,0.8,4.7,0.8c3.1,0,6.1-1,8.7-2.8c3.9-2.8,6.1-7.3,6.1-12.1
				L418.5,333l90.6-122.4C511.9,206.8,512.8,201.8,511.3,197.3z M220.6,241.5l-29.5,78.8c-2.2,5.8-7.7,9.6-13.8,9.6
				s-11.7-3.8-13.8-9.6l-29.5-78.8c-2.9-7.6,1-16.1,8.6-19c7.6-2.9,16.2,1,19,8.6l15.7,41.9l15.7-41.9c2.9-7.6,11.4-11.5,19-8.6
				C219.6,225.3,223.5,233.9,220.6,241.5z M270.8,315.1c0,8.2-6.6,14.8-14.8,14.8c-8.2,0-14.8-6.6-14.8-14.8v-78.8
				c0-8.2,6.6-14.8,14.8-14.8c8.2,0,14.8,6.6,14.8,14.8V315.1z M344.6,290.5H320v24.6c0,8.2-6.6,14.8-14.8,14.8s-14.8-6.6-14.8-14.8
				v-78.8c0-8.2,6.6-14.8,14.8-14.8h39.4c19,0,34.5,15.5,34.5,34.5S363.6,290.5,344.6,290.5z"/>
		</g>
	</g>
</g>
</svg>
