<?xml version="1.0" encoding="utf-8"?>
<!-- Generator: Adobe Illustrator 23.0.2, SVG Export Plug-In . SVG Version: 6.00 Build 0)  -->
<svg version="1.1" id="Capa_1" xmlns="http://www.w3.org/2000/svg" xmlns:xlink="http://www.w3.org/1999/xlink" x="0px" y="0px"
	 viewBox="0 0 512 512" style="enable-background:new 0 0 512 512;" xml:space="preserve">
<style type="text/css">
	.st0{fill:#FEC303;}
</style>
<g>
	<g>
		<g>
			<circle class="st0" cx="256.7" cy="405.4" r="53.2"/>
			<path class="st0" d="M408.6,264.4c-19.7-19.7-42.7-35.2-68.3-46c-26.5-11.2-54.7-16.9-83.6-16.9c-29.6,0-58.4,5.9-85.4,17.6
				c-26.1,11.3-49.3,27.4-69.1,47.9l65.6,63.4c23.5-24.3,55.1-37.7,88.9-37.7c33,0,64.1,12.9,87.4,36.2L408.6,264.4z"/>
			<path class="st0" d="M256.7,53.4c-49,0-96.5,9.6-141.3,28.6c-43.2,18.3-82,44.5-115.4,77.8l64.5,64.5c25-25,54-44.6,86.4-58.3
				c33.5-14.1,69-21.3,105.7-21.3c72.1,0,140,27.9,191.2,78.7l64.2-64.8c-33.1-32.9-71.8-58.8-114.8-76.8
				C352.7,62.9,305.4,53.4,256.7,53.4z"/>
		</g>
	</g>
</g>
</svg>
