<svg width="128" height="129" viewBox="0 0 128 129" fill="none" xmlns="http://www.w3.org/2000/svg">
<g clip-path="url(#clip0)">
<path d="M19.9 65.4297L26.5793 62.2547L31.2808 64.2023L33.7588 71.1702C33.8971 71.5591 34.1523 71.8956 34.4894 72.1337C34.8265 72.3718 35.229 72.4997 35.6418 72.5H44.3582C44.7712 72.5 45.174 72.3722 45.5113 72.1341C45.8487 71.896 46.1041 71.5593 46.2425 71.1702L48.7205 64.2023L53.422 62.2547L60.1012 65.4297C60.4743 65.6068 60.893 65.6642 61.2999 65.594C61.7069 65.5238 62.0821 65.3294 62.3742 65.0375L68.5375 58.875C68.8296 58.583 69.0241 58.2077 69.0943 57.8007C69.1645 57.3938 69.1071 56.975 68.9297 56.602L65.7548 49.9227L67.7022 45.2212L74.6702 42.7433C75.0594 42.6048 75.3962 42.3493 75.6343 42.0118C75.8724 41.6743 76.0001 41.2713 76 40.8582V32.1418C76 31.7288 75.8722 31.326 75.6341 30.9887C75.396 30.6513 75.0593 30.3959 74.6702 30.2575L67.7022 27.7795L65.7548 23.078L68.9297 16.3988C69.1072 16.0257 69.1648 15.6068 69.0946 15.1996C69.0243 14.7925 68.8297 14.4171 68.5375 14.125L62.375 7.9625C62.083 7.67043 61.7077 7.47592 61.3007 7.40569C60.8938 7.33546 60.475 7.39294 60.102 7.57025L53.4227 10.7452L48.7212 8.79775L46.2425 1.82975C46.1041 1.4407 45.8487 1.10403 45.5113 0.865938C45.174 0.627849 44.7712 0.50002 44.3582 0.5H35.6418C35.2288 0.50002 34.826 0.627849 34.4887 0.865938C34.1513 1.10403 33.8959 1.4407 33.7575 1.82975L31.2795 8.79775L26.578 10.7452L19.9 7.57025C19.5268 7.39248 19.1076 7.33475 18.7002 7.40499C18.2928 7.47524 17.9172 7.67001 17.625 7.9625L11.4625 14.125C11.17 14.4172 10.9752 14.7928 10.905 15.2002C10.8348 15.6076 10.8925 16.0268 11.0702 16.4L14.2452 23.0793L12.2978 27.7808L5.32975 30.2575C4.9407 30.3959 4.60403 30.6513 4.36594 30.9887C4.12785 31.326 4.00002 31.7288 4 32.1418V40.8582C4.00002 41.2712 4.12785 41.674 4.36594 42.0113C4.60403 42.3487 4.9407 42.6041 5.32975 42.7425L12.2978 45.2205L14.2452 49.922L11.0702 56.6012C10.8928 56.9743 10.8352 57.3932 10.9054 57.8004C10.9757 58.2075 11.1703 58.5829 11.4625 58.875L17.625 65.0375C17.9173 65.3298 18.2929 65.5244 18.7002 65.5947C19.1076 65.6649 19.5267 65.6073 19.9 65.4297ZM18.281 49.2125L15.653 42.8685C15.5459 42.61 15.3857 42.3768 15.1828 42.1842C14.9798 41.9915 14.7387 41.8436 14.475 41.75L8 39.4468V33.5532L14.475 31.25C14.7387 31.1563 14.9797 31.0083 15.1826 30.8155C15.3854 30.6228 15.5455 30.3896 15.6525 30.131L18.281 23.7875C18.3883 23.5288 18.44 23.2505 18.4329 22.9706C18.4258 22.6907 18.36 22.4154 18.2397 22.1625L15.2898 15.9552L19.4562 11.789L25.6635 14.739C25.9163 14.8594 26.1917 14.9252 26.4716 14.9324C26.7516 14.9395 27.0299 14.8876 27.2885 14.7802L33.6325 12.1523C33.8908 12.0451 34.1237 11.885 34.3162 11.6822C34.5086 11.4794 34.6564 11.2385 34.75 10.975L37.0532 4.5H42.9468L45.25 10.975C45.3437 11.2387 45.4917 11.4797 45.6845 11.6826C45.8772 11.8854 46.1104 12.0455 46.369 12.1525L52.7125 14.781C52.9711 14.8884 53.2494 14.9402 53.5294 14.9331C53.8093 14.926 54.0847 14.8601 54.3375 14.7397L60.5448 11.7898L64.712 15.957L61.762 22.1642C61.6418 22.4171 61.5759 22.6924 61.5688 22.9724C61.5617 23.2523 61.6135 23.5306 61.7207 23.7892L64.3487 30.1332C64.4559 30.3913 64.6159 30.624 64.8185 30.8163C65.0211 31.0087 65.2618 31.1564 65.525 31.25L72 33.5527V39.4463L65.525 41.75C65.2613 41.8437 65.0203 41.9917 64.8174 42.1845C64.6146 42.3772 64.4545 42.6104 64.3475 42.869L61.719 49.2125C61.6117 49.4712 61.56 49.7495 61.5671 50.0294C61.5742 50.3093 61.64 50.5846 61.7603 50.8375L64.7103 57.0448L60.543 61.212L54.3358 58.262C54.0829 58.1416 53.8076 58.0758 53.5276 58.0686C53.2477 58.0615 52.9694 58.1134 52.7108 58.2207L46.3667 60.8488C46.1087 60.9559 45.876 61.1159 45.6837 61.3185C45.4913 61.5211 45.3436 61.7618 45.25 62.025L42.9468 68.5H37.0532L34.75 62.025C34.6563 61.7613 34.5083 61.5203 34.3155 61.3174C34.1228 61.1146 33.8896 60.9545 33.631 60.8475L27.2875 58.219C27.0289 58.1116 26.7506 58.0598 26.4706 58.0669C26.1907 58.074 25.9153 58.1399 25.6625 58.2603L19.4552 61.2103L15.289 57.0438L18.239 50.8365C18.3592 50.5838 18.4251 50.3087 18.4323 50.029C18.4396 49.7492 18.388 49.4711 18.281 49.2125Z" fill="#5F6A71"/>
<path d="M40 54.5C43.5601 54.5 47.0402 53.4443 50.0003 51.4664C52.9604 49.4886 55.2675 46.6773 56.6298 43.3883C57.9922 40.0992 58.3487 36.48 57.6541 32.9883C56.9596 29.4967 55.2453 26.2894 52.7279 23.7721C50.2106 21.2547 47.0033 19.5404 43.5116 18.8458C40.02 18.1513 36.4008 18.5078 33.1117 19.8701C29.8226 21.2325 27.0114 23.5396 25.0335 26.4997C23.0557 29.4598 22 32.9399 22 36.5C22.0054 41.2722 23.9035 45.8475 27.278 49.222C30.6525 52.5965 35.2277 54.4946 40 54.5ZM40 22.5C42.7689 22.5 45.4757 23.3211 47.778 24.8594C50.0803 26.3977 51.8747 28.5842 52.9343 31.1424C53.9939 33.7006 54.2712 36.5155 53.731 39.2312C53.1908 41.947 51.8574 44.4415 49.8995 46.3995C47.9416 48.3574 45.447 49.6908 42.7313 50.231C40.0155 50.7712 37.2006 50.4939 34.6424 49.4343C32.0843 48.3747 29.8978 46.5802 28.3594 44.278C26.8211 41.9757 26 39.2689 26 36.5C26.0042 32.7882 27.4805 29.2297 30.1051 26.6051C32.7297 23.9805 36.2882 22.5041 40 22.5Z" fill="#5F6A71"/>
<path d="M78.7 96.8687L76.0725 103.213C75.9652 103.471 75.9134 103.75 75.9205 104.03C75.9277 104.31 75.9935 104.585 76.1137 104.838L79.0637 111.045L74.8965 115.212L68.6892 112.262C68.4363 112.142 68.161 112.076 67.8811 112.069C67.6012 112.062 67.3229 112.114 67.0642 112.221L60.7225 114.847C60.4639 114.954 60.2307 115.114 60.0379 115.317C59.8451 115.52 59.697 115.761 59.6032 116.025L57.3 122.5H51.4072L49.1042 116.025C49.0105 115.762 48.8625 115.52 48.6697 115.318C48.477 115.115 48.2438 114.955 47.9852 114.848L41.6412 112.22C41.3826 112.112 41.1043 112.061 40.8243 112.068C40.5444 112.075 40.2691 112.141 40.0162 112.261L33.809 115.211L29.6417 111.044L32.5917 104.836C32.712 104.584 32.7778 104.308 32.7849 104.028C32.792 103.748 32.7402 103.47 32.633 103.211L30.0055 96.8675C29.8984 96.6094 29.7384 96.3767 29.5358 96.1843C29.3333 95.9919 29.0926 95.844 28.8295 95.7502L22.3545 93.4477V87.5535L28.8295 85.2507C29.0931 85.157 29.3342 85.009 29.5371 84.8162C29.74 84.6234 29.9001 84.3903 30.0072 84.1317L32.6347 77.7877C32.742 77.5291 32.7937 77.2508 32.7866 76.9708C32.7795 76.6909 32.7137 76.4156 32.5935 76.1627L29.0367 68.6807L25.425 70.4002L28.6 77.0795L26.6527 81.781L19.6847 84.2587C19.2956 84.3971 18.9589 84.6526 18.7208 84.99C18.4827 85.3274 18.3549 85.7303 18.355 86.1432V94.8597C18.3549 95.2727 18.4827 95.6756 18.7208 96.013C18.9589 96.3504 19.2956 96.6058 19.6847 96.7442L26.6527 99.222L28.6 103.923L25.425 110.603C25.2477 110.976 25.1902 111.395 25.2605 111.802C25.3308 112.209 25.5254 112.584 25.8175 112.876L31.98 119.038C32.2719 119.33 32.6472 119.524 33.0541 119.594C33.461 119.665 33.8797 119.607 34.2527 119.43L40.932 116.255L45.632 118.202L48.1102 125.17C48.2487 125.56 48.5043 125.897 48.8419 126.135C49.1795 126.373 49.5826 126.5 49.9957 126.5H58.7122C59.1252 126.5 59.528 126.372 59.8655 126.134C60.2029 125.896 60.4583 125.56 60.5967 125.17L63.0745 118.202L67.776 116.255L74.455 119.43C74.8279 119.607 75.2466 119.665 75.6536 119.594C76.0605 119.524 76.4357 119.33 76.7277 119.038L82.8912 112.875C83.1833 112.583 83.3779 112.208 83.4482 111.801C83.5184 111.394 83.461 110.975 83.2837 110.602L80.1087 103.923L82.3962 98.4002L78.7 96.8687Z" fill="#5F6A71"/>
<path d="M82.8912 68.1248L76.7277 61.9623C76.4357 61.6703 76.0605 61.4758 75.6536 61.4056C75.2466 61.3353 74.8279 61.3928 74.455 61.57L66.9732 65.1268L68.6905 68.7395L74.8977 65.7895L79.065 69.9568L76.115 76.164C75.9947 76.4169 75.9289 76.6922 75.9218 76.9722C75.9147 77.2521 75.9664 77.5304 76.0737 77.789L78.3427 83.267L82.038 81.736L80.1095 77.0795L83.2845 70.4003C83.4622 70.0269 83.5199 69.6076 83.4494 69.2001C83.379 68.7925 83.184 68.4169 82.8912 68.1248Z" fill="#5F6A71"/>
<path d="M54.354 108.5C57.9141 108.5 61.3942 107.444 64.3543 105.466C67.3143 103.489 69.6214 100.677 70.9838 97.3883C72.3462 94.0992 72.7027 90.48 72.0081 86.9883C71.3136 83.4967 69.5993 80.2894 67.0819 77.7721C64.5646 75.2547 61.3573 73.5404 57.8656 72.8458C54.374 72.1513 50.7548 72.5078 47.4657 73.8701C44.1766 75.2325 41.3654 77.5396 39.3875 80.4997C37.4097 83.4598 36.354 86.9399 36.354 90.5C36.3593 95.2722 38.2575 99.8475 41.632 103.222C45.0065 106.596 49.5817 108.495 54.354 108.5ZM54.354 76.5C57.1229 76.5 59.8297 77.3211 62.132 78.8594C64.4343 80.3977 66.2287 82.5842 67.2883 85.1424C68.3479 87.7006 68.6252 90.5155 68.085 93.2312C67.5448 95.947 66.2114 98.4415 64.2535 100.399C62.2955 102.357 59.801 103.691 57.0853 104.231C54.3695 104.771 51.5546 104.494 48.9964 103.434C46.4383 102.375 44.2518 100.58 42.7134 98.278C41.1751 95.9757 40.354 93.2689 40.354 90.5C40.3582 86.7882 41.8345 83.2297 44.4591 80.6051C47.0837 77.9805 50.6422 76.5041 54.354 76.5Z" fill="#5F6A71"/>
<path d="M122.67 36.2575L115.702 33.7795L113.755 29.078L116.93 22.3988C117.107 22.0257 117.165 21.6068 117.095 21.1996C117.024 20.7925 116.83 20.4171 116.538 20.125L110.375 13.9625C110.083 13.6704 109.708 13.4759 109.301 13.4057C108.894 13.3355 108.475 13.3929 108.102 13.5702L101.423 16.7453L96.7213 14.7978L94.2435 7.82975C94.1051 7.44054 93.8495 7.10375 93.512 6.86565C93.1744 6.62755 92.7714 6.49981 92.3583 6.5H83.6418C83.2288 6.49997 82.826 6.62777 82.4885 6.86587C82.1511 7.10396 81.8957 7.44066 81.7573 7.82975L79.2795 14.7978L73.7568 17.0858L75.2875 20.781L81.6315 18.153C81.89 18.0458 82.1231 17.8856 82.3158 17.6827C82.5084 17.4798 82.6564 17.2387 82.75 16.975L85.0525 10.5H90.946L93.25 16.975C93.3437 17.2387 93.4917 17.4797 93.6845 17.6826C93.8773 17.8854 94.1105 18.0455 94.369 18.1525L100.713 20.781C100.971 20.8883 101.249 20.94 101.529 20.9329C101.809 20.9258 102.085 20.86 102.338 20.7397L108.545 17.7897L112.712 21.957L109.762 28.1642C109.642 28.4171 109.576 28.6924 109.569 28.9724C109.562 29.2523 109.614 29.5306 109.721 29.7892L112.349 36.1333C112.456 36.3912 112.616 36.6239 112.819 36.8162C113.021 37.0086 113.262 37.1563 113.525 37.25L120 39.5525V45.446L113.525 47.75C113.261 47.8438 113.02 47.9919 112.818 48.1847C112.615 48.3775 112.455 48.6107 112.348 48.8693L109.719 55.2125C109.612 55.4712 109.56 55.7495 109.567 56.0294C109.574 56.3093 109.64 56.5846 109.76 56.8375L112.71 63.0448L107.545 68.21L110.375 71.0375L116.538 64.875C116.83 64.583 117.024 64.2077 117.094 63.8007C117.165 63.3938 117.107 62.975 116.93 62.602L113.755 55.9227L115.702 51.2212L122.67 48.7435C123.059 48.6051 123.396 48.3495 123.634 48.0119C123.872 47.6744 124 47.2713 124 46.8582V38.1418C124 37.7288 123.872 37.326 123.634 36.9887C123.396 36.6513 123.059 36.3959 122.67 36.2575Z" fill="#5F6A71"/>
<path d="M88 56.4999C85.2089 56.5079 82.4796 55.6782 80.165 54.1183C77.8505 52.5584 76.0572 50.34 75.017 47.7499L71.309 49.2499C72.6842 52.6489 75.0646 55.5469 78.1317 57.5561C81.1988 59.5653 84.8064 60.5899 88.4718 60.4929C92.1372 60.3958 95.6854 59.1816 98.6419 57.0128C101.598 54.8441 103.822 51.8241 105.015 48.3571C106.209 44.8901 106.315 41.1413 105.319 37.6123C104.324 34.0834 102.274 30.9427 99.445 28.6103C96.6158 26.2779 93.1418 24.8652 89.4878 24.5612C85.8338 24.2571 82.174 25.0762 78.9983 26.9089L81.0018 30.3712C82.8616 29.2989 84.9432 28.6688 87.0855 28.5294C89.2277 28.3901 91.3734 28.7453 93.3565 29.5676C95.3396 30.3898 97.107 31.6572 98.5221 33.2716C99.9372 34.8859 100.962 36.8041 101.518 38.8779C102.073 40.9516 102.144 43.1253 101.725 45.2308C101.306 47.3364 100.409 49.3174 99.1024 51.0208C97.7958 52.7242 96.115 54.1043 94.1898 55.0544C92.2647 56.0044 90.1468 56.499 88 56.4999Z" fill="#5F6A71"/>
<path d="M110.686 76.5H104V68.5C104 66.9087 103.368 65.3826 102.243 64.2574C101.117 63.1321 99.5913 62.5 98 62.5C96.4087 62.5 94.8826 63.1321 93.7574 64.2574C92.6321 65.3826 92 66.9087 92 68.5V85.6718L90.657 84.3282C89.4862 83.1575 87.8983 82.4998 86.2426 82.4998C84.5869 82.4998 82.999 83.1575 81.8282 84.3282C80.6575 85.499 79.9998 87.0869 79.9998 88.7426C79.9998 90.3983 80.6575 91.9862 81.8282 93.157L92 103.328V106.5H90C89.4696 106.5 88.9609 106.711 88.5858 107.086C88.2107 107.461 88 107.97 88 108.5V126.5H92V110.5H116V126.5H120V108.5C120 107.97 119.789 107.461 119.414 107.086C119.039 106.711 118.53 106.5 118 106.5H116V103.328L120.1 99.2282C121.962 97.3663 123.23 94.9941 123.744 92.4115C124.258 89.8288 123.994 87.1519 122.986 84.7191C121.979 82.2863 120.272 80.2069 118.083 78.7439C115.894 77.2809 113.319 76.5 110.686 76.5ZM117.272 96.4L112.586 101.086C112.211 101.461 112 101.97 112 102.5V106.5H96V102.5C96 102.237 95.9483 101.977 95.8478 101.735C95.7473 101.492 95.6 101.271 95.4143 101.086L84.657 90.3282C84.4457 90.1207 84.2777 89.8734 84.1625 89.6005C84.0474 89.3276 83.9874 89.0347 83.9861 88.7385C83.9848 88.4424 84.0422 88.1489 84.1549 87.875C84.2676 87.6012 84.4335 87.3523 84.6429 87.1429C84.8523 86.9335 85.1012 86.7676 85.375 86.6549C85.6489 86.5422 85.9424 86.4848 86.2385 86.4861C86.5347 86.4874 86.8276 86.5474 87.1005 86.6625C87.3734 86.7777 87.6207 86.9457 87.8282 87.157L92.5857 91.9143C92.8654 92.194 93.2218 92.3845 93.6098 92.4616C93.9978 92.5388 94.3999 92.4992 94.7654 92.3478C95.1308 92.1964 95.4432 91.9401 95.663 91.6112C95.8827 91.2823 96 90.8956 96 90.5V68.5C96 67.9696 96.2107 67.4609 96.5858 67.0858C96.9609 66.7107 97.4696 66.5 98 66.5C98.5304 66.5 99.0391 66.7107 99.4142 67.0858C99.7893 67.4609 100 67.9696 100 68.5V78.5C100 79.0304 100.211 79.5391 100.586 79.9142C100.961 80.2893 101.47 80.5 102 80.5H110.686C112.528 80.4999 114.329 81.0461 115.861 82.0696C117.393 83.093 118.587 84.5477 119.291 86.2496C119.996 87.9516 120.181 89.8244 119.821 91.6311C119.462 93.4379 118.575 95.0975 117.272 96.4Z" fill="#5F6A71"/>
<path d="M108 114.5H112V118.5H108V114.5Z" fill="#5F6A71"/>
</g>
<defs>
<clipPath id="clip0">
<rect width="128" height="128" fill="white" transform="translate(0 0.5)"/>
</clipPath>
</defs>
</svg>
