<svg width="128" height="129" viewBox="0 0 128 129" fill="none" xmlns="http://www.w3.org/2000/svg">
<g clip-path="url(#clip0)">
<path d="M122.932 28.7429L64.8152 0.686375C64.3 0.437875 63.7 0.437875 63.185 0.686375L5.06775 28.7429C4.41975 29.0556 4.008 29.7119 4.008 30.4314V98.5686C4.008 99.2881 4.41975 99.9444 5.06775 100.257L63.1847 128.314C63.4422 128.438 63.7212 128.5 64 128.5C64.2787 128.5 64.5575 128.438 64.8152 128.314L122.932 100.257C123.58 99.9444 123.992 99.2881 123.992 98.5686V30.4316C123.992 29.7116 123.58 29.0559 122.932 28.7429ZM64 4.45712L117.804 30.4314L102.207 37.9609C102.109 37.8856 102.004 37.8161 101.89 37.7609L48.4512 11.9634L64 4.45712ZM44.2167 14.0834L97.9427 40.0199L86.939 45.3321L33.2352 19.4061L44.2167 14.0834ZM99.1997 43.5769V63.2134L88.9215 68.1754V48.5389L99.1997 43.5769ZM120.242 97.3921L65.875 123.638V59.6646L78.8432 53.4041C79.7757 52.9539 80.1667 51.8331 79.7165 50.9004C79.2662 49.9681 78.1455 49.5766 77.2127 50.0271L64 56.4059L58.801 53.8959C57.8682 53.4451 56.7475 53.8366 56.2972 54.7691C55.847 55.7016 56.238 56.8226 57.1705 57.2729L62.125 59.6646V123.638L7.758 97.3916V33.4186L49.158 53.4049C49.4207 53.5319 49.6985 53.5919 49.9717 53.5919C50.6687 53.5919 51.3382 53.2014 51.6615 52.5316C52.1117 51.5991 51.7207 50.4781 50.7882 50.0279L10.1957 30.4314L28.822 21.4394L85.1455 48.6301C85.1537 48.6416 85.163 48.6519 85.1715 48.6631V71.1629C85.1715 71.8081 85.5032 72.4079 86.0497 72.7511C86.3532 72.9416 86.6995 73.0379 87.0467 73.0379C87.3247 73.0379 87.6035 72.9761 87.8617 72.8514L101.89 66.0791C102.538 65.7664 102.95 65.1104 102.95 64.3906V41.7669L120.242 33.4189V97.3921Z" fill="#5F6A71"/>
<path d="M23.2315 90.12L14.7028 86.0027C13.7698 85.552 12.6493 85.9435 12.199 86.876C11.7488 87.8085 12.1398 88.9295 13.0723 89.3797L21.601 93.497C21.8638 93.624 22.1415 93.684 22.4148 93.684C23.1118 93.684 23.7813 93.2935 24.1045 92.6237C24.555 91.691 24.164 90.5705 23.2315 90.12Z" fill="#5F6A71"/>
<path d="M31.0807 85.0105L14.7144 77.1095C13.7817 76.6593 12.6609 77.0503 12.2107 77.983C11.7607 78.9155 12.1517 80.0365 13.0842 80.4868L29.4504 88.3878C29.7132 88.5145 29.9909 88.5748 30.2642 88.5748C30.9612 88.5748 31.6307 88.1843 31.9539 87.5145C32.4042 86.5815 32.0132 85.4605 31.0807 85.0105Z" fill="#5F6A71"/>
</g>
<defs>
<clipPath id="clip0">
<rect width="128" height="128" fill="white" transform="translate(0 0.5)"/>
</clipPath>
</defs>
</svg>
