<svg width="128" height="129" viewBox="0 0 128 129" fill="none" xmlns="http://www.w3.org/2000/svg">
<g clip-path="url(#clip0)">
<path d="M85.3332 70.8999C78.274 70.8999 72.5332 76.6407 72.5332 83.6999C72.5332 90.7592 78.274 96.4999 85.3332 96.4999C92.3925 96.4999 98.1332 90.7592 98.1332 83.6999C98.1332 76.6407 92.3925 70.8999 85.3332 70.8999ZM85.3332 92.2332C80.627 92.2332 76.8 88.4059 76.8 83.6999C76.8 78.9937 80.6272 75.1667 85.3332 75.1667C90.0395 75.1667 93.8665 78.9939 93.8665 83.6999C93.8667 88.4062 90.0395 92.2332 85.3332 92.2332Z" fill="#5F6A71"/>
<path d="M89.6 92.2332V101.048L86.5153 98.9917C85.7985 98.5117 84.8663 98.5117 84.1493 98.9917L81.0665 101.048V92.2332H76.8V105.033C76.8 105.82 77.233 106.544 77.9285 106.915C78.6198 107.286 79.4645 107.243 80.1173 106.808L85.3333 103.331L90.5493 106.808C90.9055 107.045 91.3195 107.166 91.7333 107.166C92.0788 107.166 92.4245 107.083 92.7403 106.915C93.4335 106.543 93.8668 105.82 93.8668 105.033V92.2332H89.6Z" fill="#5F6A71"/>
<path d="M76.8 21.8332H49.0668V26.1H76.8V21.8332Z" fill="#5F6A71"/>
<path d="M98.1335 34.6331H29.8667V38.8999H98.1335V34.6331Z" fill="#5F6A71"/>
<path d="M76.8 47.4333H29.8667V51.7001H76.8V47.4333Z" fill="#5F6A71"/>
<path d="M98.1332 47.4333H85.3333V51.7001H98.1332V47.4333Z" fill="#5F6A71"/>
<path d="M98.1335 60.2332H29.8667V64.4999H98.1335V60.2332Z" fill="#5F6A71"/>
<path d="M55.4667 73.0334H29.8667V77.3001H55.4667V73.0334Z" fill="#5F6A71"/>
<path d="M40.5335 83.7001H29.8667V87.9669H40.5335V83.7001Z" fill="#5F6A71"/>
<path d="M55.4668 83.7001H49.0668V87.9669H55.4668V83.7001Z" fill="#5F6A71"/>
<path d="M117.333 0.5C111.452 0.5 106.666 5.285 106.666 11.1667V15.4335C106.666 16.611 107.62 17.5667 108.8 17.5667H125.866C127.046 17.5667 128 16.611 128 15.4335V11.1667C128 5.285 123.215 0.5 117.333 0.5ZM123.733 13.3H110.933V11.1667C110.933 7.63825 113.805 4.76675 117.333 4.76675C120.862 4.76675 123.733 7.63825 123.733 11.1667V13.3Z" fill="#5F6A71"/>
<path d="M117.333 0.5H27.7333C21.8518 0.5 17.0668 5.285 17.0668 11.1667V113.567H21.3335V11.1667C21.3335 7.63825 24.205 4.76675 27.7335 4.76675H108.805C107.463 6.55025 106.666 8.76675 106.666 11.1667L106.667 117.834C106.667 121.362 103.796 124.233 100.267 124.233H19.2V128.5H100.267C106.148 128.5 110.934 123.715 110.934 117.833L110.933 11.1667C110.933 7.63825 113.805 4.76675 117.333 4.76675C118.513 4.76675 119.467 3.811 119.467 2.6335C119.467 1.456 118.513 0.5 117.333 0.5Z" fill="#5F6A71"/>
<path d="M100.267 124.233C96.7385 124.233 93.8668 121.362 93.8668 117.833V113.567C93.8668 112.387 92.9132 111.433 91.7335 111.433H2.13325C0.95575 111.433 0 112.387 0 113.567V117.833C0 123.715 4.785 128.5 10.6667 128.5L100.267 128.5C101.447 128.5 102.4 127.547 102.4 126.367C102.4 125.187 101.447 124.233 100.267 124.233ZM10.6667 124.233C7.13825 124.233 4.26675 121.362 4.26675 117.833V115.7H89.6V117.833C89.6 120.233 90.3958 122.45 91.7375 124.233H10.6667Z" fill="#5F6A71"/>
</g>
<defs>
<clipPath id="clip0">
<rect width="128" height="128" fill="white" transform="translate(0 0.5)"/>
</clipPath>
</defs>
</svg>
