<svg width="29" height="29" viewBox="0 0 29 29" fill="none" xmlns="http://www.w3.org/2000/svg">
<path d="M8.63606 21.364C8.0737 20.8016 8.0737 19.8898 8.63605 19.3275L19.3275 8.63604C19.8899 8.07368 20.8016 8.07368 21.364 8.63604C21.9263 9.19839 21.9263 10.1102 21.364 10.6725L10.6725 21.364C10.1102 21.9263 9.19841 21.9263 8.63606 21.364Z" fill="#5F6A71"/>
<path d="M21.364 21.364C20.8016 21.9263 19.8899 21.9263 19.3275 21.364L8.63606 10.6725C8.0737 10.1102 8.0737 9.19839 8.63606 8.63604C9.19841 8.07368 10.1102 8.07368 10.6725 8.63604L21.364 19.3275C21.9263 19.8898 21.9263 20.8016 21.364 21.364Z" fill="#5F6A71"/>
</svg>
