<svg width="25" height="25" viewBox="0 0 25 25" fill="none" xmlns="http://www.w3.org/2000/svg">
<path d="M12.7946 0.5C6.16753 0.5 0.794556 5.87297 0.794556 12.5C0.794556 19.1278 6.16753 24.5 12.7946 24.5C19.4223 24.5 24.7946 19.1285 24.7946 12.5C24.7946 5.87297 19.4223 0.5 12.7946 0.5ZM12.7946 22.25C7.40959 22.25 3.04459 17.885 3.04459 12.5C3.04459 7.11503 7.40959 2.75004 12.7946 2.75004C18.1795 2.75004 22.5445 7.11503 22.5445 12.5C22.5445 17.885 18.1795 22.25 12.7946 22.25ZM12.7953 5.76273C11.9358 5.76273 11.2855 6.21126 11.2855 6.93574V13.5807C11.2855 14.306 11.9358 14.753 12.7953 14.753C13.6338 14.753 14.3051 14.2872 14.3051 13.5807V6.93574C14.305 6.22846 13.6338 5.76273 12.7953 5.76273ZM12.7953 16.25C11.9696 16.25 11.2975 16.922 11.2975 17.7485C11.2975 18.5735 11.9696 19.2455 12.7953 19.2455C13.6211 19.2455 14.2923 18.5735 14.2923 17.7485C14.2923 16.922 13.6211 16.25 12.7953 16.25Z" fill="#F32D1A"/>
</svg>
