<svg width="24" height="25" viewBox="0 0 24 25" fill="none" xmlns="http://www.w3.org/2000/svg">
<path d="M21.8906 3.35938H2.10938C0.947719 3.35938 0 4.30606 0 5.46875V19.5312C0 20.69 0.9435 21.6406 2.10938 21.6406H21.8906C23.0494 21.6406 24 20.6971 24 19.5312V5.46875C24 4.31 23.0565 3.35938 21.8906 3.35938ZM21.5993 4.76562L12.0447 14.3203L2.40745 4.76562H21.5993ZM1.40625 19.2401V5.75323L8.1787 12.4676L1.40625 19.2401ZM2.40061 20.2344L9.17733 13.4577L11.5519 15.8118C11.8267 16.0843 12.2703 16.0835 12.5441 15.8097L14.8594 13.4944L21.5994 20.2344H2.40061ZM22.5938 19.24L15.8537 12.5L22.5938 5.75994V19.24Z" fill="#5F6A71"/>
</svg>
