<svg width="25" height="25" viewBox="0 0 25 25" fill="none" xmlns="http://www.w3.org/2000/svg">
<g clip-path="url(#clip0)">
<path d="M12.7945 0.5C7.90589 0.5 3.92883 4.47705 3.92883 9.36571C3.92883 10.9751 4.65061 12.706 4.68085 12.779C4.91397 13.3323 5.37394 14.1918 5.70563 14.6956L11.7844 23.906C12.0331 24.2836 12.4013 24.5 12.7945 24.5C13.1878 24.5 13.556 24.2836 13.8047 23.9065L19.884 14.6956C20.2162 14.1918 20.6756 13.3323 20.9088 12.779C20.939 12.7065 21.6603 10.9756 21.6603 9.36571C21.6603 4.47705 17.6832 0.5 12.7945 0.5ZM19.9471 12.3743C19.739 12.8703 19.3108 13.6698 19.0131 14.1214L12.9338 23.3323C12.8138 23.5143 12.7758 23.5143 12.6558 23.3323L6.57655 14.1214C6.27877 13.6698 5.85061 12.8698 5.64252 12.3738C5.63366 12.3524 4.97186 10.7592 4.97186 9.36571C4.97186 5.05228 8.48112 1.54302 12.7945 1.54302C17.108 1.54302 20.6172 5.05228 20.6172 9.36571C20.6172 10.7613 19.9539 12.3587 19.9471 12.3743Z" fill="#5F6A71"/>
<path d="M12.7946 4.67285C10.2063 4.67285 8.10095 6.77872 8.10095 9.36646C8.10095 11.9542 10.2063 14.0601 12.7946 14.0601C15.3828 14.0601 17.4882 11.9542 17.4882 9.36646C17.4882 6.77872 15.3828 4.67285 12.7946 4.67285ZM12.7946 13.017C10.782 13.017 9.14398 11.3795 9.14398 9.36646C9.14398 7.35342 10.782 5.71588 12.7946 5.71588C14.8071 5.71588 16.4451 7.35342 16.4451 9.36646C16.4451 11.3795 14.8071 13.017 12.7946 13.017Z" fill="#5F6A71"/>
</g>
<defs>
<clipPath id="clip0">
<rect width="24" height="24" fill="white" transform="translate(0.794556 0.5)"/>
</clipPath>
</defs>
</svg>
