<svg width="24" height="24" viewBox="0 0 24 24" fill="none" xmlns="http://www.w3.org/2000/svg">
<path d="M12 0C7.11133 0 3.13428 3.97705 3.13428 8.86571C3.13428 10.4751 3.85605 12.206 3.8863 12.279C4.11941 12.8323 4.57939 13.6918 4.91107 14.1956L10.9898 23.406C11.2386 23.7836 11.6068 24 12 24C12.3932 24 12.7614 23.7836 13.0102 23.4065L19.0894 14.1956C19.4216 13.6918 19.8811 12.8323 20.1142 12.279C20.1444 12.2065 20.8657 10.4756 20.8657 8.86571C20.8657 3.97705 16.8886 0 12 0ZM19.1525 11.8743C18.9444 12.3703 18.5163 13.1698 18.2185 13.6214L12.1392 22.8323C12.0193 23.0143 11.9812 23.0143 11.8613 22.8323L5.782 13.6214C5.48421 13.1698 5.05605 12.3698 4.84797 11.8738C4.8391 11.8524 4.1773 10.2592 4.1773 8.86571C4.1773 4.55228 7.68656 1.04302 12 1.04302C16.3134 1.04302 19.8227 4.55228 19.8227 8.86571C19.8227 10.2613 19.1593 11.8587 19.1525 11.8743Z" fill="#D1D1D1"/>
<path d="M12.0002 4.17285C9.41198 4.17285 7.30664 6.27872 7.30664 8.86646C7.30664 11.4542 9.41198 13.5601 12.0002 13.5601C14.5885 13.5601 16.6939 11.4542 16.6939 8.86646C16.6939 6.27872 14.5885 4.17285 12.0002 4.17285ZM12.0002 12.517C9.98773 12.517 8.34966 10.8795 8.34966 8.86646C8.34966 6.85342 9.98773 5.21588 12.0002 5.21588C14.0128 5.21588 15.6508 6.85342 15.6508 8.86646C15.6508 10.8795 14.0128 12.517 12.0002 12.517Z" fill="#D1D1D1"/>
</svg>
