<svg width="24" height="25" viewBox="0 0 24 25" fill="none" xmlns="http://www.w3.org/2000/svg">
<g clip-path="url(#clip0)">
<path d="M4.89041 16.4536C7.25759 19.2833 10.1072 21.5112 13.3595 23.0877C14.5978 23.6745 16.2539 24.3707 18.0989 24.4901C18.2132 24.495 18.3227 24.5 18.437 24.5C19.6753 24.5 20.6699 24.0723 21.4805 23.1921C21.4855 23.1871 21.4955 23.1772 21.5004 23.1672C21.7889 22.8191 22.1171 22.5058 22.4602 22.1726C22.694 21.9488 22.9327 21.7151 23.1614 21.4764C24.2207 20.3724 24.2207 18.97 23.1515 17.9007L20.1627 14.9119C19.6554 14.3848 19.0487 14.1063 18.4122 14.1063C17.7756 14.1063 17.1639 14.3848 16.6418 14.907L14.8614 16.6873C14.6973 16.5928 14.5282 16.5083 14.3691 16.4287C14.1701 16.3293 13.9861 16.2348 13.822 16.1303C12.2008 15.1009 10.7288 13.7582 9.32141 12.0325C8.61026 11.1324 8.13285 10.3765 7.79965 9.60568C8.26712 9.18297 8.70475 8.74037 9.12746 8.30771C9.27665 8.15354 9.43082 7.99938 9.58498 7.84521C10.1221 7.30812 10.4105 6.68649 10.4105 6.05491C10.4105 5.42333 10.127 4.8017 9.58498 4.26461L8.10301 2.78264C7.92895 2.60858 7.76484 2.43949 7.59576 2.26544C7.26754 1.92727 6.9244 1.57915 6.58623 1.26585C6.074 0.763572 5.47226 0.5 4.83571 0.5C4.20413 0.5 3.59742 0.763572 3.0653 1.27082L1.20537 3.13075C0.529037 3.80709 0.146112 4.62764 0.0665425 5.5775C-0.0279457 6.76606 0.190869 8.02922 0.757798 9.55595C1.62808 11.9182 2.94097 14.1113 4.89041 16.4536ZM1.27997 5.68193C1.33965 5.02051 1.59327 4.4685 2.07069 3.99109L3.92067 2.14111C4.2091 1.86262 4.52738 1.7184 4.83571 1.7184C5.13907 1.7184 5.4474 1.86262 5.73086 2.15106C6.06406 2.45939 6.37736 2.78264 6.71553 3.12578C6.88461 3.29983 7.05867 3.47389 7.23273 3.65292L8.7147 5.13489C9.02303 5.44322 9.18217 5.75653 9.18217 6.06486C9.18217 6.37319 9.02303 6.68649 8.7147 6.99482C8.56053 7.14898 8.40637 7.30812 8.2522 7.46229C7.78971 7.92976 7.35705 8.37236 6.87964 8.79507C6.86969 8.80501 6.86472 8.80999 6.85477 8.81993C6.44201 9.2327 6.50666 9.62557 6.60612 9.92395C6.61109 9.93887 6.61607 9.94882 6.62104 9.96374C7.00397 10.8838 7.53608 11.759 8.36658 12.8034C9.8585 14.6434 11.43 16.0707 13.1606 17.1697C13.3745 17.309 13.6032 17.4184 13.8171 17.5278C14.016 17.6272 14.2 17.7217 14.3641 17.8261C14.384 17.8361 14.3989 17.846 14.4188 17.856C14.5829 17.9405 14.7421 17.9803 14.9012 17.9803C15.299 17.9803 15.5576 17.7267 15.6422 17.6421L17.5021 15.7822C17.7905 15.4938 18.1038 15.3396 18.4122 15.3396C18.7901 15.3396 19.0985 15.5734 19.2924 15.7822L22.2912 18.776C22.8879 19.3728 22.883 20.0193 22.2762 20.6509C22.0674 20.8746 21.8486 21.0885 21.6148 21.3123C21.2667 21.6504 20.9037 21.9986 20.5755 22.3914C20.0035 23.0081 19.3222 23.2965 18.442 23.2965C18.3575 23.2965 18.268 23.2915 18.1834 23.2866C16.5522 23.1821 15.0355 22.5456 13.8966 22.0035C10.8034 20.5066 8.08809 18.3831 5.8353 15.6877C3.98034 13.4548 2.7321 11.3761 1.90658 9.14816C1.39435 7.78056 1.2004 6.68152 1.27997 5.68193Z" fill="#5F6A71"/>
</g>
<defs>
<clipPath id="clip0">
<rect width="24" height="24" fill="white" transform="translate(0 0.5)"/>
</clipPath>
</defs>
</svg>
