<svg width="42" height="42" viewBox="0 0 42 42" fill="none" xmlns="http://www.w3.org/2000/svg">
<path d="M41.1218 10.5811C40.6378 8.77696 39.2167 7.35916 37.4085 6.87621C34.1345 6 20.9999 6 20.9999 6C20.9999 6 7.86548 6 4.59136 6.87621C2.78318 7.35916 1.3622 8.77696 0.878169 10.5811C2.62869e-07 13.8479 0 20.6678 0 20.6678C0 20.6678 2.62869e-07 27.4878 0.878169 30.7546C1.3622 32.5588 2.78318 33.9766 4.59136 34.4594C7.86548 35.3357 20.9999 35.3357 20.9999 35.3357C20.9999 35.3357 34.1345 35.3357 37.4085 34.4594C39.2167 33.9766 40.6378 32.5588 41.1218 30.7546C42 27.4878 42 20.6678 42 20.6678C42 20.6678 41.9965 13.8479 41.1218 10.5811Z" fill="white"/>
<path d="M16.7959 26.9536L27.7073 20.6685L16.7959 14.3832V26.9536Z" fill="#181818"/>
</svg>
