<svg width="42" height="42" viewBox="0 0 42 42" fill="none" xmlns="http://www.w3.org/2000/svg">
<ellipse cx="20.5644" cy="20.5646" rx="16.6845" ry="15.6498" fill="#181818"/>
<path d="M20.5051 -5.9206e-06H20.4949C9.19169 -5.9206e-06 0 9.19424 0 20.5C0 24.9844 1.44525 29.1409 3.90269 32.5156L1.34787 40.1313L9.22756 37.6124C12.4691 39.7599 16.3359 41 20.5051 41C31.8083 41 41 31.8032 41 20.5C41 9.1968 31.8083 -5.9206e-06 20.5051 -5.9206e-06ZM32.4337 28.9486C31.939 30.3451 29.9761 31.5034 28.4103 31.8416C27.3393 32.0697 25.9402 32.2516 21.2303 30.299C15.6563 27.9897 11.9184 22.5765 11.1511 21.4653C11.0891 21.3755 11.0465 21.3138 11.0239 21.2841C11.0161 21.2735 11.0071 21.2611 10.9967 21.247C10.6211 20.7347 8.5895 17.9639 8.5895 15.1008C8.5895 12.2435 9.99887 10.8101 10.6316 10.1667C10.6503 10.1476 10.6683 10.1293 10.6856 10.1116C11.1802 9.6068 11.9976 9.37619 12.7817 9.37619C13.0127 9.37619 13.2224 9.3868 13.4128 9.39643C13.4315 9.39738 13.4501 9.39832 13.4685 9.39924C14.0707 9.42486 14.3731 9.46074 14.7702 10.4114C14.9184 10.7684 15.1302 11.2824 15.3582 11.8354C15.8912 13.1286 16.5122 14.6353 16.6127 14.8471C16.7587 15.1495 16.9048 15.5595 16.6998 15.9567C16.5195 16.3413 16.3596 16.5252 16.0909 16.8341C16.0731 16.8545 16.0549 16.8755 16.0361 16.8971C15.9096 17.0429 15.7858 17.1743 15.6625 17.3053C15.491 17.4874 15.3203 17.6686 15.1444 17.8862C15.1393 17.8922 15.1343 17.8981 15.1292 17.904C14.8565 18.2245 14.5613 18.5711 14.9035 19.1624C15.252 19.7517 16.4564 21.7172 18.2296 23.2957C20.3325 25.1679 22.0697 25.8693 22.8525 26.1853C22.9215 26.2132 22.9831 26.2381 23.0369 26.2605C23.5314 26.4655 24.1208 26.4168 24.4821 26.0323C24.8786 25.605 25.3555 24.9343 25.85 24.2389C25.9275 24.1298 26.0055 24.0201 26.0837 23.9107C26.4937 23.3315 27.0113 23.2598 27.5547 23.4648C28.1082 23.657 31.037 25.1048 31.6392 25.4046C31.7636 25.467 31.8793 25.5228 31.9858 25.574C32.3949 25.771 32.6688 25.9029 32.7846 26.1042C32.9281 26.3579 32.9281 27.5493 32.4337 28.9486Z" fill="white"/>
<path d="M20.5051 -5.9206e-06H20.4949C9.19169 -5.9206e-06 0 9.19424 0 20.5C0 24.9844 1.44525 29.1409 3.90269 32.5156L1.34787 40.1313L9.22756 37.6124C12.4691 39.7599 16.3359 41 20.5051 41C31.8083 41 41 31.8032 41 20.5C41 9.1968 31.8083 -5.9206e-06 20.5051 -5.9206e-06ZM32.4337 28.9486C31.939 30.3451 29.9761 31.5034 28.4103 31.8416C27.3393 32.0697 25.9402 32.2516 21.2303 30.299C15.6563 27.9897 11.9184 22.5765 11.1511 21.4653C11.0891 21.3755 11.0465 21.3138 11.0239 21.2841C11.0161 21.2735 11.0071 21.2611 10.9967 21.247C10.6211 20.7347 8.5895 17.9639 8.5895 15.1008C8.5895 12.2435 9.99887 10.8101 10.6316 10.1667C10.6503 10.1476 10.6683 10.1293 10.6856 10.1116C11.1802 9.6068 11.9976 9.37619 12.7817 9.37619C13.0127 9.37619 13.2224 9.3868 13.4128 9.39643C13.4315 9.39738 13.4501 9.39832 13.4685 9.39924C14.0707 9.42486 14.3731 9.46074 14.7702 10.4114C14.9184 10.7684 15.1302 11.2824 15.3582 11.8354C15.8912 13.1286 16.5122 14.6353 16.6127 14.8471C16.7587 15.1495 16.9048 15.5595 16.6998 15.9567C16.5195 16.3413 16.3596 16.5252 16.0909 16.8341C16.0731 16.8545 16.0549 16.8755 16.0361 16.8971C15.9096 17.0429 15.7858 17.1743 15.6625 17.3053C15.491 17.4874 15.3203 17.6686 15.1444 17.8862C15.1393 17.8922 15.1343 17.8981 15.1292 17.904C14.8565 18.2245 14.5613 18.5711 14.9035 19.1624C15.252 19.7517 16.4564 21.7172 18.2296 23.2957C20.3325 25.1679 22.0697 25.8693 22.8525 26.1853C22.9215 26.2132 22.9831 26.2381 23.0369 26.2605C23.5314 26.4655 24.1208 26.4168 24.4821 26.0323C24.8786 25.605 25.3555 24.9343 25.85 24.2389C25.9275 24.1298 26.0055 24.0201 26.0837 23.9107C26.4937 23.3315 27.0113 23.2598 27.5547 23.4648C28.1082 23.657 31.037 25.1048 31.6392 25.4046C31.7636 25.467 31.8793 25.5228 31.9858 25.574C32.3949 25.771 32.6688 25.9029 32.7846 26.1042C32.9281 26.3579 32.9281 27.5493 32.4337 28.9486Z" stroke="#181818"/>
</svg>
