<svg width="18" height="18" viewBox="0 0 18 18" fill="none" xmlns="http://www.w3.org/2000/svg">
<path d="M8.6862 0.692322C6.27051 0.692322 4.30519 2.65764 4.30519 5.07333C4.30519 7.48902 6.27051 9.45434 8.6862 9.45434C11.1019 9.45434 13.0672 7.48902 13.0672 5.07333C13.0672 2.65764 11.1019 0.692322 8.6862 0.692322ZM8.6862 8.48078C6.80733 8.48078 5.27875 6.9522 5.27875 5.07333C5.27875 3.19446 6.80733 1.66588 8.6862 1.66588C10.5651 1.66588 12.0937 3.19446 12.0937 5.07333C12.0937 6.9522 10.5651 8.48078 8.6862 8.48078Z" fill="white"/>
<path d="M14.137 12.3164C12.9376 11.0986 11.3476 10.4279 9.65976 10.4279H7.71265C6.02489 10.4279 4.43481 11.0986 3.23538 12.3164C2.04184 13.5283 1.38452 15.128 1.38452 16.8209C1.38452 17.0898 1.60247 17.3077 1.8713 17.3077H15.5011C15.7699 17.3077 15.9879 17.0898 15.9879 16.8209C15.9879 15.128 15.3306 13.5283 14.137 12.3164ZM2.3795 16.3341C2.62337 13.5729 4.92214 11.4015 7.71265 11.4015H9.65976C12.4503 11.4015 14.749 13.5729 14.9929 16.3341H2.3795Z" fill="white"/>
</svg>
